<svg xmlns="http://www.w3.org/2000/svg" width="1462.382" height="325" viewBox="0 0 1462.382 325">
  <g id="Subtraction_2" data-name="Subtraction 2" transform="translate(-285.809 -1730)" fill="none" opacity="0.26">
    <path d="M1017,2055c-17.971,0-36.152-.491-54.037-1.458-17.735-.959-35.66-2.413-53.277-4.322-17.48-1.894-35.123-4.287-52.44-7.112-17.192-2.8-34.529-6.11-51.529-9.827-16.885-3.691-33.891-7.885-50.543-12.466-16.546-4.551-33.194-9.608-49.481-15.03-16.19-5.39-32.455-11.284-48.344-17.519-15.808-6.2-31.665-12.91-47.132-19.933-15.4-6.991-30.821-14.484-45.845-22.271-14.964-7.756-29.93-16.011-44.483-24.535-14.506-8.5-28.988-17.487-43.045-26.723-14.019-9.211-27.993-18.912-41.533-28.836-13.513-9.9-26.953-20.292-39.945-30.874s-25.857-21.618-38.282-32.836-24.713-22.9-36.544-34.724-23.516-24.121-34.73-36.536H1748.191c-11.222,12.424-22.907,24.716-34.73,36.536s-24.126,23.511-36.544,34.724-25.3,22.267-38.282,32.836c-12.994,10.584-26.434,20.971-39.945,30.874-13.54,9.923-27.513,19.625-41.533,28.836-14.057,9.235-28.54,18.226-43.045,26.723-14.552,8.524-29.519,16.778-44.483,24.535-15.024,7.787-30.448,15.28-45.845,22.271-15.468,7.023-31.325,13.73-47.132,19.933-15.889,6.235-32.154,12.129-48.344,17.519-16.287,5.422-32.935,10.479-49.481,15.03-16.652,4.581-33.657,8.775-50.543,12.466-17,3.716-34.337,7.022-51.529,9.827-17.317,2.825-34.961,5.218-52.44,7.112-17.617,1.909-35.542,3.363-53.277,4.322C1053.152,2054.509,1034.971,2055,1017,2055Z" stroke="none"/>
    <path d="M 1017 2054 C 1034.94873046875 2054 1053.111328125 2053.510009765625 1070.9833984375 2052.543701171875 C 1088.697265625 2051.5859375 1106.604125976562 2050.133056640625 1124.20654296875 2048.225830078125 C 1141.67041015625 2046.333251953125 1159.296020507812 2043.942749023438 1176.593872070312 2041.12109375 C 1193.7705078125 2038.319091796875 1211.08984375 2035.016357421875 1228.0703125 2031.304565429688 C 1244.934204101562 2027.618408203125 1261.921875 2023.428588867188 1278.561279296875 2018.851440429688 C 1295.087646484375 2014.3056640625 1311.718505859375 2009.254028320312 1327.991943359375 2003.837036132812 C 1344.16650390625 1998.452392578125 1360.415283203125 1992.564208984375 1376.286743164062 1986.336059570312 C 1392.076416015625 1980.140014648438 1407.917846679688 1973.440551757812 1423.370849609375 1966.423828125 C 1438.75146484375 1959.43994140625 1454.160400390625 1951.954711914062 1469.16943359375 1944.175415039062 C 1484.11962890625 1936.426513671875 1499.070556640625 1928.180419921875 1513.60693359375 1919.665771484375 C 1528.095947265625 1911.179077148438 1542.563842773438 1902.197509765625 1556.608520507812 1892.969970703125 C 1570.61328125 1883.769287109375 1584.57275390625 1874.077270507812 1598.099243164062 1864.163452148438 C 1611.59423828125 1854.27294921875 1625.02001953125 1843.89599609375 1638.003784179688 1833.321044921875 C 1650.966674804688 1822.762939453125 1663.833618164062 1811.726196289062 1676.2470703125 1800.517578125 C 1688.650512695312 1789.317993164062 1700.933227539062 1777.647094726562 1712.753784179688 1765.8291015625 C 1724.040771484375 1754.54443359375 1735.1962890625 1742.835327148438 1745.936889648438 1730.999877929688 L 288.0632934570312 1730.999877929688 C 298.8044128417969 1742.835693359375 309.9599304199219 1754.544799804688 321.2463684082031 1765.828857421875 C 333.06689453125 1777.647094726562 345.3496398925781 1789.317993164062 357.7530822753906 1800.517578125 C 370.1663513183594 1811.726196289062 383.0332641601562 1822.762939453125 395.9963684082031 1833.321044921875 C 408.97509765625 1843.892211914062 422.4009094238281 1854.26904296875 435.9007263183594 1864.163452148438 C 449.4272766113281 1874.077270507812 463.38671875 1883.769287109375 477.3914489746094 1892.969970703125 C 491.4361877441406 1902.197509765625 505.9039916992188 1911.179077148438 520.39306640625 1919.665771484375 C 534.929443359375 1928.180419921875 549.88037109375 1936.426513671875 564.83056640625 1944.175415039062 C 579.8403930664062 1951.955078125 595.2494506835938 1959.440551757812 610.6292724609375 1966.423828125 C 626.078369140625 1973.43896484375 641.9196166992188 1980.13818359375 657.7132568359375 1986.336059570312 C 673.584716796875 1992.564208984375 689.8334350585938 1998.452392578125 706.0079956054688 2003.837036132812 C 722.2814331054688 2009.254028320312 738.912353515625 2014.3056640625 755.438720703125 2018.851440429688 C 772.0781860351562 2023.428588867188 789.0657958984375 2027.618408203125 805.9298095703125 2031.304565429688 C 822.91015625 2035.016357421875 840.2294311523438 2038.319091796875 857.4063720703125 2041.12109375 C 874.7039794921875 2043.942749023438 892.3296508789062 2046.333251953125 909.7932739257812 2048.225830078125 C 927.3958129882812 2050.133056640625 945.302734375 2051.5859375 963.0165405273438 2052.543701171875 C 980.8887329101562 2053.510009765625 999.05126953125 2054 1017 2054 M 1017 2055 C 999.0287475585938 2055 980.8480224609375 2054.50927734375 962.9625244140625 2053.542236328125 C 945.2276611328125 2052.583251953125 927.302734375 2051.12890625 909.6856079101562 2049.219970703125 C 892.205810546875 2047.32568359375 874.5623779296875 2044.932861328125 857.2453002929688 2042.108032226562 C 840.0532836914062 2039.303588867188 822.7163696289062 2035.997680664062 805.7161865234375 2032.281494140625 C 788.8307495117188 2028.590576171875 771.8256225585938 2024.396240234375 755.1734619140625 2019.815673828125 C 738.6270751953125 2015.264404296875 721.979248046875 2010.207397460938 705.6921997070312 2004.785766601562 C 689.5023803710938 1999.396240234375 673.2369384765625 1993.501953125 657.3480224609375 1987.266967773438 C 641.5403442382812 1981.063598632812 625.6827392578125 1974.357421875 610.2158203125 1967.334350585938 C 594.8192749023438 1960.343505859375 579.3947143554688 1952.850341796875 564.370361328125 1945.063232421875 C 549.4061889648438 1937.30712890625 534.4400024414062 1929.052490234375 519.8876342773438 1920.528686523438 C 505.3819885253906 1912.032348632812 490.8996276855469 1903.04150390625 476.8423767089844 1893.805786132812 C 462.8229064941406 1884.59521484375 448.8492736816406 1874.893432617188 435.3096313476562 1864.969970703125 C 421.7963562011719 1855.065795898438 408.3569030761719 1844.678344726562 395.3648986816406 1834.096313476562 C 382.387451171875 1823.526489257812 369.5076293945312 1812.478759765625 357.0829162597656 1801.259765625 C 344.665283203125 1790.047485351562 332.3701782226562 1778.364501953125 320.5392761230469 1766.5361328125 C 308.7081909179688 1754.707397460938 297.0232849121094 1742.414672851562 285.8088989257812 1729.999877929688 L 1748.191284179688 1729.999877929688 C 1736.968872070312 1742.423583984375 1725.283813476562 1754.715576171875 1713.4609375 1766.5361328125 C 1701.630004882812 1778.364501953125 1689.3349609375 1790.047485351562 1676.917236328125 1801.259765625 C 1664.492309570312 1812.478759765625 1651.612548828125 1823.526489257812 1638.63525390625 1834.096313476562 C 1625.640869140625 1844.680053710938 1612.201416015625 1855.067626953125 1598.690307617188 1864.969970703125 C 1585.150756835938 1874.893432617188 1571.177124023438 1884.59521484375 1557.157592773438 1893.805786132812 C 1543.100341796875 1903.04150390625 1528.618041992188 1912.032348632812 1514.1123046875 1920.528686523438 C 1499.56005859375 1929.052490234375 1484.593872070312 1937.30712890625 1469.629638671875 1945.063232421875 C 1454.605590820312 1952.850219726562 1439.181030273438 1960.34326171875 1423.784423828125 1967.334350585938 C 1408.316772460938 1974.357666015625 1392.459106445312 1981.06396484375 1376.651977539062 1987.266967773438 C 1360.763061523438 1993.501953125 1344.497680664062 1999.396240234375 1328.307861328125 2004.785766601562 C 1312.020751953125 2010.207397460938 1295.372924804688 2015.264404296875 1278.826538085938 2019.815673828125 C 1262.17431640625 2024.396240234375 1245.169311523438 2028.590576171875 1228.283813476562 2032.281494140625 C 1211.28369140625 2035.997680664062 1193.94677734375 2039.303588867188 1176.754760742188 2042.108032226562 C 1159.437622070312 2044.932861328125 1141.794189453125 2047.32568359375 1124.314331054688 2049.219970703125 C 1106.697265625 2051.12890625 1088.772338867188 2052.583251953125 1071.037475585938 2053.542236328125 C 1053.151977539062 2054.50927734375 1034.971313476562 2055 1017 2055 Z" stroke="none" fill="#fff"/>
  </g>
</svg>
