<svg xmlns="http://www.w3.org/2000/svg" width="53.188" height="27" viewBox="0 0 53.188 27">
  <g id="Group_10507" data-name="Group 10507" transform="translate(-933.405 -967)">
    <path id="Subtraction_1" data-name="Subtraction 1" d="M62.593,27H9.4c.192-.34.4-.676.627-1,2.107-3.059,3.864-6.15,5.564-9.14,2.572-4.523,5-8.8,8.1-11.866A16.512,16.512,0,0,1,36.031,0a17.2,17.2,0,0,1,13,5.234C52.267,8.5,54.736,13,57.594,18.206c1.377,2.51,2.8,5.106,4.437,7.794.2.33.389.666.56,1Z" transform="translate(924 967)" fill="#008100"/>
    <path id="Path_10352" data-name="Path 10352" d="M644,95.608l4.432,5.046,4.344-5.046" transform="translate(311.612 885.369)" fill="none" stroke="#fff" stroke-linecap="round" stroke-linejoin="round" stroke-width="1.5"/>
  </g>
</svg>
