<svg xmlns="http://www.w3.org/2000/svg" width="89.356" height="71.925" viewBox="0 0 89.356 71.925">
  <g id="Group_674" data-name="Group 674" transform="translate(-5542.467 499.269)">
    <g id="Group_663" data-name="Group 663" transform="translate(5542.467 -499.269)">
      <path id="Path_426" data-name="Path 426" d="M638.083,185.457a395.686,395.686,0,0,1,38.084-18.441c-5.157-17.283-11.311-33.174-17.463-49.066a368.771,368.771,0,0,0-35.094,17.369l-6.74,1.653c-4.777-3.029-18.8-11.1-28.75-17.406,6.2,20.942,10.4,35.43,16.053,54.494,0,0,24.6,11.584,25.281,12.1a6.951,6.951,0,0,0,5.116,2.4C636.511,188.479,638.44,186.936,638.083,185.457Z" transform="translate(-587.466 -117.295)" fill="none"/>
      <path id="Path_427" data-name="Path 427" d="M634.534,189.383a7.657,7.657,0,0,1-5.341-2.558c-1.012-.6-15.526-7.485-25.137-12.01a.656.656,0,0,1-.349-.406c-2.762-9.321-5.136-17.409-7.65-25.97-2.571-8.762-5.232-17.822-8.4-28.525a.655.655,0,0,1,.979-.738c5.866,3.721,13.221,8.094,19.13,11.609,3.948,2.348,7.379,4.388,9.383,5.649l6.388-1.568c12.636-6.909,23.442-12.505,35.08-17.357a.654.654,0,0,1,.508,0,.662.662,0,0,1,.354.366c6.055,15.638,12.315,31.808,17.479,49.116a.655.655,0,0,1-.374.791,396.469,396.469,0,0,0-37.64,18.2,2.678,2.678,0,0,1-.577,1.591,4.916,4.916,0,0,1-3.6,1.805C634.685,189.381,634.61,189.383,634.534,189.383ZM604.88,173.755c4.665,2.2,24.448,11.525,25.132,12.044a.555.555,0,0,1,.079.069,6.282,6.282,0,0,0,4.614,2.2,3.658,3.658,0,0,0,2.615-1.285,1.25,1.25,0,0,0,.29-1.012.654.654,0,0,1,.321-.726,397.212,397.212,0,0,1,37.6-18.243c-5.048-16.817-11.131-32.578-17.035-47.828a368.149,368.149,0,0,0-34.413,17.079.611.611,0,0,1-.157.061l-6.742,1.655a.663.663,0,0,1-.507-.082c-1.947-1.236-5.487-3.34-9.587-5.778-5.433-3.231-12.085-7.187-17.69-10.7,2.956,9.985,5.473,18.556,7.911,26.86C599.8,156.544,602.154,164.554,604.88,173.755Z" transform="translate(-587.628 -117.458)" fill="#fff"/>
    </g>
    <g id="Group_664" data-name="Group 664" transform="translate(5579.193 -479.504)">
      <path id="Path_432" data-name="Path 432" d="M627.548,177.477a.656.656,0,0,1-.623-.452,424.922,424.922,0,0,1-11.674-43.92.654.654,0,1,1,1.281-.267,423.8,423.8,0,0,0,11.638,43.783.654.654,0,0,1-.42.825A.624.624,0,0,1,627.548,177.477Z" transform="translate(-615.238 -132.316)" fill="#fff"/>
    </g>
    <g id="Group_665" data-name="Group 665" transform="translate(5574.988 -461.407)">
      <path id="Path_433" data-name="Path 433" d="M620.609,174.864a.655.655,0,0,1-.629-.475L612.1,146.755a.654.654,0,1,1,1.258-.358l7.88,27.633a.655.655,0,0,1-.451.809A.642.642,0,0,1,620.609,174.864Z" transform="translate(-612.076 -145.921)" fill="#fff"/>
    </g>
    <g id="Group_666" data-name="Group 666" transform="translate(5590.225 -485.106)">
      <path id="Path_484" data-name="Path 484" d="M628.741,152.773a.642.642,0,0,1-.247-.049.653.653,0,0,1-.375-.4l-4.556-14.177a.654.654,0,0,1,.323-.782l17.866-9.181a.651.651,0,0,1,.539-.028.66.66,0,0,1,.376.386l5.02,13.754a.656.656,0,0,1-.311.8l-18.33,9.6A.665.665,0,0,1,628.741,152.773Zm-3.763-14.5,4.149,12.908L646.26,142.2l-4.569-12.52Z" transform="translate(-623.53 -128.105)" fill="#fff"/>
    </g>
    <g id="Group_670" data-name="Group 670" transform="translate(5595.93 -482.11)">
      <path id="Path_485" data-name="Path 485" d="M628.037,148.793a.215.215,0,0,1-.114-.033.218.218,0,0,1-.07-.3l11.155-18a.218.218,0,1,1,.371.23l-11.155,18A.22.22,0,0,1,628.037,148.793Z" transform="translate(-627.819 -130.357)" fill="#fff"/>
    </g>
    <g id="Group_669" data-name="Group 669" transform="translate(5595.189 -479.916)">
      <path id="Path_486" data-name="Path 486" d="M627.48,144.288a.22.22,0,0,1-.113-.032.217.217,0,0,1-.073-.3c2.447-4.043,5.087-8.032,7.844-11.86a.218.218,0,0,1,.354.255c-2.751,3.818-5.383,7.8-7.826,11.83A.219.219,0,0,1,627.48,144.288Z" transform="translate(-627.262 -132.006)" fill="#fff"/>
    </g>
    <g id="Group_668" data-name="Group 668" transform="translate(5594.038 -477.806)">
      <path id="Path_487" data-name="Path 487" d="M626.615,140.677a.213.213,0,0,1-.121-.037.217.217,0,0,1-.06-.3c1.535-2.289,3.2-4.531,4.946-6.663a.218.218,0,1,1,.338.275c-1.738,2.123-3.393,4.354-4.922,6.631A.221.221,0,0,1,626.615,140.677Z" transform="translate(-626.397 -133.593)" fill="#fff"/>
    </g>
    <g id="Group_667" data-name="Group 667" transform="translate(5592.898 -475.803)">
      <path id="Path_488" data-name="Path 488" d="M625.758,137.727a.214.214,0,0,1-.137-.049.218.218,0,0,1-.032-.307,24.241,24.241,0,0,1,2.051-2.211.218.218,0,1,1,.3.315,24.125,24.125,0,0,0-2.014,2.172A.214.214,0,0,1,625.758,137.727Z" transform="translate(-625.54 -135.098)" fill="#fff"/>
    </g>
    <g id="Group_671" data-name="Group 671" transform="translate(5600.164 -478.203)">
      <path id="Path_489" data-name="Path 489" d="M631.221,145.811a.219.219,0,0,1-.18-.343c2.783-3.991,5.548-8.053,8.221-12.076a.218.218,0,1,1,.363.242c-2.674,4.025-5.442,8.09-8.226,12.082A.218.218,0,0,1,631.221,145.811Z" transform="translate(-631.002 -133.295)" fill="#fff"/>
    </g>
    <g id="Group_672" data-name="Group 672" transform="translate(5605.271 -475.084)">
      <path id="Path_490" data-name="Path 490" d="M635.06,142.334a.222.222,0,0,1-.117-.035.219.219,0,0,1-.068-.3,70.706,70.706,0,0,1,4.493-6.277.218.218,0,0,1,.341.273,69.834,69.834,0,0,0-4.465,6.24A.217.217,0,0,1,635.06,142.334Z" transform="translate(-634.842 -135.639)" fill="#fff"/>
    </g>
    <g id="Group_673" data-name="Group 673" transform="translate(5609.218 -473.216)">
      <path id="Path_491" data-name="Path 491" d="M638.027,139.878a.211.211,0,0,1-.132-.045.217.217,0,0,1-.041-.306l1.826-2.4a.218.218,0,1,1,.346.265l-1.826,2.4A.219.219,0,0,1,638.027,139.878Z" transform="translate(-637.809 -137.043)" fill="#fff"/>
    </g>
  </g>
</svg>
