<svg xmlns="http://www.w3.org/2000/svg" width="140" height="711.118" viewBox="0 0 140 711.118">
  <g id="Subtraction_5" data-name="Subtraction 5" transform="translate(-1152 -225.941)" fill="none" opacity="0.43">
    <path d="M1152,937.059V225.941c10.828,11.612,21.242,23.855,30.955,36.387,9.746,12.575,19.02,25.745,27.566,39.144,8.59,13.47,16.648,27.491,23.949,41.674,7.355,14.287,14.119,29.083,20.1,43.976,6.041,15.031,11.436,30.525,16.033,46.051,4.648,15.7,8.6,31.813,11.734,47.9,3.177,16.289,5.6,32.949,7.207,49.518,1.628,16.8,2.453,33.932,2.453,50.911s-.825,34.107-2.453,50.91c-1.6,16.569-4.03,33.229-7.207,49.518-3.138,16.085-7.085,32.2-11.734,47.9-4.6,15.525-9.991,31.019-16.033,46.051-5.985,14.893-12.75,29.689-20.1,43.976-7.3,14.183-15.359,28.2-23.949,41.674-8.545,13.4-17.819,26.569-27.566,39.144-9.716,12.536-20.13,24.778-30.953,36.385Z" stroke="none"/>
    <path d="M 1153 934.5109252929688 C 1163.182495117188 923.482666015625 1172.9853515625 911.9032592773438 1182.164428710938 900.0593872070312 C 1191.8916015625 887.5083618164062 1201.148315429688 874.363525390625 1209.677368164062 860.9901123046875 C 1218.250732421875 847.5468139648438 1226.292846679688 833.5526123046875 1233.580200195312 819.3961791992188 C 1240.921264648438 805.1353759765625 1247.67236328125 790.3682861328125 1253.646118164062 775.5050048828125 C 1259.67529296875 760.50390625 1265.059204101562 745.0399780273438 1269.648193359375 729.5429077148438 C 1274.287475585938 713.8755493164062 1278.2275390625 697.7914428710938 1281.359008789062 681.7373657226562 C 1284.530395507812 665.4795532226562 1286.950561523438 648.85107421875 1288.55224609375 632.3140258789062 C 1290.1767578125 615.543701171875 1291.00048828125 598.4474487304688 1291.00048828125 581.5001220703125 C 1291.00048828125 564.5524291992188 1290.1767578125 547.4561157226562 1288.55224609375 530.685791015625 C 1286.950561523438 514.1489868164062 1284.530395507812 497.5206298828125 1281.359008789062 481.2627258300781 C 1278.2275390625 465.2085571289062 1274.287353515625 449.1243591308594 1269.648193359375 433.4568176269531 C 1265.059448242188 417.9607238769531 1259.675537109375 402.4970092773438 1253.64599609375 387.4951782226562 C 1247.672119140625 372.6311950683594 1240.921020507812 357.8639221191406 1233.580200195312 343.6037292480469 C 1226.292114257812 329.4462890625 1218.250122070312 315.4520874023438 1209.677368164062 302.0099182128906 C 1201.147827148438 288.6358337402344 1191.891235351562 275.4910888671875 1182.16455078125 262.9407348632812 C 1172.984497070312 251.0962371826172 1163.181640625 239.5167388916016 1153 228.4893951416016 L 1153 934.5109252929688 M 1152 937.0590209960938 L 1152 225.9414520263672 C 1162.828125 237.5536346435547 1173.2421875 249.7961883544922 1182.954833984375 262.3281860351562 C 1192.700927734375 274.9034423828125 1201.975219726562 288.0733642578125 1210.5205078125 301.47216796875 C 1219.11083984375 314.9420776367188 1227.168212890625 328.9632873535156 1234.469360351562 343.14599609375 C 1241.824096679688 357.4333801269531 1248.588256835938 372.2290954589844 1254.573852539062 387.1222839355469 C 1260.615234375 402.1536254882812 1266.009521484375 417.6473693847656 1270.60693359375 433.1729125976562 C 1275.255249023438 448.8710021972656 1279.203002929688 464.9862670898438 1282.340576171875 481.0712890625 C 1285.517944335938 497.3601684570312 1287.942749023438 514.0205688476562 1289.547607421875 530.5894775390625 C 1291.17529296875 547.3925170898438 1292.00048828125 564.521484375 1292.00048828125 581.5001220703125 C 1292.00048828125 598.4785766601562 1291.17529296875 615.6072998046875 1289.547607421875 632.4104614257812 C 1287.942749023438 648.9796142578125 1285.517944335938 665.6400146484375 1282.340576171875 681.9288330078125 C 1279.203002929688 698.0139770507812 1275.255126953125 714.12939453125 1270.60693359375 729.8268432617188 C 1266.009643554688 745.352294921875 1260.615478515625 760.8460083007812 1254.573852539062 775.8779296875 C 1248.58837890625 790.770751953125 1241.824096679688 805.5664672851562 1234.469360351562 819.8538818359375 C 1227.168090820312 834.0372924804688 1219.110473632812 848.0584716796875 1210.5205078125 861.52783203125 C 1201.975463867188 874.9263916015625 1192.701049804688 888.0963745117188 1182.954833984375 900.6719360351562 C 1173.239013671875 913.2083740234375 1162.824829101562 925.4501953125 1152.001708984375 937.0570068359375 L 1152 937.0590209960938 Z" stroke="none" fill="#fff"/>
  </g>
</svg>
