<svg xmlns="http://www.w3.org/2000/svg" width="798.537" height="186.002" viewBox="0 0 798.537 186.002">
  <g id="Subtraction_3" data-name="Subtraction 3" transform="translate(-150.232)" fill="none" opacity="0.26">
    <path d="M948.769,186H150.232A522.845,522.845,0,0,1,325.652,50.356,518.2,518.2,0,0,1,490.263,3.328a528.861,528.861,0,0,1,118.474,0A521.545,521.545,0,0,1,948.768,186h0Z" stroke="none"/>
    <path d="M 946.6139526367188 185.0003967285156 C 923.1124267578125 157.2971801757812 896.6549682617188 131.989990234375 867.9448852539062 109.7540969848633 C 853.29443359375 98.40750122070312 837.8773803710938 87.73290252685547 822.1221923828125 78.02680206298828 C 806.264404296875 68.25769805908203 789.7098388671875 59.25180053710938 772.918212890625 51.25930023193359 C 755.9705810546875 43.19260025024414 738.3997192382812 35.97679901123047 720.6937866210938 29.81229972839355 C 702.7774047851562 23.57439994812012 684.3115844726562 18.26989936828613 665.809326171875 14.04609966278076 C 647.044921875 9.762499809265137 627.8052368164062 6.490699291229248 608.6249389648438 4.321799278259277 C 589.1342163085938 2.117699384689331 569.2418212890625 1.000099420547485 549.5004272460938 1.000099420547485 C 529.7589111328125 1.000099420547485 509.8665161132812 2.117699384689331 490.3757019042969 4.321799278259277 C 471.1943054199219 6.490899562835693 451.9547119140625 9.762699127197266 433.1913146972656 14.04609966278076 C 414.6880187988281 18.27009963989258 396.2221069335938 23.57460021972656 378.3067016601562 29.81229972839355 C 360.6007995605469 35.97669982910156 343.0299072265625 43.19260025024414 326.0821228027344 51.25930023193359 C 309.2904968261719 59.25180053710938 292.7359008789062 68.25769805908203 276.8781127929688 78.02680206298828 C 261.1227111816406 87.73300170898438 245.7056121826172 98.40760040283203 231.0553131103516 109.7540969848633 C 202.3448638916016 131.9902801513672 175.8872833251953 157.2974548339844 152.3860931396484 185.0003967285156 L 946.6139526367188 185.0003967285156 M 948.7689819335938 186.0018920898438 L 948.7677001953125 186.0003967285156 L 150.2323150634766 186.0003967285156 C 174.1253051757812 157.5982971191406 201.1124114990234 131.6799011230469 230.4430084228516 108.9635009765625 C 245.1213073730469 97.59529876708984 260.5679016113281 86.90019989013672 276.3536071777344 77.17539978027344 C 292.2420959472656 67.38739776611328 308.82861328125 58.36420059204102 325.6523132324219 50.35639953613281 C 342.6328125 42.27410125732422 360.2377014160156 35.0443000793457 377.9779052734375 28.86789894104004 C 395.9287109375 22.61789894104004 414.4302978515625 17.30319976806641 432.9687194824219 13.07119941711426 C 451.768798828125 8.779399871826172 471.0455017089844 5.501399517059326 490.2633056640625 3.328099489212036 C 509.7913208007812 1.119799494743347 529.7216186523438 9.945068450178951e-05 549.5004272460938 9.945068450178951e-05 C 569.2792358398438 9.945068450178951e-05 589.2094116210938 1.119799494743347 608.7373046875 3.328099489212036 C 627.9548950195312 5.501299381256104 647.2316284179688 8.779399871826172 666.0319213867188 13.07119941711426 C 684.5703125 17.30319976806641 703.0718383789062 22.61800003051758 721.0225830078125 28.86789894104004 C 738.7630004882812 35.04439926147461 756.3677978515625 42.27420043945312 773.3480224609375 50.35639953613281 C 790.1716918945312 58.36420059204102 806.7582397460938 67.38739776611328 822.646728515625 77.17539978027344 C 838.4324951171875 86.90029907226562 853.8790283203125 97.59539794921875 868.5571899414062 108.9635009765625 C 897.8895874023438 131.681396484375 924.8762817382812 157.6002960205078 948.7677001953125 186.0003051757812 L 948.7689819335938 186.0018920898438 Z M 948.7677001953125 186.0003051757812 C 948.7677001953125 186.0003051757812 948.7677001953125 186.0003051757812 948.7667236328125 185.9990997314453 L 948.7667846679688 185.9989013671875 L 948.7677001953125 186.0003051757812 Z" stroke="none" fill="#fff"/>
  </g>
</svg>
