<svg xmlns="http://www.w3.org/2000/svg" width="96.53" height="107.049" viewBox="0 0 96.53 107.049">
  <g id="Group_661" data-name="Group 661" transform="translate(-1078.007 -262.51)">
    <g id="Group_392" data-name="Group 392" transform="translate(1078.007 262.51)">
      <g id="Group_378" data-name="Group 378" transform="translate(18.246 16.331)">
        <path id="Path_380" data-name="Path 380" d="M741.151,78.075a22.427,22.427,0,0,0-2.646-8.716,15.568,15.568,0,0,0-2.909-3.936c-1.253-1.195-2.784-2.148-4.167-3.233a20.308,20.308,0,0,1-7.819-13.263c-.487-3.956-1.181-8.322-.082-12.188.81-2.841,6.04-10.775,9.155-13.217,5.024-3.941,12.475-6.372,19.244-7.162a34.139,34.139,0,0,1,19.668,3.459,25.538,25.538,0,0,1,13.523,18.486c1.072,7.451-1.638,15.165-6.952,21.152-2.2,2.481-4.822,4.677-7.015,7.164a30.263,30.263,0,0,0-6.415,11.542,54.724,54.724,0,0,1-8.522.413l-7.224-.028A47,47,0,0,1,741.151,78.075Z" transform="translate(-722.941 -16.122)" fill="#fff"/>
      </g>
      <g id="Group_379" data-name="Group 379" transform="translate(34.686 78.766)">
        <path id="Path_381" data-name="Path 381" d="M733.338,54.251a156.573,156.573,0,0,0,26.032-.026c.488,6.225.959,10.026-1.006,16.038-.959,2.935-2.687,5.92-5.828,7.382-3.726,1.735-8.314.877-12.41-.075a12.429,12.429,0,0,1-4.483-1.676c-2.571-1.858-2.715-5.132-2.658-8C733.095,62.31,733.208,59.293,733.338,54.251Z" transform="translate(-732.975 -54.225)" fill="#008100"/>
      </g>
      <g id="Group_382" data-name="Group 382" transform="translate(51.074 40.866)">
        <g id="Group_380" data-name="Group 380" opacity="0.129">
          <path id="Path_382" data-name="Path 382" d="M772.967,31.487a1.743,1.743,0,0,0-2.448.244c-.359.732-.236.375-.4,1.43q-.027.206-.059.413c-.1.421-.441,1.822-.565,2.137q.319-.614-.024.054a26.885,26.885,0,0,1-2.959,5.706,17.606,17.606,0,0,1-2.5,3.564c-1.655,1.932-6.215,5.553-8.84,8.694-.769.893-2.463,2.92-2.7,3.271l-.018.02a22.969,22.969,0,0,0-2.718,3.33c-1.457,2.43-1.327,2.389-2.251,4.146-.534,1.175-1.4,2.677-1.331,3.88a1.817,1.817,0,0,0,.056.27,2.809,2.809,0,0,0-.4,2.537c.829,2.379.821,5.139.615,9.507-.239,4.534.079,2.8-1.308,6.89a9.221,9.221,0,0,1-1.38,2.694,3.318,3.318,0,0,0-.708,1.449,2.147,2.147,0,0,0,1.562,2.446,6.878,6.878,0,0,0,.765-.436c1.078-.721,2.135-1.462,3.24-2.156.551-.346,1.1-.691,1.647-1.045a22.255,22.255,0,0,0,2-5.078c.747-3.713.942-4.423,1.689-8.509a19.935,19.935,0,0,0,.016-5.347c-.185-1.122-.2-2.415-1.114-3.31l0,0c-.243.028-.485.056-.729.082-.419.044-.842.084-1.265.118,1.855-5.216,3.331-8.108,6.641-11.95,2.169-2.237,4.586-4.29,6.882-6.43a30.077,30.077,0,0,0,5.6-6.42c.816-1.647.682-1.489,1.213-2.682.085-.192-.044.057-.12.208.306-.588.587-1.185.857-1.783a11.279,11.279,0,0,0,.873-2.874.263.263,0,0,0,.015-.046C773.206,34.579,774.023,32.537,772.967,31.487Z" transform="translate(-742.976 -31.095)"/>
        </g>
        <g id="Group_381" data-name="Group 381" transform="translate(4.32 33.268)" opacity="0.129">
          <path id="Path_383" data-name="Path 383" d="M745.612,51.868l.182-.339c.018-.043.041-.088.059-.131Z" transform="translate(-745.612 -51.398)"/>
        </g>
      </g>
      <g id="Group_383" data-name="Group 383" transform="translate(33.814 77.644)">
        <path id="Path_384" data-name="Path 384" d="M747.537,80.356a24.662,24.662,0,0,1-3.216-.215c-2.63-.351-8.968-1.663-11.019-6.245a12.314,12.314,0,0,1-.769-5.075c-.015-2.84-.03-5.037-.044-7.234s-.031-4.4-.046-7.238a.809.809,0,0,1,.264-.6.823.823,0,0,1,.624-.2,256.3,256.3,0,0,0,26.41.351.8.8,0,0,1,.874.729c.641,6.989.259,9.586-.939,16.068a12.226,12.226,0,0,1-2.694,6.405C754.491,79.756,750.566,80.356,747.537,80.356ZM734.059,55.228c.013,2.422.026,4.385.041,6.348.015,2.2.03,4.4.046,7.238a10.87,10.87,0,0,0,.626,4.423c1.195,2.666,4.842,4.649,9.761,5.306,4.944.659,9.158-.292,11.27-2.548a10.684,10.684,0,0,0,2.286-5.6c1.122-6.069,1.511-8.644.988-14.841C753.855,55.857,739.7,55.672,734.059,55.228Z" transform="translate(-732.442 -53.54)"/>
      </g>
      <g id="Group_384" data-name="Group 384" transform="translate(17.214 15.222)">
        <path id="Path_385" data-name="Path 385" d="M764.524,79.7a.775.775,0,0,1-.149-.013.806.806,0,0,1-.644-.941c1.157-6.215,6.009-11.129,10.7-15.879,4.316-4.372,8.779-8.893,10.161-14.3.742-2.91.649-10.028-1.912-16.063a21.019,21.019,0,0,0-8.059-9.972c-6.52-4.059-17.746-6.964-26.589-4.665-8.424,2.191-15.3,6.292-19.373,11.549a22.615,22.615,0,0,0-4.539,16.877A29.564,29.564,0,0,0,732.2,62.459c.627.673,1.3,1.347,1.952,2a37.951,37.951,0,0,1,3.951,4.378,16.854,16.854,0,0,1,3.312,9.559.806.806,0,1,1-1.612.036,15.255,15.255,0,0,0-3-8.647,36.6,36.6,0,0,0-3.787-4.187c-.66-.66-1.344-1.344-1.991-2.038A31.147,31.147,0,0,1,722.522,46.5a24.211,24.211,0,0,1,4.86-18.072c4.287-5.538,11.477-9.843,20.243-12.124,9.284-2.412,21.036.618,27.848,4.858a22.586,22.586,0,0,1,8.691,10.71c2.736,6.448,2.81,13.877,1.989,17.094-1.488,5.83-6.109,10.508-10.575,15.032-4.729,4.79-9.2,9.312-10.262,15.042A.806.806,0,0,1,764.524,79.7Z" transform="translate(-722.312 -15.445)"/>
      </g>
      <g id="Group_385" data-name="Group 385" transform="translate(28.844 32.737)">
        <path id="Path_386" data-name="Path 386" d="M752.9,72.545h-.013a.806.806,0,0,1-.793-.819v-.087c.059-5.863.362-11.975.9-18.172a30.213,30.213,0,0,1,1.286-7.287,10.178,10.178,0,0,1-4.95-2.935c-.151-.164-.295-.331-.436-.5-.221.367-.452.728-.692,1.088-1.675,2.5-3.518,3.8-5.635,3.959a6.319,6.319,0,0,1-1.578-.092c.5,1.55.875,3.1,1.195,4.573a80.714,80.714,0,0,1,1.776,19.2.79.79,0,0,1-.829.783.807.807,0,0,1-.783-.827A79.027,79.027,0,0,0,740.6,52.609a41.814,41.814,0,0,0-1.509-5.46c-.262-.1-.518-.2-.765-.306-2.989-1.242-6.3-2.887-8.178-5.671-.9-1.331-.982-2.612-.228-3.516a3.214,3.214,0,0,1,3.331-.768,5.925,5.925,0,0,1,2.455,1.639,21.328,21.328,0,0,1,4.632,7.352,5.6,5.6,0,0,0,2.1.3c1.593-.121,3.036-1.183,4.417-3.246q.548-.823,1.029-1.67A15.425,15.425,0,0,1,746.1,34.65c-.146-2.084-.113-5.132,1.842-7.537a2.152,2.152,0,0,1,2.171-.927,2.038,2.038,0,0,1,1.147.862c1.688,2.353,1.362,5.217.97,7.166a26.3,26.3,0,0,1-2.479,6.993,8.412,8.412,0,0,0,5.134,3.457l.069-.143A16.367,16.367,0,0,1,761.4,37.7a3.188,3.188,0,0,1,2.014-.564,1.933,1.933,0,0,1,1.563,1.075,3.528,3.528,0,0,1-.329,3.159,10,10,0,0,1-5.525,4.755,8.443,8.443,0,0,1-3.231.329A27.428,27.428,0,0,0,754.6,53.6c-.534,6.159-.834,12.229-.893,18.042v.1A.807.807,0,0,1,752.9,72.545ZM732.162,38.337a1.338,1.338,0,0,0-1,.349c-.382.459.154,1.327.326,1.583,1.5,2.225,4.291,3.715,6.744,4.781a18.868,18.868,0,0,0-3.67-5.391,4.48,4.48,0,0,0-1.778-1.231A2.116,2.116,0,0,0,732.162,38.337Zm24.42,6.54a7.029,7.029,0,0,0,2.058-.293,8.461,8.461,0,0,0,4.619-4.039,2.055,2.055,0,0,0,.267-1.624c-.039-.079-.1-.161-.308-.185a1.869,1.869,0,0,0-1,.352A14.857,14.857,0,0,0,756.582,44.876Zm-6.874-17.13a.957.957,0,0,0-.511.382c-1.214,1.5-1.686,3.531-1.486,6.408a15.086,15.086,0,0,0,1.094,4.95,24.455,24.455,0,0,0,1.847-5.591c.529-2.63.307-4.508-.7-5.91-.146-.2-.21-.233-.228-.236Z" transform="translate(-729.409 -26.134)"/>
      </g>
      <g id="Group_386" data-name="Group 386" transform="translate(84.097 17.587)">
        <path id="Path_387" data-name="Path 387" d="M763.935,22.839a.807.807,0,0,1-.39-1.512l7.572-4.178a1.388,1.388,0,0,1,1.609-.023.871.871,0,0,1,.341.783c-.074.691-.075.7-8.786,4.852A.811.811,0,0,1,763.935,22.839Z" transform="translate(-763.129 -16.888)"/>
      </g>
      <g id="Group_387" data-name="Group 387" transform="translate(32.236)">
        <path id="Path_388" data-name="Path 388" d="M735.982,15.795a.806.806,0,0,1-.732-.469l-3.7-8.027a.806.806,0,0,1,1.465-.673l3.7,8.026a.806.806,0,0,1-.395,1.07A.792.792,0,0,1,735.982,15.795Z" transform="translate(-731.479 -6.155)"/>
      </g>
      <g id="Group_388" data-name="Group 388" transform="translate(2.175 23.839)">
        <path id="Path_389" data-name="Path 389" d="M722.835,24.41a.743.743,0,0,1-.157-.016l-8.312-1.658a1.423,1.423,0,0,1-1.2-.9.858.858,0,0,1,.213-.852c.449-.456.638-.642,9.668,1.845a.807.807,0,0,1-.215,1.585Z" transform="translate(-713.133 -20.704)"/>
      </g>
      <g id="Group_389" data-name="Group 389" transform="translate(0 53.466)">
        <path id="Path_390" data-name="Path 390" d="M712.612,44.037a.807.807,0,0,1-.313-1.55l8.622-3.639a.806.806,0,1,1,.628,1.485l-8.624,3.641A.811.811,0,0,1,712.612,44.037Z" transform="translate(-711.806 -38.784)"/>
      </g>
      <g id="Group_390" data-name="Group 390" transform="translate(61.319 0.268)">
        <path id="Path_391" data-name="Path 391" d="M750.034,15.533a.806.806,0,0,1-.749-1.106l3.041-7.6a.806.806,0,1,1,1.5.6l-3.039,7.6A.807.807,0,0,1,750.034,15.533Z" transform="translate(-749.228 -6.319)"/>
      </g>
      <g id="Group_391" data-name="Group 391" transform="translate(86.538 48.02)">
        <path id="Path_392" data-name="Path 392" d="M773.8,40.285a.766.766,0,0,1-.287-.054l-8.38-3.21a.806.806,0,0,1,.577-1.506l8.378,3.212a.806.806,0,0,1-.289,1.558Z" transform="translate(-764.619 -35.461)"/>
      </g>
    </g>
    <g id="Group_479" data-name="Group 479" transform="translate(1115.077 363.082)" opacity="0.129">
      <path id="Path_495" data-name="Path 495" d="M752.912,69.046a7.56,7.56,0,0,1-2.256,1.042c-4.155,1.332-6.015.931-10.661-.816a21.66,21.66,0,0,1-2.9-1.332,1.866,1.866,0,0,0-1.542-.349,1.566,1.566,0,0,0-.372,2.836,31.035,31.035,0,0,0,9.926,3.518,15.051,15.051,0,0,0,6.106-.764c1.422-.577,4.38-1.524,4.5-3.3A1.539,1.539,0,0,0,752.912,69.046Z" transform="translate(-734.429 -67.532)"/>
    </g>
  </g>
</svg>
