<svg width="833" height="559" viewBox="0 0 833 559" fill="none" xmlns="http://www.w3.org/2000/svg">
<path d="M57.5835 146.182C-45.9405 281.306 -24.7135 546.445 262.261 554.76C323.206 556.526 375.443 503.583 438.771 502.306C598.864 499.077 773.616 585.1 818.525 472.481C890.475 292.047 656.922 263.926 609.882 124.489C562.842 -14.947 225.398 -72.855 57.5835 146.182Z" fill="#EBF8E0"/>
<path d="M701.17 392.229L705.423 378.318L696.884 374.876C697.227 370.533 696.785 366.257 695.655 362.177L703.382 357.171L696.559 344.339L688.089 347.946C685.337 344.727 682.038 341.971 678.245 339.827L680.166 330.823L666.255 326.571L662.814 335.11C658.486 334.772 654.194 335.208 650.114 336.337L645.108 328.61L632.277 335.434L635.883 343.905C632.665 346.656 629.908 349.955 627.765 353.747L618.761 351.827L614.508 365.737L623.047 369.18C622.708 373.506 623.146 377.799 624.275 381.879L616.548 386.885L623.372 399.717L631.842 396.11C634.593 399.327 637.907 402.089 641.685 404.229L639.764 413.233L653.675 417.485L657.117 408.946C661.46 409.289 665.737 408.847 669.816 407.718L674.823 415.444L687.654 408.622L684.047 400.151C687.265 397.4 690.026 394.085 692.166 390.307L701.17 392.229ZM652.291 397.132C619.464 386.481 634.474 337.397 667.64 346.923C700.467 357.574 685.457 406.658 652.291 397.132Z" fill="#E6CAFC"/>
<path d="M669.938 172.959H659.803C637.809 178.135 608.635 169.664 595.027 159.664L589.7 147.485L579.565 147.484C579.283 147.766 551.298 177.179 509.842 174.36L509.384 172.959H499.249C496.155 220.153 499.169 296.357 579.562 332.908C579.564 332.906 589.699 332.906 589.699 332.906L592.938 326.449C654.276 292.54 661.287 223.656 660.906 190.963L669.938 172.959Z" fill="url(#paint0_linear_46_3801)"/>
<path d="M508.314 193.326C508.314 229.174 517.62 302.855 589.698 332.906C686.794 292.404 669.936 172.959 669.936 172.959C636.033 183.582 589.401 150.922 589.698 147.485C589.392 147.791 556.595 182.267 509.383 172.959C509.383 172.959 508.314 180.893 508.314 193.326ZM527.917 188.445C553.589 196.671 590.227 171.39 589.698 168.841C589.926 169.07 615.25 195.614 651.555 188.445C651.555 188.445 664.445 280.429 589.698 311.549C514.95 280.43 527.917 188.445 527.917 188.445Z" fill="url(#paint1_linear_46_3801)"/>
<path d="M589.698 311.549C664.445 280.43 651.555 188.445 651.555 188.445C615.249 195.615 589.925 169.071 589.698 168.841C589.648 171.725 553.982 196.51 527.917 188.445C527.917 188.445 514.95 280.43 589.698 311.549Z" fill="url(#paint2_linear_46_3801)"/>
<path d="M574.338 210.465C574.441 199.46 584.944 195.436 594.479 196.764C611.263 197.33 608.124 215.852 608.098 227.338L574.205 227.067L574.338 210.465ZM603.828 210.701C603.873 202.033 595.203 200.437 588.276 201.117C576.737 201.023 578.746 215.023 578.643 222.698L603.73 222.898L603.828 210.701Z" fill="url(#paint3_linear_46_3801)"/>
<path d="M576.108 210.48C576.21 199.474 586.713 195.451 596.249 196.777C613.032 197.344 609.894 215.865 609.868 227.351L575.975 227.08L576.108 210.48ZM605.599 210.715C605.644 202.047 596.973 200.451 590.046 201.131C578.508 201.037 580.517 215.038 580.413 222.712L605.501 222.913L605.599 210.715Z" fill="url(#paint4_linear_46_3801)"/>
<path d="M568.587 267.724L607.069 268.032C610.551 268.059 613.399 265.259 613.426 261.776L613.734 223.294C613.762 219.811 610.961 216.964 607.477 216.937L568.996 216.629C565.513 216.601 562.666 219.401 562.639 222.886L562.33 261.366C562.303 264.85 565.104 267.695 568.587 267.724Z" fill="url(#paint5_linear_46_3801)"/>
<path d="M573.368 267.762L611.849 268.071C615.333 268.098 618.179 265.298 618.207 261.813L618.516 223.333C618.543 219.849 615.742 217.003 612.258 216.975L573.777 216.667C570.294 216.639 567.447 219.44 567.42 222.924L567.112 261.405C567.085 264.888 569.885 267.734 573.368 267.762Z" fill="url(#paint6_linear_46_3801)"/>
<path d="M586.945 255.014L590.64 242.016C588.825 240.797 587.636 238.721 587.655 236.37C587.685 232.649 584.751 229.324 594.445 229.687C600.994 229.64 603.569 238.753 598.053 242.075L601.539 255.131L586.945 255.014Z" fill="#564466"/>
<path d="M583.885 254.989L587.58 241.992C582.122 238.621 584.844 229.379 591.386 229.663C597.93 229.484 600.506 238.769 594.993 242.051L598.479 255.107L583.885 254.989Z" fill="#372842"/>
<path d="M377.186 270.512H137.652V280.227H377.186V270.512Z" fill="#6428BB"/>
<path d="M377.186 359.016H137.652V368.731H377.186V359.016Z" fill="#6428BB"/>
<path d="M361.115 273.637H137.859C135.38 273.637 133.369 271.627 133.369 269.147V197.534C133.369 195.055 135.38 193.045 137.859 193.045H361.115C363.595 193.045 365.605 195.056 365.605 197.534V269.147C365.605 271.627 363.596 273.637 361.115 273.637Z" fill="url(#paint7_linear_46_3801)"/>
<path d="M378.098 273.637H154.841C152.362 273.637 150.352 271.627 150.352 269.147V197.534C150.352 195.055 152.362 193.045 154.841 193.045H378.098C380.577 193.045 382.587 195.056 382.587 197.534V269.147C382.587 271.627 380.577 273.637 378.098 273.637Z" fill="url(#paint8_linear_46_3801)"/>
<path d="M187.759 222.566C187.87 214.888 175.81 214.888 175.923 222.567C175.811 230.246 187.872 230.246 187.759 222.566Z" fill="url(#paint9_radial_46_3801)"/>
<path d="M209.593 222.566C209.705 214.888 197.644 214.888 197.757 222.567C197.645 230.246 209.706 230.246 209.593 222.566Z" fill="url(#paint10_radial_46_3801)"/>
<path d="M231.429 222.566C231.541 214.888 219.48 214.888 219.593 222.567C219.48 230.246 231.542 230.246 231.429 222.566Z" fill="url(#paint11_radial_46_3801)"/>
<path d="M371.98 267.512H160.958C159.194 267.512 157.76 266.077 157.76 264.314V202.533C157.76 200.769 159.195 199.335 160.958 199.335H371.98C373.743 199.335 375.178 200.77 375.178 202.533V264.314C375.179 266.077 373.743 267.512 371.98 267.512ZM160.958 201.198C160.222 201.198 159.623 201.797 159.623 202.532V264.313C159.302 268.131 370.668 264.367 371.982 265.651C372.715 265.648 373.314 265.049 373.314 264.313V202.532C373.314 201.797 372.715 201.198 371.98 201.198H160.958Z" fill="#6428BB"/>
<path d="M300.312 259.233V207.968C299.973 207.234 306.209 207.829 306.363 207.644C307.305 207.556 306.365 258.921 306.688 259.234C307.026 259.968 300.79 259.373 300.636 259.558C300.456 259.558 300.312 259.412 300.312 259.233Z" fill="#6428BB"/>
<path d="M317.314 259.233V207.968C316.976 207.234 323.211 207.829 323.365 207.644C324.307 207.556 323.367 258.921 323.69 259.234C324.028 259.968 317.792 259.373 317.638 259.558C317.458 259.558 317.314 259.412 317.314 259.233Z" fill="#6428BB"/>
<path d="M334.314 259.233V207.968C333.976 207.234 340.212 207.829 340.366 207.644C341.307 207.556 340.368 258.921 340.69 259.234C341.028 259.968 334.792 259.373 334.638 259.558C334.46 259.558 334.314 259.412 334.314 259.233Z" fill="#6428BB"/>
<path d="M351.314 259.233V207.968C350.976 207.234 357.212 207.829 357.366 207.644C358.308 207.556 357.368 258.921 357.691 259.234C358.028 259.968 351.793 259.373 351.638 259.558C351.46 259.558 351.314 259.412 351.314 259.233Z" fill="#6428BB"/>
<path d="M281.566 247.416H176.256C175.406 247.738 176.177 241.549 175.921 241.375C175.802 240.369 281.265 241.396 281.567 241.04C282.417 240.719 281.645 246.908 281.901 247.082C281.901 247.267 281.752 247.416 281.566 247.416Z" fill="#6428BB"/>
<g opacity="0.21">
<path d="M281.59 241.041H279.414C279.586 241.041 279.726 241.18 279.726 241.352C279.589 241.507 280.065 247.751 279.414 247.416C279.697 247.289 281.967 247.726 281.901 247.105C281.765 246.953 282.239 240.703 281.59 241.041Z" fill="#281F49"/>
</g>
<path d="M361.115 360.818H137.859C135.38 360.818 133.369 358.808 133.369 356.328V284.716C133.369 282.237 135.38 280.227 137.859 280.227H361.115C363.595 280.227 365.605 282.237 365.605 284.716V356.328C365.605 358.809 363.596 360.818 361.115 360.818Z" fill="url(#paint12_linear_46_3801)"/>
<path d="M378.098 360.818H154.841C152.362 360.818 150.352 358.808 150.352 356.328V284.716C150.352 282.237 152.362 280.227 154.841 280.227H378.098C380.577 280.227 382.587 282.237 382.587 284.716V356.328C382.587 358.809 380.577 360.818 378.098 360.818Z" fill="url(#paint13_linear_46_3801)"/>
<path d="M187.759 309.748C187.87 302.07 175.81 302.07 175.923 309.749C175.811 317.428 187.872 317.428 187.759 309.748Z" fill="url(#paint14_radial_46_3801)"/>
<path d="M209.593 309.748C209.705 302.07 197.644 302.07 197.757 309.749C197.645 317.428 209.706 317.428 209.593 309.748Z" fill="url(#paint15_radial_46_3801)"/>
<path d="M231.429 309.748C231.541 302.07 219.48 302.07 219.593 309.749C219.48 317.428 231.542 317.428 231.429 309.748Z" fill="url(#paint16_radial_46_3801)"/>
<path d="M371.98 354.694H160.958C159.194 354.694 157.76 353.258 157.76 351.496V289.714C157.76 287.95 159.195 286.516 160.958 286.516H371.98C373.743 286.516 375.178 287.951 375.178 289.714V351.496C375.179 353.259 373.743 354.694 371.98 354.694ZM160.958 288.38C160.222 288.38 159.623 288.979 159.623 289.714V351.496C159.302 355.313 370.668 351.549 371.982 352.833C372.715 352.83 373.314 352.232 373.314 351.496V289.714C373.314 288.979 372.715 288.38 371.98 288.38H160.958Z" fill="#6428BB"/>
<path d="M300.312 346.416V295.151C299.973 294.416 306.209 295.011 306.363 294.827C307.305 294.738 306.365 346.103 306.688 346.416C307.026 347.15 300.79 346.555 300.636 346.74C300.456 346.739 300.312 346.594 300.312 346.416Z" fill="#6428BB"/>
<path d="M317.314 346.416V295.151C316.976 294.416 323.211 295.011 323.365 294.827C324.307 294.738 323.367 346.103 323.69 346.416C324.028 347.15 317.792 346.555 317.638 346.74C317.458 346.739 317.314 346.594 317.314 346.416Z" fill="#6428BB"/>
<path d="M334.314 346.416V295.151C333.976 294.416 340.212 295.011 340.366 294.827C341.307 294.738 340.368 346.103 340.69 346.416C341.028 347.15 334.792 346.555 334.638 346.74C334.46 346.739 334.314 346.594 334.314 346.416Z" fill="#6428BB"/>
<path d="M351.314 346.416V295.151C350.976 294.416 357.212 295.011 357.366 294.827C358.308 294.738 357.368 346.103 357.691 346.416C358.028 347.15 351.793 346.555 351.638 346.74C351.46 346.739 351.314 346.594 351.314 346.416Z" fill="#6428BB"/>
<path d="M281.566 334.598H176.256C175.406 334.92 176.177 328.731 175.921 328.557C175.802 327.552 281.265 328.579 281.567 328.222C282.417 327.901 281.645 334.09 281.901 334.264C281.901 334.448 281.752 334.598 281.566 334.598Z" fill="#6428BB"/>
<g opacity="0.21">
<path d="M281.59 328.223H279.414C279.586 328.223 279.726 328.362 279.726 328.535C279.589 328.69 280.065 334.933 279.414 334.598C279.697 334.471 281.967 334.908 281.901 334.287C281.765 334.136 282.239 327.885 281.59 328.223Z" fill="#281F49"/>
</g>
<path d="M377.186 441.34H137.652V451.055H377.186V441.34Z" fill="#6428BB"/>
<path d="M361.115 444.466H137.859C135.38 444.466 133.369 442.455 133.369 439.977V368.364C133.369 365.884 135.38 363.874 137.859 363.874H361.115C363.595 363.874 365.605 365.884 365.605 368.364V439.977C365.605 442.455 363.596 444.466 361.115 444.466Z" fill="url(#paint17_linear_46_3801)"/>
<path d="M378.098 444.466H154.841C152.362 444.466 150.352 442.455 150.352 439.977V368.364C150.352 365.884 152.362 363.874 154.841 363.874H378.098C380.577 363.874 382.587 365.884 382.587 368.364V439.977C382.587 442.455 380.577 444.466 378.098 444.466Z" fill="url(#paint18_linear_46_3801)"/>
<path d="M187.759 393.396C187.87 385.717 175.81 385.716 175.923 393.396C175.811 401.074 187.872 401.074 187.759 393.396Z" fill="url(#paint19_radial_46_3801)"/>
<path d="M209.593 393.396C209.705 385.717 197.644 385.716 197.757 393.396C197.645 401.074 209.706 401.074 209.593 393.396Z" fill="url(#paint20_radial_46_3801)"/>
<path d="M231.429 393.396C231.541 385.717 219.48 385.716 219.593 393.396C219.48 401.074 231.542 401.074 231.429 393.396Z" fill="url(#paint21_radial_46_3801)"/>
<path d="M371.98 438.342H160.958C159.194 438.342 157.76 436.906 157.76 435.143V373.362C157.76 371.598 159.195 370.165 160.958 370.165H371.98C373.743 370.165 375.178 371.599 375.178 373.362V435.143C375.179 436.906 373.743 438.342 371.98 438.342ZM160.958 372.027C160.222 372.027 159.623 372.626 159.623 373.361V435.142C159.302 438.96 370.668 435.195 371.982 436.48C372.715 436.477 373.314 435.878 373.314 435.142V373.361C373.314 372.626 372.715 372.027 371.98 372.027H160.958V372.027Z" fill="#6428BB"/>
<path d="M300.312 430.063V378.799C299.973 378.064 306.209 378.658 306.363 378.475C307.305 378.385 306.365 429.751 306.688 430.063C307.026 430.798 300.79 430.203 300.636 430.387C300.456 430.387 300.312 430.242 300.312 430.063Z" fill="#6428BB"/>
<path d="M317.314 430.063V378.799C316.976 378.064 323.211 378.658 323.365 378.475C324.307 378.385 323.367 429.751 323.69 430.063C324.028 430.798 317.792 430.203 317.638 430.387C317.458 430.387 317.314 430.242 317.314 430.063Z" fill="#6428BB"/>
<path d="M334.314 430.063V378.799C333.976 378.064 340.212 378.658 340.366 378.475C341.307 378.385 340.368 429.751 340.69 430.063C341.028 430.798 334.792 430.203 334.638 430.387C334.46 430.387 334.314 430.242 334.314 430.063Z" fill="#6428BB"/>
<path d="M351.314 430.063V378.799C350.976 378.064 357.212 378.658 357.366 378.475C358.308 378.385 357.368 429.751 357.691 430.063C358.028 430.798 351.793 430.203 351.638 430.387C351.46 430.387 351.314 430.242 351.314 430.063Z" fill="#6428BB"/>
<path d="M281.566 418.245H176.256C175.406 418.567 176.177 412.377 175.921 412.204C175.802 411.199 281.265 412.226 281.567 411.869C282.417 411.547 281.645 417.737 281.901 417.91C281.901 418.096 281.752 418.245 281.566 418.245Z" fill="#6428BB"/>
<g opacity="0.21">
<path d="M281.59 411.869H279.414C279.586 411.869 279.726 412.01 279.726 412.182C279.589 412.336 280.065 418.58 279.414 418.245C279.697 418.117 281.967 418.555 281.901 417.933C281.765 417.783 282.239 411.532 281.59 411.869Z" fill="#281F49"/>
</g>
<path d="M361.115 531.647H137.859C135.38 531.647 133.369 529.636 133.369 527.158V455.545C133.369 453.065 135.38 451.055 137.859 451.055H361.115C363.595 451.055 365.605 453.065 365.605 455.545V527.158C365.605 529.637 363.596 531.647 361.115 531.647Z" fill="url(#paint22_linear_46_3801)"/>
<path d="M378.098 531.647H154.841C152.362 531.647 150.352 529.636 150.352 527.158V455.545C150.352 453.065 152.362 451.055 154.841 451.055H378.098C380.577 451.055 382.587 453.065 382.587 455.545V527.158C382.587 529.637 380.577 531.647 378.098 531.647Z" fill="url(#paint23_linear_46_3801)"/>
<path d="M187.759 480.578C187.87 472.899 175.81 472.899 175.923 480.578C175.811 488.256 187.872 488.256 187.759 480.578Z" fill="url(#paint24_radial_46_3801)"/>
<path d="M209.593 480.578C209.705 472.899 197.644 472.899 197.757 480.578C197.645 488.256 209.706 488.256 209.593 480.578Z" fill="url(#paint25_radial_46_3801)"/>
<path d="M231.429 480.578C231.541 472.899 219.48 472.899 219.593 480.578C219.48 488.256 231.542 488.256 231.429 480.578Z" fill="url(#paint26_radial_46_3801)"/>
<path d="M371.98 525.523H160.958C159.194 525.523 157.76 524.087 157.76 522.324V460.543C157.76 458.779 159.195 457.346 160.958 457.346H371.98C373.743 457.346 375.178 458.78 375.178 460.543V522.324C375.179 524.088 373.743 525.523 371.98 525.523ZM160.958 459.209C160.222 459.209 159.623 459.808 159.623 460.543V522.324C159.302 526.142 370.668 522.377 371.982 523.662C372.715 523.66 373.314 523.06 373.314 522.324V460.543C373.314 459.808 372.715 459.209 371.98 459.209H160.958Z" fill="#6428BB"/>
<path d="M300.312 517.244V465.98C299.973 465.245 306.209 465.84 306.363 465.656C307.305 465.566 306.365 516.932 306.688 517.244C307.026 517.98 300.79 517.384 300.636 517.568C300.456 517.568 300.312 517.424 300.312 517.244Z" fill="#6428BB"/>
<path d="M317.314 517.244V465.98C316.976 465.245 323.211 465.84 323.365 465.656C324.307 465.566 323.367 516.932 323.69 517.244C324.028 517.98 317.792 517.384 317.638 517.568C317.458 517.568 317.314 517.424 317.314 517.244Z" fill="#6428BB"/>
<path d="M334.314 517.244V465.98C333.976 465.245 340.212 465.84 340.366 465.656C341.307 465.566 340.368 516.932 340.69 517.245C341.028 517.98 334.792 517.384 334.638 517.568C334.46 517.568 334.314 517.424 334.314 517.244Z" fill="#6428BB"/>
<path d="M351.314 517.244V465.98C350.976 465.245 357.212 465.84 357.366 465.656C358.308 465.566 357.368 516.932 357.691 517.244C358.028 517.98 351.793 517.384 351.638 517.568C351.46 517.568 351.314 517.424 351.314 517.244Z" fill="#6428BB"/>
<path d="M281.566 505.427H176.256C175.406 505.75 176.177 499.56 175.921 499.386C175.802 498.381 281.265 499.408 281.567 499.051C282.417 498.729 281.645 504.919 281.901 505.092C281.901 505.277 281.752 505.427 281.566 505.427Z" fill="#6428BB"/>
<g opacity="0.21">
<path d="M281.59 499.051H279.414C279.586 499.051 279.726 499.192 279.726 499.364C279.589 499.518 280.065 505.762 279.414 505.427C279.697 505.299 281.967 505.737 281.901 505.115C281.765 504.965 282.239 498.715 281.59 499.051Z" fill="#281F49"/>
</g>
<path d="M451.091 355.146C452.01 380 479.062 427.489 500.717 442.499C520.621 453.366 585.516 456.165 589.067 451.313C589.067 451.313 543.305 424.647 517.838 413.634C517.838 413.634 506.501 379.253 483.658 347.255C470.741 329.161 450.014 326.016 451.091 355.146Z" fill="#FFC697"/>
<path d="M483.92 401.97C488.078 392.557 500.106 391.194 504.433 382.16C452.067 278.545 428.443 360.498 482.867 424.623C481.045 416.998 480.8 409.035 483.92 401.97Z" fill="#FE9474"/>
<path d="M453.881 329.281C436.904 337.281 449.688 379.296 457.536 393.897C473.602 400.667 500.346 391 507.226 373.391C492.634 345.334 474.126 319.741 453.881 329.281Z" fill="url(#paint27_linear_46_3801)"/>
<path d="M427.609 318.834C412.633 317.626 388.535 322.647 381.279 332.193C374.024 341.74 374.7 435.547 390.191 485.224C390.191 485.224 467.86 464.31 483.914 452.806C483.914 452.806 474.573 424.657 475.518 417.26C476.463 409.863 481.362 342.266 472.069 330.773C462.775 319.278 427.609 318.834 427.609 318.834Z" fill="url(#paint28_linear_46_3801)"/>
<path opacity="0.19" d="M467.593 446.313C437.07 455.592 385.077 461.02 393.258 413.596C396.616 384.721 413.619 349.563 385.467 328.307C369.877 339.481 375.8 431.594 390.193 485.225C390.193 485.225 467.861 464.311 483.915 452.807C483.915 452.807 482.244 447.771 480.389 441.403C476.267 443.379 471.939 444.953 467.593 446.313Z" fill="#211F41"/>
<path d="M455.778 253.35C460.07 246.824 464.1 238.998 463.514 230.979C451.763 225.674 436.341 227.147 425.63 232.381C431.225 226.279 422.698 230.379 421.948 233.844C420.542 233.498 415.594 231.719 415.57 233.938C416.706 235.606 419.008 234.725 418.274 236.425C405.43 245.494 399.256 272.086 414.509 283.1C415.655 283.998 418.531 282.507 416.822 281.407C416.471 273.346 418.923 256.39 422.614 250.427C432.427 255.144 444.47 255.478 455.23 255.031C455.245 254.492 455.399 253.926 455.778 253.35Z" fill="#372842"/>
<path d="M445.067 315.898C444.343 318.277 451.491 332.531 446.554 335.074C444.073 336.463 431.066 336.775 423.167 332.405C415.424 328.121 416.27 324.035 415.975 322.924C415.681 321.81 419.188 298.899 419.188 298.899L445.067 315.898Z" fill="#FFC697"/>
<path d="M437.373 322.613C430.312 318.508 422.821 315.167 416.021 321.677C416.463 316.89 419.188 298.898 419.188 298.898L445.066 315.896C445.066 315.896 445.955 322.068 447.256 325.503C443.859 324.949 440.538 323.845 437.373 322.613Z" fill="url(#paint29_linear_46_3801)"/>
<path d="M470.115 252.025C470.115 252.025 471.719 263.486 467.586 281.812C467.004 284.394 469.277 290.798 468 295.766C460.904 327.027 438.219 322.76 419.745 301.915C414.181 295.89 413.356 261.429 415.965 254.348C418.573 247.27 465.064 237.261 470.115 252.025Z" fill="#FFC697"/>
<path d="M415.964 254.349C417.838 249.262 439.056 245.993 452.734 250.026C447.357 253.047 441.26 254.415 435.585 256.62C429.3 261.373 423.032 267.239 420.221 274.784C415.736 296.417 421.8 308.358 446.933 318.784C436.442 318.192 424.567 307.138 419.746 301.918C414.181 295.891 413.356 261.43 415.964 254.349Z" fill="#FE9474"/>
<path d="M434.541 275.152C434.407 276.355 436.437 274.718 437.231 274.878C440.652 275.18 443.728 276.453 446.658 278.199C447.088 278.417 447.641 278.556 447.997 278.141C449.067 275.533 447.168 270.723 445.687 268.242C439.392 263.631 434.884 270.135 434.541 275.152Z" fill="#FE9474"/>
<path d="M448.422 277.424C448.159 284.71 432.399 282.416 434.542 275.153C436.332 269.006 448.876 270.721 448.422 277.424Z" fill="white"/>
<path d="M438.252 278.793C437.816 272.375 447.902 271.84 448.149 278.268C448.584 284.68 438.498 285.217 438.252 278.793Z" fill="#BC6139"/>
<path d="M438.252 278.793C438.499 285.217 448.585 284.68 448.149 278.267C447.902 271.84 437.815 272.375 438.252 278.793ZM439.222 279.574C437.631 274.213 445.722 272.851 447.472 277.457C449.101 282.742 440.651 284.756 439.222 279.574Z" fill="#994D26"/>
<path d="M439.625 278.72C439.311 274.086 446.596 273.699 446.773 278.34C447.088 282.972 439.804 283.359 439.625 278.72Z" fill="#040000"/>
<path d="M439.625 278.72C439.311 274.086 446.596 273.699 446.773 278.34C447.088 282.972 439.804 283.359 439.625 278.72Z" fill="#040000"/>
<path d="M439.756 276.166C439.64 274.439 442.354 274.295 442.42 276.024C442.537 277.752 439.823 277.896 439.756 276.166Z" fill="white"/>
<path d="M447.978 275.459C447.766 270.584 436.797 269.582 435.109 273.98C438.3 270.367 445.792 270.488 447.978 275.459Z" fill="#00000C"/>
<path d="M467.73 275.939C466.988 277.914 463.879 276.661 462.229 277.288C460.32 277.277 458.216 279.708 456.508 278.844C455.906 276.377 457.913 272.345 459.393 270.233C464.055 267.125 468.163 272.002 467.73 275.939Z" fill="#FE9474"/>
<path d="M456.3 278.217C455.791 284.926 468.432 283.938 467.488 277.459C466.784 271.619 456.433 272.514 456.3 278.217Z" fill="white"/>
<path d="M467.437 280.358C468.52 274.672 460.648 273.274 459.708 278.984C458.624 284.666 466.495 286.066 467.437 280.358Z" fill="#BC6139"/>
<path d="M467.437 280.358C466.495 286.065 458.624 284.666 459.708 278.984C460.648 273.274 468.521 274.673 467.437 280.358ZM466.582 280.966C468.541 276.609 462.292 274.25 460.334 278.324C458.344 282.661 464.865 285.54 466.582 280.966Z" fill="#994D26"/>
<path d="M466.364 280.168C467.147 276.063 461.461 275.052 460.781 279.176C459.999 283.279 465.685 284.289 466.364 280.168Z" fill="#040000"/>
<path d="M466.364 280.168C467.147 276.063 461.461 275.052 460.781 279.176C459.999 283.279 465.685 284.289 466.364 280.168Z" fill="#040000"/>
<path d="M466.557 277.878C466.848 276.35 464.73 275.973 464.477 277.508C464.185 279.039 466.303 279.416 466.557 277.878Z" fill="white"/>
<path d="M456.877 276.532C459.266 272.439 464.747 272.687 467.195 276.395C466.345 272.018 457.303 272.318 456.877 276.532Z" fill="#00000C"/>
<path d="M454.341 306.141C451.853 306.405 447.374 306.39 440.16 301.527C440.16 301.527 443.34 306.393 449.137 307.063C454.934 307.731 454.341 306.141 454.341 306.141Z" fill="#F98967"/>
<path d="M438.934 299.207C439.86 298.67 442.186 299.769 442.185 299.902C441.804 300.384 440.028 299.989 439.406 300.425C438.795 300.744 438.24 302.454 438.032 302.443C437.838 302.432 437.925 299.793 438.934 299.207Z" fill="#F98967"/>
<path d="M449.344 296.191C452.425 297.634 457.996 298.556 460.297 295.51C461.895 291.697 454.244 294.756 452.514 294.755C451.606 294.936 448.142 294.574 449.344 296.191Z" fill="#FFA97B"/>
<path d="M454.302 293.929C456.239 293.365 458.228 292.375 460.107 293.425C460.768 293.791 460.568 294.764 459.905 294.393C459.1 293.051 452.065 295.569 454.302 293.929Z" fill="#FFD8BB"/>
<path d="M451.825 297.468C456.138 298.299 462.085 297.748 460.502 293.511C460.172 292.596 458.169 290.907 457.647 289.509C456.206 285.654 455.464 278.595 455.456 278.53L455.14 278.868C455.176 279.137 455.889 285.711 457.148 289.507C457.663 291.059 459.672 292.886 460.016 293.841C461.87 298.821 449.19 296.554 449.551 296.607C450.198 296.883 451.153 297.309 451.825 297.468Z" fill="#F98967"/>
<path d="M451.745 292.086C451.745 292.086 446.624 290.277 446.893 293.988C445.194 289.455 450.382 291.17 451.745 292.086Z" fill="#F98967"/>
<path d="M453.052 295.896C453.052 295.896 450.744 293.855 449.074 294.824C447.405 295.791 453.052 295.896 453.052 295.896Z" fill="#F98967"/>
<path d="M416.462 277.715C403.066 265.721 404.013 290.758 411.135 291.442C417.401 291.834 421 285.516 416.462 277.715Z" fill="#FE9474"/>
<path d="M415.997 282.709C418.667 283.855 411.946 276.592 410.314 277.67C407.992 281.182 407.293 292.674 414.326 287.807C410.108 289.221 410.717 280.584 415.997 282.709Z" fill="#F0665E"/>
<path d="M408.254 275.514C409.478 274.043 417.409 277.706 414.738 277.539C413.244 276.507 410.037 275.947 408.684 276.58C407.166 276.723 406.856 282.735 406.538 280.92C406.368 279.622 406.117 276.362 408.254 275.514Z" fill="#FFC697"/>
<path d="M436.662 264.363C439.023 264.99 446.26 262.696 446.873 265.827C447.037 264.879 446.864 263.769 447.001 263.691C447.133 263.535 447.918 266.65 446.981 266.927C443.673 267.937 434.761 265.628 431.76 269.69C431.761 269.69 434.996 264.335 436.662 264.363Z" fill="#00000C"/>
<path d="M459.223 268.093C459.197 267.035 460.886 264.49 460.16 266.611C461.491 265.958 465.083 267.76 466.575 267.719C467.7 267.928 469.645 273.212 469.645 273.212C467.715 268.992 461.936 270.155 459.401 268.484V268.481C459.3 268.386 459.226 268.252 459.223 268.093Z" fill="#00000C"/>
<path d="M450.582 310.645C450.582 310.645 448.663 307.992 445.166 309.977C445.166 309.977 448.86 309.401 450.582 310.645Z" fill="#F98967"/>
<path d="M406.163 438.004C400.634 431.693 378.296 447.871 375.689 476.916C373.082 505.961 372.696 528.287 402.493 536.735C432.29 545.183 469.755 539.369 477.471 530.709C485.187 522.049 474.927 468.91 463.011 462.952C451.095 456.994 419.879 453.656 406.163 438.004Z" fill="#6428BB"/>
<path opacity="0.57" d="M470.808 501.531C449.282 499.066 427.751 496.628 406.275 493.758C423.025 514.874 454.602 515.176 472.916 533.97C482.464 528.993 481.191 519.559 482.479 502.88C478.587 502.43 474.697 501.978 470.808 501.531Z" fill="#211F41"/>
<path d="M492.4 529.913C492.4 529.913 472.489 549.946 459.321 556.83C446.154 563.713 435.477 542.355 444.614 534.51C451.468 528.623 485.485 514.526 485.485 514.526L492.4 529.913Z" fill="url(#paint30_linear_46_3801)"/>
<path d="M494.522 530.961C494.522 530.961 473.544 549.452 460.376 556.336C447.208 563.219 440.129 541.72 446.735 535.558C453.342 529.397 485.813 515.722 485.813 515.722L494.522 530.961Z" fill="url(#paint31_linear_46_3801)"/>
<path d="M446.737 535.558C448.102 534.285 450.21 532.929 452.684 531.58C462.309 532.857 469.948 544.512 465.272 553.463C451.378 566.394 438.447 545.473 446.737 535.558Z" fill="url(#paint32_linear_46_3801)"/>
<path d="M503.124 526.662C503.124 526.662 496.202 530.033 493.975 531.306C486.594 535.569 472.327 526.631 480.819 517.379C484.651 514.297 494.711 505.226 494.711 505.226L503.124 526.662Z" fill="#FFC697"/>
<path d="M466.654 530.561C469.297 525.866 477.225 534.569 475.741 538.481C475.319 540.149 472.724 539.465 473.162 537.793C473.348 535.717 471.621 533.379 469.866 532.416C468.799 531.73 466.714 532.268 466.654 530.561Z" fill="url(#paint33_linear_46_3801)"/>
<path d="M471.719 527.365C474.362 522.671 482.29 531.374 480.806 535.285C480.385 536.953 477.789 536.271 478.227 534.598C478.413 532.522 476.686 530.183 474.932 529.22C473.863 528.535 471.778 529.074 471.719 527.365Z" fill="url(#paint34_linear_46_3801)"/>
<path d="M442.967 457.553C462.444 451.628 516.177 435.83 526.377 432.977C647.038 403.39 584.617 501.35 499.13 531.151C494.706 532.684 484.921 510.926 484.921 510.926L442.967 457.553Z" fill="#6428BB"/>
<path opacity="0.27" d="M538.374 501.42C528.478 482.949 510.335 481.885 512.924 471.673C506.944 473.094 501.294 473.774 495.815 470.447C481.049 466.949 465.887 462.677 452.164 456.58C451.253 456.3 450.361 455.965 449.491 455.574C445.418 456.806 442.967 457.553 442.967 457.553L484.921 510.926C484.921 510.926 525.881 520.112 529.853 517.629C534.469 514.744 540.853 509.979 545.393 506.93C542.345 506.386 540.359 503.586 538.374 501.42Z" fill="#211F41"/>
<path d="M541.055 533.059C541.055 533.059 565.571 547.086 580.093 550.226C594.615 553.366 599.238 529.942 588.346 524.802C580.175 520.948 543.635 516.387 543.635 516.387L541.055 533.059Z" fill="url(#paint35_linear_46_3801)"/>
<path d="M539.285 534.633C539.285 534.633 564.42 546.89 578.943 550.029C593.465 553.17 594.582 530.562 586.576 526.376C578.57 522.19 543.635 517.629 543.635 517.629L539.285 534.633Z" fill="url(#paint36_linear_46_3801)"/>
<path d="M586.575 526.376C584.921 525.511 582.529 524.764 579.785 524.12C570.845 527.908 566.575 541.172 573.46 548.559C590.289 557.338 597.201 533.733 586.575 526.376Z" fill="url(#paint37_linear_46_3801)"/>
<path d="M529.852 532.771C529.852 532.771 537.421 534.183 539.907 534.82C548.155 536.969 559.537 524.564 548.892 517.899C544.38 515.945 532.273 509.871 532.273 509.871L529.852 532.771Z" fill="#FFC697"/>
<path d="M566.047 526.846C562.254 523.022 556.92 533.518 559.39 536.895C560.24 538.391 562.561 537.043 561.694 535.548C560.965 533.596 562.008 530.883 563.444 529.488C564.291 528.544 566.444 528.509 566.047 526.846Z" fill="url(#paint38_linear_46_3801)"/>
<path d="M560.316 525.111C556.522 521.287 551.189 531.782 553.659 535.158C554.508 536.656 556.829 535.308 555.963 533.812C555.234 531.859 556.276 529.147 557.712 527.752C558.56 526.809 560.714 526.773 560.316 525.111Z" fill="url(#paint39_linear_46_3801)"/>
<path d="M477.867 235.671C477.226 236.335 476.849 236.071 476.826 236.113C478.642 233.986 476.576 214.004 472.811 220.659C471.181 224.521 466.486 229.589 461.798 228.691C451.206 226.154 433.751 228.412 425.63 232.38C431.225 226.278 422.698 230.378 421.948 233.843C420.543 233.497 415.593 231.718 415.57 233.937C416.706 235.605 419.008 234.724 418.274 236.424C414.482 237.169 409.317 247.511 408.436 250.109C409.634 255.125 410.395 260.363 412.863 264.935C415.245 270.351 413.357 276.605 415.617 281.998C417.442 286.965 416.789 271.453 417.271 270.135C417.501 266.796 421.196 251.239 422.615 250.426C433.339 256.489 451.648 254.56 462.651 254.211C478.146 252.875 483.885 229.488 477.867 235.671Z" fill="#372842"/>
<path opacity="0.57" d="M548.688 436.949C546.12 438.282 543.927 440.235 542.3 442.603C544.196 429.619 537.141 446.736 533.675 448.883C532.094 452.342 472.443 497.591 498.003 483.821C511.398 476.684 548.716 450.688 548.688 436.949Z" fill="#211F41"/>
<path d="M394.467 440.268C408.088 430.743 413.301 431.487 459.103 458.67C504.905 485.853 543.259 509.313 543.259 509.313C543.259 509.313 539.162 529.901 528.736 536.736C528.736 536.736 410.573 497.024 406.166 494.79C401.759 492.556 394.467 440.268 394.467 440.268Z" fill="#6428BB"/>
<path d="M459.487 234.646C457.881 233.964 456.247 233.355 454.591 232.806C462.051 234.625 460.657 232.445 454.742 230.663C455.603 230.592 459.521 231.464 457.957 229.827C454.218 226.486 423.615 231.434 439.337 232.536C438.429 232.72 434.241 234.411 436.458 235.097C443.917 233.136 451.72 234.193 459.17 235.628C459.739 235.738 460.035 234.879 459.487 234.646Z" fill="#564466"/>
<path d="M517.838 413.634C517.838 413.634 517.056 411.268 515.504 407.226C507.501 416.318 498.554 424.504 490.793 433.807C503.206 455.35 578.609 453.169 583.14 453.938C583.139 453.938 589.067 451.313 589.067 451.313C589.067 451.313 543.305 424.646 517.838 413.634Z" fill="#FFC697"/>
<path d="M375.781 343.181C319.994 459.524 331.488 453.528 444.377 448.563L450.666 432.335C450.666 432.335 404.095 418.352 385.289 418.352C385.289 418.352 400.152 398.03 406.775 355.92C410.229 333.958 392.017 318.971 375.781 343.181Z" fill="#FFC697"/>
<path d="M356.732 402.5C368.848 395.201 383.062 400.215 396.042 396.883C399.942 386.836 404.055 373.221 406.776 355.92C410.23 333.958 392.016 318.971 375.781 343.182C366.611 356.856 355.393 384.409 348.771 407.891C351.211 405.836 353.867 404.017 356.732 402.5Z" fill="#FE9474"/>
<path d="M385.379 418.225C385.644 417.848 386.542 416.541 387.849 414.287C380.744 415.857 373.768 418.056 368.203 422.713C373.852 421.275 379.919 420.516 385.379 418.225Z" fill="#FE9474"/>
<path d="M398.45 324.941C380.626 319.066 360.998 358.353 356.648 374.349C363.651 390.316 389.711 401.699 406.818 393.653C415.53 363.252 419.706 331.945 398.45 324.941Z" fill="url(#paint40_linear_46_3801)"/>
<path d="M479.66 444.322L479.662 444.323C473.603 427.174 442.749 432.943 436.596 433.502L446.486 438.191C446.369 443.324 456.241 443.091 461.485 442.073C467.775 438.756 480.943 454.699 479.66 444.322Z" fill="#FFC697"/>
<path d="M481.445 449.689C477.453 454.156 470.573 442.057 463.244 445.002C457.45 446.127 452.908 445.939 448.319 441.614C447.448 440.792 447.833 439.778 448.595 439.337C453.146 435.169 462.893 437.576 468.852 437.803C473.433 438.527 483.086 444.888 481.445 449.689Z" fill="#FFC697"/>
<path d="M478.846 451.253C474.857 455.719 467.971 443.62 460.645 446.566C454.135 448.313 437.621 447.847 443.594 437.566C444.257 436.168 448.028 439.164 450.062 438.962C459.315 437.676 478.722 439.113 478.846 451.253Z" fill="#FFC697"/>
<path opacity="0.35" d="M462.903 439.132C471.035 439.007 473.016 448.035 478.36 451.985C471.626 453.2 468.506 444.085 460.644 446.567C455.432 447.544 441.528 448.901 442.461 440.772C449.222 438.963 456.024 438.291 462.903 439.132Z" fill="url(#paint41_linear_46_3801)"/>
<path d="M474.051 451.539C470.401 457.76 463.174 443.457 455.604 447.994C449.733 450.162 445.13 450.514 440.478 445.661C439.593 444.738 439.984 443.41 440.755 442.756C444.664 437.251 455.187 438.529 461.279 438.197C465.921 438.516 475.708 445.276 474.051 451.539Z" fill="#FFC697"/>
<path d="M495.76 455.284H615.973L640.891 385.833H520.678L495.76 455.284Z" fill="url(#paint42_linear_46_3801)"/>
<path d="M500.348 455.284H620.561L645.479 385.833H525.265L500.348 455.284Z" fill="url(#paint43_linear_46_3801)"/>
<path d="M552.777 426.89H593.046L597.362 414.228H557.094L552.777 426.89Z" fill="url(#paint44_linear_46_3801)"/>
<path d="M500.347 447.955H435.25V455.284H500.347V447.955Z" fill="url(#paint45_linear_46_3801)"/>
<path d="M566.045 454.832C565.044 459.625 579.158 465.017 585.216 459.867C590.374 455.803 578.792 453.287 578.792 453.287L566.045 454.832Z" fill="#FFC697"/>
<path d="M594.457 459.756C598.305 456.84 584.122 436.99 584.725 448.709C583.144 446.606 581.86 444.287 580.139 442.302C578.337 440.367 574.804 441.803 575.479 444.545C571.787 443.844 572.815 448.297 573.351 450.424C572.608 449.426 570.704 448.758 570.157 450.237C567.985 461.688 587.065 466.051 594.457 459.756Z" fill="#FFC697"/>
<path d="M584.725 448.709C584.725 448.709 589.552 456.758 589.699 458.24C589.846 459.722 588.075 462.205 588.075 462.205C594.744 458.83 585.756 448.833 584.632 446.68C584.631 446.68 584.563 447.496 584.725 448.709Z" fill="#FE9474"/>
<path d="M575.479 444.545C575.479 444.545 584.037 457.742 584.016 459.428C583.995 461.112 581.912 462.431 581.912 462.431C581.912 462.431 585.15 460.811 585.091 458.946C585.032 457.081 576.325 444.69 575.719 442.676C575.72 442.676 575.051 443.879 575.479 444.545Z" fill="#FE9474"/>
<path d="M573.351 450.424C573.254 450.892 581.787 460.727 579.149 461.917C579.149 461.917 580.656 460.759 580.311 459.793C579.966 458.828 572.775 447.104 572.775 447.104L573.351 450.424Z" fill="#FE9474"/>
<path d="M570.187 454.346C570.187 454.346 571.621 457.713 573.967 459.151C573.967 459.151 568.883 456.309 568.508 454.534L570.187 454.346Z" fill="#FE9474"/>
<path d="M416.732 117.255C410.01 80.753 354.28 85.713 354.503 123.239C353.943 155.812 399.91 166.365 413.864 137.529H421.812L428.175 131.167H432.966L440.387 137.529H445.686V131.699H456.555V137.529H467.689V131.965L473.648 131.899L473.515 137.53H481.62L487.403 131.7L497.83 131.876V137.53H509.749L520.266 117.256H416.732V117.255ZM374.112 129.116C364.925 129.25 364.926 114.818 374.113 114.957C383.297 114.821 383.298 129.25 374.112 129.116Z" fill="url(#paint46_linear_46_3801)"/>
<path d="M385.906 98.822C353.812 99.369 353.817 147.11 385.907 147.652C418 147.105 417.995 99.365 385.906 98.822ZM374.111 129.116C364.924 129.25 364.925 114.818 374.112 114.957C383.296 114.821 383.297 129.25 374.111 129.116Z" fill="url(#paint47_linear_46_3801)"/>
<path d="M509.703 123.236C508.485 122.129 416.8 125.406 417.046 122.034C416.775 118.663 508.515 121.94 509.705 120.83C510.367 120.832 510.905 121.371 510.905 122.034C510.905 122.698 510.367 123.236 509.703 123.236Z" fill="url(#paint48_linear_46_3801)"/>
<path d="M345.213 122.036C345.299 116.169 336.082 116.168 336.169 122.037C336.083 127.904 345.3 127.904 345.213 122.036Z" fill="url(#paint49_linear_46_3801)"/>
<path d="M326.358 122.036C326.444 116.169 317.226 116.168 317.313 122.037C317.228 127.904 326.444 127.904 326.358 122.036Z" fill="url(#paint50_linear_46_3801)"/>
<path d="M307.503 122.036C307.589 116.169 298.372 116.168 298.458 122.037C298.372 127.904 307.59 127.904 307.503 122.036Z" fill="url(#paint51_linear_46_3801)"/>
<path d="M288.649 122.036C288.735 116.169 279.518 116.168 279.604 122.037C279.519 127.904 288.736 127.904 288.649 122.036Z" fill="url(#paint52_linear_46_3801)"/>
<path d="M269.796 122.036C269.881 116.169 260.664 116.168 260.751 122.037C260.665 127.904 269.882 127.904 269.796 122.036Z" fill="url(#paint53_linear_46_3801)"/>
<path d="M269.796 141.014C269.881 135.146 260.664 135.146 260.751 141.014C260.665 146.881 269.882 146.881 269.796 141.014Z" fill="url(#paint54_linear_46_3801)"/>
<path d="M269.796 159.99C269.881 154.122 260.664 154.122 260.751 159.99C260.665 165.857 269.882 165.857 269.796 159.99Z" fill="url(#paint55_linear_46_3801)"/>
<path d="M269.796 178.967C269.881 173.1 260.664 173.099 260.751 178.967C260.665 184.834 269.882 184.834 269.796 178.967Z" fill="url(#paint56_linear_46_3801)"/>
<defs>
<linearGradient id="paint0_linear_46_3801" x1="498.504" y1="240.196" x2="669.937" y2="240.196" gradientUnits="userSpaceOnUse">
<stop stop-color="#418106"/>
<stop offset="0.6774" stop-color="#418106"/>
<stop offset="1" stop-color="#418106"/>
</linearGradient>
<linearGradient id="paint1_linear_46_3801" x1="508.315" y1="240.195" x2="671.057" y2="240.195" gradientUnits="userSpaceOnUse">
<stop stop-color="#FF869F"/>
<stop offset="0.3226" stop-color="#FF7693"/>
<stop offset="1" stop-color="#FE597D"/>
</linearGradient>
<linearGradient id="paint2_linear_46_3801" x1="527.057" y1="240.195" x2="652.403" y2="240.195" gradientUnits="userSpaceOnUse">
<stop stop-color="#418106"/>
<stop offset="0.6774" stop-color="#418106"/>
<stop offset="1" stop-color="#418106"/>
</linearGradient>
<linearGradient id="paint3_linear_46_3801" x1="574.205" y1="211.929" x2="608.346" y2="211.929" gradientUnits="userSpaceOnUse">
<stop stop-color="#F2F2F2"/>
<stop offset="0.9976" stop-color="white"/>
</linearGradient>
<linearGradient id="paint4_linear_46_3801" x1="575.975" y1="211.943" x2="610.116" y2="211.943" gradientUnits="userSpaceOnUse">
<stop offset="0.0024" stop-color="white"/>
<stop offset="1" stop-color="#F2F2F2"/>
</linearGradient>
<linearGradient id="paint5_linear_46_3801" x1="562.33" y1="242.33" x2="613.735" y2="242.33" gradientUnits="userSpaceOnUse">
<stop stop-color="#F2F2F2"/>
<stop offset="0.9976" stop-color="white"/>
</linearGradient>
<linearGradient id="paint6_linear_46_3801" x1="567.112" y1="242.368" x2="618.516" y2="242.368" gradientUnits="userSpaceOnUse">
<stop offset="0.0024" stop-color="white"/>
<stop offset="1" stop-color="#F2F2F2"/>
</linearGradient>
<linearGradient id="paint7_linear_46_3801" x1="133.369" y1="233.34" x2="365.606" y2="233.34" gradientUnits="userSpaceOnUse">
<stop offset="0.0024" stop-color="#7937D2"/>
<stop offset="1" stop-color="#C66BEC"/>
</linearGradient>
<linearGradient id="paint8_linear_46_3801" x1="150.351" y1="233.34" x2="382.586" y2="233.34" gradientUnits="userSpaceOnUse">
<stop stop-color="#C66BEC"/>
<stop offset="0.9976" stop-color="#7937D2"/>
</linearGradient>
<radialGradient id="paint9_radial_46_3801" cx="0" cy="0" r="1" gradientUnits="userSpaceOnUse" gradientTransform="translate(180.742 220.786) scale(5.8316)">
<stop offset="0.0036" stop-color="#FFC74A"/>
<stop offset="1" stop-color="#F9863F"/>
</radialGradient>
<radialGradient id="paint10_radial_46_3801" cx="0" cy="0" r="1" gradientUnits="userSpaceOnUse" gradientTransform="translate(202.576 220.786) scale(5.8316)">
<stop offset="0.0036" stop-color="#B6D151"/>
<stop offset="1" stop-color="#72AF25"/>
</radialGradient>
<radialGradient id="paint11_radial_46_3801" cx="0" cy="0" r="1" gradientUnits="userSpaceOnUse" gradientTransform="translate(225.51 222.567) scale(5.8394)">
<stop stop-color="#FD4362"/>
<stop offset="1" stop-color="#DA123D"/>
</radialGradient>
<linearGradient id="paint12_linear_46_3801" x1="133.369" y1="320.522" x2="365.606" y2="320.522" gradientUnits="userSpaceOnUse">
<stop offset="0.0024" stop-color="#7937D2"/>
<stop offset="1" stop-color="#C66BEC"/>
</linearGradient>
<linearGradient id="paint13_linear_46_3801" x1="150.351" y1="320.522" x2="382.586" y2="320.522" gradientUnits="userSpaceOnUse">
<stop stop-color="#C66BEC"/>
<stop offset="0.9976" stop-color="#7937D2"/>
</linearGradient>
<radialGradient id="paint14_radial_46_3801" cx="0" cy="0" r="1" gradientUnits="userSpaceOnUse" gradientTransform="translate(180.742 307.968) scale(5.8316)">
<stop offset="0.0036" stop-color="#FFC74A"/>
<stop offset="1" stop-color="#F9863F"/>
</radialGradient>
<radialGradient id="paint15_radial_46_3801" cx="0" cy="0" r="1" gradientUnits="userSpaceOnUse" gradientTransform="translate(202.576 307.968) scale(5.8316)">
<stop offset="0.0036" stop-color="#B6D151"/>
<stop offset="1" stop-color="#72AF25"/>
</radialGradient>
<radialGradient id="paint16_radial_46_3801" cx="0" cy="0" r="1" gradientUnits="userSpaceOnUse" gradientTransform="translate(225.51 309.749) scale(5.8394)">
<stop stop-color="#FD4362"/>
<stop offset="1" stop-color="#DA123D"/>
</radialGradient>
<linearGradient id="paint17_linear_46_3801" x1="133.369" y1="404.17" x2="365.606" y2="404.17" gradientUnits="userSpaceOnUse">
<stop offset="0.0024" stop-color="#7937D2"/>
<stop offset="1" stop-color="#C66BEC"/>
</linearGradient>
<linearGradient id="paint18_linear_46_3801" x1="150.351" y1="404.17" x2="382.586" y2="404.17" gradientUnits="userSpaceOnUse">
<stop stop-color="#C66BEC"/>
<stop offset="0.9976" stop-color="#7937D2"/>
</linearGradient>
<radialGradient id="paint19_radial_46_3801" cx="0" cy="0" r="1" gradientUnits="userSpaceOnUse" gradientTransform="translate(180.742 391.614) scale(5.8316)">
<stop offset="0.0036" stop-color="#FFC74A"/>
<stop offset="1" stop-color="#F9863F"/>
</radialGradient>
<radialGradient id="paint20_radial_46_3801" cx="0" cy="0" r="1" gradientUnits="userSpaceOnUse" gradientTransform="translate(202.576 391.614) scale(5.8316)">
<stop offset="0.0036" stop-color="#B6D151"/>
<stop offset="1" stop-color="#72AF25"/>
</radialGradient>
<radialGradient id="paint21_radial_46_3801" cx="0" cy="0" r="1" gradientUnits="userSpaceOnUse" gradientTransform="translate(225.51 393.396) scale(5.8394)">
<stop stop-color="#FD4362"/>
<stop offset="1" stop-color="#DA123D"/>
</radialGradient>
<linearGradient id="paint22_linear_46_3801" x1="133.369" y1="491.352" x2="365.606" y2="491.352" gradientUnits="userSpaceOnUse">
<stop offset="0.0024" stop-color="#7937D2"/>
<stop offset="1" stop-color="#C66BEC"/>
</linearGradient>
<linearGradient id="paint23_linear_46_3801" x1="150.351" y1="491.352" x2="382.586" y2="491.352" gradientUnits="userSpaceOnUse">
<stop stop-color="#C66BEC"/>
<stop offset="0.9976" stop-color="#7937D2"/>
</linearGradient>
<radialGradient id="paint24_radial_46_3801" cx="0" cy="0" r="1" gradientUnits="userSpaceOnUse" gradientTransform="translate(180.742 478.798) scale(5.8308)">
<stop offset="0.0036" stop-color="#FFC74A"/>
<stop offset="1" stop-color="#F9863F"/>
</radialGradient>
<radialGradient id="paint25_radial_46_3801" cx="0" cy="0" r="1" gradientUnits="userSpaceOnUse" gradientTransform="translate(202.576 478.798) scale(5.8308)">
<stop offset="0.0036" stop-color="#B6D151"/>
<stop offset="1" stop-color="#72AF25"/>
</radialGradient>
<radialGradient id="paint26_radial_46_3801" cx="0" cy="0" r="1" gradientUnits="userSpaceOnUse" gradientTransform="translate(225.51 480.578) scale(5.8389)">
<stop stop-color="#FD4362"/>
<stop offset="1" stop-color="#DA123D"/>
</radialGradient>
<linearGradient id="paint27_linear_46_3801" x1="488.758" y1="397.073" x2="449.22" y2="317.524" gradientUnits="userSpaceOnUse">
<stop stop-color="#C66BEC"/>
<stop offset="0.9976" stop-color="#7937D2"/>
</linearGradient>
<linearGradient id="paint28_linear_46_3801" x1="473.878" y1="331.224" x2="376.387" y2="475.923" gradientUnits="userSpaceOnUse">
<stop stop-color="#C66BEC"/>
<stop offset="0.9976" stop-color="#7937D2"/>
</linearGradient>
<linearGradient id="paint29_linear_46_3801" x1="424.828" y1="304.95" x2="430.808" y2="322.703" gradientUnits="userSpaceOnUse">
<stop stop-color="#EE5F56"/>
<stop offset="1" stop-color="#FD8B71"/>
</linearGradient>
<linearGradient id="paint30_linear_46_3801" x1="492.506" y1="530.291" x2="441.122" y2="544.441" gradientUnits="userSpaceOnUse">
<stop stop-color="#FF7C42"/>
<stop offset="1" stop-color="#FFB905"/>
</linearGradient>
<linearGradient id="paint31_linear_46_3801" x1="444.226" y1="536.701" x2="494.523" y2="536.701" gradientUnits="userSpaceOnUse">
<stop stop-color="#FD4362"/>
<stop offset="1" stop-color="#DA123D"/>
</linearGradient>
<linearGradient id="paint32_linear_46_3801" x1="487.086" y1="535.781" x2="444.757" y2="547.437" gradientUnits="userSpaceOnUse">
<stop offset="0.0024" stop-color="white"/>
<stop offset="1" stop-color="#E6E5EA"/>
</linearGradient>
<linearGradient id="paint33_linear_46_3801" x1="474.992" y1="533.384" x2="467.919" y2="535.332" gradientUnits="userSpaceOnUse">
<stop offset="0.0024" stop-color="white"/>
<stop offset="1" stop-color="#E6E5EA"/>
</linearGradient>
<linearGradient id="paint34_linear_46_3801" x1="480.056" y1="530.189" x2="472.983" y2="532.137" gradientUnits="userSpaceOnUse">
<stop offset="0.0024" stop-color="white"/>
<stop offset="1" stop-color="#E6E5EA"/>
</linearGradient>
<linearGradient id="paint35_linear_46_3801" x1="541.054" y1="533.45" x2="594.349" y2="533.45" gradientUnits="userSpaceOnUse">
<stop stop-color="#FF7C42"/>
<stop offset="1" stop-color="#FFB905"/>
</linearGradient>
<linearGradient id="paint36_linear_46_3801" x1="539.285" y1="533.979" x2="591.53" y2="533.979" gradientUnits="userSpaceOnUse">
<stop stop-color="#FD4362"/>
<stop offset="1" stop-color="#DA123D"/>
</linearGradient>
<linearGradient id="paint37_linear_46_3801" x1="547.735" y1="537.305" x2="591.64" y2="537.305" gradientUnits="userSpaceOnUse">
<stop offset="0.0024" stop-color="white"/>
<stop offset="1" stop-color="#E6E5EA"/>
</linearGradient>
<linearGradient id="paint38_linear_46_3801" x1="558.759" y1="531.783" x2="566.095" y2="531.783" gradientUnits="userSpaceOnUse">
<stop offset="0.0024" stop-color="white"/>
<stop offset="1" stop-color="#E6E5EA"/>
</linearGradient>
<linearGradient id="paint39_linear_46_3801" x1="553.03" y1="530.048" x2="560.366" y2="530.048" gradientUnits="userSpaceOnUse">
<stop offset="0.0024" stop-color="white"/>
<stop offset="1" stop-color="#E6E5EA"/>
</linearGradient>
<linearGradient id="paint40_linear_46_3801" x1="377.123" y1="398.134" x2="403.156" y2="313.202" gradientUnits="userSpaceOnUse">
<stop stop-color="#C66BEC"/>
<stop offset="0.9976" stop-color="#7937D2"/>
</linearGradient>
<linearGradient id="paint41_linear_46_3801" x1="479.592" y1="447.449" x2="442.503" y2="440.52" gradientUnits="userSpaceOnUse">
<stop stop-color="#FD8B71"/>
<stop offset="1" stop-color="#EE5F56"/>
</linearGradient>
<linearGradient id="paint42_linear_46_3801" x1="640.891" y1="420.559" x2="495.76" y2="420.559" gradientUnits="userSpaceOnUse">
<stop stop-color="#F2F2F2"/>
<stop offset="0.9976" stop-color="#E0E0E0"/>
</linearGradient>
<linearGradient id="paint43_linear_46_3801" x1="645.478" y1="420.559" x2="500.347" y2="420.559" gradientUnits="userSpaceOnUse">
<stop offset="0.0024" stop-color="white"/>
<stop offset="1" stop-color="#F2F2F2"/>
</linearGradient>
<linearGradient id="paint44_linear_46_3801" x1="597.363" y1="420.559" x2="552.778" y2="420.559" gradientUnits="userSpaceOnUse">
<stop stop-color="#ABB5BC"/>
<stop offset="0.9976" stop-color="#E0E0E0"/>
</linearGradient>
<linearGradient id="paint45_linear_46_3801" x1="500.347" y1="451.619" x2="435.25" y2="451.619" gradientUnits="userSpaceOnUse">
<stop offset="0.0024" stop-color="#E0E0E0"/>
<stop offset="1" stop-color="#F2F2F2"/>
</linearGradient>
<linearGradient id="paint46_linear_46_3801" x1="485.963" y1="77.7852" x2="391.727" y2="156.984" gradientUnits="userSpaceOnUse">
<stop stop-color="#FF922C"/>
<stop offset="1" stop-color="#FFC23B"/>
</linearGradient>
<linearGradient id="paint47_linear_46_3801" x1="404.447" y1="107.656" x2="371.005" y2="135.762" gradientUnits="userSpaceOnUse">
<stop stop-color="#FF922C"/>
<stop offset="1" stop-color="#FFC23B"/>
</linearGradient>
<linearGradient id="paint48_linear_46_3801" x1="463.974" y1="123.586" x2="463.974" y2="120.787" gradientUnits="userSpaceOnUse">
<stop stop-color="#FF922C"/>
<stop offset="1" stop-color="#E56E0C"/>
</linearGradient>
<linearGradient id="paint49_linear_46_3801" x1="336.168" y1="122.037" x2="345.213" y2="122.037" gradientUnits="userSpaceOnUse">
<stop stop-color="#C66BEC"/>
<stop offset="0.9976" stop-color="#7937D2"/>
</linearGradient>
<linearGradient id="paint50_linear_46_3801" x1="317.313" y1="122.037" x2="326.359" y2="122.037" gradientUnits="userSpaceOnUse">
<stop stop-color="#C66BEC"/>
<stop offset="0.9976" stop-color="#7937D2"/>
</linearGradient>
<linearGradient id="paint51_linear_46_3801" x1="298.457" y1="122.037" x2="307.504" y2="122.037" gradientUnits="userSpaceOnUse">
<stop stop-color="#C66BEC"/>
<stop offset="0.9976" stop-color="#7937D2"/>
</linearGradient>
<linearGradient id="paint52_linear_46_3801" x1="279.604" y1="122.037" x2="288.651" y2="122.037" gradientUnits="userSpaceOnUse">
<stop stop-color="#C66BEC"/>
<stop offset="0.9976" stop-color="#7937D2"/>
</linearGradient>
<linearGradient id="paint53_linear_46_3801" x1="260.75" y1="122.037" x2="269.797" y2="122.037" gradientUnits="userSpaceOnUse">
<stop stop-color="#C66BEC"/>
<stop offset="0.9976" stop-color="#7937D2"/>
</linearGradient>
<linearGradient id="paint54_linear_46_3801" x1="260.75" y1="141.014" x2="269.797" y2="141.014" gradientUnits="userSpaceOnUse">
<stop stop-color="#C66BEC"/>
<stop offset="0.9976" stop-color="#7937D2"/>
</linearGradient>
<linearGradient id="paint55_linear_46_3801" x1="260.75" y1="159.99" x2="269.797" y2="159.99" gradientUnits="userSpaceOnUse">
<stop stop-color="#C66BEC"/>
<stop offset="0.9976" stop-color="#7937D2"/>
</linearGradient>
<linearGradient id="paint56_linear_46_3801" x1="260.75" y1="178.967" x2="269.797" y2="178.967" gradientUnits="userSpaceOnUse">
<stop stop-color="#C66BEC"/>
<stop offset="0.9976" stop-color="#7937D2"/>
</linearGradient>
</defs>
</svg>
