<svg width="376" height="221" viewBox="0 0 376 221" fill="none" xmlns="http://www.w3.org/2000/svg">
<path d="M125.531 15.5001C153.891 21.0801 168.371 53.2001 214.031 81.7801C259.691 110.36 249.641 221.95 177.521 203.78C108.721 186.42 105.521 187.78 60.5206 189.39C4.07065 191.33 35.7906 -2.21995 125.531 15.5001Z" fill="url(#paint0_linear_45_2958)"/>
<path d="M202.441 62.5C189.131 51.95 178.051 33.5 184.351 15.66C190.651 -2.17999 203.661 31 214.141 42.04C229.291 58.02 230.291 84.7 202.441 62.5Z" fill="url(#paint1_linear_45_2958)"/>
<path d="M234.649 205.72H37.8594V207.09H234.649V205.72Z" fill="#C8D3FB"/>
<path d="M77.9795 73.35V65.98H90.1895V30.78H93.5595V65.98H106.719V73.35H113.769V220.95H62.9395V73.35H77.9795Z" fill="#C8D3FB"/>
<path d="M62.9305 206.12H69.9805L69.9805 73.35H62.9305L62.9305 206.12Z" fill="#D5DDFB"/>
<path d="M88.3595 220.95H139.189V108.51H88.3595L88.3595 220.95Z" fill="#C8D3FB"/>
<path d="M88.3504 220.95H95.4004L95.4004 108.51H88.3504L88.3504 220.95Z" fill="#D5DDFB"/>
<path d="M124.8 116.33H132.09V113.3H124.8V116.33Z" fill="#D5DDFB"/>
<path d="M112.521 116.33H119.811V113.3H112.521V116.33Z" fill="#D5DDFB"/>
<path d="M124.8 127.34H132.09V124.31H124.8V127.34Z" fill="#D5DDFB"/>
<path d="M112.521 127.34H119.811V124.31H112.521V127.34Z" fill="#D5DDFB"/>
<path d="M100.239 127.34H107.529V124.31H100.239V127.34Z" fill="#D5DDFB"/>
<path d="M124.8 138.37H132.09V135.34H124.8V138.37Z" fill="#D5DDFB"/>
<path d="M100.239 138.37H107.529V135.34H100.239V138.37Z" fill="#D5DDFB"/>
<path d="M112.521 143.88H119.811V140.85H112.521V143.88Z" fill="#D5DDFB"/>
<path d="M124.8 149.39H132.09V146.36H124.8V149.39Z" fill="#D5DDFB"/>
<path d="M112.521 154.91H119.811V151.88H112.521V154.91Z" fill="#D5DDFB"/>
<path d="M124.8 160.42H132.09V157.39H124.8V160.42Z" fill="#D5DDFB"/>
<path d="M100.239 160.42H107.529V157.39H100.239V160.42Z" fill="#D5DDFB"/>
<path d="M124.8 170.6H132.09V167.57H124.8V170.6Z" fill="#D5DDFB"/>
<path d="M112.521 170.6H119.811V167.57H112.521V170.6Z" fill="#D5DDFB"/>
<path d="M124.8 181.63H132.09V178.6H124.8V181.63Z" fill="#D5DDFB"/>
<path d="M112.521 181.63H119.811V178.6H112.521V181.63Z" fill="#D5DDFB"/>
<path d="M100.239 181.63H107.529V178.6H100.239V181.63Z" fill="#D5DDFB"/>
<path d="M124.8 192.64H132.09V189.61H124.8V192.64Z" fill="#D5DDFB"/>
<path d="M100.239 192.64H107.529V189.61H100.239V192.64Z" fill="#D5DDFB"/>
<path d="M112.521 198.16H119.811V195.13H112.521V198.16Z" fill="#D5DDFB"/>
<path d="M100.239 198.16H107.529V195.13H100.239V198.16Z" fill="#D5DDFB"/>
<path d="M124.8 203.67H132.09V200.64H124.8V203.67Z" fill="#D5DDFB"/>
<path d="M112.521 209.18H119.811V206.15H112.521V209.18Z" fill="#D5DDFB"/>
<path d="M124.8 214.69H132.09V211.66H124.8V214.69Z" fill="#D5DDFB"/>
<path d="M100.239 214.69H107.529V211.66H100.239V214.69Z" fill="#D5DDFB"/>
<path d="M209.981 220.95H260.811V108.51H209.981V220.95Z" fill="#C8D3FB"/>
<path d="M209.97 220.95H217.02V108.51H209.97V220.95Z" fill="#D5DDFB"/>
<path d="M137.771 220.95H205.971L205.971 55.03H137.771V220.95Z" fill="#C8D3FB"/>
<path d="M137.77 220.95H144.82L144.82 55.03H137.77L137.77 220.95Z" fill="#D5DDFB"/>
<path d="M188.139 67.39H198.789V62.97H188.139V67.39Z" fill="#D5DDFB"/>
<path d="M170.209 67.39H180.859V62.97H170.209V67.39Z" fill="#D5DDFB"/>
<path d="M188.139 83.49H198.789V79.07H188.139V83.49Z" fill="#D5DDFB"/>
<path d="M170.209 83.49H180.859V79.07H170.209V83.49Z" fill="#D5DDFB"/>
<path d="M152.27 83.49H162.92V79.07H152.27V83.49Z" fill="#D5DDFB"/>
<path d="M188.139 99.59H198.789V95.17H188.139V99.59Z" fill="#D5DDFB"/>
<path d="M152.27 99.59H162.92V95.17H152.27V99.59Z" fill="#D5DDFB"/>
<path d="M170.209 107.63H180.859V103.21H170.209V107.63Z" fill="#D5DDFB"/>
<path d="M188.139 115.68H198.789V111.26H188.139V115.68Z" fill="#D5DDFB"/>
<path d="M170.209 123.73H180.859V119.31H170.209V123.73Z" fill="#D5DDFB"/>
<path d="M188.139 131.78H198.789V127.36H188.139V131.78Z" fill="#D5DDFB"/>
<path d="M152.27 131.78H162.92V127.36H152.27V131.78Z" fill="#D5DDFB"/>
<path d="M188.139 146.65H198.789V142.23H188.139V146.65Z" fill="#D5DDFB"/>
<path d="M170.209 146.65H180.859V142.23H170.209V146.65Z" fill="#D5DDFB"/>
<path d="M188.139 162.75H198.789V158.33H188.139V162.75Z" fill="#D5DDFB"/>
<path d="M170.209 162.75H180.859V158.33H170.209V162.75Z" fill="#D5DDFB"/>
<path d="M152.27 162.75H162.92V158.33H152.27V162.75Z" fill="#D5DDFB"/>
<path d="M188.139 178.85H198.789V174.43H188.139V178.85Z" fill="#D5DDFB"/>
<path d="M152.27 178.85H162.92V174.43H152.27V178.85Z" fill="#D5DDFB"/>
<path d="M170.209 186.89H180.859V182.47H170.209V186.89Z" fill="#D5DDFB"/>
<path d="M152.27 186.89H162.92V182.47H152.27V186.89Z" fill="#D5DDFB"/>
<path d="M188.139 194.94H198.789V190.52H188.139V194.94Z" fill="#D5DDFB"/>
<path d="M170.209 202.99H180.859V198.57H170.209V202.99Z" fill="#D5DDFB"/>
<path d="M188.139 211.04H198.789V206.62H188.139V211.04Z" fill="#D5DDFB"/>
<path d="M152.27 211.04H162.92V206.62H152.27V211.04Z" fill="#D5DDFB"/>
<path d="M244.99 220.95H311.84V67.4H244.99V220.95Z" fill="#C8D3FB"/>
<path d="M244.99 220.95H251.9L251.9 67.4H244.99L244.99 220.95Z" fill="#D5DDFB"/>
<path d="M294.371 78.84H304.811V74.75H294.371V78.84Z" fill="#D5DDFB"/>
<path d="M276.79 78.84H287.23V74.75H276.79V78.84Z" fill="#D5DDFB"/>
<path d="M294.371 93.74H304.811V89.65H294.371V93.74Z" fill="#D5DDFB"/>
<path d="M276.79 93.74H287.23V89.65H276.79V93.74Z" fill="#D5DDFB"/>
<path d="M259.21 93.74H269.65V89.65H259.21V93.74Z" fill="#D5DDFB"/>
<path d="M294.371 108.63H304.811V104.54H294.371V108.63Z" fill="#D5DDFB"/>
<path d="M259.21 108.63H269.65V104.54H259.21V108.63Z" fill="#D5DDFB"/>
<path d="M276.79 116.08H287.23V111.99H276.79V116.08Z" fill="#D5DDFB"/>
<path d="M294.371 123.53H304.811V119.44H294.371V123.53Z" fill="#D5DDFB"/>
<path d="M276.79 130.98H287.23V126.89H276.79V130.98Z" fill="#D5DDFB"/>
<path d="M294.371 138.42H304.811V134.33H294.371V138.42Z" fill="#D5DDFB"/>
<path d="M259.21 138.42H269.65V134.33H259.21V138.42Z" fill="#D5DDFB"/>
<path d="M294.371 152.19H304.811V148.1H294.371V152.19Z" fill="#D5DDFB"/>
<path d="M276.79 152.19H287.23V148.1H276.79V152.19Z" fill="#D5DDFB"/>
<path d="M294.371 167.09H304.811V163H294.371V167.09Z" fill="#D5DDFB"/>
<path d="M276.79 167.09H287.23V163H276.79V167.09Z" fill="#D5DDFB"/>
<path d="M259.21 167.09H269.65V163H259.21V167.09Z" fill="#D5DDFB"/>
<path d="M294.371 181.98H304.811V177.89H294.371V181.98Z" fill="#D5DDFB"/>
<path d="M259.21 181.98H269.65V177.89H259.21V181.98Z" fill="#D5DDFB"/>
<path d="M276.79 189.43H287.23V185.34H276.79V189.43Z" fill="#D5DDFB"/>
<path d="M259.21 189.43H269.65V185.34H259.21V189.43Z" fill="#D5DDFB"/>
<path d="M294.371 196.89H304.811V192.8H294.371V196.89Z" fill="#D5DDFB"/>
<path d="M276.79 204.33H287.23V200.24H276.79V204.33Z" fill="#D5DDFB"/>
<path d="M294.371 211.78H304.811V207.69H294.371V211.78Z" fill="#D5DDFB"/>
<path d="M259.21 211.78H269.65V207.69H259.21V211.78Z" fill="#D5DDFB"/>
<path d="M28.9695 220.95H72.0195L72.0195 116.21H28.9695L28.9695 220.95Z" fill="#C8D3FB"/>
<path d="M28.9699 220.95H33.4199L33.4199 116.21H28.9699L28.9699 220.95Z" fill="#D5DDFB"/>
<path d="M60.7702 124.02H67.4902V121.23H60.7702V124.02Z" fill="#D5DDFB"/>
<path d="M49.4499 124.02H56.1699V121.23H49.4499V124.02Z" fill="#D5DDFB"/>
<path d="M60.7702 134.19H67.4902V131.4H60.7702V134.19Z" fill="#D5DDFB"/>
<path d="M49.4499 134.19H56.1699V131.4H49.4499V134.19Z" fill="#D5DDFB"/>
<path d="M38.1296 134.19H44.8496V131.4H38.1296V134.19Z" fill="#D5DDFB"/>
<path d="M60.7702 144.34H67.4902V141.55H60.7702V144.34Z" fill="#D5DDFB"/>
<path d="M38.1296 144.34H44.8496V141.55H38.1296V144.34Z" fill="#D5DDFB"/>
<path d="M49.4499 149.42H56.1699V146.63H49.4499V149.42Z" fill="#D5DDFB"/>
<path d="M60.7702 154.5H67.4902V151.71H60.7702V154.5Z" fill="#D5DDFB"/>
<path d="M49.4499 159.58H56.1699V156.79H49.4499V159.58Z" fill="#D5DDFB"/>
<path d="M60.7702 164.66H67.4902V161.87H60.7702V164.66Z" fill="#D5DDFB"/>
<path d="M38.1296 164.66H44.8496V161.87H38.1296V164.66Z" fill="#D5DDFB"/>
<path d="M60.7702 174.05H67.4902V171.26H60.7702V174.05Z" fill="#D5DDFB"/>
<path d="M49.4499 174.05H56.1699V171.26H49.4499V174.05Z" fill="#D5DDFB"/>
<path d="M60.7702 184.21H67.4902V181.42H60.7702V184.21Z" fill="#D5DDFB"/>
<path d="M49.4499 184.21H56.1699V181.42H49.4499V184.21Z" fill="#D5DDFB"/>
<path d="M38.1296 184.21H44.8496V181.42H38.1296V184.21Z" fill="#D5DDFB"/>
<path d="M60.7702 194.37H67.4902V191.58H60.7702V194.37Z" fill="#D5DDFB"/>
<path d="M38.1296 194.37H44.8496V191.58H38.1296V194.37Z" fill="#D5DDFB"/>
<path d="M49.4499 199.45H56.1699V196.66H49.4499V199.45Z" fill="#D5DDFB"/>
<path d="M38.1296 199.45H44.8496V196.66H38.1296V199.45Z" fill="#D5DDFB"/>
<path d="M60.7702 204.53H67.4902V201.74H60.7702V204.53Z" fill="#D5DDFB"/>
<path d="M49.4499 209.61H56.1699V206.82H49.4499V209.61Z" fill="#D5DDFB"/>
<path d="M60.7702 214.69H67.4902V211.9H60.7702V214.69Z" fill="#D5DDFB"/>
<path d="M38.1296 214.69H44.8496V211.9H38.1296V214.69Z" fill="#D5DDFB"/>
<path opacity="0.35" d="M182.54 4.19995H0.0898438V212.22H182.54V4.19995Z" fill="white"/>
<path opacity="0.5" d="M64.8104 208.39H50.6504L126.56 6.5H140.72L64.8104 208.39Z" fill="white"/>
<path opacity="0.5" d="M39.8105 208.39H32.7305L108.63 6.5H115.71L39.8105 208.39Z" fill="white"/>
<path opacity="0.5" d="M124.34 208.39H117.27L182.34 28.17V42.69L124.34 208.39Z" fill="white"/>
<path opacity="0.35" d="M367.86 0H185.41V208.03H367.86V0Z" fill="white"/>
<path opacity="0.5" d="M215.58 208.39H201.42L277.33 6.5H291.49L215.58 208.39Z" fill="white"/>
<path opacity="0.5" d="M190.58 208.39H183.5L259.4 6.5H266.49L190.58 208.39Z" fill="white"/>
<path opacity="0.6" d="M306.81 208.39H299.73L364.81 28.17V42.69L306.81 208.39Z" fill="white"/>
<path d="M375.46 41.64V39.26H368.91V1.73999H0V6.49999H4V8.17999H121.63V39.26H0V41.64H121.63V102.73H0V105.11H121.63V166.2H0V168.58H121.63V208.39H4.01V209.77H0.0100002V215.27H368.91V214.83V168.58H375.46V166.2H368.91V105.11H375.46V102.73H368.91V41.64H375.46ZM186.46 105.11H243.28V166.2H186.46V105.11ZM186.46 102.73V41.64H243.28V102.73H186.46ZM186.46 39.26V8.17999H243.28V39.26H186.46ZM186.46 168.58H243.28V208.39H186.48V209.77L186.46 168.58ZM247.27 208.39V168.58H304.1V208.39H247.27ZM247.27 166.2V105.11H304.1V166.2H247.27ZM247.27 102.73V41.64H304.1V102.73H247.27ZM247.27 39.26V8.17999H304.1V39.26H247.27ZM308.09 8.17999H364.92V39.26H308.09V8.17999ZM125.62 8.17999H182.45V39.26H125.62V8.17999ZM125.62 41.64H182.45V102.73H125.62V41.64ZM125.62 105.11H182.45V166.2H125.62V105.11ZM125.62 168.58H182.45V209.77V208.39H125.62V168.58ZM364.92 209.77V208.39H308.09V168.58H364.92V209.77ZM364.92 166.2H308.09V105.11H364.92V166.2ZM364.92 102.73H308.09V41.64H364.92V102.73Z" fill="url(#paint2_linear_45_2958)"/>
<path d="M43.5508 121.98C43.4182 121.98 43.291 121.927 43.1972 121.834C43.1035 121.74 43.0508 121.613 43.0508 121.48V118.98C43.0508 118.847 43.1035 118.72 43.1972 118.626C43.291 118.533 43.4182 118.48 43.5508 118.48C43.6834 118.48 43.8106 118.533 43.9043 118.626C43.9981 118.72 44.0508 118.847 44.0508 118.98V121.5C44.0456 121.629 43.9907 121.751 43.8974 121.841C43.8042 121.93 43.68 121.98 43.5508 121.98V121.98Z" fill="#6A6AE8"/>
<path d="M43.5508 114.23C43.419 114.227 43.2933 114.174 43.2001 114.081C43.1068 113.987 43.0533 113.862 43.0508 113.73V108.5C43.0508 108.367 43.1035 108.24 43.1972 108.146C43.291 108.053 43.4182 108 43.5508 108C43.6834 108 43.8106 108.053 43.9043 108.146C43.9981 108.24 44.0508 108.367 44.0508 108.5V113.75C44.0456 113.879 43.9907 114.001 43.8974 114.091C43.8042 114.18 43.68 114.23 43.5508 114.23V114.23ZM43.5508 103.72C43.4182 103.72 43.291 103.667 43.1972 103.574C43.1035 103.48 43.0508 103.353 43.0508 103.22V97.97C43.0533 97.8382 43.1068 97.7125 43.2001 97.6193C43.2933 97.526 43.419 97.4725 43.5508 97.47C43.6834 97.47 43.8106 97.5227 43.9043 97.6164C43.9981 97.7102 44.0508 97.8374 44.0508 97.97V103.22C44.0508 103.353 43.9981 103.48 43.9043 103.574C43.8106 103.667 43.6834 103.72 43.5508 103.72ZM43.5508 93.22C43.4182 93.22 43.291 93.1673 43.1972 93.0735C43.1035 92.9798 43.0508 92.8526 43.0508 92.72V87.5C43.0508 87.3674 43.1035 87.2402 43.1972 87.1464C43.291 87.0527 43.4182 87 43.5508 87C43.6834 87 43.8106 87.0527 43.9043 87.1464C43.9981 87.2402 44.0508 87.3674 44.0508 87.5V92.75C44.0431 92.8773 43.9871 92.9969 43.8941 93.0843C43.8012 93.1717 43.6784 93.2202 43.5508 93.22ZM43.5508 82.72C43.419 82.7174 43.2933 82.6639 43.2001 82.5707C43.1068 82.4775 43.0533 82.3518 43.0508 82.22V76.96C43.0533 76.8282 43.1068 76.7025 43.2001 76.6093C43.2933 76.516 43.419 76.4625 43.5508 76.46C43.6834 76.46 43.8106 76.5127 43.9043 76.6064C43.9981 76.7002 44.0508 76.8274 44.0508 76.96V82.22C44.0508 82.3526 43.9981 82.4798 43.9043 82.5735C43.8106 82.6673 43.6834 82.72 43.5508 82.72ZM44.4508 72.35C44.3747 72.349 44.2998 72.3319 44.2308 72.3C44.1716 72.2712 44.1187 72.231 44.0751 72.1817C44.0315 72.1324 43.998 72.075 43.9767 72.0127C43.9553 71.9505 43.9464 71.8846 43.9506 71.819C43.9547 71.7533 43.9718 71.6891 44.0008 71.63C44.8146 69.9623 46.1015 68.5711 47.7008 67.63C47.8165 67.5639 47.9535 67.5457 48.0825 67.5793C48.2114 67.613 48.3221 67.6958 48.3908 67.81C48.4569 67.9257 48.4751 68.0627 48.4414 68.1917C48.4078 68.3206 48.325 68.4313 48.2108 68.5C46.7637 69.33 45.5972 70.5731 44.8608 72.07C44.8227 72.1483 44.7649 72.2154 44.693 72.2645C44.6211 72.3136 44.5376 72.343 44.4508 72.35ZM68.7408 67.35H63.4908C63.3582 67.35 63.231 67.2973 63.1372 67.2035C63.0435 67.1098 62.9908 66.9826 62.9908 66.85C62.9908 66.7174 63.0435 66.5902 63.1372 66.4964C63.231 66.4027 63.3582 66.35 63.4908 66.35H68.7408C68.8734 66.35 69.0006 66.4027 69.0943 66.4964C69.1881 66.5902 69.2408 66.7174 69.2408 66.85C69.2408 66.9826 69.1881 67.1098 69.0943 67.2035C69.0006 67.2973 68.8734 67.35 68.7408 67.35V67.35ZM58.2408 67.35H52.9908C52.8582 67.35 52.731 67.2973 52.6372 67.2035C52.5435 67.1098 52.4908 66.9826 52.4908 66.85C52.4908 66.7174 52.5435 66.5902 52.6372 66.4964C52.731 66.4027 52.8582 66.35 52.9908 66.35H58.2408C58.3734 66.35 58.5006 66.4027 58.5943 66.4964C58.6881 66.5902 58.7408 66.7174 58.7408 66.85C58.7408 66.9826 58.6881 67.1098 58.5943 67.2035C58.5006 67.2973 58.3734 67.35 58.2408 67.35V67.35Z" fill="#6A6AE8"/>
<path d="M76.5 67.3101H74C73.8674 67.3101 73.7402 67.2574 73.6464 67.1636C73.5527 67.0698 73.5 66.9427 73.5 66.8101C73.5 66.6775 73.5527 66.5503 73.6464 66.4565C73.7402 66.3627 73.8674 66.3101 74 66.3101H76.5C76.6326 66.3101 76.7598 66.3627 76.8536 66.4565C76.9473 66.5503 77 66.6775 77 66.8101C77 66.9427 76.9473 67.0698 76.8536 67.1636C76.7598 67.2574 76.6326 67.3101 76.5 67.3101Z" fill="#6A6AE8"/>
<path d="M75.1894 119.43V157.91C75.1895 158.267 75.0507 158.609 74.8024 158.865C74.554 159.121 74.2157 159.27 73.8594 159.28H20.2394C20.0586 159.281 19.8794 159.247 19.712 159.179C19.5447 159.11 19.3924 159.01 19.2642 158.882C19.1359 158.755 19.0341 158.604 18.9646 158.437C18.8951 158.27 18.8594 158.091 18.8594 157.91V119.43C18.8594 118.963 19.0448 118.516 19.3749 118.186C19.7049 117.855 20.1526 117.67 20.6194 117.67H73.4294C73.8962 117.67 74.3438 117.855 74.6739 118.186C75.0039 118.516 75.1894 118.963 75.1894 119.43Z" fill="#418106"/>
<path d="M75.1894 123.73H18.8594V119.43C18.8594 118.963 19.0448 118.516 19.3749 118.186C19.7049 117.855 20.1526 117.67 20.6194 117.67H73.4294C73.8962 117.67 74.3438 117.855 74.6739 118.186C75.0039 118.516 75.1894 118.963 75.1894 119.43V123.73Z" fill="#1E3C04"/>
<path d="M28.5508 120.7C28.5508 120.516 28.6053 120.336 28.7075 120.183C28.8097 120.03 28.955 119.911 29.1249 119.841C29.2948 119.77 29.4818 119.752 29.6622 119.788C29.8426 119.824 30.0083 119.912 30.1384 120.042C30.2685 120.172 30.357 120.338 30.3929 120.519C30.4288 120.699 30.4104 120.886 30.34 121.056C30.2696 121.226 30.1504 121.371 29.9975 121.473C29.8445 121.575 29.6647 121.63 29.4808 121.63C29.3587 121.63 29.2377 121.606 29.1249 121.559C29.0121 121.512 28.9095 121.444 28.8232 121.358C28.7368 121.271 28.6683 121.169 28.6216 121.056C28.5748 120.943 28.5508 120.822 28.5508 120.7Z" fill="#B2CDFA"/>
<path d="M24.9707 120.7C24.9707 120.516 25.0252 120.336 25.1274 120.183C25.2296 120.03 25.3749 119.911 25.5448 119.841C25.7147 119.77 25.9017 119.752 26.0821 119.788C26.2625 119.824 26.4282 119.912 26.5583 120.042C26.6884 120.172 26.7769 120.338 26.8128 120.519C26.8487 120.699 26.8303 120.886 26.7599 121.056C26.6895 121.226 26.5703 121.371 26.4174 121.473C26.2644 121.575 26.0846 121.63 25.9007 121.63C25.7786 121.63 25.6576 121.606 25.5448 121.559C25.432 121.512 25.3295 121.444 25.2431 121.358C25.1567 121.271 25.0882 121.169 25.0415 121.056C24.9948 120.943 24.9707 120.822 24.9707 120.7Z" fill="url(#paint3_linear_45_2958)"/>
<path d="M21.3906 120.7C21.3906 120.516 21.4452 120.336 21.5474 120.183C21.6495 120.03 21.7948 119.911 21.9647 119.841C22.1347 119.77 22.3217 119.752 22.5021 119.788C22.6825 119.824 22.8482 119.912 22.9782 120.042C23.1083 120.172 23.1969 120.338 23.2328 120.519C23.2686 120.699 23.2502 120.886 23.1798 121.056C23.1094 121.226 22.9902 121.371 22.8373 121.473C22.6844 121.575 22.5046 121.63 22.3206 121.63C22.1985 121.63 22.0776 121.606 21.9647 121.559C21.8519 121.512 21.7494 121.444 21.663 121.358C21.5767 121.271 21.5082 121.169 21.4614 121.056C21.4147 120.943 21.3906 120.822 21.3906 120.7Z" fill="white"/>
<path d="M70.7598 120.02L71.2198 119.56L71.8798 120.22L72.5298 119.56L72.9898 120.02L72.3398 120.68L72.9898 121.33L72.5298 121.79L71.8798 121.14L71.2198 121.79L70.7598 121.33L71.4198 120.68L70.7598 120.02Z" fill="white"/>
<path d="M37.8398 125.92L37.8798 126.67H50.3298L50.2898 125.92H37.8398Z" fill="#B2CDFA"/>
<path d="M43.9395 128.17L43.9895 128.91H64.2395L64.1995 128.17H43.9395Z" fill="#B2CDFA"/>
<path d="M37.8691 128.17L37.9091 128.91H43.0691L43.0191 128.17H37.8691Z" fill="white"/>
<path d="M37.8105 130.41L37.8605 131.15H48.1605L48.0905 130.41H37.8105Z" fill="#B2CDFA"/>
<path d="M48.8105 130.41L48.8805 131.15H58.9805L58.9405 130.41H48.8105Z" fill="white"/>
<path d="M28.7891 130.41V131.15H33.8491L33.8591 130.41H28.7891Z" fill="#B2CDFA"/>
<path d="M22.6409 128.17L22.6309 128.91H30.8709L30.8809 128.17H22.6409Z" fill="#B2CDFA"/>
<path d="M31.8203 128.17V128.91H33.9103L33.9203 128.17H31.8203Z" fill="#B2CDFA"/>
<path d="M29.8203 125.92V126.67H34.0003L34.0103 125.92H29.8203Z" fill="url(#paint4_linear_45_2958)"/>
<path d="M24.8596 125.92L24.8496 126.67H28.9796L28.9696 125.92H24.8596Z" fill="url(#paint5_linear_45_2958)"/>
<path d="M28.7305 138.8V139.55H33.7905L33.8005 138.8H28.7305Z" fill="#B2CDFA"/>
<path d="M22.5703 136.56V137.3H30.8103V136.56H22.5703Z" fill="#B2CDFA"/>
<path d="M31.76 136.56L31.75 137.3H33.85V136.56H31.76Z" fill="#B2CDFA"/>
<path d="M28.6506 143.52L28.6406 144.27H33.7106L33.7206 143.52H28.6506Z" fill="#B2CDFA"/>
<path d="M22.4902 141.28V142.03H30.7302V141.28H22.4902Z" fill="url(#paint6_linear_45_2958)"/>
<path d="M31.6799 141.28L31.6699 142.03H33.7699V141.28H31.6799Z" fill="url(#paint7_linear_45_2958)"/>
<path d="M29.75 134.32L29.76 135.06H33.94L33.95 134.32H29.75Z" fill="url(#paint8_linear_45_2958)"/>
<path d="M24.7991 134.32L24.7891 135.06H28.9091V134.32H24.7991Z" fill="url(#paint9_linear_45_2958)"/>
<path d="M51.5703 125.92L51.6203 126.67H55.3903L55.3503 125.92H51.5703Z" fill="white"/>
<path d="M65.5 128.17L65.55 128.91H71.6L71.55 128.17H65.5Z" fill="#B2CDFA"/>
<path d="M60.0898 130.41L60.1398 131.15H66.2698L66.2298 130.41H60.0898Z" fill="#B2CDFA"/>
<path d="M57.0391 125.92L57.1291 126.67H67.8091L67.7191 125.92H57.0391Z" fill="#B2CDFA"/>
<path d="M37.7695 134.32L37.8195 135.06H50.2695L50.2295 134.32H37.7695Z" fill="#B2CDFA"/>
<path d="M43.8809 136.56L43.9309 137.3H64.1809L64.1409 136.56H43.8809Z" fill="#B2CDFA"/>
<path d="M37.8105 136.56L37.8505 137.3H43.0105L42.9605 136.56H37.8105Z" fill="#B2CDFA"/>
<path d="M37.75 138.8L37.79 139.55H48.1L48.03 138.8H37.75Z" fill="#B2CDFA"/>
<path d="M48.75 138.8L48.82 139.55H58.92L58.88 138.8H48.75Z" fill="#B2CDFA"/>
<path d="M51.5098 134.32L51.5498 135.06H55.3298L55.2898 134.32H51.5098Z" fill="#B2CDFA"/>
<path d="M65.4395 136.56L65.4795 137.3H71.5294L71.4894 136.56H65.4395Z" fill="#B2CDFA"/>
<path d="M60.0293 138.8L60.0793 139.55H66.2093L66.1593 138.8H60.0293Z" fill="white"/>
<path d="M44.0508 141.28L44.1008 142.03H64.3508L64.3108 141.28H44.0508Z" fill="#B2CDFA"/>
<path d="M37.9805 141.28L38.0205 142.03H43.1705L43.1305 141.28H37.9805Z" fill="#B2CDFA"/>
<path d="M37.9199 143.52L37.9599 144.27H48.2699L48.1999 143.52H37.9199Z" fill="#B2CDFA"/>
<path d="M48.9199 143.52L48.9899 144.27H59.0899L59.0399 143.52H48.9199Z" fill="white"/>
<path d="M65.6094 141.28L65.6494 142.03H71.6994L71.6594 141.28H65.6094Z" fill="white"/>
<path d="M60.1992 143.52L60.2392 144.27H66.3792L66.3292 143.52H60.1992Z" fill="#B2CDFA"/>
<path d="M56.9805 134.32L57.0705 135.06H67.7505L67.6605 134.32H56.9805Z" fill="white"/>
<path d="M28.5605 151.24V151.99H33.6305V151.24H28.5605Z" fill="#B2CDFA"/>
<path d="M22.4104 149L22.4004 149.75H30.6404L30.6504 149H22.4104Z" fill="#B2CDFA"/>
<path d="M31.5898 149V149.75H33.6798L33.6898 149H31.5898Z" fill="#B2CDFA"/>
<path d="M28.4805 155.96V156.71H33.5505V155.96H28.4805Z" fill="#B2CDFA"/>
<path d="M22.3303 153.72L22.3203 154.47H30.5603L30.5703 153.72H22.3303Z" fill="url(#paint10_linear_45_2958)"/>
<path d="M31.5098 153.72V154.47H33.5998L33.6098 153.72H31.5098Z" fill="url(#paint11_linear_45_2958)"/>
<path d="M29.5898 146.76V147.5H33.7698L33.7798 146.76H29.5898Z" fill="url(#paint12_linear_45_2958)"/>
<path d="M24.6309 146.76V147.5H28.7509L28.7409 146.76H24.6309Z" fill="url(#paint13_linear_45_2958)"/>
<path d="M37.6094 146.76L37.6494 147.5H50.0994L50.0594 146.76H37.6094Z" fill="#B2CDFA"/>
<path d="M43.7109 149L43.7609 149.75H64.0209L63.9709 149H43.7109Z" fill="#B2CDFA"/>
<path d="M37.6406 149L37.6906 149.75H42.8406L42.7906 149H37.6406Z" fill="#B2CDFA"/>
<path d="M37.5801 151.24L37.6301 151.99H47.9401L47.8601 151.24H37.5801Z" fill="#B2CDFA"/>
<path d="M48.5801 151.24L48.6601 151.99H58.7501L58.7101 151.24H48.5801Z" fill="#B2CDFA"/>
<path d="M51.3398 146.76L51.3898 147.5H55.1598L55.1198 146.76H51.3398Z" fill="#B2CDFA"/>
<path d="M65.2695 149L65.3195 149.75H71.3695L71.3195 149H65.2695Z" fill="#B2CDFA"/>
<path d="M59.8691 151.24L59.9091 151.99H66.0391L65.9991 151.24H59.8691Z" fill="white"/>
<path d="M43.8809 153.72L43.9309 154.47H64.1809L64.1409 153.72H43.8809Z" fill="#B2CDFA"/>
<path d="M37.8105 153.72L37.8505 154.47H43.0105L42.9605 153.72H37.8105Z" fill="#B2CDFA"/>
<path d="M37.75 155.96L37.8 156.71H48.1L48.03 155.96H37.75Z" fill="#B2CDFA"/>
<path d="M48.75 155.96L48.82 156.71H58.92L58.88 155.96H48.75Z" fill="white"/>
<path d="M65.4395 153.72L65.4894 154.47H71.5395L71.4894 153.72H65.4395Z" fill="white"/>
<path d="M60.0293 155.96L60.0793 156.71H66.2093L66.1693 155.96H60.0293Z" fill="#B2CDFA"/>
<path d="M56.8105 146.76L56.9005 147.5H67.5805L67.4905 146.76H56.8105Z" fill="white"/>
<path d="M84.7391 205.73H69.1191C67.8381 205.73 66.6095 205.221 65.7037 204.315C64.7979 203.41 64.2891 202.181 64.2891 200.9C64.2891 199.619 64.7979 198.391 65.7037 197.485C66.6095 196.579 67.8381 196.07 69.1191 196.07H84.7391V205.73Z" fill="url(#paint14_linear_45_2958)"/>
<path d="M64.3203 200.36C64.4552 199.181 65.0187 198.092 65.9037 197.301C66.7886 196.51 67.9334 196.072 69.1203 196.07H84.7403V199.86C82.8703 200.59 80.7403 201.44 80.0703 200.37C79.0814 199.173 77.9458 198.104 76.6903 197.19C76.6903 197.19 71.6903 197.19 68.2703 197.19C67.3443 197.17 66.4408 197.477 65.7185 198.056C64.9961 198.636 64.5011 199.452 64.3203 200.36V200.36Z" fill="#D35600"/>
<path d="M107.52 204.76H79.5198C78.4775 204.76 77.4779 204.346 76.7409 203.609C76.0039 202.872 75.5898 201.872 75.5898 200.83V200.83C75.5898 199.788 76.0039 198.788 76.7409 198.051C77.4779 197.314 78.4775 196.9 79.5198 196.9H107.52V204.76Z" fill="url(#paint15_linear_45_2958)"/>
<path d="M109.179 204.07H79.7792C78.9385 204.07 78.1322 203.736 77.5377 203.142C76.9432 202.547 76.6092 201.741 76.6092 200.9C76.6092 200.059 76.9432 199.253 77.5377 198.659C78.1322 198.064 78.9385 197.73 79.7792 197.73H109.179V196.07H79.7792C78.4982 196.07 77.2697 196.579 76.3639 197.485C75.4581 198.391 74.9492 199.619 74.9492 200.9C74.9492 202.181 75.4581 203.41 76.3639 204.315C77.2697 205.221 78.4982 205.73 79.7792 205.73H109.179V204.07Z" fill="#D35600"/>
<path d="M87.5898 182.35H75.4998C75.0083 182.351 74.5213 182.255 74.067 182.068C73.6126 181.881 73.1998 181.605 72.8523 181.258C72.5047 180.91 72.2293 180.497 72.0418 180.043C71.8543 179.588 71.7585 179.102 71.7598 178.61V178.61C71.7598 178.119 71.8565 177.633 72.0445 177.179C72.2324 176.725 72.5079 176.313 72.8552 175.965C73.2025 175.618 73.6148 175.343 74.0685 175.155C74.5223 174.967 75.0086 174.87 75.4998 174.87H87.5898V182.35Z" fill="url(#paint16_linear_45_2958)"/>
<path d="M105.24 181.6H83.5703C82.7747 181.6 82.0116 181.284 81.449 180.721C80.8864 180.159 80.5703 179.396 80.5703 178.6C80.5728 177.801 80.8881 177.034 81.4487 176.464C82.0094 175.894 82.7709 175.566 83.5703 175.55H105.24V181.6Z" fill="url(#paint17_linear_45_2958)"/>
<path d="M106.52 181.07H83.7498C83.4142 181.091 83.0778 181.044 82.7613 180.93C82.4449 180.816 82.1551 180.639 81.9099 180.409C81.6646 180.179 81.4692 179.901 81.3356 179.593C81.2019 179.284 81.133 178.951 81.133 178.615C81.133 178.279 81.2019 177.946 81.3356 177.637C81.4692 177.329 81.6646 177.051 81.9099 176.821C82.1551 176.591 82.4449 176.414 82.7613 176.3C83.0778 176.186 83.4142 176.139 83.7498 176.16H106.52V174.87H83.7498C82.7579 174.87 81.8066 175.264 81.1052 175.965C80.4038 176.667 80.0098 177.618 80.0098 178.61C80.0098 179.602 80.4038 180.553 81.1052 181.255C81.8066 181.956 82.7579 182.35 83.7498 182.35H106.52V181.07Z" fill="#1C0A76"/>
<path d="M89.0708 188.07H75.9108C75.1523 188.07 74.4248 187.769 73.8885 187.232C73.3521 186.696 73.0508 185.968 73.0508 185.21V185.21C73.0508 184.451 73.3521 183.724 73.8885 183.188C74.4248 182.651 75.1523 182.35 75.9108 182.35H89.0708V188.07Z" fill="url(#paint18_linear_45_2958)"/>
<path d="M73.1408 185.92C73.0851 185.687 73.0549 185.449 73.0508 185.21C73.0508 184.451 73.3521 183.724 73.8885 183.188C74.4248 182.651 75.1523 182.35 75.9108 182.35H89.0708V183.68L85.8708 183.35H76.0108C75.302 183.357 74.6199 183.622 74.0918 184.095C73.5637 184.567 73.2257 185.216 73.1408 185.92V185.92Z" fill="#D35600"/>
<path d="M109.099 187.5H87.8593C87.5533 187.5 87.2503 187.44 86.9676 187.323C86.685 187.206 86.4281 187.034 86.2117 186.818C85.9954 186.601 85.8238 186.344 85.7067 186.062C85.5896 185.779 85.5293 185.476 85.5293 185.17V185.17C85.5293 184.552 85.7748 183.959 86.2117 183.522C86.6487 183.085 87.2413 182.84 87.8593 182.84H109.059L109.099 187.5Z" fill="url(#paint19_linear_45_2958)"/>
<path d="M110.09 187.09H88.0905C87.5919 187.09 87.1137 186.892 86.7611 186.539C86.4085 186.187 86.2105 185.709 86.2105 185.21C86.2105 184.711 86.4085 184.233 86.7611 183.881C87.1137 183.528 87.5919 183.33 88.0905 183.33H110.09V182.33H88.0905C87.332 182.33 86.6045 182.631 86.0681 183.168C85.5318 183.704 85.2305 184.431 85.2305 185.19C85.2305 185.948 85.5318 186.676 86.0681 187.212C86.6045 187.749 87.332 188.05 88.0905 188.05H110.09V187.09Z" fill="#D35600"/>
<path d="M78 196.07H102C103.061 196.07 104.078 195.649 104.828 194.898C105.579 194.148 106 193.131 106 192.07C106 191.009 105.579 189.992 104.828 189.242C104.078 188.491 103.061 188.07 102 188.07H78V196.07Z" fill="url(#paint20_linear_45_2958)"/>
<path d="M102.031 188.07C103.091 188.07 104.109 188.491 104.859 189.242C105.609 189.992 106.031 191.009 106.031 192.07C106.041 192.213 106.041 192.357 106.031 192.5C105.633 191.674 105.009 190.978 104.233 190.491C103.456 190.005 102.557 189.748 101.641 189.75C98.4106 189.75 84.4406 189.75 84.4406 189.75L80.6406 188.07H102.031Z" fill="#1C0A76"/>
<path d="M68.2695 195.27H82.2695C82.6967 195.271 83.1199 195.188 83.5148 195.025C83.9097 194.862 84.2685 194.623 84.5706 194.321C84.8726 194.019 85.112 193.66 85.2748 193.265C85.4377 192.87 85.5209 192.447 85.5195 192.02V192.02C85.5209 191.592 85.4378 191.169 85.275 190.773C85.1123 190.378 84.8731 190.018 84.5712 189.715C84.2692 189.413 83.9105 189.172 83.5156 189.008C83.1206 188.844 82.6972 188.76 82.2695 188.76H68.2695V195.27Z" fill="url(#paint21_linear_45_2958)"/>
<path d="M66.8594 194.7H82.1094C82.4677 194.722 82.8268 194.671 83.1645 194.549C83.5022 194.427 83.8114 194.237 84.0729 193.991C84.3345 193.745 84.543 193.448 84.6855 193.119C84.828 192.789 84.9015 192.434 84.9015 192.075C84.9015 191.716 84.828 191.361 84.6855 191.031C84.543 190.702 84.3345 190.405 84.0729 190.159C83.8114 189.913 83.5022 189.723 83.1645 189.601C82.8268 189.479 82.4677 189.428 82.1094 189.45H66.8594V188.07H82.1094C83.1702 188.07 84.1877 188.491 84.9378 189.242C85.688 189.992 86.1094 191.009 86.1094 192.07C86.1094 193.131 85.688 194.148 84.9378 194.898C84.1877 195.649 83.1702 196.07 82.1094 196.07H66.8594V194.7Z" fill="#1C0A76"/>
<path d="M170.119 27.7V102.37C170.117 103.077 169.835 103.755 169.334 104.255C168.834 104.755 168.157 105.037 167.449 105.04H63.4494C62.7552 105.019 62.0965 104.729 61.6129 104.23C61.1294 103.732 60.8591 103.065 60.8594 102.37V27.71C60.8581 27.2622 60.945 26.8185 61.1151 26.4043C61.2853 25.9901 61.5354 25.6134 61.8511 25.2959C62.1668 24.9783 62.542 24.726 62.9552 24.5534C63.3684 24.3809 63.8116 24.2914 64.2594 24.29H166.759C167.655 24.3032 168.51 24.6682 169.138 25.3063C169.767 25.9444 170.119 26.8042 170.119 27.7V27.7Z" fill="white"/>
<path d="M170.121 36.05H60.8008V27.71C60.8008 26.803 61.1611 25.9331 61.8025 25.2917C62.4439 24.6504 63.3137 24.29 64.2208 24.29H166.711C167.615 24.29 168.483 24.6493 169.122 25.2888C169.762 25.9283 170.121 26.7957 170.121 27.7V36.05Z" fill="url(#paint22_linear_45_2958)"/>
<path d="M81.4094 31.96C82.4035 31.96 83.2094 31.1541 83.2094 30.16C83.2094 29.1659 82.4035 28.36 81.4094 28.36C80.4153 28.36 79.6094 29.1659 79.6094 30.16C79.6094 31.1541 80.4153 31.96 81.4094 31.96Z" fill="#B2CDFA"/>
<path d="M72.6602 30.1699C72.6582 29.8111 72.7629 29.4598 72.9611 29.1606C73.1592 28.8614 73.4418 28.6279 73.7729 28.4897C74.104 28.3514 74.4688 28.3148 74.8208 28.3843C75.1729 28.4538 75.4963 28.6264 75.75 28.8801C76.0038 29.1338 76.1763 29.4573 76.2459 29.8093C76.3154 30.1613 76.2787 30.5261 76.1405 30.8572C76.0022 31.1884 75.7687 31.471 75.4695 31.6691C75.1703 31.8672 74.819 31.9719 74.4602 31.9699C73.9836 31.9673 73.5273 31.7768 73.1903 31.4398C72.8533 31.1028 72.6628 30.6465 72.6602 30.1699V30.1699Z" fill="url(#paint23_linear_45_2958)"/>
<path d="M67.5209 31.97C68.5206 31.97 69.3309 31.1596 69.3309 30.16C69.3309 29.1603 68.5206 28.35 67.5209 28.35C66.5213 28.35 65.7109 29.1603 65.7109 30.16C65.7109 31.1596 66.5213 31.97 67.5209 31.97Z" fill="white"/>
<path d="M161.52 28.84L162.41 27.95L163.69 29.2299L164.97 27.95L165.86 28.84L164.58 30.12L165.86 31.4L164.97 32.29L163.69 31.02L162.41 32.29L161.52 31.4L162.79 30.12L161.52 28.84Z" fill="white"/>
<path d="M132.16 40.3101L132.21 41.7501H143.67L143.63 40.3101H132.16Z" fill="#B2CDFA"/>
<path d="M137.789 44.66L137.829 46.1H156.479L156.439 44.66H137.789Z" fill="#B2CDFA"/>
<path d="M132.189 44.66L132.239 46.1H136.979L136.939 44.66H132.189Z" fill="#6A6AE8"/>
<path d="M132.141 49.01L132.181 50.46H141.681L141.611 49.01H132.141Z" fill="#B2CDFA"/>
<path d="M142.27 49.01L142.34 50.46H151.64L151.6 49.01H142.27Z" fill="#6A6AE8"/>
<path d="M123.84 49.01L123.83 50.46H128.5V49.01H123.84Z" fill="#B2CDFA"/>
<path d="M118.17 44.66L118.16 46.1H125.75V44.66H118.17Z" fill="#B2CDFA"/>
<path d="M126.619 44.66V46.1H128.549L128.559 44.66H126.619Z" fill="#B2CDFA"/>
<path d="M124.779 40.3101V41.7501H128.639V40.3101H124.779Z" fill="url(#paint24_linear_45_2958)"/>
<path d="M120.221 40.3101L120.211 41.7501H124.011L124.001 40.3101H120.221Z" fill="url(#paint25_linear_45_2958)"/>
<path d="M123.779 65.3V66.74H128.439L128.449 65.3H123.779Z" fill="#B2CDFA"/>
<path d="M118.109 60.95V62.3899H125.689L125.699 60.95H118.109Z" fill="#B2CDFA"/>
<path d="M126.571 60.95L126.561 62.3899H128.491L128.501 60.95H126.571Z" fill="#B2CDFA"/>
<path d="M123.709 74.46L123.699 75.9H128.369V74.46H123.709Z" fill="#B2CDFA"/>
<path d="M118.039 70.11L118.029 71.55H125.619V70.11H118.039Z" fill="url(#paint26_linear_45_2958)"/>
<path d="M126.49 70.11V71.55H128.42V70.11H126.49Z" fill="url(#paint27_linear_45_2958)"/>
<path d="M124.721 56.59L124.731 58.04H128.581V56.59H124.721Z" fill="url(#paint28_linear_45_2958)"/>
<path d="M120.16 56.59L120.15 58.04H123.95L123.94 56.59H120.16Z" fill="url(#paint29_linear_45_2958)"/>
<path d="M144.811 40.3101L144.851 41.7501H148.331L148.291 40.3101H144.811Z" fill="#6A6AE8"/>
<path d="M157.641 44.66L157.681 46.1H163.251L163.211 44.66H157.641Z" fill="#B2CDFA"/>
<path d="M152.66 49.01L152.7 50.46H158.35L158.31 49.01H152.66Z" fill="#B2CDFA"/>
<path d="M149.85 40.3101L149.93 41.7501H159.77L159.69 40.3101H149.85Z" fill="#B2CDFA"/>
<path d="M132.109 56.59L132.149 58.04H143.619L143.569 56.59H132.109Z" fill="#B2CDFA"/>
<path d="M137.73 60.95L137.78 62.3899H156.43L156.38 60.95H137.73Z" fill="#B2CDFA"/>
<path d="M132.141 60.95L132.181 62.3899H136.931L136.881 60.95H132.141Z" fill="#B2CDFA"/>
<path d="M132.08 65.3L132.13 66.74H141.62L141.55 65.3H132.08Z" fill="#B2CDFA"/>
<path d="M142.211 65.3L142.281 66.74H151.581L151.541 65.3H142.211Z" fill="#B2CDFA"/>
<path d="M144.75 56.59L144.8 58.04H148.28L148.23 56.59H144.75Z" fill="#B2CDFA"/>
<path d="M157.59 60.95L157.63 62.3899H163.2L163.16 60.95H157.59Z" fill="#B2CDFA"/>
<path d="M152.6 65.3L152.64 66.74H158.29L158.25 65.3H152.6Z" fill="#6A6AE8"/>
<path d="M137.891 70.11L137.931 71.55H156.581L156.541 70.11H137.891Z" fill="#B2CDFA"/>
<path d="M132.289 70.11L132.329 71.55H137.079L137.039 70.11H132.289Z" fill="#B2CDFA"/>
<path d="M132.24 74.46L132.28 75.9H141.77L141.71 74.46H132.24Z" fill="#B2CDFA"/>
<path d="M142.369 74.46L142.439 75.9H151.739L151.689 74.46H142.369Z" fill="#6A6AE8"/>
<path d="M157.74 70.11L157.78 71.55H163.35L163.31 70.11H157.74Z" fill="#6A6AE8"/>
<path d="M152.76 74.46L152.8 75.9H158.45L158.41 74.46H152.76Z" fill="#B2CDFA"/>
<path d="M149.789 56.59L149.879 58.04H159.709L159.629 56.59H149.789Z" fill="#6A6AE8"/>
<path d="M123.629 89.4399L123.619 90.8899H128.289V89.4399H123.629Z" fill="#B2CDFA"/>
<path d="M117.959 85.09L117.949 86.54H125.539L125.549 85.09H117.959Z" fill="#B2CDFA"/>
<path d="M126.41 85.09V86.54H128.34V85.09H126.41Z" fill="#B2CDFA"/>
<path d="M123.551 98.6V100.05H128.211L128.221 98.6H123.551Z" fill="#B2CDFA"/>
<path d="M117.881 94.25V95.7H125.471V94.25H117.881Z" fill="url(#paint30_linear_45_2958)"/>
<path d="M126.34 94.25V95.7H128.27V94.25H126.34Z" fill="url(#paint31_linear_45_2958)"/>
<path d="M124.57 80.74L124.58 82.19H128.43V80.74H124.57Z" fill="url(#paint32_linear_45_2958)"/>
<path d="M120 80.74V82.19H123.8L123.79 80.74H120Z" fill="url(#paint33_linear_45_2958)"/>
<path d="M131.949 80.74L131.999 82.19H143.459L143.419 80.74H131.949Z" fill="#B2CDFA"/>
<path d="M137.58 85.09L137.62 86.54H156.27L156.23 85.09H137.58Z" fill="#B2CDFA"/>
<path d="M131.98 85.09L132.03 86.54H136.77L136.73 85.09H131.98Z" fill="#B2CDFA"/>
<path d="M131.93 89.4399L131.97 90.8899H141.47L141.4 89.4399H131.93Z" fill="#B2CDFA"/>
<path d="M142.061 89.4399L142.131 90.8899H151.431L151.391 89.4399H142.061Z" fill="#B2CDFA"/>
<path d="M144.6 80.74L144.64 82.19H148.12L148.08 80.74H144.6Z" fill="#B2CDFA"/>
<path d="M157.43 85.09L157.47 86.54H163.04L163 85.09H157.43Z" fill="#B2CDFA"/>
<path d="M152.449 89.4399L152.489 90.8899H158.139L158.099 89.4399H152.449Z" fill="#6A6AE8"/>
<path d="M137.73 94.25L137.78 95.7H156.43L156.39 94.25H137.73Z" fill="#B2CDFA"/>
<path d="M132.141 94.25L132.181 95.7H136.931L136.881 94.25H132.141Z" fill="#B2CDFA"/>
<path d="M132.09 98.6L132.13 100.05H141.62L141.55 98.6H132.09Z" fill="#B2CDFA"/>
<path d="M142.221 98.6L142.281 100.05H151.581L151.541 98.6H142.221Z" fill="#6A6AE8"/>
<path d="M157.59 94.25L157.63 95.7H163.2L163.16 94.25H157.59Z" fill="#6A6AE8"/>
<path d="M152.609 98.6L152.649 100.05H158.289L158.249 98.6H152.609Z" fill="#B2CDFA"/>
<path d="M149.641 80.74L149.721 82.19H159.561L159.481 80.74H149.641Z" fill="#6A6AE8"/>
<path d="M105.801 49.0101H70.0609C69.4897 49.0101 68.924 48.8975 68.3963 48.6789C67.8685 48.4603 67.389 48.1399 66.985 47.736C66.5811 47.332 66.2607 46.8525 66.0421 46.3247C65.8235 45.797 65.7109 45.2313 65.7109 44.6601C65.7109 43.5064 66.1692 42.3999 66.985 41.5841C67.8008 40.7684 68.9072 40.3101 70.0609 40.3101H105.801C106.955 40.3101 108.061 40.7684 108.877 41.5841C109.693 42.3999 110.151 43.5064 110.151 44.6601V44.6601C110.151 45.2313 110.038 45.797 109.82 46.3247C109.601 46.8525 109.281 47.332 108.877 47.736C108.473 48.1399 107.993 48.4603 107.466 48.6789C106.938 48.8975 106.372 49.0101 105.801 49.0101V49.0101Z" fill="#B2CDFA"/>
<path d="M105.71 47.18L103.35 45.5C103.683 44.938 103.787 44.2698 103.641 43.6331C103.496 42.9964 103.112 42.4398 102.568 42.078C102.024 41.7163 101.363 41.5769 100.719 41.6886C100.076 41.8004 99.4997 42.1547 99.1098 42.6786C98.7199 43.2025 98.5459 43.8561 98.6236 44.5045C98.7013 45.1529 99.0249 45.7468 99.5276 46.1638C100.03 46.5807 100.674 46.7888 101.325 46.7453C101.977 46.7018 102.587 46.41 103.03 45.93L105.4 47.65L105.71 47.18ZM99.8598 45.98C99.5017 45.7208 99.2287 45.361 99.0755 44.9464C98.9223 44.5317 98.8958 44.0809 98.9993 43.6511C99.1029 43.2213 99.3318 42.8321 99.6571 42.5327C99.9823 42.2333 100.389 42.0373 100.826 41.9697C101.263 41.9021 101.71 41.9658 102.111 42.1528C102.511 42.3398 102.847 42.6416 103.076 43.0199C103.304 43.3982 103.415 43.836 103.395 44.2776C103.374 44.7191 103.223 45.1446 102.96 45.5C102.612 45.9743 102.09 46.2912 101.509 46.3812C100.928 46.4712 100.335 46.3269 99.8598 45.98Z" fill="white"/>
<path d="M81.1291 55.7H66.3691V70.4599H81.1291V55.7Z" fill="#B2CDFA"/>
<path d="M67.6191 69.44L71.9391 60.88L74.5191 66.28L76.3191 63.42L79.8491 69.41L67.6191 69.44Z" fill="white"/>
<path d="M75.6609 59.88C75.648 60.1364 75.537 60.3781 75.3509 60.555C75.1647 60.7318 74.9176 60.8303 74.6609 60.83C74.461 60.8297 74.2658 60.7696 74.1004 60.6573C73.9351 60.5451 73.8072 60.3858 73.7332 60.2002C73.6592 60.0145 73.6425 59.811 73.6853 59.6157C73.7281 59.4205 73.8285 59.2426 73.9734 59.105C74.1183 58.9673 74.3011 58.8762 74.4982 58.8435C74.6954 58.8107 74.8978 58.8378 75.0795 58.9212C75.2611 59.0046 75.4135 59.1405 75.5172 59.3114C75.6208 59.4823 75.6709 59.6803 75.6609 59.88Z" fill="white"/>
<path d="M67.4406 69.52L67.3105 69.38L80.0506 56.64L80.1906 56.77L67.4406 69.52Z" fill="#FDFCFF"/>
<path d="M80.0506 69.52L67.3105 56.77L67.4406 56.64L80.1906 69.38L80.0506 69.52Z" fill="#FDFCFF"/>
<path d="M79.86 69.64C79.54 69.64 79.5 69.57 79.5 69.5C79.5 69.43 79.5 69.36 79.86 69.36C80.22 69.36 80.21 69.43 80.21 69.5C80.21 69.57 80.17 69.64 79.86 69.64Z" fill="#418106"/>
<path d="M78.8598 69.64C78.5498 69.64 78.5098 69.57 78.5098 69.5C78.5098 69.43 78.5098 69.36 78.8598 69.36C79.2098 69.36 79.2198 69.43 79.2198 69.5C79.2198 69.57 79.1298 69.64 78.8598 69.64Z" fill="#418106"/>
<path d="M77.7702 69.64C77.4602 69.64 77.4102 69.57 77.4102 69.5C77.4102 69.43 77.4102 69.36 77.7702 69.36C78.1302 69.36 78.1202 69.43 78.1202 69.5C78.1202 69.57 78.0802 69.64 77.7702 69.64Z" fill="#418106"/>
<path d="M76.7291 69.64C76.4091 69.64 76.3691 69.57 76.3691 69.5C76.3691 69.43 76.3691 69.36 76.7291 69.36C77.0891 69.36 77.0791 69.43 77.0791 69.5C77.0791 69.57 77.0391 69.64 76.7291 69.64Z" fill="#418106"/>
<path d="M75.6801 69.64C75.3701 69.64 75.3301 69.57 75.3301 69.5C75.3301 69.43 75.3301 69.36 75.6801 69.36C76.0301 69.36 76.0401 69.43 76.0401 69.5C76.0401 69.57 75.9901 69.64 75.6801 69.64Z" fill="#418106"/>
<path d="M74.6393 69.64C74.3193 69.64 74.2793 69.57 74.2793 69.5C74.2793 69.43 74.2793 69.36 74.6393 69.36C74.9993 69.36 74.9893 69.43 74.9893 69.5C74.9893 69.57 74.9493 69.64 74.6393 69.64Z" fill="#418106"/>
<path d="M73.5902 69.64C73.2802 69.64 73.2402 69.57 73.2402 69.5C73.2402 69.43 73.2402 69.36 73.5902 69.36C73.9402 69.36 73.9502 69.43 73.9502 69.5C73.9502 69.57 73.9102 69.64 73.5902 69.64Z" fill="#418106"/>
<path d="M72.5494 69.64C72.2394 69.64 72.1895 69.57 72.1895 69.5C72.1895 69.43 72.2394 69.36 72.5494 69.36C72.8594 69.36 72.9095 69.43 72.9095 69.5C72.9095 69.57 72.8594 69.64 72.5494 69.64Z" fill="#418106"/>
<path d="M71.5104 69.64C71.1904 69.64 71.1504 69.57 71.1504 69.5C71.1504 69.43 71.1504 69.36 71.5104 69.36C71.8704 69.36 71.8604 69.43 71.8604 69.5C71.8604 69.57 71.8604 69.64 71.5104 69.64Z" fill="#418106"/>
<path d="M70.4594 69.64C70.1494 69.64 70.1094 69.57 70.1094 69.5C70.1094 69.43 70.1094 69.36 70.4594 69.36C70.8094 69.36 70.8194 69.43 70.8194 69.5C70.8194 69.57 70.7794 69.64 70.4594 69.64Z" fill="#418106"/>
<path d="M69.4205 69.64C69.1105 69.64 69.0605 69.57 69.0605 69.5C69.0605 69.43 69.0605 69.36 69.4205 69.36C69.7805 69.36 69.7805 69.43 69.7805 69.5C69.7805 69.57 69.7305 69.64 69.4205 69.64Z" fill="#418106"/>
<path d="M68.3795 69.64C68.0595 69.64 68.0195 69.57 68.0195 69.5C68.0195 69.43 68.0195 69.36 68.3795 69.36C68.7395 69.36 68.7295 69.43 68.7295 69.5C68.7295 69.57 68.6895 69.64 68.3795 69.64Z" fill="#418106"/>
<path d="M67.5106 69.69H67.4406H67.2306V69.5L67.1406 69.4H67.2306C67.2306 69.18 67.3106 69.14 67.3706 69.14C67.4306 69.14 67.5006 69.14 67.5106 69.41C67.6106 69.41 67.6906 69.46 67.6906 69.54C67.6906 69.62 67.6106 69.65 67.5106 69.67V69.69Z" fill="#418106"/>
<path d="M67.3705 68.7701C67.3005 68.7701 67.2305 68.7701 67.2305 68.4201C67.2305 68.0701 67.3005 68.0601 67.3705 68.0601C67.4405 68.0601 67.5105 68.0601 67.5105 68.4201C67.5105 68.7801 67.4505 68.7701 67.3705 68.7701Z" fill="#418106"/>
<path d="M67.3705 67.73C67.3005 67.73 67.2305 67.73 67.2305 67.37C67.2305 67.01 67.3005 67.02 67.3705 67.02C67.4405 67.02 67.5105 67.02 67.5105 67.37C67.5105 67.72 67.4505 67.73 67.3705 67.73Z" fill="#418106"/>
<path d="M67.3705 66.69C67.3005 66.69 67.2305 66.69 67.2305 66.33C67.2305 65.97 67.3005 65.97 67.3705 65.97C67.4405 65.97 67.5105 66.02 67.5105 66.33C67.5105 66.64 67.4505 66.69 67.3705 66.69Z" fill="#418106"/>
<path d="M67.3705 65.6401C67.3005 65.6401 67.2305 65.6401 67.2305 65.2901C67.2305 64.9401 67.3005 64.9301 67.3705 64.9301C67.4405 64.9301 67.5105 64.9301 67.5105 65.2901C67.5105 65.6501 67.4505 65.6401 67.3705 65.6401Z" fill="#418106"/>
<path d="M67.3705 64.6C67.3005 64.6 67.2305 64.6 67.2305 64.24C67.2305 63.88 67.3005 63.89 67.3705 63.89C67.4405 63.89 67.5105 63.89 67.5105 64.24C67.5105 64.59 67.4505 64.6 67.3705 64.6Z" fill="#418106"/>
<path d="M67.3705 63.56C67.3005 63.56 67.2305 63.51 67.2305 63.2C67.2305 62.89 67.3005 62.84 67.3705 62.84C67.4405 62.84 67.5105 62.84 67.5105 63.2C67.5105 63.56 67.4505 63.56 67.3705 63.56Z" fill="#418106"/>
<path d="M67.3705 62.5C67.3005 62.5 67.2305 62.5 67.2305 62.15C67.2305 61.8 67.3005 61.79 67.3705 61.79C67.4405 61.79 67.5105 61.79 67.5105 62.15C67.5105 62.51 67.4505 62.5 67.3705 62.5Z" fill="#418106"/>
<path d="M67.3705 61.4999C67.3005 61.4999 67.2305 61.4999 67.2305 61.1399C67.2305 60.7799 67.3005 60.7899 67.3705 60.7899C67.4405 60.7899 67.5105 60.7899 67.5105 61.1399C67.5105 61.4899 67.4505 61.4999 67.3705 61.4999Z" fill="#418106"/>
<path d="M67.3705 60.42C67.3005 60.42 67.2305 60.42 67.2305 60.07C67.2305 59.72 67.3005 59.71 67.3705 59.71C67.4405 59.71 67.5105 59.71 67.5105 60.07C67.5105 60.43 67.4505 60.42 67.3705 60.42Z" fill="#418106"/>
<path d="M67.3705 59.38C67.3005 59.38 67.2305 59.38 67.2305 59.02C67.2305 58.66 67.3005 58.6699 67.3705 58.6699C67.4405 58.6699 67.5105 58.67 67.5105 59.02C67.5105 59.37 67.4505 59.38 67.3705 59.38Z" fill="#418106"/>
<path d="M67.3705 58.34C67.3005 58.34 67.2305 58.29 67.2305 57.98C67.2305 57.67 67.3005 57.62 67.3705 57.62C67.4405 57.62 67.5105 57.67 67.5105 57.98C67.5105 58.29 67.4505 58.34 67.3705 58.34Z" fill="#418106"/>
<path d="M68.2309 56.9C67.9209 56.9 67.8809 56.82 67.8809 56.75C67.8809 56.68 67.8809 56.61 68.2309 56.61C68.5809 56.61 68.5909 56.68 68.5909 56.75C68.5909 56.82 68.5509 56.9 68.2309 56.9Z" fill="#418106"/>
<path d="M69.2799 56.9C68.9599 56.9 68.9199 56.82 68.9199 56.75C68.9199 56.68 68.9199 56.61 69.2799 56.61C69.6399 56.61 69.6299 56.68 69.6299 56.75C69.6299 56.82 69.5899 56.9 69.2799 56.9Z" fill="#418106"/>
<path d="M70.3209 56.9C70.0109 56.9 69.9609 56.82 69.9609 56.75C69.9609 56.68 69.9609 56.61 70.3209 56.61C70.6809 56.61 70.6809 56.68 70.6809 56.75C70.6809 56.82 70.6309 56.9 70.3209 56.9Z" fill="#418106"/>
<path d="M71.3598 56.9C71.0498 56.9 71.0098 56.82 71.0098 56.75C71.0098 56.68 71.0098 56.61 71.3598 56.61C71.7098 56.61 71.7198 56.68 71.7198 56.75C71.7198 56.82 71.6798 56.9 71.3598 56.9Z" fill="#418106"/>
<path d="M72.4108 56.9C72.0908 56.9 72.0508 56.82 72.0508 56.75C72.0508 56.68 72.0508 56.61 72.4108 56.61C72.7708 56.61 72.7608 56.68 72.7608 56.75C72.7608 56.82 72.7208 56.9 72.4108 56.9Z" fill="#418106"/>
<path d="M73.4498 56.9C73.1398 56.9 73.0898 56.82 73.0898 56.75C73.0898 56.68 73.1398 56.61 73.4498 56.61C73.7598 56.61 73.8098 56.68 73.8098 56.75C73.8098 56.82 73.7698 56.9 73.4498 56.9Z" fill="#418106"/>
<path d="M74.4906 56.9C74.1806 56.9 74.1406 56.82 74.1406 56.75C74.1406 56.68 74.1406 56.61 74.4906 56.61C74.8406 56.61 74.8506 56.68 74.8506 56.75C74.8506 56.82 74.8606 56.9 74.4906 56.9Z" fill="#418106"/>
<path d="M75.5397 56.9C75.2197 56.9 75.1797 56.82 75.1797 56.75C75.1797 56.68 75.1797 56.61 75.5397 56.61C75.8997 56.61 75.8897 56.68 75.8897 56.75C75.8897 56.82 75.8597 56.9 75.5397 56.9Z" fill="#418106"/>
<path d="M76.5805 56.9C76.2705 56.9 76.2305 56.82 76.2305 56.75C76.2305 56.68 76.2305 56.61 76.5805 56.61C76.9305 56.61 76.9405 56.68 76.9405 56.75C76.9405 56.82 76.8605 56.9 76.5805 56.9Z" fill="#418106"/>
<path d="M77.6195 56.9C77.3095 56.9 77.2695 56.82 77.2695 56.75C77.2695 56.68 77.2695 56.61 77.6195 56.61C77.9695 56.61 77.9795 56.68 77.9795 56.75C77.9795 56.82 77.9395 56.9 77.6195 56.9Z" fill="#418106"/>
<path d="M78.6705 56.9C78.3605 56.9 78.3105 56.82 78.3105 56.75C78.3105 56.68 78.3105 56.61 78.6705 56.61C79.0305 56.61 79.0205 56.68 79.0205 56.75C79.0205 56.82 78.9805 56.9 78.6705 56.9Z" fill="#418106"/>
<path d="M79.7094 56.9C79.3994 56.9 79.3594 56.82 79.3594 56.75C79.3594 56.68 79.3594 56.61 79.7094 56.61C80.0594 56.61 80.0694 56.68 80.0694 56.75C80.0694 56.82 80.0294 56.9 79.7094 56.9Z" fill="#418106"/>
<path d="M80.1205 57.7499C80.0405 57.7499 79.9805 57.7499 79.9805 57.3899C79.9805 57.0299 80.0405 57.0399 80.1205 57.0399C80.2005 57.0399 80.2605 57.0399 80.2605 57.3899C80.2605 57.7399 80.1905 57.7499 80.1205 57.7499Z" fill="#418106"/>
<path d="M80.1205 58.79C80.0405 58.79 79.9805 58.79 79.9805 58.44C79.9805 58.09 80.0405 58.08 80.1205 58.08C80.2005 58.08 80.2605 58.08 80.2605 58.44C80.2605 58.8 80.1905 58.79 80.1205 58.79Z" fill="#418106"/>
<path d="M80.1205 59.84C80.0405 59.84 79.9805 59.79 79.9805 59.48C79.9805 59.17 80.0405 59.12 80.1205 59.12C80.2005 59.12 80.2605 59.17 80.2605 59.48C80.2605 59.79 80.1905 59.84 80.1205 59.84Z" fill="#418106"/>
<path d="M80.1205 60.88C80.0405 60.88 79.9805 60.88 79.9805 60.52C79.9805 60.16 80.0405 60.1699 80.1205 60.1699C80.2005 60.1699 80.2605 60.17 80.2605 60.52C80.2605 60.87 80.1905 60.88 80.1205 60.88Z" fill="#418106"/>
<path d="M80.1205 61.92C80.0405 61.92 79.9805 61.92 79.9805 61.57C79.9805 61.22 80.0405 61.21 80.1205 61.21C80.2005 61.21 80.2605 61.21 80.2605 61.57C80.2605 61.93 80.1905 61.92 80.1205 61.92Z" fill="#418106"/>
<path d="M80.1205 62.97C80.0405 62.97 79.9805 62.97 79.9805 62.61C79.9805 62.25 80.0405 62.25 80.1205 62.25C80.2005 62.25 80.2605 62.25 80.2605 62.61C80.2605 62.97 80.1905 62.97 80.1205 62.97Z" fill="#418106"/>
<path d="M80.1205 64.01C80.0405 64.01 79.9805 64.01 79.9805 63.65C79.9805 63.29 80.0405 63.3 80.1205 63.3C80.2005 63.3 80.2605 63.3 80.2605 63.65C80.2605 64 80.1905 64.01 80.1205 64.01Z" fill="#418106"/>
<path d="M80.1205 65.06C80.0405 65.06 79.9805 65.01 79.9805 64.7C79.9805 64.39 80.0405 64.34 80.1205 64.34C80.2005 64.34 80.2605 64.34 80.2605 64.7C80.2605 65.06 80.1905 65.06 80.1205 65.06Z" fill="#418106"/>
<path d="M80.1205 66.1C80.0405 66.1 79.9805 66.1 79.9805 65.74C79.9805 65.38 80.0405 65.39 80.1205 65.39C80.2005 65.39 80.2605 65.39 80.2605 65.74C80.2605 66.09 80.1905 66.1 80.1205 66.1Z" fill="#418106"/>
<path d="M80.1205 67.1401C80.0405 67.1401 79.9805 67.1401 79.9805 66.7901C79.9805 66.4401 80.0405 66.4301 80.1205 66.4301C80.2005 66.4301 80.2605 66.4301 80.2605 66.7901C80.2605 67.1501 80.1905 67.1401 80.1205 67.1401Z" fill="#418106"/>
<path d="M80.1205 68.19C80.0405 68.19 79.9805 68.19 79.9805 67.83C79.9805 67.47 80.0405 67.47 80.1205 67.47C80.2005 67.47 80.2605 67.52 80.2605 67.83C80.2605 68.14 80.1905 68.19 80.1205 68.19Z" fill="#418106"/>
<path d="M80.1205 69.23C80.0405 69.23 79.9805 69.23 79.9805 68.87C79.9805 68.51 80.0405 68.52 80.1205 68.52C80.2005 68.52 80.2605 68.52 80.2605 68.87C80.2605 69.22 80.1905 69.23 80.1205 69.23Z" fill="#418106"/>
<path d="M80.5904 68.89H79.6504V69.83H80.5904V68.89Z" fill="#418106"/>
<path d="M80.6808 69.94H79.5508V68.8H80.6808V69.94ZM79.7408 69.75H80.4908V68.9901H79.7408V69.75Z" fill="#418106"/>
<path d="M67.8404 69.02H66.9004V69.96H67.8404V69.02Z" fill="#418106"/>
<path d="M67.9394 70.0701H66.8594V68.9301H67.9894L67.9394 70.0701ZM66.9994 69.8801H67.7494V69.1201H66.9994V69.8801Z" fill="#418106"/>
<path d="M80.5904 56.1899H79.6504V57.1299H80.5904V56.1899Z" fill="#418106"/>
<path d="M80.6808 57.23H79.5508V56.1H80.6808V57.23ZM79.7408 57.04H80.4908V56.29H79.7408V57.04Z" fill="#418106"/>
<path d="M67.8404 56.28H66.9004V57.22H67.8404V56.28Z" fill="#418106"/>
<path d="M67.9394 57.3199H66.8594V56.1899H67.9894L67.9394 57.3199ZM66.9994 57.1299H67.7494V56.3799H66.9994V57.1299Z" fill="#418106"/>
<path d="M85.0508 56.1801L85.0808 57.0801H94.3008L94.2708 56.1801H85.0508Z" fill="#B2CDFA"/>
<path d="M89.5703 58.9L89.6003 59.8H104.6L104.57 58.9H89.5703Z" fill="#B2CDFA"/>
<path d="M85.0703 58.9L85.1003 59.8H88.9203L88.8803 58.9H85.0703Z" fill="#6A6AE8"/>
<path d="M85.0293 61.61L85.0593 62.52H92.6893L92.6393 61.61H85.0293Z" fill="#B2CDFA"/>
<path d="M93.1699 61.61L93.2299 62.52H100.7L100.67 61.61H93.1699Z" fill="#6A6AE8"/>
<path d="M95.2207 56.1801L95.2507 57.0801H98.0507L98.0207 56.1801H95.2207Z" fill="#6A6AE8"/>
<path d="M105.529 58.9L105.569 59.8H110.049L110.009 58.9H105.529Z" fill="#B2CDFA"/>
<path d="M101.529 61.61L101.559 62.52H106.099L106.069 61.61H101.529Z" fill="#B2CDFA"/>
<path d="M99.2695 56.1801L99.3295 57.0801H107.24L107.18 56.1801H99.2695Z" fill="#B2CDFA"/>
<path d="M85 66.35L85.03 67.26H94.25L94.22 66.35H85Z" fill="#B2CDFA"/>
<path d="M89.5195 69.0699L89.5595 69.9799H104.56L104.52 69.0699H89.5195Z" fill="#B2CDFA"/>
<path d="M85.0195 69.0699L85.0595 69.9799H88.8695L88.8395 69.0699H85.0195Z" fill="#B2CDFA"/>
<path d="M95.1699 66.35L95.1999 67.26H97.9999L97.9699 66.35H95.1699Z" fill="#B2CDFA"/>
<path d="M105.49 69.0699L105.52 69.9799H110L109.97 69.0699H105.49Z" fill="#B2CDFA"/>
<path d="M99.2207 66.35L99.2907 67.26H107.201L107.131 66.35H99.2207Z" fill="#6A6AE8"/>
<path d="M106.66 75.9H68.49C66.9767 75.9 65.75 77.1268 65.75 78.64V97.01C65.75 98.5233 66.9767 99.75 68.49 99.75H106.66C108.173 99.75 109.4 98.5233 109.4 97.01V78.64C109.4 77.1268 108.173 75.9 106.66 75.9Z" fill="#B2CDFA"/>
<path d="M80.8105 78.9399L80.8405 79.8199H90.0305L90.0005 78.9399H80.8105Z" fill="white"/>
<path d="M85.3105 81.59L85.3505 82.48H100.301L100.261 81.59H85.3105Z" fill="white"/>
<path d="M80.8301 81.59L80.8601 82.48H84.6701L84.6301 81.59H80.8301Z" fill="#6A6AE8"/>
<path d="M80.7891 84.25L80.8191 85.14H88.4291L88.3691 84.25H80.7891Z" fill="white"/>
<path d="M88.9004 84.25L88.9604 85.14H96.4104L96.3804 84.25H88.9004Z" fill="#6A6AE8"/>
<path d="M74.1309 84.25V85.14H77.8709V84.25H74.1309Z" fill="white"/>
<path d="M69.5901 81.59L69.5801 82.48H75.6701V81.59H69.5901Z" fill="white"/>
<path d="M76.3594 81.59V82.48H77.9094V81.59H76.3594Z" fill="white"/>
<path d="M74.8906 78.9399V79.8199H77.9806V78.9399H74.8906Z" fill="url(#paint34_linear_45_2958)"/>
<path d="M71.2307 78.9399L71.2207 79.8199H74.2707L74.2607 78.9399H71.2307Z" fill="url(#paint35_linear_45_2958)"/>
<path d="M74.0801 94.2V95.09H77.8201V94.2H74.0801Z" fill="white"/>
<path d="M69.5391 91.55V92.43H75.6191V91.55H69.5391Z" fill="white"/>
<path d="M76.3205 91.55L76.3105 92.43H77.8605V91.55H76.3205Z" fill="white"/>
<path d="M74.8398 88.89V89.77H77.9298V88.89H74.8398Z" fill="url(#paint36_linear_45_2958)"/>
<path d="M71.1797 88.89V89.77H74.2197L74.2097 88.89H71.1797Z" fill="url(#paint37_linear_45_2958)"/>
<path d="M90.9395 78.9399L90.9695 79.8199H93.7595L93.7295 78.9399H90.9395Z" fill="#6A6AE8"/>
<path d="M101.221 81.59L101.261 82.48H105.721L105.691 81.59H101.221Z" fill="white"/>
<path d="M97.2305 84.25L97.2705 85.14H101.79L101.76 84.25H97.2305Z" fill="white"/>
<path d="M94.9805 78.9399L95.0505 79.8199H102.93L102.86 78.9399H94.9805Z" fill="white"/>
<path d="M80.7598 88.89L80.7898 89.77H89.9798L89.9498 88.89H80.7598Z" fill="white"/>
<path d="M85.2695 91.55L85.2995 92.43H100.25L100.22 91.55H85.2695Z" fill="white"/>
<path d="M80.7793 91.55L80.8093 92.43H84.6193L84.5793 91.55H80.7793Z" fill="white"/>
<path d="M80.7402 94.2L80.7702 95.09H88.3802L88.3302 94.2H80.7402Z" fill="white"/>
<path d="M88.8594 94.2L88.9094 95.09H96.3694L96.3294 94.2H88.8594Z" fill="white"/>
<path d="M90.8906 88.89L90.9306 89.77H93.7206L93.6806 88.89H90.8906Z" fill="white"/>
<path d="M101.18 91.55L101.21 92.43H105.68L105.64 91.55H101.18Z" fill="white"/>
<path d="M97.1895 94.2L97.2195 95.09H101.749L101.709 94.2H97.1895Z" fill="#6A6AE8"/>
<path d="M94.9297 88.89L94.9997 89.77H102.88L102.82 88.89H94.9297Z" fill="#6A6AE8"/>
<path d="M212.199 27.77H246.419C247.677 27.77 248.883 28.2674 249.775 29.1536C250.667 30.0398 251.172 31.2428 251.179 32.5V50.68C251.179 51.3046 251.056 51.9231 250.817 52.5001C250.578 53.077 250.227 53.6011 249.785 54.0423C249.343 54.4835 248.818 54.8332 248.24 55.0713C247.663 55.3094 247.044 55.4313 246.419 55.43H224.609L217.419 64.08C217.302 64.2347 217.139 64.3485 216.953 64.4057C216.767 64.4628 216.568 64.4603 216.384 64.3985C216.2 64.3367 216.039 64.2187 215.925 64.0612C215.812 63.9036 215.75 63.7144 215.749 63.52L217.919 55.43H212.199C211.575 55.4313 210.956 55.3094 210.379 55.0713C209.801 54.8332 209.276 54.4835 208.834 54.0423C208.392 53.6011 208.041 53.077 207.802 52.5001C207.563 51.9231 207.439 51.3046 207.439 50.68V32.5C207.447 31.2428 207.952 30.0398 208.844 29.1536C209.736 28.2674 210.942 27.77 212.199 27.77V27.77Z" fill="#418106"/>
<path d="M222.681 42.79L224.781 43.45C224.55 44.4752 223.984 45.3939 223.171 46.06C222.344 46.656 221.339 46.9554 220.321 46.91C219.678 46.9282 219.038 46.8122 218.442 46.5695C217.847 46.3267 217.308 45.9625 216.861 45.5C215.899 44.3969 215.407 42.9611 215.491 41.5C215.384 39.9751 215.876 38.4687 216.861 37.3C217.327 36.8084 217.893 36.4221 218.521 36.1668C219.149 35.9116 219.824 35.7933 220.501 35.82C221.083 35.7954 221.665 35.8862 222.213 36.087C222.76 36.2877 223.262 36.5946 223.691 36.99C224.239 37.5394 224.62 38.2328 224.791 38.99L222.651 39.5C222.546 38.983 222.263 38.5194 221.851 38.19C221.438 37.8576 220.92 37.6838 220.391 37.7C220.024 37.6894 219.659 37.7612 219.323 37.91C218.988 38.0588 218.69 38.2809 218.451 38.56C217.888 39.3683 217.626 40.3485 217.711 41.33C217.617 42.3516 217.874 43.3748 218.441 44.23C218.672 44.5076 218.963 44.7292 219.292 44.8781C219.621 45.0271 219.98 45.0995 220.341 45.09C220.889 45.1025 221.422 44.9059 221.831 44.54C222.29 44.0594 222.587 43.4476 222.681 42.79V42.79Z" fill="white"/>
<path d="M228.98 45.1799V42.3999H226.17V40.4999H228.98V37.6899H230.86V40.4999H233.68V42.3999H230.86V45.1799H228.98Z" fill="white"/>
<path d="M237.72 45.1799V42.3999H234.92V40.4999H237.72V37.6899H239.6V40.4999H242.41V42.3999H239.6V45.1799H237.72Z" fill="white"/>
<path d="M184.36 158.79C184.59 158.781 184.811 158.698 184.991 158.554C185.171 158.41 185.3 158.213 185.36 157.99L192.71 119.94C192.777 119.666 192.734 119.376 192.59 119.133C192.446 118.89 192.213 118.713 191.94 118.64C191.804 118.604 191.662 118.595 191.523 118.615C191.384 118.634 191.25 118.681 191.129 118.753C191.008 118.824 190.902 118.919 190.818 119.032C190.734 119.145 190.674 119.273 190.64 119.41L183.33 157.5C183.26 157.774 183.302 158.065 183.446 158.309C183.591 158.553 183.826 158.729 184.1 158.8C184.187 158.806 184.274 158.803 184.36 158.79Z" fill="#B1BADE"/>
<path d="M185.429 158.79C185.66 158.784 185.883 158.703 186.064 158.558C186.244 158.414 186.373 158.214 186.429 157.99L193.859 119.94C193.894 119.805 193.902 119.664 193.882 119.526C193.863 119.387 193.816 119.254 193.745 119.134C193.601 118.891 193.367 118.715 193.094 118.645C192.821 118.575 192.531 118.616 192.288 118.759C192.045 118.903 191.869 119.137 191.799 119.41L184.399 157.5C184.363 157.635 184.354 157.776 184.373 157.915C184.392 158.054 184.438 158.188 184.508 158.308C184.579 158.429 184.673 158.535 184.784 158.619C184.896 158.704 185.024 158.765 185.159 158.8C185.249 158.807 185.34 158.803 185.429 158.79Z" fill="#C8D3FB"/>
<path d="M214.581 158.79C214.812 158.784 215.035 158.703 215.215 158.558C215.396 158.414 215.524 158.214 215.581 157.99L222.931 119.94C222.966 119.805 222.973 119.664 222.954 119.526C222.934 119.387 222.887 119.254 222.816 119.134C222.673 118.891 222.439 118.715 222.166 118.645C221.893 118.575 221.603 118.616 221.36 118.759C221.117 118.903 220.941 119.137 220.871 119.41L213.541 157.5C213.474 157.774 213.517 158.064 213.661 158.307C213.804 158.55 214.038 158.727 214.311 158.8C214.401 158.807 214.491 158.803 214.581 158.79Z" fill="#B1BADE"/>
<path d="M215.649 158.79C215.88 158.782 216.102 158.7 216.282 158.556C216.462 158.412 216.591 158.213 216.649 157.99L223.999 119.94C224.043 119.801 224.058 119.655 224.043 119.51C224.029 119.366 223.985 119.225 223.914 119.098C223.843 118.971 223.747 118.86 223.632 118.771C223.517 118.682 223.385 118.618 223.244 118.582C223.103 118.545 222.956 118.538 222.813 118.561C222.669 118.584 222.531 118.635 222.408 118.713C222.285 118.79 222.179 118.892 222.097 119.012C222.014 119.132 221.957 119.267 221.929 119.41L214.609 157.5C214.542 157.774 214.585 158.064 214.729 158.307C214.873 158.55 215.106 158.727 215.379 158.8C215.469 158.807 215.56 158.803 215.649 158.79V158.79Z" fill="#C8D3FB"/>
<path d="M160.589 159.08H163.179L154.459 205.67H151.869L160.589 159.08Z" fill="#B1BADE"/>
<path d="M150.38 159.78H180.17V156.72H150.38V159.78Z" fill="#B1BADE"/>
<path d="M186.23 159.08H183.65L192.36 205.67H194.95L186.23 159.08Z" fill="#C8D3FB"/>
<path d="M216.68 159.08H214.09L222.81 205.67H225.4L216.68 159.08Z" fill="#C8D3FB"/>
<path d="M191.04 159.08H193.63L184.91 205.67H182.32L191.04 159.08Z" fill="#B1BADE"/>
<path d="M180.17 159.78H219.75V156.72H180.17V159.78Z" fill="#C8D3FB"/>
<path d="M188.97 128.56H226.97C227.394 128.561 227.806 128.42 228.139 128.158C228.473 127.897 228.709 127.532 228.81 127.12L231.3 116.91C231.369 116.632 231.373 116.342 231.312 116.062C231.251 115.782 231.128 115.52 230.95 115.295C230.773 115.07 230.546 114.889 230.288 114.765C230.03 114.641 229.746 114.578 229.46 114.58H191.46C191.036 114.577 190.623 114.718 190.289 114.979C189.955 115.241 189.719 115.608 189.62 116.02L187.12 126.22C187.054 126.499 187.051 126.79 187.113 127.07C187.175 127.351 187.3 127.613 187.478 127.838C187.656 128.064 187.883 128.245 188.141 128.37C188.4 128.495 188.683 128.56 188.97 128.56Z" fill="#C8D3FB"/>
<path d="M187.109 128.56H225.109C225.533 128.561 225.945 128.42 226.278 128.158C226.612 127.897 226.848 127.532 226.949 127.12L229.439 116.91C229.508 116.632 229.512 116.342 229.451 116.062C229.391 115.782 229.267 115.52 229.089 115.295C228.912 115.07 228.685 114.889 228.427 114.765C228.169 114.641 227.886 114.578 227.599 114.58H189.599C189.176 114.578 188.765 114.719 188.433 114.98C188.1 115.242 187.866 115.608 187.769 116.02L185.269 126.22C185.201 126.499 185.197 126.789 185.258 127.069C185.318 127.35 185.442 127.613 185.619 127.838C185.796 128.064 186.023 128.246 186.281 128.371C186.539 128.496 186.822 128.561 187.109 128.56V128.56Z" fill="#B1BADE"/>
<path d="M195.921 103.5C194.641 108.14 183.661 122.13 181.571 125.1C179.051 128.69 173.801 127.26 173.731 123.25C173.671 119.83 185.011 100.44 186.861 98.48C190.191 94.91 197.521 97.65 195.921 103.5Z" fill="#FFBC8E"/>
<path d="M188.53 118.5C191.962 112.992 194.802 107.136 197 101.03C198.6 95.2201 191.27 92.4801 187.94 96.0301C184.168 101.184 180.842 106.651 178 112.37C178.35 114.65 183.95 119.14 188.53 118.5Z" fill="#D35600"/>
<path d="M178.48 118.79C172.48 119.31 156.83 125.97 153.23 125.03C149.63 124.09 145.4 124.03 143.71 126.38C142.02 128.73 142.71 131.8 146.61 130.81C148.34 130.37 150.27 131.56 154.13 130.06C157.99 128.56 171.99 128.85 177.86 127.5C183.73 126.15 182.56 118.5 178.48 118.79Z" fill="#FFBC8E"/>
<path d="M192.53 139.5C197.07 141.19 197.17 153.95 190.36 155.56C179.24 158.2 169.72 158.82 152.19 158.22C145.19 157.99 138.92 151.58 144.28 146.39C149.64 141.2 179.86 134.81 192.53 139.5Z" fill="#418106"/>
<path d="M204.859 92.67C208.289 92.67 214.619 93.52 216.859 96.53C219.099 99.54 214.349 125.23 214.349 145.61C214.349 145.61 193.169 147.69 181.789 136.17C181.789 136.17 184.259 101.72 187.649 96.46C190.479 92.07 201.459 92.63 204.859 92.67Z" fill="url(#paint38_linear_45_2958)"/>
<path d="M218.29 103.93C218.19 112.86 215.29 127.93 215.04 141.67C215.04 142.99 215.04 144.3 215.04 145.59C211.665 145.937 208.26 145.87 204.9 145.39L204.46 145.33H204.01L203.55 145.27L203.1 145.2H202.87L202.17 145.09L201.34 144.95H201.19L200.28 144.78C194.02 143.55 187.28 142.83 182.48 138C182.48 138 184.95 101.81 188.35 96.55C191.18 92.16 202.16 92.72 205.58 92.76C209 92.8 215.34 93.61 217.58 96.62C218.14 97.38 218.33 100.06 218.29 103.93Z" fill="url(#paint39_linear_45_2958)"/>
<path d="M217.629 103.93C217.529 112.86 214.629 127.93 214.369 141.67C214.369 142.48 214.369 143.28 214.369 144.07C214.289 144.58 214.209 145.07 214.119 145.6C210.824 145.861 207.511 145.79 204.229 145.39L203.789 145.33H203.339L202.879 145.27L202.429 145.2H202.199L201.499 145.09L200.669 144.95H200.519L199.609 144.78C194.189 143.71 187.389 142.59 182.609 138.78C189.609 134.43 213.529 118.17 215.349 104.87C215.659 102.35 216.569 102.24 217.629 103.93Z" fill="#D35600"/>
<path d="M205.591 92.6801C205.591 92.6801 195.701 110.43 194.481 111.94C194.481 111.94 193.281 97.8201 193.051 93.5701L205.591 92.6801Z" fill="url(#paint40_linear_45_2958)"/>
<path d="M196.65 97.18L194.17 93.55C194.17 93.55 196.1 91.89 195.39 88.22C193.66 79.22 202.75 84.94 202.75 84.94C202.75 84.94 202.11 92.63 204.88 92.67L196.65 97.18Z" fill="#FFD2A7"/>
<path d="M196.49 95.3999C201.25 95.4699 200.34 89.6199 200.49 88.4999C200.64 87.3799 202.8 84.9399 202.8 84.9399C202.8 84.9399 202.16 92.6299 204.93 92.6699L196.7 97.1799L195.24 95.0399C195.616 95.2718 196.049 95.3963 196.49 95.3999Z" fill="#FFBC8E"/>
<path d="M203.24 91.11C202 93.63 196.65 97.18 196.65 97.18C196.65 97.18 198.35 96.61 200.28 98.68C200.829 99.2258 201.523 99.601 202.28 99.76C202.28 99.76 205.57 96.57 205.62 92.68L203.24 91.11Z" fill="#C8D3FB"/>
<path d="M195.05 92.26C195.179 94.0049 195.728 95.6927 196.65 97.18C196.133 96.9969 195.569 97.0041 195.057 97.2002C194.546 97.3964 194.121 97.7686 193.86 98.25C193.598 98.6582 193.19 98.9514 192.72 99.07C192.614 97.1777 192.718 95.2795 193.03 93.41L195.05 92.26Z" fill="#C8D3FB"/>
<path d="M191.307 80.4104L188.545 80.8289L188.588 81.116L191.351 80.6975L191.307 80.4104Z" fill="#1C0A76"/>
<path d="M189.26 74.5L190.92 85.03C191.058 85.7842 191.344 86.5037 191.761 87.1473C192.178 87.7909 192.717 88.346 193.349 88.7807C193.981 89.2154 194.692 89.5213 195.442 89.6807C196.192 89.8402 196.966 89.8501 197.72 89.71V89.71C199.25 89.5011 200.635 88.6947 201.572 87.4672C202.509 86.2397 202.922 84.691 202.72 83.16V82.91C203.641 82.7031 204.447 82.1491 204.971 81.3632C205.494 80.5772 205.694 79.6198 205.53 78.69C204.99 75.25 202.95 77.01 202.95 77.01L202.23 72.47L189.26 74.5Z" fill="#FFD2A7"/>
<path d="M202.95 76.96L202.23 72.42L197.63 73.14C197.63 73.14 197.63 73.21 197.63 73.24L199.5 85.15C199.622 86.1724 199.337 87.2018 198.706 88.0157C198.076 88.8297 197.15 89.3629 196.13 89.5C195.527 89.5755 194.916 89.4999 194.35 89.28C195.412 89.7297 196.58 89.8717 197.72 89.69C199.25 89.4812 200.635 88.6748 201.572 87.4473C202.509 86.2198 202.922 84.6711 202.72 83.14V82.89C203.641 82.6832 204.447 82.1292 204.97 81.3433C205.494 80.5573 205.694 79.5999 205.53 78.67C204.99 75.2 202.95 76.96 202.95 76.96Z" fill="#FFBC8E"/>
<path d="M202.86 77.09C202.86 77.09 202.36 80.33 201.11 76.69C199.86 73.05 198.73 73.39 194.58 74.32C190.43 75.25 184.3 74.62 185.75 69.11C187.2 63.6 196.75 66.03 196.75 66.03C196.75 66.03 203 63.03 204.91 68.03C206.82 73.03 202.86 77.09 202.86 77.09Z" fill="#1C0A76"/>
<path d="M206.86 97.3501C204.59 101.59 202.93 119.69 202.4 123.29C201.76 127.62 205.64 130.44 208.46 127.58C210.86 125.14 217.6 102.02 217.61 99.3301C217.63 94.5001 209.71 92.0401 206.86 97.3501Z" fill="#FFD2A7"/>
<path d="M202.26 113.42C203.38 106.52 205.36 99.4199 206.66 97.0099C209.75 91.2299 218.28 94.3799 218.26 99.6599C218.26 100.98 216.59 107.98 214.66 114.66C209.3 115.93 203.08 114.09 202.26 113.42Z" fill="url(#paint41_linear_45_2958)"/>
<path d="M205.631 122.23C199.841 122.23 182.631 127.76 179.221 126.5C175.811 125.24 169.921 125.13 168.151 127.32C166.381 129.51 168.081 130.99 170.621 131.98C172.241 132.6 174.071 133.05 177.861 131.9C181.651 130.75 198.761 131.65 204.501 130.8C210.241 129.95 209.551 122.25 205.631 122.23Z" fill="#FFD2A7"/>
<path d="M198 81.84C197.596 81.9011 197.184 81.8609 196.8 81.723C196.416 81.5851 196.072 81.3538 195.8 81.05C195.274 80.498 194.926 79.8015 194.8 79.05C194.61 77.85 195.46 77.05 197.19 76.77C198.92 76.49 199.99 77.01 200.19 78.21C200.39 79.41 199.86 81.5 198.06 81.83L198 81.84ZM195.09 78.99C195.207 79.6868 195.527 80.3337 196.01 80.85C196.252 81.1178 196.557 81.3218 196.897 81.4439C197.237 81.566 197.602 81.6024 197.96 81.55H198.01C199.61 81.26 200.08 79.42 199.9 78.24C199.72 77.06 198.34 76.87 197.25 77.04H197.11C196.05 77.25 194.86 77.74 195.09 78.99V78.99Z" fill="#1C0A76"/>
<path d="M191.58 82.8499C189.74 83.1299 188.58 81.3399 188.38 80.0399C188.18 78.7399 189.04 78.0399 190.78 77.7599C192.52 77.4799 193.57 77.9999 193.78 79.1999C193.99 80.3999 193.45 82.5099 191.66 82.8399L191.58 82.8499ZM188.67 79.9999C188.86 81.1799 189.89 82.8199 191.53 82.5599C193.17 82.2999 193.66 80.4299 193.47 79.2399C193.28 78.0499 191.92 77.8699 190.82 78.0399H190.68C189.62 78.2599 188.47 78.7499 188.67 79.9999Z" fill="#1C0A76"/>
<path d="M194.908 78.6075L193.555 78.8237L193.6 79.1101L194.953 78.8939L194.908 78.6075Z" fill="#1C0A76"/>
<path d="M202.675 77.6854L199.918 78.1156L199.963 78.4021L202.719 77.9719L202.675 77.6854Z" fill="#1C0A76"/>
<path d="M212.29 143.5C216.67 145.57 213.22 155.95 206.29 156.98C194.99 158.66 185.37 159.21 168.13 155.98C164.63 155.34 155.47 148.24 161.26 143.52C167.05 138.8 200.02 137.68 212.29 143.5Z" fill="#418106"/>
<path d="M173.991 150.9C181.611 148.07 214.351 149.62 213.751 144.98C215.541 148.73 212.171 156.08 206.301 156.98C195.001 158.66 186.301 159.31 167.661 157.69C164.931 157.42 171.661 151.77 173.991 150.9Z" fill="#1C0A76"/>
<path d="M152.4 200.93C156.21 199.61 157.13 193.79 157.52 190.33L163.08 192.33C163.08 192.33 160.88 198.24 161.76 202.26C162.64 206.28 161.43 205.9 161.43 205.9H144C144 205.9 148.59 202.26 152.4 200.93Z" fill="#FFD2A7"/>
<path d="M152.4 200.93C153.563 200.489 154.528 199.644 155.12 198.55C155.56 197.77 156.32 199.24 157.01 200.76C157.01 200.76 160.01 201.96 161.62 201.45C161.62 201.73 161.7 202 161.76 202.27C162.63 206.27 161.43 205.91 161.43 205.91H144C144.86 202.62 148.72 202.1 152.4 200.93Z" fill="#1C0A76"/>
<path d="M162.07 204.86C162.01 206.09 161.43 205.86 161.43 205.86H144C144.081 205.505 144.223 205.166 144.42 204.86H162.07Z" fill="#1C0A76"/>
<path d="M160.071 144.81C155.071 148.91 157.341 178.42 154.811 198.04C154.811 198.04 160.631 199.34 164.131 197.82C164.131 197.82 175.061 163.18 173.701 155.26C171.861 144.64 165.461 140.41 160.071 144.81Z" fill="#418106"/>
<path d="M172.691 151.22C175.821 152.7 173.421 153.7 173.691 155.22C175.091 163.13 164.121 197.78 164.121 197.78C163.644 197.984 163.148 198.138 162.641 198.24C165.061 193.89 172.671 151.68 172.691 151.22Z" fill="#1C0A76"/>
<path d="M151.251 198.17C154.251 195.52 152.991 189.78 152.061 186.42L157.981 186.22C157.981 186.22 158.131 192.52 160.431 195.93C162.731 199.34 161.481 199.43 161.481 199.43L145.301 205.91C145.301 205.91 148.201 200.81 151.251 198.17Z" fill="#FFD2A7"/>
<path d="M151.25 198.17C152.166 197.329 152.749 196.186 152.89 194.95C153.01 194.06 154.26 195.14 155.46 196.29C155.46 196.29 158.7 196.29 160.01 195.22C160.15 195.46 160.28 195.71 160.43 195.93C162.74 199.34 161.48 199.43 161.48 199.43L145.3 205.91C144.86 202.5 148.27 200.62 151.25 198.17Z" fill="#1C0A76"/>
<path d="M161.69 198.22C162.09 199.39 161.48 199.43 161.48 199.43L145.3 205.91C145.236 205.536 145.236 205.154 145.3 204.78L161.69 198.22Z" fill="#1C0A76"/>
<path d="M142.861 148.38C140.511 152.58 147.931 176.01 151.011 193.47C151.011 193.47 157.101 193.83 160.011 191.6C160.011 191.6 160.771 159.06 157.241 152.65C152.481 144.05 145.951 142.76 142.861 148.38Z" fill="#418106"/>
<path d="M156.109 150.83C156.489 151.39 156.859 151.99 157.229 152.65C160.759 159.06 159.999 191.6 159.999 191.6C159.594 191.901 159.162 192.165 158.709 192.39C156.119 177.85 156.219 151.23 156.109 150.83Z" fill="#1C0A76"/>
<path d="M158.549 129.89H114.689V132.21H158.549V129.89Z" fill="#C8D3FB"/>
<path d="M158.539 132.21H178.729V130.91C178.729 130.645 178.624 130.39 178.436 130.203C178.249 130.015 177.994 129.91 177.729 129.91H158.539V132.21Z" fill="#C8D3FB"/>
<path d="M115.921 129.9H159.601L153.861 103C153.794 102.628 153.599 102.291 153.311 102.047C153.023 101.802 152.659 101.666 152.281 101.66H112.931C112.553 101.676 112.184 101.775 111.849 101.951C111.514 102.127 111.223 102.375 110.996 102.678C110.769 102.98 110.613 103.329 110.537 103.7C110.462 104.07 110.47 104.453 110.561 104.82L115.921 129.9Z" fill="#C8D3FB"/>
<path d="M114.859 129.9H158.539L152.789 103C152.72 102.629 152.525 102.293 152.237 102.049C151.95 101.805 151.586 101.667 151.209 101.66H111.039C110.764 101.671 110.495 101.744 110.251 101.872C110.007 102 109.795 102.18 109.629 102.4C109.464 102.62 109.349 102.874 109.294 103.144C109.238 103.414 109.244 103.693 109.309 103.96L114.859 129.9Z" fill="url(#paint42_linear_45_2958)"/>
<path opacity="0.34" d="M132.011 101.65L119.711 129.89H125.341L138.101 101.65H132.011Z" fill="#DAE7FF"/>
<path opacity="0.34" d="M141.21 101.65L128.9 129.89H131.09L143.86 101.65H141.21Z" fill="#DAE7FF"/>
<path d="M214.76 136.53H212.93V205.73H214.76V136.53Z" fill="url(#paint43_linear_45_2958)"/>
<path d="M224.899 132.21H194.359V134.98H224.899V132.21Z" fill="#1C0A75"/>
<path d="M218.21 134.97H187.67V136.52H218.21V134.97Z" fill="url(#paint44_linear_45_2958)"/>
<path d="M201.82 132.21H84.7305V134.98H201.82V132.21Z" fill="url(#paint45_linear_45_2958)"/>
<path d="M187.67 134.97H91.4199V136.52H187.67V134.97Z" fill="#1C0A75"/>
<path d="M182.75 136.53H180.92V205.73H182.75V136.53Z" fill="#1C0A75"/>
<path d="M132.33 136.53H130.5V205.73H132.33V136.53Z" fill="url(#paint46_linear_45_2958)"/>
<path d="M96.3398 205.72H98.1698V173.36V136.53H96.3398V205.72Z" fill="#1C0A75"/>
<defs>
<linearGradient id="paint0_linear_45_2958" x1="32.3206" y1="110.01" x2="241.681" y2="110.01" gradientUnits="userSpaceOnUse">
<stop stop-color="white"/>
<stop offset="1" stop-color="#D3DBEB"/>
</linearGradient>
<linearGradient id="paint1_linear_45_2958" x1="71.9509" y1="80.09" x2="367.951" y2="-7.90995" gradientUnits="userSpaceOnUse">
<stop stop-color="white"/>
<stop offset="1" stop-color="#D3DBEB"/>
</linearGradient>
<linearGradient id="paint2_linear_45_2958" x1="0" y1="108.51" x2="375.46" y2="108.51" gradientUnits="userSpaceOnUse">
<stop stop-color="white"/>
<stop offset="1" stop-color="#D3DBEB"/>
</linearGradient>
<linearGradient id="paint3_linear_45_2958" x1="24.9707" y1="120.7" x2="26.8307" y2="120.7" gradientUnits="userSpaceOnUse">
<stop stop-color="#FFAE00"/>
<stop offset="1" stop-color="#FF7800"/>
</linearGradient>
<linearGradient id="paint4_linear_45_2958" x1="29.8203" y1="126.3" x2="34.0103" y2="126.3" gradientUnits="userSpaceOnUse">
<stop stop-color="#FFAE00"/>
<stop offset="1" stop-color="#FF7800"/>
</linearGradient>
<linearGradient id="paint5_linear_45_2958" x1="24.8496" y1="126.3" x2="28.9696" y2="126.3" gradientUnits="userSpaceOnUse">
<stop stop-color="#FFAE00"/>
<stop offset="1" stop-color="#FF7800"/>
</linearGradient>
<linearGradient id="paint6_linear_45_2958" x1="22.4902" y1="141.65" x2="30.7302" y2="141.65" gradientUnits="userSpaceOnUse">
<stop stop-color="#FFAE00"/>
<stop offset="1" stop-color="#FF7800"/>
</linearGradient>
<linearGradient id="paint7_linear_45_2958" x1="31.6699" y1="141.65" x2="33.7699" y2="141.65" gradientUnits="userSpaceOnUse">
<stop stop-color="#FFAE00"/>
<stop offset="1" stop-color="#FF7800"/>
</linearGradient>
<linearGradient id="paint8_linear_45_2958" x1="29.75" y1="134.69" x2="33.95" y2="134.69" gradientUnits="userSpaceOnUse">
<stop stop-color="#FFAE00"/>
<stop offset="1" stop-color="#FF7800"/>
</linearGradient>
<linearGradient id="paint9_linear_45_2958" x1="24.7891" y1="134.69" x2="28.9091" y2="134.69" gradientUnits="userSpaceOnUse">
<stop stop-color="#FFAE00"/>
<stop offset="1" stop-color="#FF7800"/>
</linearGradient>
<linearGradient id="paint10_linear_45_2958" x1="22.3203" y1="154.1" x2="30.5703" y2="154.1" gradientUnits="userSpaceOnUse">
<stop stop-color="#FFAE00"/>
<stop offset="1" stop-color="#FF7800"/>
</linearGradient>
<linearGradient id="paint11_linear_45_2958" x1="31.5098" y1="154.1" x2="33.6098" y2="154.1" gradientUnits="userSpaceOnUse">
<stop stop-color="#FFAE00"/>
<stop offset="1" stop-color="#FF7800"/>
</linearGradient>
<linearGradient id="paint12_linear_45_2958" x1="29.5898" y1="147.13" x2="33.7798" y2="147.13" gradientUnits="userSpaceOnUse">
<stop stop-color="#FFAE00"/>
<stop offset="1" stop-color="#FF7800"/>
</linearGradient>
<linearGradient id="paint13_linear_45_2958" x1="24.6309" y1="147.13" x2="28.7509" y2="147.13" gradientUnits="userSpaceOnUse">
<stop stop-color="#FFAE00"/>
<stop offset="1" stop-color="#FF7800"/>
</linearGradient>
<linearGradient id="paint14_linear_45_2958" x1="64.2891" y1="200.9" x2="84.7391" y2="200.9" gradientUnits="userSpaceOnUse">
<stop stop-color="#FFAE00"/>
<stop offset="1" stop-color="#FF7800"/>
</linearGradient>
<linearGradient id="paint15_linear_45_2958" x1="75.6098" y1="200.83" x2="107.52" y2="200.83" gradientUnits="userSpaceOnUse">
<stop stop-color="white"/>
<stop offset="1" stop-color="#D3DBEB"/>
</linearGradient>
<linearGradient id="paint16_linear_45_2958" x1="71.7598" y1="178.61" x2="87.5898" y2="178.61" gradientUnits="userSpaceOnUse">
<stop stop-color="#6A6AE8"/>
<stop offset="1" stop-color="#312890"/>
</linearGradient>
<linearGradient id="paint17_linear_45_2958" x1="80.5203" y1="178.56" x2="105.24" y2="178.56" gradientUnits="userSpaceOnUse">
<stop stop-color="white"/>
<stop offset="1" stop-color="#D3DBEB"/>
</linearGradient>
<linearGradient id="paint18_linear_45_2958" x1="73.0508" y1="185.21" x2="89.0708" y2="185.21" gradientUnits="userSpaceOnUse">
<stop stop-color="#FFAE00"/>
<stop offset="1" stop-color="#FF7800"/>
</linearGradient>
<linearGradient id="paint19_linear_45_2958" x1="85.5693" y1="185.17" x2="109.099" y2="185.17" gradientUnits="userSpaceOnUse">
<stop stop-color="white"/>
<stop offset="1" stop-color="#D3DBEB"/>
</linearGradient>
<linearGradient id="paint20_linear_45_2958" x1="78" y1="192.07" x2="106.03" y2="192.07" gradientUnits="userSpaceOnUse">
<stop stop-color="#6A6AE8"/>
<stop offset="1" stop-color="#312890"/>
</linearGradient>
<linearGradient id="paint21_linear_45_2958" x1="68.2695" y1="192.02" x2="85.5595" y2="192.02" gradientUnits="userSpaceOnUse">
<stop stop-color="white"/>
<stop offset="1" stop-color="#D3DBEB"/>
</linearGradient>
<linearGradient id="paint22_linear_45_2958" x1="60.8008" y1="30.17" x2="170.121" y2="30.17" gradientUnits="userSpaceOnUse">
<stop stop-color="#418106"/>
<stop offset="1" stop-color="#418106"/>
</linearGradient>
<linearGradient id="paint23_linear_45_2958" x1="72.6602" y1="30.1699" x2="76.2702" y2="30.1699" gradientUnits="userSpaceOnUse">
<stop stop-color="#FFAE00"/>
<stop offset="1" stop-color="#FF7800"/>
</linearGradient>
<linearGradient id="paint24_linear_45_2958" x1="124.779" y1="41.0301" x2="128.639" y2="41.0301" gradientUnits="userSpaceOnUse">
<stop stop-color="#FFAE00"/>
<stop offset="1" stop-color="#FF7800"/>
</linearGradient>
<linearGradient id="paint25_linear_45_2958" x1="120.211" y1="41.0301" x2="124.011" y2="41.0301" gradientUnits="userSpaceOnUse">
<stop stop-color="#FFAE00"/>
<stop offset="1" stop-color="#FF7800"/>
</linearGradient>
<linearGradient id="paint26_linear_45_2958" x1="118.029" y1="70.83" x2="125.619" y2="70.83" gradientUnits="userSpaceOnUse">
<stop stop-color="#FFAE00"/>
<stop offset="1" stop-color="#FF7800"/>
</linearGradient>
<linearGradient id="paint27_linear_45_2958" x1="126.49" y1="70.83" x2="128.42" y2="70.83" gradientUnits="userSpaceOnUse">
<stop stop-color="#FFAE00"/>
<stop offset="1" stop-color="#FF7800"/>
</linearGradient>
<linearGradient id="paint28_linear_45_2958" x1="124.721" y1="57.32" x2="128.581" y2="57.32" gradientUnits="userSpaceOnUse">
<stop stop-color="#FFAE00"/>
<stop offset="1" stop-color="#FF7800"/>
</linearGradient>
<linearGradient id="paint29_linear_45_2958" x1="120.15" y1="57.32" x2="123.95" y2="57.32" gradientUnits="userSpaceOnUse">
<stop stop-color="#FFAE00"/>
<stop offset="1" stop-color="#FF7800"/>
</linearGradient>
<linearGradient id="paint30_linear_45_2958" x1="117.881" y1="94.98" x2="125.471" y2="94.98" gradientUnits="userSpaceOnUse">
<stop stop-color="#FFAE00"/>
<stop offset="1" stop-color="#FF7800"/>
</linearGradient>
<linearGradient id="paint31_linear_45_2958" x1="126.34" y1="94.98" x2="128.27" y2="94.98" gradientUnits="userSpaceOnUse">
<stop stop-color="#FFAE00"/>
<stop offset="1" stop-color="#FF7800"/>
</linearGradient>
<linearGradient id="paint32_linear_45_2958" x1="124.57" y1="81.46" x2="128.43" y2="81.46" gradientUnits="userSpaceOnUse">
<stop stop-color="#FFAE00"/>
<stop offset="1" stop-color="#FF7800"/>
</linearGradient>
<linearGradient id="paint33_linear_45_2958" x1="120" y1="81.46" x2="123.79" y2="81.46" gradientUnits="userSpaceOnUse">
<stop stop-color="#FFAE00"/>
<stop offset="1" stop-color="#FF7800"/>
</linearGradient>
<linearGradient id="paint34_linear_45_2958" x1="74.8806" y1="79.3799" x2="77.9806" y2="79.3799" gradientUnits="userSpaceOnUse">
<stop stop-color="#FFAE00"/>
<stop offset="1" stop-color="#FF7800"/>
</linearGradient>
<linearGradient id="paint35_linear_45_2958" x1="71.2207" y1="79.3799" x2="74.2607" y2="79.3799" gradientUnits="userSpaceOnUse">
<stop stop-color="#FFAE00"/>
<stop offset="1" stop-color="#FF7800"/>
</linearGradient>
<linearGradient id="paint36_linear_45_2958" x1="74.8398" y1="89.33" x2="77.9298" y2="89.33" gradientUnits="userSpaceOnUse">
<stop stop-color="#FFAE00"/>
<stop offset="1" stop-color="#FF7800"/>
</linearGradient>
<linearGradient id="paint37_linear_45_2958" x1="71.1797" y1="89.33" x2="74.2197" y2="89.33" gradientUnits="userSpaceOnUse">
<stop stop-color="#FFAE00"/>
<stop offset="1" stop-color="#FF7800"/>
</linearGradient>
<linearGradient id="paint38_linear_45_2958" x1="181.779" y1="119.19" x2="228.389" y2="119.19" gradientUnits="userSpaceOnUse">
<stop stop-color="#FFAE00"/>
<stop offset="1" stop-color="#FF7800"/>
</linearGradient>
<linearGradient id="paint39_linear_45_2958" x1="182.44" y1="119.22" x2="229.3" y2="119.22" gradientUnits="userSpaceOnUse">
<stop stop-color="#FFAE00"/>
<stop offset="1" stop-color="#FF7800"/>
</linearGradient>
<linearGradient id="paint40_linear_45_2958" x1="193.051" y1="102.31" x2="205.581" y2="102.31" gradientUnits="userSpaceOnUse">
<stop stop-color="white"/>
<stop offset="1" stop-color="#D3DBEB"/>
</linearGradient>
<linearGradient id="paint41_linear_45_2958" x1="245.389" y1="89.2263" x2="200.881" y2="109.279" gradientUnits="userSpaceOnUse">
<stop stop-color="#FFAE00"/>
<stop offset="1" stop-color="#FF7800"/>
</linearGradient>
<linearGradient id="paint42_linear_45_2958" x1="165.329" y1="126.84" x2="84.889" y2="99.17" gradientUnits="userSpaceOnUse">
<stop stop-color="white"/>
<stop offset="1" stop-color="#D3DBEB"/>
</linearGradient>
<linearGradient id="paint43_linear_45_2958" x1="213.52" y1="205.31" x2="214.19" y2="135.15" gradientUnits="userSpaceOnUse">
<stop stop-color="#6A6AE8"/>
<stop offset="1" stop-color="#312890"/>
</linearGradient>
<linearGradient id="paint44_linear_45_2958" x1="187.67" y1="135.75" x2="218.21" y2="135.75" gradientUnits="userSpaceOnUse">
<stop stop-color="#6A6AE8"/>
<stop offset="1" stop-color="#312890"/>
</linearGradient>
<linearGradient id="paint45_linear_45_2958" x1="84.7305" y1="133.59" x2="201.82" y2="133.59" gradientUnits="userSpaceOnUse">
<stop stop-color="#6A6AE8"/>
<stop offset="1" stop-color="#312890"/>
</linearGradient>
<linearGradient id="paint46_linear_45_2958" x1="131.42" y1="206.15" x2="131.42" y2="135.3" gradientUnits="userSpaceOnUse">
<stop stop-color="#6A6AE8"/>
<stop offset="1" stop-color="#312890"/>
</linearGradient>
</defs>
</svg>
