<svg width="496" height="541" viewBox="0 0 496 541" fill="none" xmlns="http://www.w3.org/2000/svg">
<path d="M242.8 447.866C331.008 447.866 402.514 369.39 402.514 272.584C402.514 175.778 331.008 97.3019 242.8 97.3019C154.593 97.3019 83.087 175.778 83.087 272.584C83.087 369.39 154.593 447.866 242.8 447.866Z" fill="#FAD1E8"/>
<path d="M436.01 210.428L410.117 238.846L380.697 229.474C379.706 229.172 379.375 227.781 380.091 226.935L403.726 200.996C404.056 200.633 404.607 200.452 405.103 200.633L436.01 210.428Z" fill="#F48914" stroke="#17005E" stroke-width="1.5" stroke-miterlimit="10" stroke-linecap="round" stroke-linejoin="round"/>
<path d="M383.342 226.995L404.056 204.261L411.108 235.037L383.342 226.995Z" fill="#17005E" stroke="#17005E" stroke-width="1.5" stroke-miterlimit="10" stroke-linecap="round" stroke-linejoin="round"/>
<path d="M384.774 225.423C387.033 222.944 390.394 222.037 393.424 223.004L393.864 223.125C400.09 225.181 405.709 228.869 410.282 233.888L412.431 236.246L383.287 226.995L384.774 225.423Z" fill="#DEFAE5" stroke="#17005E" stroke-width="1.5" stroke-miterlimit="10" stroke-linecap="round" stroke-linejoin="round"/>
<path d="M402.018 206.438C399.759 208.917 398.933 212.605 399.814 215.93L399.925 216.414C401.798 223.246 405.158 229.414 409.731 234.432L411.88 236.79L403.45 204.805L402.018 206.438Z" fill="#DEFAE5" stroke="#17005E" stroke-width="1.5" stroke-miterlimit="10" stroke-linecap="round" stroke-linejoin="round"/>
<path d="M436.726 209.642L410.117 238.846L401.192 204.987C401.026 204.442 401.192 203.898 401.522 203.475L425.928 176.69C426.644 175.904 427.912 176.206 428.242 177.355L436.726 209.642Z" fill="#F48914" stroke="#17005E" stroke-width="1.5" stroke-miterlimit="10" stroke-linecap="round" stroke-linejoin="round"/>
<path d="M430.611 209.582L413.918 227.902C413.422 228.446 412.541 228.204 412.32 227.479L406.646 206.014C406.481 205.41 406.646 204.684 407.087 204.261L423.78 185.941C424.275 185.397 425.157 185.638 425.377 186.364L431.052 207.828C431.162 208.433 431.052 209.098 430.611 209.582Z" fill="#F6A143" stroke="#17005E" stroke-width="1.5" stroke-miterlimit="10" stroke-linecap="round" stroke-linejoin="round"/>
<path d="M436.834 208.947L408.63 239.901L410.539 241.996L438.743 211.042L436.834 208.947Z" fill="#F48914" stroke="#17005E" stroke-width="1.5" stroke-miterlimit="10" stroke-linecap="round" stroke-linejoin="round"/>
<path d="M436.835 208.937L411.591 236.641L413.5 238.736L438.744 211.032L436.835 208.937Z" fill="#F48914" stroke="#17005E" stroke-width="1.5" stroke-miterlimit="10" stroke-linecap="round" stroke-linejoin="round"/>
<path d="M101.984 379.543L64.9065 352.456L62.9232 320.108C62.8681 319.02 64.0801 318.596 65.1269 319.382L99.0639 344.112C99.5598 344.475 99.8903 345.019 99.9454 345.563L101.984 379.543Z" fill="#17005E" stroke="#17005E" stroke-width="1.5" stroke-miterlimit="10" stroke-linecap="round" stroke-linejoin="round"/>
<path d="M66.2838 322.889L95.9787 344.535L68.9283 353.423L66.2838 322.889Z" fill="#DEFAE5" stroke="#17005E" stroke-width="1.5" stroke-miterlimit="10" stroke-linecap="round" stroke-linejoin="round"/>
<path d="M68.3222 324.401C71.5727 326.759 73.7213 330.387 73.8866 333.773V334.256C74.2722 341.089 72.7847 347.377 69.6995 352.516L68.212 354.935L66.2287 322.889L68.3222 324.401Z" fill="#DEFAE5" stroke="#17005E" stroke-width="1.5" stroke-miterlimit="10" stroke-linecap="round" stroke-linejoin="round"/>
<path d="M102.369 336.675C99.119 333.591 94.6565 332.624 90.8 334.075L90.2491 334.317C82.481 337.28 75.7046 342.419 70.4158 349.13L67.9366 352.274L104.463 338.61L102.369 336.675Z" fill="#DEFAE5" stroke="#17005E" stroke-width="1.5" stroke-miterlimit="10" stroke-linecap="round" stroke-linejoin="round"/>
<path d="M103.086 380.269L64.9065 352.456L104.463 336.433C105.289 336.131 106.171 336.252 106.887 336.735L140.273 361.102C141.761 362.19 141.485 364.73 139.832 365.395L103.086 380.269Z" fill="#45337E" stroke="#17005E" stroke-width="1.5" stroke-miterlimit="10" stroke-linecap="round" stroke-linejoin="round"/>
<path d="M104.518 374.464L77.9634 355.116L106.116 343.265L132.67 362.674L104.518 374.464Z" fill="#17005E" stroke="#17005E" stroke-width="1.5" stroke-miterlimit="10" stroke-linecap="round" stroke-linejoin="round"/>
<path d="M103.907 380.304L63.4353 350.787L61.6057 353.808L102.078 383.326L103.907 380.304Z" fill="#45337E" stroke="#17005E" stroke-width="1.5" stroke-miterlimit="10" stroke-linecap="round" stroke-linejoin="round"/>
<path d="M103.884 380.314L67.6794 353.909L65.8498 356.931L102.054 383.336L103.884 380.314Z" fill="#17005E" stroke="#17005E" stroke-width="1.5" stroke-miterlimit="10" stroke-linecap="round" stroke-linejoin="round"/>
<path d="M367.144 454.275H328.91V473.684H367.144V454.275Z" fill="#E51A8E" stroke="#17005E" stroke-width="1.5" stroke-miterlimit="10" stroke-linecap="round" stroke-linejoin="round"/>
<path d="M239.66 497.99L235.363 514.738H197.845L201.371 497.99H239.66Z" fill="#E51A8E" stroke="#17005E" stroke-width="1.5" stroke-miterlimit="10" stroke-linecap="round" stroke-linejoin="round"/>
<path d="M194.539 538.803H269.135C270.016 538.803 270.732 537.956 270.622 536.989C269.465 526.589 262.138 518.366 252.717 516.854L239.44 514.738L234.592 509.176C233.49 507.906 231.947 507.18 230.35 507.18H221.81C219.441 507.18 217.293 508.752 216.356 511.11L215.419 513.529L204.897 513.408L199.718 510.022C198.286 509.115 196.468 509.901 196.027 511.655L190.683 533.24C190.022 536.082 191.95 538.803 194.539 538.803Z" fill="#2FE055" stroke="#17005E" stroke-width="1.5" stroke-miterlimit="10" stroke-linecap="round" stroke-linejoin="round"/>
<path d="M354.804 327.484L286.764 267.868H200.104L201.426 297.434C201.977 310.253 203.96 322.95 207.321 335.224L223.353 393.994L196.963 498.05H239.66L267.537 401.733C269.025 396.654 269.3 391.212 268.308 386.013L256.574 322.345L264.452 315.815L323.897 365.758V454.396H367.089V355.6C367.144 344.656 362.572 334.256 354.804 327.484Z" fill="#F48914" stroke="#17005E" stroke-width="1.5" stroke-miterlimit="10" stroke-linecap="round" stroke-linejoin="round"/>
<path d="M200.104 267.868L200.71 281.412L263.901 267.868H200.104Z" fill="#17005E" stroke="#17005E" stroke-width="1.5" stroke-miterlimit="10" stroke-linecap="round" stroke-linejoin="round"/>
<path d="M283.569 298.583L264.507 315.755L281.475 329.963L283.569 298.583Z" fill="#17005E" stroke="#17005E" stroke-width="1.5" stroke-miterlimit="10" stroke-linecap="round" stroke-linejoin="round"/>
<path d="M229.744 406.691L223.298 393.933L210.626 444.117L229.744 406.691Z" fill="#17005E" stroke="#17005E" stroke-width="1.5" stroke-miterlimit="10" stroke-linecap="round" stroke-linejoin="round"/>
<path d="M333.869 360.8L323.952 365.637V407.961L333.869 360.8Z" fill="#17005E" stroke="#17005E" stroke-width="1.5" stroke-miterlimit="10" stroke-linecap="round" stroke-linejoin="round"/>
<path d="M239.66 497.99H201.371L199.938 504.883L239.66 497.99Z" fill="#17005E" stroke="#17005E" stroke-width="1.5" stroke-miterlimit="10" stroke-linecap="round" stroke-linejoin="round"/>
<path d="M367.144 454.275L328.91 462.619V454.275H367.144Z" fill="#17005E" stroke="#17005E" stroke-width="1.5" stroke-miterlimit="10" stroke-linecap="round" stroke-linejoin="round"/>
<path d="M269.135 538.803C270.016 538.803 270.732 537.956 270.622 536.989C270.181 532.817 268.694 529.008 266.49 525.803H261.422L255.582 532.212H201.04L198.23 525.984L192.776 525.017L190.738 533.3C190.077 536.082 191.95 538.803 194.594 538.803H269.135V538.803Z" fill="#17005E" stroke="#17005E" stroke-width="1.5" stroke-miterlimit="10" stroke-linecap="round" stroke-linejoin="round"/>
<path d="M325.935 497.627H400.531C401.412 497.627 402.128 496.781 402.018 495.813C400.861 485.414 393.534 477.191 384.113 475.679L370.836 473.563L365.988 468C364.886 466.731 363.343 466.005 361.745 466.005H353.261C350.892 466.005 348.744 467.577 347.807 469.935L346.87 472.354L336.348 472.233L331.169 468.847C329.737 467.94 327.919 468.726 327.478 470.479L322.134 492.065C321.418 494.906 323.346 497.627 325.935 497.627Z" fill="#2FE055" stroke="#17005E" stroke-width="1.5" stroke-miterlimit="10" stroke-linecap="round" stroke-linejoin="round"/>
<path d="M400.531 497.627C401.412 497.627 402.128 496.781 402.018 495.813C401.577 491.641 400.09 487.832 397.886 484.628H392.818L386.978 491.037H332.436L329.626 484.809L324.172 483.842L322.134 492.125C321.473 494.906 323.346 497.627 325.99 497.627H400.531V497.627Z" fill="#17005E" stroke="#17005E" stroke-width="1.5" stroke-miterlimit="10" stroke-linecap="round" stroke-linejoin="round"/>
<path d="M263.35 375.19C254.205 384.138 255.747 400.342 266.325 407.054C266.766 407.356 267.151 406.57 266.711 406.328C256.519 399.859 255.141 384.38 263.901 375.794C264.287 375.432 263.736 374.827 263.35 375.19Z" fill="#17005E"/>
<path d="M352.71 327.364C352.049 334.135 352.545 341.633 355.244 347.8C357.228 352.335 360.809 356.567 365.767 356.204C366.263 356.144 366.263 355.297 365.767 355.358C360.533 355.721 357.007 350.581 355.3 345.805C353.261 340 352.875 333.47 353.481 327.364C353.537 326.819 352.765 326.819 352.71 327.364Z" fill="#17005E"/>
<path d="M208.092 274.096C208.092 274.096 208.202 274.821 208.478 276.151" stroke="#17005E" stroke-linecap="round" stroke-linejoin="round"/>
<path d="M209.249 280.323C210.957 289.635 214.648 309.164 220.323 337.098C229.358 381.417 229.688 406.691 229.688 406.691L211.067 493.879" stroke="#17005E" stroke-linecap="round" stroke-linejoin="round" stroke-dasharray="7 7"/>
<path d="M210.682 495.934L210.241 497.99" stroke="#17005E" stroke-linecap="round" stroke-linejoin="round"/>
<path d="M275.03 310.253L333.869 360.8L335.631 453.671" stroke="#17005E" stroke-miterlimit="10" stroke-linecap="round" stroke-linejoin="round" stroke-dasharray="7 7"/>
<path d="M220.598 274.096C221.259 281.472 218.45 288.788 213.05 293.262C212.665 293.565 213.05 294.351 213.436 293.988C219 289.332 222.031 281.774 221.369 274.096C221.314 273.552 220.543 273.552 220.598 274.096Z" fill="#17005E"/>
<path d="M249.962 270.831C253.874 277.965 256.904 285.705 258.943 293.686C260.926 301.364 261.642 309.406 264.507 316.843C264.727 317.327 265.388 316.903 265.168 316.42C262.138 308.62 261.477 300.095 259.273 292.053C257.235 284.435 254.26 277.179 250.569 270.407C250.348 269.924 249.687 270.347 249.962 270.831Z" fill="#17005E"/>
<path d="M256.739 269.742C259.824 275.245 266.16 286.732 259.108 291.63C258.667 291.932 259.053 292.658 259.494 292.356C267.041 287.095 260.761 275.184 257.4 269.319C257.125 268.835 256.463 269.259 256.739 269.742Z" fill="#17005E"/>
<path d="M362.902 295.5H120.66C117.906 295.5 115.702 293.081 115.702 290.058V38.1692C115.702 35.1461 117.906 32.7275 120.66 32.7275H362.902C365.657 32.7275 367.861 35.1461 367.861 38.1692V290.058C367.861 293.081 365.602 295.5 362.902 295.5Z" stroke="#418106" stroke-width="3" stroke-miterlimit="10" stroke-linecap="round" stroke-linejoin="round"/>
<path d="M115.702 59.9359H367.861" stroke="#418106" stroke-width="1.5" stroke-miterlimit="10" stroke-linecap="round" stroke-linejoin="round"/>
<path d="M344.832 52.378H335.191C334.585 52.378 334.144 51.8338 334.144 51.2292V40.6482C334.144 39.9831 334.64 39.4994 335.191 39.4994H344.832C345.438 39.4994 345.879 40.0436 345.879 40.6482V51.2292C345.934 51.8338 345.438 52.378 344.832 52.378Z" fill="#F5A3D2" stroke="#418106" stroke-width="1.5" stroke-miterlimit="10" stroke-linecap="round" stroke-linejoin="round"/>
<path d="M341.086 44.7596H336.733V49.5362H341.086V44.7596Z" fill="#F5A3D2" stroke="#418106" stroke-width="1.5" stroke-miterlimit="10" stroke-linecap="round" stroke-linejoin="round"/>
<path d="M343.344 42.3411V47.0572H341.086V44.7596H338.992V42.3411H343.344Z" fill="#F5A3D2" stroke="#418106" stroke-width="1.5" stroke-miterlimit="10" stroke-linecap="round" stroke-linejoin="round"/>
<path d="M329.296 52.378H319.655C319.049 52.378 318.608 51.8338 318.608 51.2292V40.6482C318.608 39.9831 319.104 39.4994 319.655 39.4994H329.296C329.902 39.4994 330.343 40.0436 330.343 40.6482V51.2292C330.398 51.8338 329.902 52.378 329.296 52.378Z" fill="#F5A3D2" stroke="#418106" stroke-width="1.5" stroke-miterlimit="10" stroke-linecap="round" stroke-linejoin="round"/>
<path d="M320.757 48.8712H328.249" stroke="#418106" stroke-width="1.5" stroke-miterlimit="10" stroke-linecap="round" stroke-linejoin="round"/>
<path d="M360.368 52.378H350.727C350.121 52.378 349.68 51.8338 349.68 51.2292V40.6482C349.68 39.9831 350.176 39.4994 350.727 39.4994H360.368C360.974 39.4994 361.415 40.0436 361.415 40.6482V51.2292C361.47 51.8338 360.974 52.378 360.368 52.378Z" fill="#F5A3D2" stroke="#418106" stroke-width="1.5" stroke-miterlimit="10" stroke-linecap="round" stroke-linejoin="round"/>
<path d="M351.663 41.6156L359.487 50.2618" stroke="#418106" stroke-width="1.5" stroke-miterlimit="10" stroke-linecap="round" stroke-linejoin="round"/>
<path d="M359.487 41.6156L351.663 50.2618" stroke="#418106" stroke-width="1.5" stroke-miterlimit="10" stroke-linecap="round" stroke-linejoin="round"/>
<path d="M129.2 319.987H204.952C206.439 319.987 207.651 318.657 207.651 317.024V308.378C207.651 306.746 206.439 305.416 204.952 305.416H129.2C127.712 305.416 126.5 306.746 126.5 308.378V317.024C126.5 318.657 127.712 319.987 129.2 319.987Z" fill="#82EC99" stroke="#17005E" stroke-width="1.5" stroke-miterlimit="10" stroke-linecap="round" stroke-linejoin="round"/>
<path d="M186.165 317.871H207.651V307.471H186.165C184.953 307.471 183.907 308.56 183.907 309.95V315.392C183.962 316.783 184.953 317.871 186.165 317.871Z" fill="#DEFAE5" stroke="#17005E" stroke-width="1.5" stroke-miterlimit="10" stroke-linecap="round" stroke-linejoin="round"/>
<path d="M130.975 317.87L134.666 317.87L134.666 307.47L130.975 307.47L130.975 317.87Z" fill="#F48914" stroke="#17005E" stroke-width="1.5" stroke-miterlimit="10" stroke-linecap="round" stroke-linejoin="round"/>
<path d="M176.05 317.87L179.741 317.87L179.741 307.47L176.05 307.47L176.05 317.87Z" fill="#17005E" stroke="#17005E" stroke-width="1.5" stroke-miterlimit="10" stroke-linecap="round" stroke-linejoin="round"/>
<path d="M207.651 309.527H183.962" stroke="#17005E" stroke-width="1.5" stroke-miterlimit="10" stroke-linecap="round" stroke-linejoin="round"/>
<path d="M207.651 311.583H183.962" stroke="#17005E" stroke-width="1.5" stroke-miterlimit="10" stroke-linecap="round" stroke-linejoin="round"/>
<path d="M207.651 313.578H183.962" stroke="#17005E" stroke-width="1.5" stroke-miterlimit="10" stroke-linecap="round" stroke-linejoin="round"/>
<path d="M207.651 315.573H183.962" stroke="#17005E" stroke-width="1.5" stroke-miterlimit="10" stroke-linecap="round" stroke-linejoin="round"/>
<path d="M191.564 309.829V315.15L189.085 313.094L186.551 315.15V309.648H191.564" fill="#E51A8E"/>
<path d="M191.564 309.829V315.15L189.085 313.094L186.551 315.15V309.648H191.564" stroke="#17005E" stroke-width="1.5" stroke-miterlimit="10" stroke-linecap="round" stroke-linejoin="round"/>
<path d="M132.34 305.355H208.092C209.58 305.355 210.792 304.025 210.792 302.392V287.881C210.792 286.249 209.58 284.919 208.092 284.919H132.34C130.852 284.919 129.64 286.249 129.64 287.881V302.392C129.64 304.025 130.852 305.355 132.34 305.355Z" fill="#17005E" stroke="#17005E" stroke-width="1.5" stroke-miterlimit="10" stroke-linecap="round" stroke-linejoin="round"/>
<path d="M199.388 302.392H210.847V287.881H199.388C198.175 287.881 197.129 288.97 197.129 290.36V299.974C197.129 301.304 198.12 302.392 199.388 302.392Z" fill="#DEFAE5" stroke="#17005E" stroke-width="1.5" stroke-miterlimit="10" stroke-linecap="round" stroke-linejoin="round"/>
<path d="M134.105 302.377L137.796 302.377L137.796 287.865L134.105 287.865L134.105 302.377Z" fill="#FDE7D0" stroke="#17005E" stroke-width="1.5" stroke-miterlimit="10" stroke-linecap="round" stroke-linejoin="round"/>
<path d="M141.798 298.326L192.594 298.326L192.594 291.977L141.798 291.977L141.798 298.326Z" fill="#EF76BB" stroke="#17005E" stroke-width="1.5" stroke-miterlimit="10" stroke-linecap="round" stroke-linejoin="round"/>
<path d="M210.847 290.783H197.129" stroke="#17005E" stroke-width="1.5" stroke-miterlimit="10" stroke-linecap="round" stroke-linejoin="round"/>
<path d="M210.847 293.565H197.129" stroke="#17005E" stroke-width="1.5" stroke-miterlimit="10" stroke-linecap="round" stroke-linejoin="round"/>
<path d="M210.847 296.406H197.129" stroke="#17005E" stroke-width="1.5" stroke-miterlimit="10" stroke-linecap="round" stroke-linejoin="round"/>
<path d="M210.847 299.188H197.129" stroke="#17005E" stroke-width="1.5" stroke-miterlimit="10" stroke-linecap="round" stroke-linejoin="round"/>
<path d="M205.448 290.542V296.467L202.913 294.23L200.379 296.467V290.36H205.448" fill="#F48914"/>
<path d="M205.448 290.542V296.467L202.913 294.23L200.379 296.467V290.36H205.448" stroke="#17005E" stroke-width="1.5" stroke-miterlimit="10" stroke-linecap="round" stroke-linejoin="round"/>
<path d="M127.437 284.919H203.189C204.676 284.919 205.888 283.588 205.888 281.956V273.612C205.888 271.979 204.676 270.649 203.189 270.649H127.437C125.949 270.649 124.737 271.979 124.737 273.612V281.895C124.737 283.588 125.949 284.919 127.437 284.919Z" fill="#F48914" stroke="#17005E" stroke-width="1.5" stroke-miterlimit="10" stroke-linecap="round" stroke-linejoin="round"/>
<path d="M184.402 282.863H205.888V272.705H184.402C183.19 272.705 182.144 273.793 182.144 275.184V280.384C182.144 281.714 183.19 282.863 184.402 282.863Z" fill="#DEFAE5" stroke="#17005E" stroke-width="1.5" stroke-miterlimit="10" stroke-linecap="round" stroke-linejoin="round"/>
<path d="M177.957 275.184H136.857V280.384H177.957V275.184Z" fill="#8636CC" stroke="#17005E" stroke-width="1.5" stroke-miterlimit="10" stroke-linecap="round" stroke-linejoin="round"/>
<path d="M132.615 276.091H129.475V279.477H132.615V276.091Z" fill="#E51A8E" stroke="#17005E" stroke-width="1.5" stroke-miterlimit="10" stroke-linecap="round" stroke-linejoin="round"/>
<path d="M205.888 274.7H182.144" stroke="#17005E" stroke-width="1.5" stroke-miterlimit="10" stroke-linecap="round" stroke-linejoin="round"/>
<path d="M205.888 276.696H182.144" stroke="#17005E" stroke-width="1.5" stroke-miterlimit="10" stroke-linecap="round" stroke-linejoin="round"/>
<path d="M205.888 278.63H182.144" stroke="#17005E" stroke-width="1.5" stroke-miterlimit="10" stroke-linecap="round" stroke-linejoin="round"/>
<path d="M205.888 280.626H182.144" stroke="#17005E" stroke-width="1.5" stroke-miterlimit="10" stroke-linecap="round" stroke-linejoin="round"/>
<path d="M195.751 280.747V284.858L198.286 283.286L200.765 284.858V280.565H195.751" fill="#E51A8E"/>
<path d="M195.751 280.747V284.858L198.286 283.286L200.765 284.858V280.565H195.751" stroke="#17005E" stroke-width="1.5" stroke-miterlimit="10" stroke-linecap="round" stroke-linejoin="round"/>
<path d="M177.13 303.541L184.237 313.759C185.284 315.271 185.394 317.387 184.457 319.02C182.915 321.741 179.444 322.103 177.461 319.866L171.676 313.276L177.13 303.541Z" fill="#E51A8E" stroke="#17005E" stroke-width="1.5" stroke-miterlimit="10" stroke-linecap="round" stroke-linejoin="round"/>
<path d="M180.821 308.801L177.13 303.541L171.621 313.276L176.359 318.657L180.821 308.801Z" fill="#17005E" stroke="#17005E" stroke-width="1.5" stroke-miterlimit="10" stroke-linecap="round" stroke-linejoin="round"/>
<path d="M173.384 286.732L178.342 203.535L164.9 166.048L151.512 177.174C143.248 184.066 139.282 195.494 141.375 206.679L156.415 287.942L155.038 288.667C152.394 290.118 150.631 293.081 150.465 296.286L149.639 314.304L165.561 319.564L158.344 329.419L159.17 330.024C161.925 331.959 165.506 331.838 168.095 329.601L172.502 325.852C174.541 324.038 175.863 321.499 176.304 318.657L177.901 307.592C178.177 305.839 178.067 304.085 177.571 302.392L173.384 286.732Z" fill="#E51A8E" stroke="#17005E" stroke-width="1.5" stroke-miterlimit="10" stroke-linecap="round" stroke-linejoin="round"/>
<path d="M178.342 203.596L151.512 177.174L156.47 173.364L178.342 203.596Z" fill="#17005E" stroke="#17005E" stroke-width="1.5" stroke-miterlimit="10" stroke-linecap="round" stroke-linejoin="round"/>
<path d="M167.875 318.475L159.39 329.419C158.399 330.689 156.911 331.233 155.424 330.87C152.834 330.205 151.567 327.001 152.834 324.461L157.572 315.21" fill="#E51A8E"/>
<path d="M167.875 318.475L159.39 329.419C158.399 330.689 156.911 331.233 155.424 330.87C152.834 330.205 151.567 327.001 152.834 324.461L157.572 315.21" stroke="#17005E" stroke-width="1.5" stroke-miterlimit="10" stroke-linecap="round" stroke-linejoin="round"/>
<path d="M149.749 312.852L146.884 320.531L145.507 319.443C144.24 318.415 142.477 318.596 141.375 319.806C140.053 321.257 140.163 323.675 141.595 325.005L143.358 326.638C144.846 327.968 146.719 328.694 148.647 328.512C151.126 328.331 153.385 326.759 154.542 324.34L159.611 314.001" fill="#E51A8E"/>
<path d="M149.749 312.852L146.884 320.531L145.507 319.443C144.24 318.415 142.477 318.596 141.375 319.806C140.053 321.257 140.163 323.675 141.595 325.005L143.358 326.638C144.846 327.968 146.719 328.694 148.647 328.512C151.126 328.331 153.385 326.759 154.542 324.34L159.611 314.001" stroke="#17005E" stroke-width="1.5" stroke-miterlimit="10" stroke-linecap="round" stroke-linejoin="round"/>
<path d="M151.567 261.882L156.415 287.942L160.327 285.221L151.567 261.882Z" fill="#17005E" stroke="#17005E" stroke-width="1.5" stroke-miterlimit="10" stroke-linecap="round" stroke-linejoin="round"/>
<path d="M401.247 138.84V146.458H417.609C419.538 146.458 421.08 144.765 421.08 142.649C421.08 140.533 419.538 138.84 417.609 138.84H401.247Z" fill="#E51A8E" stroke="#17005E" stroke-width="1.5" stroke-miterlimit="10" stroke-linecap="round" stroke-linejoin="round"/>
<path d="M396.013 138.84V146.458H412.431C414.359 146.458 415.901 144.765 415.901 142.649C415.901 140.533 414.359 138.84 412.431 138.84H396.013Z" fill="#E51A8E" stroke="#17005E" stroke-width="1.5" stroke-miterlimit="10" stroke-linecap="round" stroke-linejoin="round"/>
<path d="M363.233 141.984L369.238 129.287C370.009 127.654 371.497 126.687 373.205 126.687H384.058C385.766 126.687 387.143 128.199 387.143 130.073C387.143 131.947 385.766 133.459 384.058 133.459H378.659C378.659 138.114 375.243 141.863 371.056 141.924L363.233 141.984Z" fill="#E51A8E" stroke="#17005E" stroke-width="1.5" stroke-miterlimit="10" stroke-linecap="round" stroke-linejoin="round"/>
<path d="M406.205 138.84H367.64C364.775 138.84 361.966 139.747 359.597 141.44L307.479 178.504L277.729 200.089L299.381 218.409C305.441 223.549 314.145 222.763 319.379 216.656L373.37 153.351C379.21 151.295 388.245 148.091 392.707 146.458H406.15C408.078 146.458 409.621 144.765 409.621 142.649C409.621 140.533 408.078 138.84 406.205 138.84Z" fill="#E51A8E" stroke="#17005E" stroke-width="1.5" stroke-miterlimit="10" stroke-linecap="round" stroke-linejoin="round"/>
<path d="M307.479 178.504L279.988 201.419L286.103 206.8L307.479 178.504Z" fill="#17005E" stroke="#17005E" stroke-width="1.5" stroke-miterlimit="10" stroke-linecap="round" stroke-linejoin="round"/>
<path d="M373.37 153.291L357.558 160.607L353.977 176.025L373.37 153.291Z" fill="#17005E" stroke="#17005E" stroke-width="1.5" stroke-miterlimit="10" stroke-linecap="round" stroke-linejoin="round"/>
<path d="M307.479 178.504L277.729 143.012C271.889 136.059 263.625 132.068 255.031 132.068H210.186C203.63 132.068 197.294 134.366 192.005 138.598L157.352 166.351C155.313 167.983 154.928 171.188 156.47 173.364L178.342 203.535L200.049 186.304V267.808H286.709L278.17 203.898L307.479 178.504Z" fill="#539A11" stroke="#17005E" stroke-width="1.5" stroke-miterlimit="10" stroke-linecap="round" stroke-linejoin="round"/>
<path d="M251.67 132.129H225.116C225.226 140.049 231.121 146.458 238.393 146.458C245.665 146.458 251.56 140.049 251.67 132.129Z" fill="#17005E" stroke="#17005E" stroke-width="1.5" stroke-miterlimit="10" stroke-linecap="round" stroke-linejoin="round"/>
<path d="M278.17 203.898L272.55 164.114L283.183 190.536L278.17 203.898Z" fill="#17005E" stroke="#17005E" stroke-width="1.5" stroke-miterlimit="10" stroke-linecap="round" stroke-linejoin="round"/>
<path d="M200.104 186.364L206.329 160.244L178.342 203.596L200.104 186.364Z" fill="#17005E" stroke="#17005E" stroke-width="1.5" stroke-miterlimit="10" stroke-linecap="round" stroke-linejoin="round"/>
<path d="M221.369 156.798C222.967 156.798 224.565 156.798 226.163 156.798C226.658 156.798 226.658 155.951 226.163 155.951C224.565 155.951 222.967 155.951 221.369 155.951C220.874 155.951 220.874 156.798 221.369 156.798Z" fill="#17005E"/>
<path d="M235.363 163.328C235.363 165.081 235.363 166.834 235.363 168.588C235.363 169.132 236.134 169.132 236.134 168.588C236.134 166.834 236.134 165.081 236.134 163.328C236.134 162.783 235.363 162.783 235.363 163.328Z" fill="#17005E"/>
<path d="M224.73 176.75C224.73 177.899 224.73 179.108 224.73 180.257C224.73 180.801 225.501 180.801 225.501 180.257C225.501 179.108 225.501 177.899 225.501 176.75C225.501 176.206 224.73 176.206 224.73 176.75Z" fill="#17005E"/>
<path d="M216.852 184.611C215.64 185.941 214.373 187.331 213.106 188.722C212.775 189.085 213.326 189.689 213.657 189.327C214.869 187.996 216.136 186.606 217.403 185.215C217.788 184.852 217.238 184.248 216.852 184.611Z" fill="#17005E"/>
<path d="M223.794 199.182C225.391 200.936 226.989 202.689 228.587 204.442C228.917 204.805 229.468 204.201 229.138 203.838C227.54 202.084 225.942 200.331 224.344 198.577C223.959 198.215 223.408 198.819 223.794 199.182Z" fill="#17005E"/>
<path d="M238.007 194.829C238.007 196.401 238.007 197.912 238.007 199.484C238.007 200.029 238.779 200.029 238.779 199.484C238.779 197.912 238.779 196.401 238.779 194.829C238.779 194.285 238.007 194.285 238.007 194.829Z" fill="#17005E"/>
<path d="M250.899 188.722C252.331 190.294 253.709 191.806 255.141 193.378C255.472 193.74 256.023 193.136 255.692 192.773C254.26 191.201 252.882 189.689 251.45 188.117C251.064 187.755 250.513 188.299 250.899 188.722Z" fill="#17005E"/>
<path d="M259.383 179.955C259.934 180.56 260.43 181.104 260.981 181.708C261.312 182.071 261.862 181.466 261.532 181.104C260.981 180.499 260.485 179.955 259.934 179.35C259.549 178.987 258.998 179.592 259.383 179.955Z" fill="#17005E"/>
<path d="M260.981 165.988C262.028 164.839 263.13 163.63 264.176 162.481C264.507 162.118 263.956 161.514 263.625 161.876C262.579 163.025 261.477 164.234 260.43 165.383C260.1 165.746 260.65 166.351 260.981 165.988Z" fill="#17005E"/>
<path d="M262.579 150.812C263.13 150.207 263.625 149.663 264.176 149.058C264.507 148.696 263.956 148.091 263.625 148.454C263.075 149.058 262.579 149.602 262.028 150.207C261.697 150.63 262.248 151.175 262.579 150.812Z" fill="#17005E"/>
<path d="M269.465 142.045C270.347 143.012 271.228 143.979 272.11 144.947C272.44 145.31 272.991 144.705 272.661 144.342C271.779 143.375 270.898 142.407 270.016 141.44C269.686 141.077 269.135 141.682 269.465 142.045Z" fill="#17005E"/>
<path d="M276.242 154.016C276.242 155.165 276.242 156.374 276.242 157.523C276.242 158.067 277.013 158.067 277.013 157.523C277.013 156.374 277.013 155.165 277.013 154.016C277.013 153.472 276.242 153.472 276.242 154.016Z" fill="#17005E"/>
<path d="M257.014 154.742C255.802 154.742 254.535 154.742 253.268 154.742C252.772 154.742 252.772 155.588 253.268 155.588C254.48 155.588 255.747 155.588 257.014 155.588C257.51 155.588 257.51 154.742 257.014 154.742Z" fill="#17005E"/>
<path d="M248.089 166.834C248.089 167.983 248.089 169.192 248.089 170.341C248.089 170.885 248.861 170.885 248.861 170.341C248.861 169.192 248.861 167.983 248.861 166.834C248.861 166.29 248.089 166.29 248.089 166.834Z" fill="#17005E"/>
<path d="M237.622 153.714C236.74 152.747 235.859 151.779 234.977 150.812C234.647 150.449 234.096 151.054 234.426 151.416C235.308 152.384 236.189 153.351 237.071 154.319C237.401 154.681 237.952 154.077 237.622 153.714Z" fill="#17005E"/>
<path d="M221.149 143.193C220.598 142.589 220.102 142.045 219.551 141.44C219.221 141.077 218.67 141.682 219 142.045C219.551 142.649 220.047 143.193 220.598 143.798C220.929 144.221 221.48 143.617 221.149 143.193Z" fill="#17005E"/>
<path d="M208.808 145.854C208.808 146.64 208.808 147.426 208.808 148.212C208.808 148.756 209.58 148.756 209.58 148.212C209.58 147.426 209.58 146.64 209.58 145.854C209.58 145.31 208.808 145.31 208.808 145.854Z" fill="#17005E"/>
<path d="M211.067 137.994C211.949 137.026 212.83 136.059 213.712 135.091C214.042 134.729 213.491 134.124 213.161 134.487C212.279 135.454 211.398 136.422 210.516 137.389C210.131 137.752 210.681 138.356 211.067 137.994Z" fill="#17005E"/>
<path d="M197.625 142.347C197.625 143.496 197.625 144.705 197.625 145.854C197.625 146.398 198.396 146.398 198.396 145.854C198.396 144.705 198.396 143.496 198.396 142.347C198.396 141.803 197.625 141.803 197.625 142.347Z" fill="#17005E"/>
<path d="M188.589 151.658C188.589 154.016 188.589 156.314 188.589 158.672C188.589 159.216 189.361 159.216 189.361 158.672C189.361 156.314 189.361 154.016 189.361 151.658C189.361 151.114 188.589 151.114 188.589 151.658Z" fill="#17005E"/>
<path d="M175.973 160.728C175.092 161.695 174.21 162.662 173.329 163.63C172.998 163.993 173.549 164.597 173.88 164.234C174.761 163.267 175.643 162.3 176.524 161.332C176.855 160.909 176.304 160.304 175.973 160.728Z" fill="#17005E"/>
<path d="M179.664 172.397C180.215 173.002 180.711 173.546 181.262 174.15C181.593 174.513 182.144 173.909 181.813 173.546C181.262 172.941 180.766 172.397 180.215 171.792C179.885 171.43 179.334 171.974 179.664 172.397Z" fill="#17005E"/>
<path d="M177.461 184.913C177.461 186.666 177.461 188.42 177.461 190.173C177.461 190.717 178.232 190.717 178.232 190.173C178.232 188.42 178.232 186.666 178.232 184.913C178.232 184.369 177.461 184.369 177.461 184.913Z" fill="#17005E"/>
<path d="M169.582 172.941C168.701 171.974 167.819 171.006 166.938 170.039C166.607 169.676 166.056 170.281 166.387 170.644C167.269 171.611 168.15 172.578 169.032 173.546C169.417 173.969 169.968 173.364 169.582 172.941Z" fill="#17005E"/>
<path d="M161.869 169.313C160.823 169.313 159.721 169.313 158.674 169.313C158.178 169.313 158.178 170.16 158.674 170.16C159.721 170.16 160.823 170.16 161.869 170.16C162.42 170.16 162.42 169.313 161.869 169.313Z" fill="#17005E"/>
<path d="M170.023 179.653C170.023 180.801 170.023 182.011 170.023 183.159C170.023 183.704 170.794 183.704 170.794 183.159C170.794 182.011 170.794 180.801 170.794 179.653C170.794 179.108 170.023 179.108 170.023 179.653Z" fill="#17005E"/>
<path d="M191.124 172.518C191.84 172.518 192.556 172.518 193.272 172.518C193.768 172.518 193.768 171.671 193.272 171.671C192.556 171.671 191.84 171.671 191.124 171.671C190.628 171.671 190.628 172.518 191.124 172.518Z" fill="#17005E"/>
<path d="M183.025 154.016C183.025 153.23 183.025 152.444 183.025 151.658C183.025 151.114 182.254 151.114 182.254 151.658C182.254 152.444 182.254 153.23 182.254 154.016C182.254 154.56 183.025 154.56 183.025 154.016Z" fill="#17005E"/>
<path d="M199.608 156.798C200.489 156.798 201.371 156.798 202.252 156.798C202.748 156.798 202.748 155.951 202.252 155.951C201.371 155.951 200.489 155.951 199.608 155.951C199.112 155.951 199.112 156.798 199.608 156.798Z" fill="#17005E"/>
<path d="M213.712 170.039C213.161 170.644 212.665 171.188 212.114 171.792C211.783 172.155 212.334 172.76 212.665 172.397C213.216 171.792 213.712 171.248 214.262 170.644C214.593 170.281 214.042 169.676 213.712 170.039Z" fill="#17005E"/>
<path d="M203.464 197.187C203.464 199.303 203.464 201.48 203.464 203.596C203.464 204.14 204.236 204.14 204.236 203.596C204.236 201.48 204.236 199.303 204.236 197.187C204.236 196.643 203.464 196.643 203.464 197.187Z" fill="#17005E"/>
<path d="M211.563 209.703C212.279 210.489 212.995 211.275 213.712 212.061C214.042 212.423 214.593 211.819 214.263 211.456C213.546 210.67 212.83 209.884 212.114 209.098C211.728 208.735 211.232 209.34 211.563 209.703Z" fill="#17005E"/>
<path d="M211.453 222.218C211.453 223.791 211.453 225.302 211.453 226.874C211.453 227.418 212.224 227.418 212.224 226.874C212.224 225.302 212.224 223.791 212.224 222.218C212.224 221.674 211.453 221.674 211.453 222.218Z" fill="#17005E"/>
<path d="M214.758 233.586C215.309 234.19 215.805 234.734 216.356 235.339C216.687 235.702 217.238 235.097 216.907 234.734C216.356 234.13 215.86 233.586 215.309 232.981C214.924 232.618 214.373 233.223 214.758 233.586Z" fill="#17005E"/>
<path d="M226.713 229.655C227.595 229.655 228.476 229.655 229.358 229.655C229.854 229.655 229.854 228.809 229.358 228.809C228.476 228.809 227.595 228.809 226.713 228.809C226.218 228.809 226.218 229.655 226.713 229.655Z" fill="#17005E"/>
<path d="M226.438 215.507C227.485 216.656 228.587 217.865 229.633 219.014C229.964 219.377 230.515 218.772 230.184 218.409C229.138 217.26 228.036 216.051 226.989 214.902C226.603 214.54 226.107 215.144 226.438 215.507Z" fill="#17005E"/>
<path d="M237.842 214.479C238.724 214.479 239.605 214.479 240.487 214.479C240.982 214.479 240.982 213.633 240.487 213.633C239.605 213.633 238.724 213.633 237.842 213.633C237.346 213.633 237.346 214.479 237.842 214.479Z" fill="#17005E"/>
<path d="M247.594 208.796C247.594 210.731 247.594 212.665 247.594 214.6C247.594 215.144 248.365 215.144 248.365 214.6C248.365 212.665 248.365 210.731 248.365 208.796C248.365 208.252 247.594 208.252 247.594 208.796Z" fill="#17005E"/>
<path d="M256.629 216.958C256.629 218.288 256.629 219.679 256.629 221.07C256.629 221.614 257.4 221.614 257.4 221.07C257.4 219.74 257.4 218.349 257.4 216.958C257.4 216.414 256.629 216.414 256.629 216.958Z" fill="#17005E"/>
<path d="M244.784 229.655C245.996 229.655 247.263 229.655 248.53 229.655C249.026 229.655 249.026 228.809 248.53 228.809C247.318 228.809 246.051 228.809 244.784 228.809C244.288 228.809 244.288 229.655 244.784 229.655Z" fill="#17005E"/>
<path d="M262.028 207.345C262.744 208.131 263.46 208.917 264.176 209.703C264.507 210.065 265.058 209.461 264.727 209.098C264.011 208.312 263.295 207.526 262.579 206.74C262.248 206.377 261.697 206.982 262.028 207.345Z" fill="#17005E"/>
<path d="M271.063 200.391C271.394 200.754 271.779 201.177 272.11 201.54C272.44 201.903 272.991 201.298 272.661 200.936C272.33 200.573 271.944 200.149 271.614 199.787C271.228 199.363 270.732 199.968 271.063 200.391Z" fill="#17005E"/>
<path d="M204.566 226.874C204.566 227.66 204.566 228.446 204.566 229.232C204.566 229.776 205.338 229.776 205.338 229.232C205.338 228.446 205.338 227.66 205.338 226.874C205.338 226.33 204.566 226.33 204.566 226.874Z" fill="#17005E"/>
<path d="M203.354 243.078C205.117 243.078 206.88 243.078 208.643 243.078C209.139 243.078 209.139 242.232 208.643 242.232C206.88 242.232 205.117 242.232 203.354 242.232C202.858 242.232 202.858 243.078 203.354 243.078Z" fill="#17005E"/>
<path d="M204.015 251.362C204.015 252.51 204.015 253.72 204.015 254.868C204.015 255.413 204.787 255.413 204.787 254.868C204.787 253.72 204.787 252.51 204.787 251.362C204.787 250.817 204.015 250.817 204.015 251.362Z" fill="#17005E"/>
<path d="M208.368 258.073C209.084 257.287 209.8 256.501 210.516 255.715C210.847 255.352 210.296 254.748 209.965 255.11C209.249 255.896 208.533 256.682 207.817 257.468C207.486 257.892 208.037 258.496 208.368 258.073Z" fill="#17005E"/>
<path d="M221.645 251.12C222.361 251.906 223.077 252.692 223.794 253.478C224.124 253.841 224.675 253.236 224.344 252.873C223.628 252.087 222.912 251.301 222.196 250.515C221.865 250.092 221.314 250.697 221.645 251.12Z" fill="#17005E"/>
<path d="M203.464 264.784C203.464 265.389 203.464 265.933 203.464 266.538C203.464 267.082 204.236 267.082 204.236 266.538C204.236 265.933 204.236 265.389 204.236 264.784C204.236 264.24 203.464 264.24 203.464 264.784Z" fill="#17005E"/>
<path d="M216.632 262.91C217.844 262.91 219.111 262.91 220.378 262.91C220.874 262.91 220.874 262.064 220.378 262.064C219.166 262.064 217.899 262.064 216.632 262.064C216.136 262.064 216.136 262.91 216.632 262.91Z" fill="#17005E"/>
<path d="M234.537 264.784C234.537 263.454 234.537 262.064 234.537 260.673C234.537 260.129 233.765 260.129 233.765 260.673C233.765 262.003 233.765 263.394 233.765 264.784C233.765 265.329 234.537 265.329 234.537 264.784Z" fill="#17005E"/>
<path d="M240.266 252.269C241.864 254.022 243.462 255.775 245.059 257.529C245.39 257.892 245.941 257.287 245.61 256.924C244.012 255.171 242.415 253.417 240.817 251.664C240.431 251.301 239.881 251.906 240.266 252.269Z" fill="#17005E"/>
<path d="M254.59 259.826C255.141 259.222 255.637 258.678 256.188 258.073C256.519 257.71 255.968 257.106 255.637 257.468C255.086 258.073 254.59 258.617 254.039 259.222C253.709 259.645 254.26 260.25 254.59 259.826Z" fill="#17005E"/>
<path d="M265.223 248.762C265.939 249.548 266.656 250.334 267.372 251.12C267.702 251.483 268.253 250.878 267.923 250.515C267.206 249.729 266.49 248.943 265.774 248.157C265.388 247.794 264.893 248.399 265.223 248.762Z" fill="#17005E"/>
<path d="M227.54 240.599C228.752 239.269 230.019 237.878 231.286 236.488C231.617 236.125 231.066 235.52 230.735 235.883C229.523 237.213 228.256 238.604 226.989 239.995C226.603 240.418 227.154 240.962 227.54 240.599Z" fill="#17005E"/>
<path d="M234.316 240.902C234.316 242.232 234.316 243.622 234.316 245.013C234.316 245.557 235.087 245.557 235.087 245.013C235.087 243.683 235.087 242.292 235.087 240.902C235.087 240.357 234.316 240.357 234.316 240.902Z" fill="#17005E"/>
<path d="M242.635 242.474C243.682 242.474 244.784 242.474 245.831 242.474C246.326 242.474 246.326 241.627 245.831 241.627C244.784 241.627 243.682 241.627 242.635 241.627C242.139 241.627 242.139 242.474 242.635 242.474Z" fill="#17005E"/>
<path d="M254.59 238.302C255.141 238.906 255.637 239.45 256.188 240.055C256.519 240.418 257.069 239.813 256.739 239.45C256.188 238.846 255.692 238.302 255.141 237.697C254.811 237.274 254.26 237.878 254.59 238.302Z" fill="#17005E"/>
<path d="M266.27 231.832C266.986 232.618 267.702 233.404 268.419 234.19C268.749 234.553 269.3 233.948 268.969 233.586C268.253 232.799 267.537 232.013 266.821 231.227C266.49 230.865 265.939 231.469 266.27 231.832Z" fill="#17005E"/>
<path d="M272.385 223.246C273.818 223.246 275.195 223.246 276.627 223.246C277.123 223.246 277.123 222.4 276.627 222.4C275.195 222.4 273.818 222.4 272.385 222.4C271.889 222.4 271.889 223.246 272.385 223.246Z" fill="#17005E"/>
<path d="M270.567 192.229C271.118 191.624 271.614 191.08 272.165 190.475C272.495 190.113 271.944 189.508 271.614 189.871C271.063 190.475 270.567 191.02 270.016 191.624C269.631 191.987 270.181 192.592 270.567 192.229Z" fill="#17005E"/>
<path d="M240.762 178.806C239.33 180.378 237.952 181.89 236.52 183.462C236.189 183.824 236.74 184.429 237.071 184.066C238.503 182.494 239.881 180.983 241.313 179.411C241.699 178.987 241.148 178.383 240.762 178.806Z" fill="#17005E"/>
<path d="M226.438 163.025C225.226 164.355 223.959 165.746 222.692 167.137C222.361 167.5 222.912 168.104 223.243 167.741C224.455 166.411 225.722 165.021 226.989 163.63C227.319 163.267 226.769 162.662 226.438 163.025Z" fill="#17005E"/>
<path d="M213.712 155.467C213.381 155.83 212.995 156.253 212.665 156.616C212.334 156.979 212.885 157.584 213.216 157.221C213.546 156.858 213.932 156.435 214.263 156.072C214.593 155.649 214.042 155.105 213.712 155.467Z" fill="#17005E"/>
<path d="M254.701 143.496C254.701 141.924 254.701 140.412 254.701 138.84C254.701 138.296 253.929 138.296 253.929 138.84C253.929 140.412 253.929 141.924 253.929 143.496C253.929 144.04 254.701 144.04 254.701 143.496Z" fill="#17005E"/>
<path d="M260.981 136.845C261.312 136.482 261.697 136.059 262.028 135.696C262.358 135.333 261.807 134.729 261.477 135.091C261.146 135.454 260.761 135.877 260.43 136.24C260.1 136.603 260.65 137.208 260.981 136.845Z" fill="#17005E"/>
<path d="M283.294 164.779C282.743 165.383 282.247 165.927 281.696 166.532C281.365 166.895 281.916 167.5 282.247 167.137C282.798 166.532 283.294 165.988 283.844 165.383C284.175 165.021 283.624 164.416 283.294 164.779Z" fill="#17005E"/>
<path d="M290.18 163.086C290.511 163.448 290.896 163.872 291.227 164.234C291.557 164.597 292.108 163.993 291.778 163.63C291.447 163.267 291.062 162.844 290.731 162.481C290.4 162.058 289.85 162.662 290.18 163.086Z" fill="#17005E"/>
<path d="M283.789 153.109C283.459 153.472 283.073 153.895 282.743 154.258C282.412 154.621 282.963 155.225 283.294 154.863C283.624 154.5 284.01 154.077 284.34 153.714C284.726 153.351 284.175 152.747 283.789 153.109Z" fill="#17005E"/>
<path d="M288.858 173.969C287.646 173.969 286.379 173.969 285.112 173.969C284.616 173.969 284.616 174.816 285.112 174.816C286.324 174.816 287.591 174.816 288.858 174.816C289.354 174.876 289.354 173.969 288.858 173.969Z" fill="#17005E"/>
<path d="M288.087 181.708C288.417 182.071 288.803 182.494 289.133 182.857C289.464 183.22 290.015 182.615 289.684 182.252C289.354 181.89 288.968 181.466 288.637 181.104C288.252 180.741 287.701 181.346 288.087 181.708Z" fill="#17005E"/>
<path d="M288.582 189.266C287.866 190.052 287.15 190.838 286.434 191.624C286.103 191.987 286.654 192.592 286.985 192.229C287.701 191.443 288.417 190.657 289.133 189.871C289.464 189.508 288.968 188.903 288.582 189.266Z" fill="#17005E"/>
<path d="M298.279 179.653C298.279 178.322 298.279 176.932 298.279 175.541C298.279 174.997 297.507 174.997 297.507 175.541C297.507 176.871 297.507 178.262 297.507 179.653C297.507 180.197 298.279 180.197 298.279 179.653Z" fill="#17005E"/>
<path d="M301.364 177.657C301.694 178.02 302.08 178.443 302.411 178.806C302.741 179.169 303.292 178.564 302.962 178.201C302.631 177.839 302.245 177.415 301.915 177.053C301.529 176.629 300.978 177.234 301.364 177.657Z" fill="#17005E"/>
<path d="M277.839 246.706C277.839 247.492 277.839 248.278 277.839 249.064C277.839 249.608 278.611 249.608 278.611 249.064C278.611 248.278 278.611 247.492 278.611 246.706C278.611 246.162 277.839 246.162 277.839 246.706Z" fill="#17005E"/>
<path d="M272.661 258.073C273.212 258.678 273.707 259.222 274.258 259.826C274.589 260.189 275.14 259.585 274.809 259.222C274.258 258.617 273.762 258.073 273.212 257.468C272.826 257.106 272.33 257.71 272.661 258.073Z" fill="#17005E"/>
<path d="M280.649 263.333C281.2 262.729 281.696 262.185 282.247 261.58C282.577 261.217 282.026 260.612 281.696 260.975C281.145 261.58 280.649 262.124 280.098 262.729C279.768 263.152 280.263 263.757 280.649 263.333Z" fill="#17005E"/>
<path d="M278.005 236.548C278.556 235.944 279.051 235.399 279.602 234.795C279.933 234.432 279.382 233.827 279.051 234.19C278.5 234.795 278.005 235.339 277.454 235.944C277.068 236.306 277.619 236.911 278.005 236.548Z" fill="#17005E"/>
<path d="M266.821 260.431C267.151 260.794 267.537 261.217 267.868 261.58C268.198 261.943 268.749 261.338 268.419 260.975C268.088 260.612 267.702 260.189 267.372 259.826C266.986 259.464 266.435 260.068 266.821 260.431Z" fill="#17005E"/>
<path d="M255.692 250.515C256.574 249.548 257.455 248.58 258.337 247.613C258.667 247.25 258.116 246.646 257.786 247.008C256.904 247.976 256.023 248.943 255.141 249.911C254.756 250.334 255.306 250.878 255.692 250.515Z" fill="#17005E"/>
<path d="M186.992 181.406C186.992 182.373 186.992 183.341 186.992 184.308C186.992 184.852 187.763 184.852 187.763 184.308C187.763 183.341 187.763 182.373 187.763 181.406C187.763 180.862 186.992 180.862 186.992 181.406Z" fill="#17005E"/>
<path d="M187.157 165.988C186.441 165.202 185.725 164.416 185.008 163.63C184.678 163.267 184.127 163.872 184.457 164.234C185.174 165.021 185.89 165.807 186.606 166.593C186.937 166.955 187.488 166.351 187.157 165.988Z" fill="#17005E"/>
<path d="M228.311 88.1116H226.383C222.251 88.1116 219.166 92.4045 220.157 96.8183L222.692 108.125C223.298 110.725 225.446 112.599 227.87 112.599H229.523L228.311 88.1116Z" fill="#17005E" stroke="#17005E" stroke-width="1.5" stroke-miterlimit="10" stroke-linecap="round" stroke-linejoin="round"/>
<path d="M244.233 81.3398C235.914 81.3398 228.917 87.2047 226.328 95.3067H224.565C222.251 95.3067 220.323 97.4229 220.323 99.9624C220.323 102.502 222.251 104.618 224.565 104.618H225.391C226.548 114.897 234.537 122.878 244.178 122.878C254.645 122.878 263.13 113.567 263.13 102.079C263.185 90.6511 254.701 81.3398 244.233 81.3398Z" fill="#E51A8E" stroke="#17005E" stroke-width="1.5" stroke-miterlimit="10" stroke-linecap="round" stroke-linejoin="round"/>
<path d="M244.233 81.3398C235.914 81.3398 228.917 87.2047 226.328 95.3067H224.565C222.251 95.3067 220.323 97.4229 220.323 99.9624C220.323 102.502 222.251 104.618 224.565 104.618H225.391C226.548 114.897 234.537 122.878 244.178 122.878C254.645 122.878 263.13 113.567 263.13 102.079C263.185 90.6511 254.701 81.3398 244.233 81.3398Z" fill="#E51A8E" stroke="#17005E" stroke-width="1.5" stroke-miterlimit="10" stroke-linecap="round" stroke-linejoin="round"/>
<path d="M223.243 99.1159C224.289 99.3577 225.226 99.8414 226.107 100.567C226.107 100.325 226.107 100.083 226.107 99.8414C225.336 100.386 224.565 100.99 223.794 101.534C223.408 101.837 223.794 102.562 224.179 102.26C224.95 101.716 225.722 101.111 226.493 100.567C226.769 100.386 226.713 100.023 226.493 99.8414C225.557 99.1159 224.565 98.5717 223.408 98.3299C222.967 98.2089 222.747 98.995 223.243 99.1159Z" fill="#17005E"/>
<path d="M227.264 91.0743H254.315C260.981 91.0743 266.38 85.1489 266.38 77.8329C266.38 76.019 265.058 74.5074 263.35 74.5074H237.071C230.184 74.5074 225.116 81.6421 226.769 88.9581L227.264 91.0743Z" fill="#17005E" stroke="#17005E" stroke-width="1.5" stroke-miterlimit="10" stroke-linecap="round" stroke-linejoin="round"/>
<path d="M237.677 89.5023L236.85 91.8603C236.189 93.8556 234.426 95.1858 232.498 95.1858L226.273 95.3067V89.0186L237.677 89.5023Z" fill="#17005E" stroke="#17005E" stroke-width="1.5" stroke-miterlimit="10" stroke-linecap="round" stroke-linejoin="round"/>
<path d="M247.979 101.655C248.588 101.655 249.081 101.114 249.081 100.446C249.081 99.7782 248.588 99.2368 247.979 99.2368C247.371 99.2368 246.877 99.7782 246.877 100.446C246.877 101.114 247.371 101.655 247.979 101.655Z" fill="#17005E" stroke="#17005E" stroke-width="1.5" stroke-miterlimit="10" stroke-linecap="round" stroke-linejoin="round"/>
<path d="M259.879 101.655C260.488 101.655 260.981 101.114 260.981 100.446C260.981 99.7782 260.488 99.2368 259.879 99.2368C259.271 99.2368 258.777 99.7782 258.777 100.446C258.777 101.114 259.271 101.655 259.879 101.655Z" fill="#17005E" stroke="#17005E" stroke-width="1.5" stroke-miterlimit="10" stroke-linecap="round" stroke-linejoin="round"/>
<path d="M254.756 96.516V101.111C254.756 102.32 255.637 103.227 256.684 103.227C257.786 103.227 258.612 104.195 258.612 105.344C258.612 107.581 256.959 109.455 254.921 109.455H253.323" stroke="#17005E" stroke-width="1.5" stroke-miterlimit="10" stroke-linecap="round" stroke-linejoin="round"/>
<path d="M229.909 97.9066C230.9 97.9066 231.837 97.9066 232.829 97.9066C233.325 97.9066 233.325 97.0601 232.829 97.0601C231.837 97.0601 230.9 97.0601 229.909 97.0601C229.413 97.0601 229.413 97.9066 229.909 97.9066Z" fill="#17005E"/>
<path d="M229.964 99.7205C230.625 99.7205 231.341 99.7205 232.002 99.7205C232.498 99.7205 232.498 98.874 232.002 98.874C231.341 98.874 230.625 98.874 229.964 98.874C229.468 98.874 229.468 99.7205 229.964 99.7205Z" fill="#17005E"/>
<path d="M230.239 101.655C230.515 101.655 230.845 101.655 231.121 101.655C231.617 101.655 231.617 100.809 231.121 100.809C230.845 100.809 230.515 100.809 230.239 100.809C229.744 100.809 229.744 101.655 230.239 101.655Z" fill="#17005E"/>
<path d="M248.034 111.934L254.535 113.808L251.56 116.348C250.734 117.013 249.687 117.315 248.695 117.073C247.043 116.711 245.996 115.018 246.271 113.204C246.382 112.297 247.208 111.753 248.034 111.934Z" fill="#17005E" stroke="#17005E" stroke-width="1.5" stroke-miterlimit="10" stroke-linecap="round" stroke-linejoin="round"/>
<path d="M442.566 138.84H376.51V135.817C376.51 133.822 377.998 132.25 379.761 132.25H442.511V138.84H442.566Z" fill="#17005E" stroke="#17005E" stroke-width="1.5" stroke-miterlimit="10" stroke-linecap="round" stroke-linejoin="round"/>
<path d="M443.393 138.84H396.564L407.362 97.2415C407.693 96.0322 408.629 95.2462 409.786 95.2462H455.623C457.276 95.2462 458.488 96.9996 458.047 98.7531L448.792 134.426C448.02 137.026 445.872 138.84 443.393 138.84Z" fill="#17005E" stroke="#17005E" stroke-width="1.5" stroke-miterlimit="10" stroke-linecap="round" stroke-linejoin="round"/>
<path d="M443.282 127.957H403.616L410.557 101.172C410.778 100.386 411.384 99.9019 412.1 99.9019H451.106C452.152 99.9019 452.924 101.051 452.648 102.139L446.698 125.115C446.257 126.808 444.88 127.957 443.282 127.957Z" fill="#FDE7D0" stroke="#17005E" stroke-width="1.5" stroke-miterlimit="10" stroke-linecap="round" stroke-linejoin="round"/>
<path d="M426.755 109.153L432.264 113.627C432.65 113.929 432.429 114.594 431.933 114.836L424.165 118.343C423.614 118.585 423.174 118.222 423.339 117.678L425.598 109.636C425.708 109.153 426.369 108.85 426.755 109.153Z" fill="#FDE7D0" stroke="#17005E" stroke-width="1.5" stroke-miterlimit="10" stroke-linecap="round" stroke-linejoin="round"/>
<path d="M438.71 110.906L442.346 113.748C442.566 113.929 442.456 114.413 442.125 114.534L436.947 116.952C436.616 117.134 436.286 116.892 436.396 116.529L437.994 111.269C438.049 110.906 438.489 110.664 438.71 110.906Z" fill="#17005E" stroke="#17005E" stroke-width="1.5" stroke-miterlimit="10" stroke-linecap="round" stroke-linejoin="round"/>
<path d="M442.456 116.832L444.054 111.571H444.99L443.393 116.832H442.456Z" fill="#17005E" stroke="#17005E" stroke-width="1.5" stroke-miterlimit="10" stroke-linecap="round" stroke-linejoin="round"/>
<path d="M417.279 117.194L413.643 114.353C413.422 114.171 413.532 113.687 413.863 113.567L419.042 111.148C419.372 110.967 419.703 111.208 419.593 111.571L417.995 116.832C417.995 117.194 417.554 117.376 417.279 117.194Z" fill="#17005E" stroke="#17005E" stroke-width="1.5" stroke-miterlimit="10" stroke-linecap="round" stroke-linejoin="round"/>
<path d="M413.532 111.269L411.99 116.529H410.998L412.596 111.269H413.532Z" fill="#17005E" stroke="#17005E" stroke-width="1.5" stroke-miterlimit="10" stroke-linecap="round" stroke-linejoin="round"/>
<path d="M359.597 168.467L345.163 149.3L351.002 145.189L365.216 163.086L359.597 168.467Z" fill="#FDE7D0" stroke="#17005E" stroke-width="1.5" stroke-miterlimit="10" stroke-linecap="round" stroke-linejoin="round"/>
<path d="M364.961 168.167C367.167 166.065 367.758 162.848 366.281 160.983C364.805 159.117 361.82 159.308 359.615 161.41C357.41 163.512 356.819 166.729 358.295 168.594C359.771 170.46 362.756 170.269 364.961 168.167Z" fill="#FDE7D0" stroke="#17005E" stroke-width="1.5" stroke-miterlimit="10" stroke-linecap="round" stroke-linejoin="round"/>
<path d="M366.041 169.481C368.246 167.379 368.837 164.163 367.361 162.297C365.885 160.431 362.9 160.623 360.695 162.725C358.489 164.827 357.898 168.043 359.375 169.909C360.851 171.775 363.836 171.583 366.041 169.481Z" fill="#FDE7D0" stroke="#17005E" stroke-width="1.5" stroke-miterlimit="10" stroke-linecap="round" stroke-linejoin="round"/>
<path d="M365.066 168.249C366.467 166.913 366.843 164.87 365.905 163.685C364.968 162.5 363.071 162.622 361.67 163.958C360.269 165.293 359.893 167.337 360.831 168.521C361.768 169.706 363.664 169.584 365.066 168.249Z" fill="#F48914" stroke="#17005E" stroke-width="1.5" stroke-miterlimit="10" stroke-linecap="round" stroke-linejoin="round"/>
<path d="M124.186 538.803H290.456" stroke="#17005E" stroke-width="3" stroke-miterlimit="10" stroke-linecap="round" stroke-linejoin="round"/>
<path d="M315.413 538.803H396.178" stroke="#17005E" stroke-width="3" stroke-miterlimit="10" stroke-linecap="round" stroke-linejoin="round"/>
<path d="M293.651 488.558L286.819 481.06C285.442 479.549 285.442 477.07 286.819 475.558L287.591 474.712C288.968 473.2 291.227 473.2 292.604 474.712L299.436 482.209C300.813 483.721 300.813 486.2 299.436 487.711L298.664 488.558C297.287 490.069 295.028 490.069 293.651 488.558Z" fill="#E9D1FA"/>
<path d="M276.627 15.1933L269.796 7.69585C268.419 6.18428 268.419 3.7053 269.796 2.19372L270.567 1.34724C271.944 -0.164332 274.203 -0.164332 275.581 1.34724L282.412 8.78419C283.789 10.2958 283.789 12.7747 282.412 14.2863L281.641 15.1328C280.263 16.7048 278.005 16.7048 276.627 15.1933Z" fill="#FAD1E8"/>
<path d="M177.516 87.6279L188.204 75.8981C189.581 74.3865 191.84 74.3865 193.217 75.8981L194.154 76.926C195.531 78.4375 195.531 80.9165 194.154 82.4281L183.466 94.1579C182.088 95.6695 179.83 95.6695 178.452 94.1579L177.516 93.13C176.138 91.6185 176.138 89.1395 177.516 87.6279Z" fill="#E9D1FA"/>
<path d="M12.7889 401.491L23.4769 389.761C24.8542 388.25 27.113 388.25 28.4903 389.761L29.4269 390.789C30.8042 392.301 30.8042 394.78 29.4269 396.291L18.7389 408.021C17.3616 409.533 15.1028 409.533 13.7255 408.021L12.7889 406.993C11.4116 405.482 11.4116 403.003 12.7889 401.491Z" fill="#FAD1E8"/>
<path d="M450.555 506.152C454.358 506.152 457.441 502.769 457.441 498.595C457.441 494.421 454.358 491.037 450.555 491.037C446.751 491.037 443.668 494.421 443.668 498.595C443.668 502.769 446.751 506.152 450.555 506.152Z" fill="#FDE7D0"/>
<path d="M43.806 196.703C47.0921 196.703 49.756 193.779 49.756 190.173C49.756 186.567 47.0921 183.643 43.806 183.643C40.5199 183.643 37.856 186.567 37.856 190.173C37.856 193.779 40.5199 196.703 43.806 196.703Z" fill="#FDE7D0"/>
<path d="M478.707 186.606C481.993 186.606 484.657 183.682 484.657 180.076C484.657 176.469 481.993 173.546 478.707 173.546C475.421 173.546 472.757 176.469 472.757 180.076C472.757 183.682 475.421 186.606 478.707 186.606Z" fill="#FDE7D0"/>
<path d="M347.091 96.0323L341.857 90.2883C341.582 89.986 341.196 89.8046 340.865 89.8046C340.48 89.8046 340.149 89.986 339.874 90.2883L335.631 94.9439L331.389 90.2883C331.389 90.2883 331.389 90.2883 331.334 90.2883C331.279 90.2278 331.224 90.1674 331.169 90.1069C331.114 90.0464 331.059 90.0464 331.004 89.986L330.949 89.9255C330.894 89.9255 330.838 89.865 330.783 89.865H330.728C330.618 89.865 330.563 89.865 330.453 89.865C330.343 89.865 330.288 89.865 330.177 89.865C330.122 89.865 330.122 89.865 330.067 89.865C330.012 89.865 329.957 89.9255 329.902 89.9255C329.847 89.9255 329.847 89.986 329.792 89.986C329.737 89.986 329.682 90.0464 329.626 90.0464C329.571 90.1069 329.461 90.1674 329.406 90.2278L325.164 94.8835L320.922 90.2278C320.371 89.6232 319.489 89.6232 318.938 90.2278C318.388 90.8325 318.388 91.7999 318.938 92.4045L324.172 98.1485C324.448 98.4508 324.833 98.6322 325.164 98.6322C325.55 98.6322 325.88 98.4508 326.156 98.1485L330.398 93.4928L334.64 98.1485C334.64 98.1485 334.64 98.1485 334.695 98.2089C334.75 98.2694 334.805 98.3299 334.86 98.3903C334.915 98.4508 334.97 98.4508 335.025 98.5112L335.081 98.5717C335.136 98.5717 335.191 98.6322 335.246 98.6322H335.301C335.411 98.6322 335.466 98.6322 335.576 98.6322C335.687 98.6322 335.742 98.6322 335.852 98.6322C335.907 98.6322 335.907 98.6322 335.962 98.6322C336.017 98.6322 336.072 98.5717 336.127 98.5717C336.182 98.5717 336.182 98.5112 336.238 98.5112C336.293 98.5112 336.348 98.4508 336.403 98.4508C336.458 98.3903 336.568 98.3299 336.623 98.2694L340.865 93.6138L345.107 98.2694C345.658 98.874 346.54 98.874 347.091 98.2694C347.642 97.6043 347.642 96.6369 347.091 96.0323Z" fill="#FDE7D0"/>
<path d="M347.091 87.0837L341.857 81.3397C341.582 81.0374 341.196 80.856 340.865 80.856C340.48 80.856 340.149 81.0374 339.874 81.3397L335.632 85.9954L331.389 81.3397C331.389 81.3397 331.389 81.3397 331.334 81.3397C331.279 81.2793 331.224 81.2188 331.169 81.1584C331.114 81.0979 331.059 81.0979 331.004 81.0374L330.949 80.977C330.894 80.977 330.838 80.9165 330.783 80.9165H330.728C330.618 80.9165 330.563 80.9165 330.453 80.9165C330.343 80.9165 330.288 80.9165 330.177 80.9165C330.122 80.9165 330.122 80.9165 330.067 80.9165C330.012 80.9165 329.957 80.977 329.902 80.977C329.847 80.977 329.847 81.0374 329.792 81.0374C329.737 81.0374 329.682 81.0979 329.626 81.0979C329.571 81.1584 329.461 81.2188 329.406 81.2793L325.164 85.9349L320.922 81.2793C320.371 80.6746 319.489 80.6746 318.938 81.2793C318.388 81.8839 318.388 82.8513 318.938 83.4559L324.172 89.1999C324.448 89.5022 324.833 89.6836 325.164 89.6836C325.55 89.6836 325.88 89.5022 326.156 89.1999L330.398 84.5443L334.64 89.1999C334.64 89.1999 334.64 89.1999 334.695 89.2604C334.75 89.3209 334.805 89.3813 334.86 89.4418C334.915 89.5022 334.97 89.5022 335.026 89.5627L335.081 89.6232C335.136 89.6232 335.191 89.6836 335.246 89.6836H335.301C335.411 89.6836 335.466 89.6836 335.576 89.6836C335.687 89.6836 335.742 89.6836 335.852 89.6836C335.907 89.6836 335.907 89.6836 335.962 89.6836C336.017 89.6836 336.072 89.6232 336.127 89.6232C336.182 89.6232 336.182 89.5627 336.238 89.5627C336.293 89.5627 336.348 89.5022 336.403 89.5022C336.458 89.4418 336.568 89.3813 336.623 89.3209L340.865 84.6652L345.107 89.3209C345.658 89.9255 346.54 89.9255 347.091 89.3209C347.642 88.6558 347.642 87.6884 347.091 87.0837Z" fill="#FDE7D0"/>
<path d="M476.448 367.753H481.241C481.517 367.753 481.737 367.632 481.902 367.45C482.068 367.269 482.178 367.027 482.178 366.725V362.492H486.034C486.089 362.492 486.145 362.492 486.2 362.492C486.255 362.492 486.255 362.493 486.31 362.432H486.365C486.42 362.432 486.42 362.372 486.475 362.372H486.53C486.585 362.311 486.64 362.311 486.64 362.251C486.695 362.19 486.695 362.19 486.751 362.13C486.751 362.13 486.751 362.069 486.806 362.069C486.806 362.009 486.861 362.009 486.861 361.948V361.888C486.861 361.827 486.861 361.827 486.916 361.767C486.916 361.706 486.916 361.646 486.916 361.586V357.353H490.772C491.268 357.353 491.709 356.93 491.709 356.325C491.709 355.781 491.323 355.297 490.772 355.297H485.979C485.704 355.297 485.483 355.418 485.318 355.6C485.153 355.781 485.043 356.023 485.043 356.325V360.558H481.186C481.186 360.558 481.186 360.558 481.131 360.558C481.076 360.558 481.021 360.558 480.966 360.558C480.911 360.558 480.911 360.558 480.856 360.618H480.8C480.745 360.618 480.745 360.679 480.69 360.679H480.635C480.58 360.739 480.525 360.739 480.525 360.8C480.47 360.86 480.47 360.86 480.415 360.92C480.415 360.92 480.415 360.981 480.36 360.981C480.36 361.041 480.305 361.041 480.305 361.102V361.162C480.305 361.223 480.305 361.223 480.25 361.283C480.25 361.344 480.25 361.404 480.25 361.465V365.697H476.393C475.897 365.697 475.457 366.12 475.457 366.725C475.567 367.33 475.952 367.753 476.448 367.753Z" fill="#FDE7D0"/>
<path d="M480.194 371.864H484.988C485.263 371.864 485.483 371.743 485.649 371.562C485.814 371.381 485.924 371.139 485.924 370.836V366.604H489.781C489.836 366.604 489.891 366.604 489.946 366.604C490.001 366.604 490.001 366.604 490.056 366.544H490.111C490.166 366.544 490.166 366.483 490.221 366.483H490.276C490.331 366.423 490.387 366.423 490.387 366.362C490.442 366.302 490.442 366.302 490.497 366.241C490.497 366.241 490.497 366.181 490.552 366.181C490.552 366.12 490.607 366.12 490.607 366.06V365.999C490.607 365.939 490.607 365.939 490.662 365.878C490.662 365.818 490.662 365.758 490.662 365.697V361.465H494.519C495.014 361.465 495.455 361.041 495.455 360.437C495.455 359.893 495.069 359.409 494.519 359.409H489.725C489.45 359.409 489.23 359.53 489.064 359.711C488.899 359.893 488.789 360.134 488.789 360.437V364.669H484.932C484.932 364.669 484.932 364.669 484.877 364.669C484.822 364.669 484.767 364.669 484.712 364.669C484.657 364.669 484.657 364.669 484.602 364.73H484.547C484.492 364.73 484.492 364.79 484.437 364.79H484.381C484.326 364.851 484.271 364.851 484.271 364.911C484.216 364.972 484.216 364.972 484.161 365.032C484.161 365.032 484.161 365.092 484.106 365.092C484.106 365.153 484.051 365.153 484.051 365.213V365.274C484.051 365.334 484.051 365.334 483.996 365.395C483.996 365.455 483.996 365.516 483.996 365.576V369.809H480.139C479.644 369.809 479.203 370.232 479.203 370.836C479.258 371.381 479.699 371.864 480.194 371.864Z" fill="#FDE7D0"/>
<path d="M455.293 285.342C455.017 285.04 454.852 284.677 454.852 284.254V277.663H448.847C448.075 277.663 447.414 276.937 447.414 276.091V267.989C447.414 267.142 448.02 266.417 448.847 266.417C449.618 266.417 450.279 267.082 450.279 267.989V274.579H456.284C457.056 274.579 457.717 275.245 457.717 276.151V282.742H463.722C464.493 282.742 465.154 283.407 465.154 284.314C465.154 285.16 464.548 285.886 463.722 285.886H456.339C455.954 285.826 455.568 285.644 455.293 285.342Z" fill="#E9D1FA"/>
<path d="M460.692 279.477C460.416 279.175 460.251 278.812 460.251 278.389V271.798H454.301C453.53 271.798 452.869 271.133 452.869 270.226V262.124C452.869 261.278 453.475 260.552 454.301 260.552C455.072 260.552 455.733 261.217 455.733 262.124V268.715H461.738C462.51 268.715 463.171 269.44 463.171 270.287V276.877H469.176C469.947 276.877 470.608 277.542 470.608 278.449C470.608 279.296 470.002 280.021 469.176 280.021H461.794C461.298 279.9 460.967 279.719 460.692 279.477Z" fill="#E9D1FA"/>
<path d="M57.1936 25.9557C57.6343 25.9557 58.075 26.1371 58.4056 26.4999L63.5843 32.1834L68.763 26.4999C69.4241 25.7743 70.526 25.7743 71.2422 26.4999L77.688 33.574C78.3491 34.2996 78.3491 35.5088 77.688 36.2949C77.0269 37.0204 75.925 37.0204 75.2088 36.2949L70.0301 30.6113L64.8514 36.2949C64.1903 37.0204 63.0885 37.0204 62.3723 36.2949L57.1936 30.6113L52.0149 36.2949C51.3537 37.0204 50.2519 37.0204 49.5357 36.2949C48.8746 35.5693 48.8746 34.36 49.5357 33.574L55.9815 26.4999C56.3121 26.1371 56.7528 25.9557 57.1936 25.9557Z" fill="#E9D1FA"/>
<path d="M57.1936 36.2344C57.6343 36.2344 58.075 36.4158 58.4056 36.7785L63.5843 42.4621L68.763 36.7785C69.4241 36.053 70.526 36.053 71.2422 36.7785L77.688 43.8527C78.3491 44.5783 78.3491 45.7875 77.688 46.5735C77.0269 47.2991 75.925 47.2991 75.2088 46.5735L70.0301 40.89L64.8514 46.5735C64.1903 47.2991 63.0885 47.2991 62.3723 46.5735L57.1936 40.89L52.0149 46.5735C51.3537 47.2991 50.2519 47.2991 49.5357 46.5735C48.8746 45.848 48.8746 44.6387 49.5357 43.8527L55.9815 36.7785C56.3121 36.4158 56.7528 36.2344 57.1936 36.2344Z" fill="#E9D1FA"/>
<path d="M2.65187 304.327C3.71681 304.327 4.58011 303.38 4.58011 302.211C4.58011 301.042 3.71681 300.095 2.65187 300.095C1.58694 300.095 0.723633 301.042 0.723633 302.211C0.723633 303.38 1.58694 304.327 2.65187 304.327Z" fill="#FAD1E8"/>
<path d="M8.60189 304.327C9.66682 304.327 10.5301 303.38 10.5301 302.211C10.5301 301.042 9.66682 300.095 8.60189 300.095C7.53695 300.095 6.67365 301.042 6.67365 302.211C6.67365 303.38 7.53695 304.327 8.60189 304.327Z" fill="#FAD1E8"/>
<path d="M14.5519 304.327C15.6168 304.327 16.4801 303.38 16.4801 302.211C16.4801 301.042 15.6168 300.095 14.5519 300.095C13.487 300.095 12.6237 301.042 12.6237 302.211C12.6237 303.38 13.487 304.327 14.5519 304.327Z" fill="#FAD1E8"/>
<path d="M2.65187 291.69C3.71681 291.69 4.58011 290.743 4.58011 289.574C4.58011 288.405 3.71681 287.458 2.65187 287.458C1.58694 287.458 0.723633 288.405 0.723633 289.574C0.723633 290.743 1.58694 291.69 2.65187 291.69Z" fill="#FAD1E8"/>
<path d="M8.60189 291.69C9.66682 291.69 10.5301 290.743 10.5301 289.574C10.5301 288.405 9.66682 287.458 8.60189 287.458C7.53695 287.458 6.67365 288.405 6.67365 289.574C6.67365 290.743 7.53695 291.69 8.60189 291.69Z" fill="#FAD1E8"/>
<path d="M14.5519 291.69C15.6168 291.69 16.4801 290.743 16.4801 289.574C16.4801 288.405 15.6168 287.458 14.5519 287.458C13.487 287.458 12.6237 288.405 12.6237 289.574C12.6237 290.743 13.487 291.69 14.5519 291.69Z" fill="#FAD1E8"/>
<path d="M2.65187 297.979C3.71681 297.979 4.58011 297.031 4.58011 295.862C4.58011 294.694 3.71681 293.746 2.65187 293.746C1.58694 293.746 0.723633 294.694 0.723633 295.862C0.723633 297.031 1.58694 297.979 2.65187 297.979Z" fill="#FAD1E8"/>
<path d="M8.60189 297.979C9.66682 297.979 10.5301 297.031 10.5301 295.862C10.5301 294.694 9.66682 293.746 8.60189 293.746C7.53695 293.746 6.67365 294.694 6.67365 295.862C6.67365 297.031 7.53695 297.979 8.60189 297.979Z" fill="#FAD1E8"/>
<path d="M14.5519 297.979C15.6168 297.979 16.4801 297.031 16.4801 295.862C16.4801 294.694 15.6168 293.746 14.5519 293.746C13.487 293.746 12.6237 294.694 12.6237 295.862C12.6237 297.031 13.487 297.979 14.5519 297.979Z" fill="#FAD1E8"/>
<path d="M441.85 57.8197C443.615 57.8197 445.045 56.2496 445.045 54.3128C445.045 52.376 443.615 50.806 441.85 50.806C440.085 50.806 438.655 52.376 438.655 54.3128C438.655 56.2496 440.085 57.8197 441.85 57.8197Z" fill="#FAD1E8"/>
<path d="M451.05 57.8197C452.815 57.8197 454.246 56.2496 454.246 54.3128C454.246 52.376 452.815 50.806 451.05 50.806C449.286 50.806 447.855 52.376 447.855 54.3128C447.855 56.2496 449.286 57.8197 451.05 57.8197Z" fill="#FAD1E8"/>
<path d="M441.85 68.0984C443.615 68.0984 445.045 66.5283 445.045 64.5915C445.045 62.6547 443.615 61.0847 441.85 61.0847C440.085 61.0847 438.655 62.6547 438.655 64.5915C438.655 66.5283 440.085 68.0984 441.85 68.0984Z" fill="#FAD1E8"/>
<path d="M451.05 68.0984C452.815 68.0984 454.246 66.5283 454.246 64.5915C454.246 62.6547 452.815 61.0847 451.05 61.0847C449.286 61.0847 447.855 62.6547 447.855 64.5915C447.855 66.5283 449.286 68.0984 451.05 68.0984Z" fill="#FAD1E8"/>
<path d="M46.8912 483.539C48.8385 483.539 50.4171 481.807 50.4171 479.67C50.4171 477.533 48.8385 475.8 46.8912 475.8C44.9439 475.8 43.3653 477.533 43.3653 479.67C43.3653 481.807 44.9439 483.539 46.8912 483.539Z" fill="#E9D1FA"/>
<path d="M54.0533 491.4C56.0006 491.4 57.5792 489.667 57.5792 487.53C57.5792 485.393 56.0006 483.66 54.0533 483.66C52.106 483.66 50.5273 485.393 50.5273 487.53C50.5273 489.667 52.106 491.4 54.0533 491.4Z" fill="#E9D1FA"/>
<path d="M39.5639 491.521C41.5112 491.521 43.0898 489.788 43.0898 487.651C43.0898 485.514 41.5112 483.781 39.5639 483.781C37.6166 483.781 36.038 485.514 36.038 487.651C36.038 489.788 37.6166 491.521 39.5639 491.521Z" fill="#E9D1FA"/>
<path d="M46.7259 499.381C48.6732 499.381 50.2519 497.648 50.2519 495.511C50.2519 493.374 48.6732 491.641 46.7259 491.641C44.7786 491.641 43.2 493.374 43.2 495.511C43.2 497.648 44.7786 499.381 46.7259 499.381Z" fill="#E9D1FA"/>
<path d="M436.616 416.365H357.338C354.583 416.365 352.38 413.947 352.38 410.923V353C352.38 349.977 354.583 347.558 357.338 347.558H436.671C439.426 347.558 441.63 349.977 441.63 353V410.923C441.575 413.947 439.371 416.365 436.616 416.365Z" fill="#CFAFEB" stroke="#17005E" stroke-width="1.5" stroke-miterlimit="10" stroke-linecap="round" stroke-linejoin="round"/>
<path d="M390.669 367.692L404.828 376.641C405.764 377.246 405.764 378.757 404.828 379.362L390.669 388.31C389.732 388.915 388.52 388.129 388.52 386.92V369.023C388.52 367.813 389.732 367.088 390.669 367.692Z" fill="#FDE7D0" stroke="#17005E" stroke-width="1.5" stroke-miterlimit="10" stroke-linecap="round" stroke-linejoin="round"/>
<path d="M433.366 407.235C433.883 407.235 434.302 406.775 434.302 406.207C434.302 405.64 433.883 405.179 433.366 405.179C432.848 405.179 432.429 405.64 432.429 406.207C432.429 406.775 432.848 407.235 433.366 407.235Z" fill="#17005E" stroke="#17005E" stroke-width="1.5" stroke-miterlimit="10" stroke-linecap="round" stroke-linejoin="round"/>
<path d="M368.742 406.207H433.366" stroke="#17005E" stroke-width="1.5" stroke-miterlimit="10" stroke-linecap="round" stroke-linejoin="round"/>
<path d="M429.73 353.181H436.396" stroke="#17005E" stroke-width="1.5" stroke-miterlimit="10" stroke-linecap="round" stroke-linejoin="round"/>
<path d="M429.73 356.204H436.396" stroke="#17005E" stroke-width="1.5" stroke-miterlimit="10" stroke-linecap="round" stroke-linejoin="round"/>
<path d="M429.73 359.228H436.396" stroke="#17005E" stroke-width="1.5" stroke-miterlimit="10" stroke-linecap="round" stroke-linejoin="round"/>
<path d="M363.563 404.152H358.715V408.263H363.563V404.152Z" fill="#F5A3D2" stroke="#17005E" stroke-width="1.5" stroke-miterlimit="10" stroke-linecap="round" stroke-linejoin="round"/>
<path d="M146.113 155.467H46.2852C43.5305 155.467 41.3268 153.049 41.3268 150.026V76.2609C41.3268 73.2377 43.5305 70.8192 46.2852 70.8192H146.113C148.868 70.8192 151.071 73.2377 151.071 76.2609V149.965C151.071 152.988 148.868 155.467 146.113 155.467Z" fill="#FDE7D0" stroke="#17005E" stroke-width="1.5" stroke-miterlimit="10" stroke-linecap="round" stroke-linejoin="round"/>
<path d="M88.431 95.5486L105.895 106.553C107.107 107.278 107.107 109.153 105.895 109.939L88.431 120.943C87.2741 121.669 85.7866 120.762 85.7866 119.25V97.2415C85.7866 95.73 87.2741 94.823 88.431 95.5486Z" fill="#F5A3D2" stroke="#17005E" stroke-width="1.5" stroke-miterlimit="10" stroke-linecap="round" stroke-linejoin="round"/>
<path d="M95.9236 144.221C96.5626 144.221 97.0806 143.653 97.0806 142.952C97.0806 142.25 96.5626 141.682 95.9236 141.682C95.2846 141.682 94.7667 142.25 94.7667 142.952C94.7667 143.653 95.2846 144.221 95.9236 144.221Z" fill="#17005E" stroke="#17005E" stroke-width="1.5" stroke-miterlimit="10" stroke-linecap="round" stroke-linejoin="round"/>
<path d="M61.4357 142.952H140.989" stroke="#17005E" stroke-width="1.5" stroke-miterlimit="10" stroke-linecap="round" stroke-linejoin="round"/>
<path d="M136.527 77.7725H144.736" stroke="#17005E" stroke-width="1.5" stroke-miterlimit="10" stroke-linecap="round" stroke-linejoin="round"/>
<path d="M136.527 81.4607H144.736" stroke="#17005E" stroke-width="1.5" stroke-miterlimit="10" stroke-linecap="round" stroke-linejoin="round"/>
<path d="M136.527 85.1489H144.736" stroke="#17005E" stroke-width="1.5" stroke-miterlimit="10" stroke-linecap="round" stroke-linejoin="round"/>
<path d="M55.1 140.412H49.15V145.431H55.1V140.412Z" fill="#E9D1FA" stroke="#17005E" stroke-width="1.5" stroke-miterlimit="10" stroke-linecap="round" stroke-linejoin="round"/>
<path d="M176.469 495.693H83.0319C80.2773 495.693 78.0736 493.274 78.0736 490.251V421.444C78.0736 418.421 80.2773 416.002 83.0319 416.002H176.469C179.224 416.002 181.427 418.421 181.427 421.444V490.251C181.427 493.214 179.224 495.693 176.469 495.693Z" fill="#F5A3D2" stroke="#17005E" stroke-width="1.5" stroke-miterlimit="10" stroke-linecap="round" stroke-linejoin="round"/>
<path d="M122.478 439.281L138.896 449.62C139.998 450.345 139.998 452.099 138.896 452.824L122.478 463.163C121.376 463.889 119.999 462.982 119.999 461.591V440.853C119.944 439.462 121.376 438.555 122.478 439.281Z" fill="#E9D1FA" stroke="#17005E" stroke-width="1.5" stroke-miterlimit="10" stroke-linecap="round" stroke-linejoin="round"/>
<path d="M153.606 485.111C154.214 485.111 154.707 484.57 154.707 483.902C154.707 483.234 154.214 482.693 153.606 482.693C152.997 482.693 152.504 483.234 152.504 483.902C152.504 484.57 152.997 485.111 153.606 485.111Z" fill="#17005E" stroke="#17005E" stroke-width="1.5" stroke-miterlimit="10" stroke-linecap="round" stroke-linejoin="round"/>
<path d="M97.0255 483.902H171.951" stroke="#17005E" stroke-width="1.5" stroke-miterlimit="10" stroke-linecap="round" stroke-linejoin="round"/>
<path d="M167.709 422.532H175.477" stroke="#17005E" stroke-width="1.5" stroke-miterlimit="10" stroke-linecap="round" stroke-linejoin="round"/>
<path d="M167.709 425.979H175.477" stroke="#17005E" stroke-width="1.5" stroke-miterlimit="10" stroke-linecap="round" stroke-linejoin="round"/>
<path d="M167.709 429.425H175.477" stroke="#17005E" stroke-width="1.5" stroke-miterlimit="10" stroke-linecap="round" stroke-linejoin="round"/>
<path d="M91.0754 481.544H85.456V486.321H91.0754V481.544Z" fill="#FDE7D0" stroke="#17005E" stroke-width="1.5" stroke-miterlimit="10" stroke-linecap="round" stroke-linejoin="round"/>
</svg>
