<svg width="3048" height="3000" viewBox="0 0 3048 3000" fill="none" xmlns="http://www.w3.org/2000/svg">
<path d="M73.9799 2440.16C114.65 2440.16 147.62 2407.19 147.62 2366.52C147.62 2325.85 114.65 2292.88 73.9799 2292.88C33.3096 2292.88 0.339844 2325.85 0.339844 2366.52C0.339844 2407.19 33.3096 2440.16 73.9799 2440.16Z" fill="#FDE06E"/>
<path d="M2622.77 1564.06C2694.27 1564.06 2752.23 1506.1 2752.23 1434.6C2752.23 1363.1 2694.27 1305.14 2622.77 1305.14C2551.27 1305.14 2493.31 1363.1 2493.31 1434.6C2493.31 1506.1 2551.27 1564.06 2622.77 1564.06Z" fill="#2868D0"/>
<path d="M1065.21 1237.24H309.75C268.82 1237.24 235.64 1270.42 235.64 1311.35C235.64 1352.28 268.82 1385.46 309.75 1385.46H1065.21C1106.14 1385.46 1139.32 1352.28 1139.32 1311.35C1139.32 1270.42 1106.14 1237.24 1065.21 1237.24Z" fill="#D3E4FE"/>
<path d="M360.24 1267.79L374.39 1296.46L406.04 1301.06L383.14 1323.38L388.55 1354.9L360.24 1340.02L331.93 1354.9L337.34 1323.38L314.44 1301.06L346.09 1296.46L360.24 1267.79Z" fill="white"/>
<path d="M523.86 1267.79L538.01 1296.46L569.66 1301.06L546.76 1323.38L552.16 1354.9L523.86 1340.02L495.55 1354.9L500.96 1323.38L478.06 1301.06L509.7 1296.46L523.86 1267.79Z" fill="white"/>
<path d="M687.47 1267.79L701.63 1296.46L733.27 1301.06L710.38 1323.38L715.78 1354.9L687.47 1340.02L659.17 1354.9L664.58 1323.38L641.68 1301.06L673.32 1296.46L687.47 1267.79Z" fill="white"/>
<path d="M851.09 1267.79L865.25 1296.46L896.89 1301.06L873.99 1323.38L879.4 1354.9L851.09 1340.02L822.79 1354.9L828.19 1323.38L805.29 1301.06L836.94 1296.46L851.09 1267.79Z" fill="white"/>
<path d="M1014.71 1267.79L1028.86 1296.46L1060.51 1301.06L1037.61 1323.38L1043.02 1354.9L1014.71 1340.02L986.41 1354.9L991.81 1323.38L968.91 1301.06L1000.56 1296.46L1014.71 1267.79Z" fill="white"/>
<path d="M711.02 1513.66H365.95V1551.42H711.02V1513.66Z" fill="#D3E4FE"/>
<path d="M962.89 514.36C962.89 514.36 890.89 542.03 922.2 593.71C967.09 567.79 969.4 522.09 969.4 522.09L962.89 514.36Z" fill="#152A52"/>
<path d="M1509.82 2053.3C1582.11 2053.3 1640.71 1994.7 1640.71 1922.41C1640.71 1850.12 1582.11 1791.52 1509.82 1791.52C1437.53 1791.52 1378.93 1850.12 1378.93 1922.41C1378.93 1994.7 1437.53 2053.3 1509.82 2053.3Z" fill="#D3E4FE"/>
<path d="M358.21 2788.6C369.81 2585.03 494.65 2448.19 612.13 2446.79C688.82 2445.89 748.93 2502.86 774.89 2531.43C714.59 2413.43 711.58 2287.32 768.38 2231.94C841.17 2160.94 1038.77 2180.16 1178.55 2355.65C1234.08 2305.19 1307.47 2285.84 1360.85 2310.07C1437.85 2345 1479.62 2473.38 1409.68 2586.77L1328.3 2788.6H358.21Z" fill="#D3E4FE"/>
<path d="M911.62 2643.92C1046.8 2643.92 1156.39 2630.08 1156.39 2613.01C1156.39 2595.94 1046.8 2582.1 911.62 2582.1C776.437 2582.1 666.85 2595.94 666.85 2613.01C666.85 2630.08 776.437 2643.92 911.62 2643.92Z" fill="url(#paint0_linear_26_3)"/>
<path d="M245.17 2171.51C277.1 2215.04 302.85 2273.63 313.97 2322.46C325.06 2371.64 321.53 2411.07 294.44 2424.38C267.35 2437.69 221.57 2426.15 176.08 2407.82C130.43 2388.82 85.2098 2363.15 56.0798 2332.82C-1.5102 2274.53 16.9999 2201.36 66.9199 2145.95C117.21 2091.24 181.4 2083.68 245.17 2171.51Z" fill="#127755"/>
<path d="M123.74 2233.48L27.23 2288.88L41.02 2314.84L147.02 2249.23L123.74 2233.48Z" fill="#339E7E"/>
<path d="M188.05 2279.24L75.8101 2350.78L97.27 2366.52L206.7 2293.92L188.05 2279.24Z" fill="#339E7E"/>
<path d="M115.46 2110.78L123.74 2233.48L147.02 2249.23L146.35 2105.07C134.87 2105.28 124.33 2106.84 115.46 2110.78Z" fill="#339E7E"/>
<path d="M219.77 2141.45L188.05 2279.24L206.7 2293.92L237 2160.78L219.77 2141.45Z" fill="#339E7E"/>
<path d="M272.51 2215.01L256.29 2334.82L256.07 2336.4L268.67 2348.23L268.94 2346.72L287.06 2244.31L272.51 2215.01Z" fill="#339E7E"/>
<path d="M268.94 2346.72L256.28 2334.82L255.7 2334.27L146.14 2394.3L172.69 2406.39L271.71 2349.33L268.94 2346.72Z" fill="#339E7E"/>
<path d="M467.58 2689.77C457.72 2626.92 435.78 2569.38 406.82 2517.47C363.38 2439.61 304.18 2374.41 246.08 2322.75C198.182 2280.39 146.567 2242.42 91.8598 2209.32C91.0854 2208.85 90.1568 2208.71 89.2781 2208.93C88.3995 2209.14 87.643 2209.7 87.1749 2210.48C86.7068 2211.25 86.5654 2212.18 86.7821 2213.06C86.9987 2213.94 87.5554 2214.69 88.3298 2215.16V2215.16C140.12 2246.47 223.62 2303.44 298.95 2383.57C336.61 2423.63 372.24 2469.49 400.86 2520.8C429.48 2572.11 451.12 2628.88 460.86 2690.8C460.929 2691.24 461.085 2691.67 461.319 2692.05C461.553 2692.43 461.859 2692.76 462.222 2693.03C462.584 2693.29 462.994 2693.48 463.43 2693.59C463.865 2693.69 464.317 2693.71 464.76 2693.64C465.202 2693.57 465.627 2693.41 466.009 2693.18C466.391 2692.95 466.724 2692.64 466.987 2692.28C467.251 2691.92 467.441 2691.51 467.546 2691.07C467.651 2690.63 467.669 2690.18 467.6 2689.74L467.58 2689.77Z" fill="#0E593B"/>
<path d="M576.42 1903.63C579.783 1923.75 579.702 1944.29 576.18 1964.38C574.443 1974.72 571.998 1984.93 568.86 1994.94C563.205 2012.98 555.569 2030.34 546.09 2046.7C540.688 2056.05 534.675 2065.03 528.09 2073.58C526.97 2075.05 525.836 2076.5 524.69 2077.93C493.76 2116.65 452.59 2142.44 417.3 2140.37C393.98 2138.99 375.85 2126.13 361.3 2105.98C353.65 2095.37 347 2082.72 341.13 2068.68C340.28 2066.68 339.43 2064.55 338.61 2062.45C329.7 2039.24 322.71 2012.62 317.97 1985.51C314.885 1967.97 312.769 1950.28 311.63 1932.51C311.236 1926.26 310.986 1920.1 310.88 1914.03C309.97 1878.87 316.5 1852.8 328.82 1834.03C335.002 1824.53 343.144 1816.45 352.7 1810.35C374.7 1796.19 404.02 1791.7 437.64 1793.63C489.81 1796.77 538.64 1815.7 562.85 1862.04C569.575 1875.09 574.157 1889.13 576.42 1903.63V1903.63Z" fill="#127755"/>
<path d="M445.65 1935L442.28 1958.94L328.87 1834.08C335.053 1824.58 343.195 1816.5 352.75 1810.4L445.65 1935Z" fill="#339E7E"/>
<path d="M435.62 2015.18L433.18 2040.32L318 1985.51C314.916 1967.97 312.799 1950.28 311.66 1932.51L435.62 2015.18Z" fill="#339E7E"/>
<path d="M429 2094.3L427.89 2112.68L361.39 2105.98C353.74 2095.37 347.09 2082.72 341.22 2068.68C373.22 2078.33 420.07 2091.74 427.87 2093.98L429 2094.3Z" fill="#339E7E"/>
<path d="M576.42 1903.63L442.28 1959L445.65 1935.06L562.9 1862.15C569.596 1875.16 574.161 1889.17 576.42 1903.63V1903.63Z" fill="#339E7E"/>
<path d="M576.18 1964.38C574.443 1974.72 571.998 1984.93 568.86 1994.94L433.18 2040.32L435.62 2015.18C435.62 2015.18 522.73 1983.58 576.18 1964.38Z" fill="#339E7E"/>
<path d="M546.09 2046.7C540.688 2056.05 534.675 2065.03 528.09 2073.58C526.97 2075.05 525.836 2076.5 524.69 2077.93L427.83 2112.68L425.72 2094.81L427.81 2093.98L546.09 2046.7Z" fill="#339E7E"/>
<path d="M589.49 2764.14C524.49 2701.54 484.1 2612.57 460.05 2515.39C436 2418.21 428.26 2312.91 428.26 2217.9C428.421 2145.56 432.52 2073.28 440.54 2001.39C443.6 1973.73 446.67 1951.39 448.97 1935.93C450.12 1928.21 451.08 1922.22 451.75 1918.16C452.08 1916.16 452.35 1914.59 452.52 1913.56C452.607 1913.04 452.677 1912.65 452.73 1912.39C452.73 1912.13 452.8 1912 452.8 1912C452.961 1911.11 452.76 1910.19 452.244 1909.45C451.727 1908.7 450.936 1908.2 450.045 1908.03C449.154 1907.87 448.236 1908.07 447.492 1908.59C446.748 1909.11 446.24 1909.9 446.08 1910.79V1910.79C446.08 1910.92 421.44 2047.87 421.44 2217.9C421.44 2313.28 429.18 2419.07 453.44 2517.03C477.7 2614.99 518.44 2705.15 584.76 2769.03C585.421 2769.61 586.28 2769.91 587.157 2769.87C588.034 2769.83 588.863 2769.46 589.473 2768.83C590.082 2768.19 590.425 2767.35 590.43 2766.47C590.435 2765.6 590.102 2764.75 589.5 2764.11L589.49 2764.14Z" fill="#0E593B"/>
<path d="M276.55 2584.07C281.85 2578.74 287.26 2573.07 289.42 2565.86C291.97 2557.34 289.55 2548.21 286.86 2539.74C276.144 2506.06 261.17 2473.89 242.3 2444C230.223 2445.4 218.439 2448.67 207.37 2453.7C194.615 2459.6 183.166 2467.99 173.69 2478.37C191.047 2491.02 207.296 2505.13 222.26 2520.54C227.42 2525.85 232.76 2532.22 232.26 2539.61C231.93 2544.45 229.1 2548.7 226.33 2552.69C210.263 2575.82 193.147 2598.18 174.98 2619.77C186.006 2629.02 197.952 2637.1 210.63 2643.91C233.598 2625.09 255.599 2605.11 276.55 2584.07V2584.07Z" fill="#127755"/>
<path d="M208 2543C188.74 2523 171.46 2509.36 157.79 2500.28C155.91 2503.55 154.14 2506.9 152.48 2510.35C137.02 2541.99 135.8 2571.96 156.18 2599.87C185.61 2580.86 218.56 2555.53 208 2543Z" fill="#127755"/>
<path d="M232.25 2539.62C232.76 2532.23 227.42 2525.86 222.25 2520.55C207.286 2505.14 191.037 2491.03 173.68 2478.38C167.607 2485.07 162.288 2492.4 157.82 2500.25C171.49 2509.33 188.82 2522.93 208.03 2542.97C218.55 2555.53 185.6 2580.86 156.21 2599.84C161.677 2607.18 167.969 2613.87 174.96 2619.78C193.087 2598.22 210.203 2575.86 226.31 2552.7C229.09 2548.71 231.92 2544.46 232.25 2539.62Z" fill="#339E7E"/>
<path d="M363.33 2626.4C377.51 2601.61 380.55 2572.03 380.53 2543.47C380.515 2527.41 379.624 2511.37 377.86 2495.41C358.78 2476.11 335.05 2460.82 309.86 2452.35C300.685 2449.18 291.262 2446.77 281.69 2445.15C297.527 2470.66 308.009 2499.12 312.5 2528.81C316.17 2553.51 315.17 2580.31 301.56 2601.24C293.47 2613.67 281.56 2623.07 269.7 2631.98C258.486 2640.41 247.12 2648.61 235.6 2656.6C257.36 2666.86 279.87 2675.45 301.46 2680.68C305.506 2678.62 309.506 2676.44 313.46 2674.13C333.49 2662.3 351.77 2646.6 363.33 2626.4Z" fill="#127755"/>
<path d="M377.86 2495.41C379.624 2511.37 380.515 2527.41 380.53 2543.47C380.53 2572.03 377.53 2601.61 363.33 2626.4C351.77 2646.6 333.49 2662.3 313.45 2674.13C309.53 2676.44 305.53 2678.63 301.45 2680.68C311.817 2683.25 322.38 2684.96 333.03 2685.79C364.62 2662.46 390.95 2631.79 403.44 2594.86C408.607 2579.09 411.614 2562.68 412.38 2546.1C411.3 2543.65 410.15 2541.21 408.93 2538.8C401.001 2522.74 390.506 2508.09 377.86 2495.41V2495.41Z" fill="#339E7E"/>
<path d="M301.6 2601.24C315.21 2580.31 316.21 2553.51 312.54 2528.81C308.05 2499.12 297.567 2470.66 281.73 2445.15C268.707 2442.91 255.431 2442.52 242.3 2444.01C261.169 2473.89 276.144 2506.06 286.86 2539.74C289.55 2548.21 291.97 2557.34 289.42 2565.86C287.26 2573.05 281.85 2578.74 276.55 2584.07C255.596 2605.12 233.591 2625.09 210.62 2643.92L211.62 2644.49C219.46 2648.7 227.48 2652.77 235.62 2656.6C247.14 2648.6 258.507 2640.39 269.72 2631.98C281.6 2623.07 293.51 2613.67 301.6 2601.24Z" fill="#339E7E"/>
<path d="M403.49 2594.86C391 2631.8 364.67 2662.46 333.08 2685.79C366.31 2688.14 394.88 2679.2 411.58 2651.52C428.17 2624.17 428.65 2583.1 412.43 2546.1C411.665 2562.68 408.657 2579.08 403.49 2594.86Z" fill="#127755"/>
<path d="M511.39 2750.57C451.61 2656.41 386.02 2602.81 326.84 2572.84C267.66 2542.87 215 2536.51 181 2536.51C156.15 2536.51 141.27 2539.9 141.07 2539.95C140.188 2540.15 139.422 2540.7 138.941 2541.46C138.46 2542.23 138.303 2543.15 138.505 2544.04C138.707 2544.92 139.25 2545.68 140.016 2546.16C140.782 2546.64 141.708 2546.8 142.59 2546.6V2546.6C142.84 2546.54 157.15 2543.34 181 2543.34C214.16 2543.34 265.74 2549.52 323.8 2578.93C381.86 2608.34 446.45 2660.99 505.67 2754.23C505.91 2754.61 506.223 2754.94 506.589 2755.19C506.956 2755.45 507.37 2755.63 507.807 2755.73C508.245 2755.83 508.697 2755.84 509.138 2755.76C509.58 2755.68 510.002 2755.52 510.38 2755.28C510.758 2755.04 511.085 2754.73 511.343 2754.36C511.6 2753.99 511.783 2753.58 511.88 2753.14C511.978 2752.71 511.988 2752.25 511.911 2751.81C511.834 2751.37 511.67 2750.95 511.43 2750.57H511.39Z" fill="#0E593B"/>
<path d="M2466.16 677.62C2459.16 801.75 2362.57 901.93 2298.59 1008.54C2263.03 1067.8 2231.03 1133.19 2215.3 1200.16C2163.3 1190.46 2108.12 1197.58 2061.01 1221.68C2019.01 1243.19 1976.17 1278.41 1930.56 1266.19C1880.03 1252.66 1862.46 1190.93 1825.77 1153.66C1784.82 1112.06 1720 1103.08 1662.4 1112.57C1604.8 1122.06 1551.14 1147.16 1495.55 1164.99C1439.96 1182.82 1378.67 1193.21 1323.88 1173.07C1271.54 1153.83 1234.27 1110.75 1203.33 1062.97C1219.29 997.637 1232.35 931.637 1242.5 864.97C1314.25 877.69 1392.75 854.68 1443.29 801.64C1511.09 730.5 1531.57 614.64 1618.69 569.16C1710.69 521.16 1834.69 576.79 1921.93 520.6C1986.19 479.22 2003.47 394.9 2041.26 328.47C2087.92 246.47 2178.33 206.72 2266.37 172.72C2353.48 139.08 2413.59 260.63 2425.37 302.77C2459.59 425.07 2473.92 539.92 2466.16 677.62Z" fill="#D3E4FE"/>
<path d="M471.71 587.49C471.71 587.49 497.21 911.1 559.23 946.91C621.25 982.72 813.52 906.51 813.52 906.51L806.63 780.89L633.39 828.19L548.29 602.8L471.71 587.49Z" fill="#FC9590"/>
<path d="M1258.63 1076.18C1258.63 1076.18 1237.87 1248.55 1359.28 1412.97C1454.42 1541.43 1538.28 1564.06 1538.28 1564.06L1607.92 1557.71C1607.92 1557.71 1435.31 1395.35 1395 1220.79L1354.72 1046.22L1258.63 1076.18Z" fill="#FC9590"/>
<path d="M962.89 514.36C962.89 514.36 893.3 608.36 906.73 668.17C920.16 727.98 965.41 769.63 1025.15 735.17C1084.89 700.71 962.89 514.36 962.89 514.36Z" fill="#152A52"/>
<path d="M2551.1 2779C2559.1 2789.73 2563.24 2800.77 2563.24 2812C2563.24 2915.83 2210.17 3000 1774.65 3000C1745.32 3000 1716.37 2999.62 1687.81 2998.87C1576.08 2995.96 1471.39 2987.47 1378.68 2974.61C1336.34 2975.28 1293.36 2975.61 1249.73 2975.61C979.62 2975.61 731.22 2963.01 534.73 2941.91C268.27 2913.29 97.3298 2869.03 97.3298 2819.36C97.3298 2733.06 613.33 2663.1 1249.72 2663.1C1264.13 2663.1 1278.46 2663.14 1292.72 2663.21C1315.39 2659.04 1338.98 2655.16 1363.5 2651.57C1340.3 2629 1327.8 2605 1327.8 2580.1C1327.8 2458.73 1624.72 2358.46 2009.55 2342.91C2043.71 2341.53 2078.52 2340.83 2113.97 2340.82C2190.97 2340.82 2265.36 2344.19 2335.67 2350.47C2661.9 2379.6 2900.12 2471.38 2900.12 2580.1C2900.17 2663 2761.6 2736 2551.1 2779Z" fill="url(#paint1_linear_26_3)"/>
<g style="mix-blend-mode:multiply" opacity="0.5">
<path d="M1040.29 2876C1246.54 2876 1413.73 2842.35 1413.73 2800.85C1413.73 2759.35 1246.54 2725.7 1040.29 2725.7C834.045 2725.7 666.85 2759.35 666.85 2800.85C666.85 2842.35 834.045 2876 1040.29 2876Z" fill="#152A52"/>
</g>
<path d="M1114.87 2686.67C1114.87 2683.25 1081.06 2670.11 1055.61 2660.67C1040.28 2655 1027.98 2650.67 1027.98 2650.67C1027.98 2650.67 990.49 2733.48 992.89 2769.36C1056.55 2791.22 1122.23 2806.91 1189.89 2798.31C1208.94 2796.03 1227.98 2791.7 1243.3 2781.31C1202.14 2763.13 1114.87 2692 1114.87 2686.67Z" fill="#FFB114"/>
<path d="M992.89 2769.44C993.014 2771.79 993.4 2774.12 994.04 2776.39C1003.18 2806.92 1048.34 2806.51 1048.34 2806.51L1160.07 2815.82L1214.36 2820.34C1214.36 2820.34 1267.21 2790.96 1246.36 2782.64C1245.36 2782.25 1244.36 2781.81 1243.36 2781.35C1228.04 2791.78 1209 2796.11 1189.95 2798.35C1122.23 2807 1056.55 2791.3 992.89 2769.44Z" fill="#1A1A1A"/>
<path d="M994 2776.39C1003.14 2806.92 1048.3 2806.51 1048.3 2806.51L1160.03 2815.82C1154.76 2811.24 1148.83 2806.12 1142.46 2800.66C1091.41 2799.27 1041.54 2786.16 992.85 2769.44C992.975 2771.79 993.36 2774.12 994 2776.39V2776.39Z" fill="#1A1A1A"/>
<path d="M1055.61 2660.72C1040.28 2655.05 1027.98 2650.72 1027.98 2650.72C1027.98 2650.72 990.49 2733.53 992.89 2769.41C1041.58 2786.13 1091.45 2799.24 1142.5 2800.63C1121.42 2782.55 1095.5 2760.8 1072.76 2742.9C1045.22 2721.29 1048.18 2686.39 1055.61 2660.72Z" fill="#D38B0B"/>
<path d="M1150.79 2833.11C1147.15 2837.45 1138.65 2842.29 1130.37 2846.32C1118.41 2852.15 1105.1 2854.64 1091.85 2853.53L944.17 2841.22C944.17 2841.22 899 2841.64 889.87 2811.12C888.26 2805.74 888.27 2798.35 889.4 2789.83C894.6 2750.01 923.82 2685.46 923.82 2685.46C923.82 2685.46 1010.7 2715.9 1010.7 2721.39C1010.7 2726.88 1100.33 2805.39 1148.17 2824.55C1153.53 2826.69 1153.62 2829.75 1150.79 2833.11Z" fill="#FFB114"/>
<path d="M1389.82 2087.85C1389.82 2231.59 1126.47 2698.27 1126.47 2698.27C1126.47 2698.27 1025.85 2732.17 1021.56 2677.11C1021.45 2675.91 1021.41 2674.66 1021.41 2673.37C1100.23 2121.59 1148.41 2084.5 1148.41 2084.5C1148.41 2084.5 1044 1866.92 994 1665.87C978.33 1602.76 968 1541.28 968 1488.67L1057.15 1256.97L1233.15 1263.78C1233.15 1263.78 1389.82 1944.1 1389.82 2087.85Z" fill="#152A52"/>
<path d="M1206.61 2088.71C1206.61 2088.71 1063.48 2496.91 1021.56 2677.11C1021.45 2675.91 1021.41 2674.66 1021.41 2673.37C1100.23 2121.59 1148.41 2084.5 1148.41 2084.5C1148.41 2084.5 1044 1866.92 994 1665.87L1082.48 1540.19C1082.48 1540.19 1055.43 1756.66 1118.6 1888.51C1181.77 2020.36 1206.61 2088.71 1206.61 2088.71Z" fill="#102140"/>
<path d="M1099.24 1588.86C1099.24 1588.86 1074.72 1655.59 1074.72 2086.86C1093.72 2180.76 1013.31 2719 1013.31 2719L929.53 2738L907.81 2742.93C786.09 2312.52 883.45 2078.13 883.45 2078.13C883.45 2078.13 772.81 1753.26 772.81 1577.05C772.81 1400.84 863.75 1203.5 863.75 1203.5L891.06 1208.01L1137.33 1248.71L1099.24 1588.86Z" fill="#152A52"/>
<path d="M1100.33 1325.33C1100.33 1325.33 1044.08 1395.57 968.08 1375.92C892.08 1356.27 857.9 1342.71 857.9 1342.71C857.9 1342.71 882.31 1989.43 911.62 2035L940.91 2080.57C940.91 2080.57 850.29 2384.9 929.53 2738L907.81 2742.93C786.09 2312.52 883.45 2078.13 883.45 2078.13C883.45 2078.13 772.81 1753.26 772.81 1577.05C772.81 1400.84 863.75 1203.5 863.75 1203.5L891.06 1208.01L1100.33 1325.33Z" fill="#102140"/>
<path d="M854.65 753.44C857.65 751.73 904.34 739.74 981.65 763.8C1107.59 803.02 1287.29 877.37 1287.29 877.37C1287.29 877.37 1265.96 1006.65 1254.09 1136.23C1246.33 1221 1259.25 1322.54 1227.01 1330.23C1019.08 1379.85 840.61 1265.31 840.61 1265.31C840.61 1265.31 888.22 1185.14 882.36 1102.75C872 957.46 810.88 778.71 854.65 753.44Z" fill="#FFDE70"/>
<path d="M1133.4 804.76C1133.4 804.76 1110.73 1116.89 1121.58 1229.76C1132.43 1342.63 1165.82 1375.97 1165.82 1375.97C1165.82 1375.97 1260.17 1351.84 1279.38 1320.1C1268.07 1233.1 1274.18 1145.53 1274.18 1145.53C1274.18 1145.53 1320.42 886.11 1273.67 854.53C1226.92 822.95 1133.4 804.76 1133.4 804.76Z" fill="#539A11"/>
<path d="M981.61 763.8C981.61 763.8 1063.61 860.54 1056.84 1116.18C1049.84 1380.58 993.84 1355.45 993.84 1355.45L806.63 1304.18L844.47 1133.27C844.47 1133.27 806.63 970.92 806.63 891.57C806.63 715.42 940.32 754.15 981.61 763.8Z" fill="#539A11"/>
<path d="M1137.33 819.7C1137.33 819.7 1133.54 850.27 1080.61 850.27C1027.68 850.27 978.14 772.73 993.67 772.73C1004.56 772.73 1004.5 743.16 1003.51 725.53C1003.07 718.01 1002.51 712.67 1002.51 712.67C1002.51 712.67 977.31 709.9 961.02 701.75C944.73 693.6 943.28 662.44 943.28 570.75C943.28 479.06 1035.28 486.66 1093.2 515.64C1151.12 544.62 1102.07 635.18 1102.07 689.79C1102.07 744.4 1137.33 819.7 1137.33 819.7Z" fill="#FC9590"/>
<path d="M1389.3 1073.9C1368.17 901.33 1253.83 843.12 1253.83 843.12L1233.26 1012.64L1256.52 1119.39C1256.52 1119.39 1400.12 1179 1389.3 1073.9Z" fill="#539A11"/>
<path d="M706.9 804.76C740.2 913.54 740.71 937.96 740.71 937.96L869.3 924.96L951 757.07C951 757.07 815.9 724.52 706.9 804.76Z" fill="#539A11"/>
<path d="M943.26 518.21C943.26 518.21 957.93 569.35 1040.26 616.9C1065.4 734.09 1058.08 798.51 1148.41 804.76C1238.74 811.01 1210.67 758.51 1180.15 703.57C1147.15 641.31 1137.29 603.47 1137.29 603.47C1137.29 603.47 1150.85 514.36 1097.14 496.05C1043.43 477.74 943.26 465.72 943.26 518.21Z" fill="#152A52"/>
<path d="M743.4 1585.94L706.99 1592.67L686.93 1614L682.34 1650.74L638.94 1663.74L614.94 1635.57L586.48 1628.83L552.37 1643.23L519.37 1612.14L531.75 1577.25L523.36 1549.25L493.83 1526.91L504.27 1482.82L540.68 1476.1L560.75 1454.82L565.34 1418.08L608.73 1405.08L632.73 1433.25L661.18 1439.99L695.3 1425.59L728.3 1456.67L715.93 1491.57L724.32 1519.57L753.84 1541.91L743.4 1585.94Z" fill="#FFB114"/>
<path d="M623.84 1578.43C648.185 1578.43 667.92 1558.69 667.92 1534.35C667.92 1510.01 648.185 1490.27 623.84 1490.27C599.495 1490.27 579.76 1510.01 579.76 1534.35C579.76 1558.69 599.495 1578.43 623.84 1578.43Z" fill="white"/>
<path d="M2973.91 2215.19C3014.64 2215.19 3047.65 2182.18 3047.65 2141.45C3047.65 2100.72 3014.64 2067.71 2973.91 2067.71C2933.18 2067.71 2900.17 2100.72 2900.17 2141.45C2900.17 2182.18 2933.18 2215.19 2973.91 2215.19Z" fill="#FDE06E"/>
<path d="M232.09 1858.48C261.764 1858.48 285.82 1834.42 285.82 1804.75C285.82 1775.08 261.764 1751.02 232.09 1751.02C202.416 1751.02 178.36 1775.08 178.36 1804.75C178.36 1834.42 202.416 1858.48 232.09 1858.48Z" fill="#FDE06E"/>
<path d="M1907.22 1801.09C1945.65 1801.09 1976.8 1769.94 1976.8 1731.51C1976.8 1693.08 1945.65 1661.93 1907.22 1661.93C1868.79 1661.93 1837.64 1693.08 1837.64 1731.51C1837.64 1769.94 1868.79 1801.09 1907.22 1801.09Z" fill="#CDC3CC"/>
<path d="M2805.51 2304.68C2830.29 2304.68 2850.37 2284.6 2850.37 2259.82C2850.37 2235.04 2830.29 2214.96 2805.51 2214.96C2780.73 2214.96 2760.65 2235.04 2760.65 2259.82C2760.65 2284.6 2780.73 2304.68 2805.51 2304.68Z" fill="#2868D0"/>
<path d="M341.18 1629C381.778 1629 414.69 1596.09 414.69 1555.49C414.69 1514.89 381.778 1481.98 341.18 1481.98C300.581 1481.98 267.67 1514.89 267.67 1555.49C267.67 1596.09 300.581 1629 341.18 1629Z" fill="#EF5668"/>
<path d="M471.71 587.49C471.71 587.49 483.54 503.37 459.13 459.42C489.24 429.31 564.92 457.8 579.57 496.05C594.22 534.3 548.29 602.8 548.29 602.8L471.71 587.49Z" fill="#FC9590"/>
<g style="mix-blend-mode:multiply" opacity="0.5">
<path d="M1976.77 2650.75C2316.2 2650.75 2591.36 2619.23 2591.36 2580.34C2591.36 2541.45 2316.2 2509.93 1976.77 2509.93C1637.34 2509.93 1362.18 2541.45 1362.18 2580.34C1362.18 2619.23 1637.34 2650.75 1976.77 2650.75Z" fill="#152A52"/>
</g>
<path d="M2131.61 1969.28H1539.93C1500.76 1969.28 1469 2001.04 1469 2040.21V2303.64C1469 2342.81 1500.76 2374.57 1539.93 2374.57H2131.61C2170.78 2374.57 2202.54 2342.81 2202.54 2303.64V2040.21C2202.54 2001.04 2170.78 1969.28 2131.61 1969.28Z" fill="#CCC4CC"/>
<path d="M2176.35 2374.57H1495.18V2398.98H2176.35V2374.57Z" fill="#1A1A1A"/>
<path d="M1752.08 2040.09H1580.36C1572.5 2040.09 1566.12 2046.47 1566.12 2054.33V2106.42C1566.12 2114.28 1572.5 2120.66 1580.36 2120.66H1752.08C1759.94 2120.66 1766.32 2114.28 1766.32 2106.42V2054.33C1766.32 2046.47 1759.94 2040.09 1752.08 2040.09Z" fill="#1A1A1A"/>
<path d="M1757.51 2029.91H1585.79C1577.93 2029.91 1571.55 2036.29 1571.55 2044.15V2096.24C1571.55 2104.1 1577.93 2110.48 1585.79 2110.48H1757.51C1765.37 2110.48 1771.75 2104.1 1771.75 2096.24V2044.15C1771.75 2036.29 1765.37 2029.91 1757.51 2029.91Z" fill="white"/>
<path d="M1672.87 2057.99C1677.81 2057.99 1681.82 2053.98 1681.82 2049.04C1681.82 2044.1 1677.81 2040.09 1672.87 2040.09C1667.93 2040.09 1663.92 2044.1 1663.92 2049.04C1663.92 2053.98 1667.93 2057.99 1672.87 2057.99Z" fill="#EB485C"/>
<path d="M1752.08 2153.11H1580.36C1572.5 2153.11 1566.12 2159.49 1566.12 2167.35V2219.44C1566.12 2227.3 1572.5 2233.68 1580.36 2233.68H1752.08C1759.94 2233.68 1766.32 2227.3 1766.32 2219.44V2167.35C1766.32 2159.49 1759.94 2153.11 1752.08 2153.11Z" fill="#1A1A1A"/>
<path d="M1757.51 2147.1H1585.79C1577.93 2147.1 1571.55 2153.48 1571.55 2161.34V2213.43C1571.55 2221.29 1577.93 2227.67 1585.79 2227.67H1757.51C1765.37 2227.67 1771.75 2221.29 1771.75 2213.43V2161.34C1771.75 2153.48 1765.37 2147.1 1757.51 2147.1Z" fill="white"/>
<path d="M1672.87 2175.18C1677.81 2175.18 1681.82 2171.17 1681.82 2166.23C1681.82 2161.29 1677.81 2157.28 1672.87 2157.28C1667.93 2157.28 1663.92 2161.29 1663.92 2166.23C1663.92 2171.17 1667.93 2175.18 1672.87 2175.18Z" fill="#EB485C"/>
<path d="M2115.86 2265.92H1580.36C1572.5 2265.92 1566.12 2272.3 1566.12 2280.16V2332.25C1566.12 2340.11 1572.5 2346.49 1580.36 2346.49H2115.86C2123.72 2346.49 2130.1 2340.11 2130.1 2332.25V2280.16C2130.1 2272.3 2123.72 2265.92 2115.86 2265.92Z" fill="#DBD2DB"/>
<path d="M2121.29 2259.82H1585.79C1577.93 2259.82 1571.55 2266.2 1571.55 2274.06V2326.15C1571.55 2334.01 1577.93 2340.39 1585.79 2340.39H2121.29C2129.15 2340.39 2135.53 2334.01 2135.53 2326.15V2274.06C2135.53 2266.2 2129.15 2259.82 2121.29 2259.82Z" fill="white"/>
<path d="M1853.54 2287.9C1858.48 2287.9 1862.49 2283.89 1862.49 2278.95C1862.49 2274.01 1858.48 2270 1853.54 2270C1848.6 2270 1844.59 2274.01 1844.59 2278.95C1844.59 2283.89 1848.6 2287.9 1853.54 2287.9Z" fill="#1A1A1A"/>
<path d="M2113.56 2020.15H1815.69C1803.56 2020.15 1793.72 2029.99 1793.72 2042.12V2205.71C1793.72 2217.84 1803.56 2227.68 1815.69 2227.68H2113.56C2125.69 2227.68 2135.53 2217.84 2135.53 2205.71V2042.12C2135.53 2029.99 2125.69 2020.15 2113.56 2020.15Z" fill="#152A52"/>
<path d="M1967.08 2224.03H1938.98L1970.03 2100.1H1998.13L1967.08 2224.03Z" fill="#FFB114"/>
<path d="M2012.17 2224.03H1984.08L2015.13 2100.1H2043.22L2012.17 2224.03Z" fill="white"/>
<path d="M2057.27 2224.03H2029.18L2060.23 2100.1H2088.32L2057.27 2224.03Z" fill="white"/>
<path d="M2102.37 2224.03H2074.28L2105.33 2100.1H2133.42L2102.37 2224.03Z" fill="#FFB114"/>
<path d="M1530.04 2398.98H1495.18V2582.09H1530.04V2398.98Z" fill="#1A1A1A"/>
<path d="M2170.39 2398.98H2135.53V2582.09H2170.39V2398.98Z" fill="#1A1A1A"/>
<path d="M2201 1953.69H2387.14V1854.4H2201L2166.17 1890.08C2159.67 1896.74 2159.67 1911.35 2166.17 1918.01L2201 1953.69Z" fill="#E8766F"/>
<path d="M2149.54 1716.86H2387.18V1617.58H2149.54L2105.08 1653.26C2096.78 1659.92 2096.78 1674.52 2105.08 1681.18L2149.54 1716.86Z" fill="#E8766F"/>
<path d="M2389.28 1580.42H2399.73C2404.17 1580.42 2408.43 1582.18 2411.57 1585.33C2414.71 1588.47 2416.48 1592.73 2416.48 1597.17V2560H2372.53V1597.17C2372.53 1592.73 2374.29 1588.47 2377.44 1585.33C2380.58 1582.18 2384.84 1580.42 2389.28 1580.42Z" fill="#1A1A1A"/>
<path d="M2632.14 1830.8H2394.5V1731.51H2632.14L2676.59 1767.2C2684.89 1773.86 2684.89 1788.46 2676.59 1795.12L2632.14 1830.8Z" fill="#FFB114"/>
<path d="M1574.24 1523.09C1574.24 1523.09 1693.3 1553.25 1693.3 1606.96C1693.3 1618.74 1671.2 1637.4 1665.58 1645.09C1645.58 1672.45 1615.78 1669.32 1615.78 1669.32L1577.67 1618.86L1538.26 1564.06L1574.24 1523.09Z" fill="#FC9590"/>
<path d="M1517.1 1668.77L1683.1 1499.15L1746.55 1538.91L1570.68 1714.25C1570.68 1714.25 1484.74 1723 1517.1 1668.77Z" fill="#FFDE70"/>
<path d="M1746.64 1539.02C1752.85 1529.12 1743.68 1512.19 1726.16 1501.21C1708.64 1490.22 1689.4 1489.35 1683.2 1499.25C1676.99 1509.15 1686.16 1526.08 1703.68 1537.06C1721.2 1548.05 1740.44 1548.92 1746.64 1539.02Z" fill="#FFB114"/>
<path d="M1605.19 1567.45C1605.19 1567.45 1598.56 1601.07 1618.98 1612.31C1639.4 1623.55 1631.98 1629.16 1620.93 1635.25C1609.88 1641.34 1593.78 1625.43 1568.58 1607.98C1548.08 1594.6 1605.19 1567.45 1605.19 1567.45Z" fill="#FC9590"/>
<path d="M1696.69 1497.6C1695.69 1498.6 1679.08 1509.49 1702.69 1523.1C1726.3 1536.71 1745.28 1538.29 1735.78 1526.1C1726.28 1513.91 1706.86 1487.43 1696.69 1497.6Z" fill="#D89113"/>
<path d="M2017.8 1532.63C1987.4 1532.62 1958.25 1520.55 1936.75 1499.05C1915.25 1477.55 1903.18 1448.4 1903.17 1418V494.81C1903.17 464.408 1915.25 435.252 1936.74 413.755C1958.24 392.257 1987.4 380.18 2017.8 380.18H2493.89C2524.29 380.18 2553.45 392.257 2574.95 413.755C2596.44 435.252 2608.52 464.408 2608.52 494.81V1418C2608.51 1448.4 2596.44 1477.55 2574.94 1499.05C2553.44 1520.55 2524.29 1532.62 2493.89 1532.63H2017.8Z" fill="#102140"/>
<path d="M1994.47 1514.18C1979.42 1514.18 1964.51 1511.22 1950.6 1505.45C1936.7 1499.69 1924.06 1491.25 1913.41 1480.61C1902.77 1469.96 1894.33 1457.32 1888.57 1443.42C1882.8 1429.51 1879.84 1414.6 1879.84 1399.55V476.36C1879.84 461.307 1882.8 446.401 1888.57 432.493C1894.33 418.585 1902.77 405.949 1913.41 395.304C1924.06 384.66 1936.7 376.216 1950.6 370.456C1964.51 364.695 1979.42 361.73 1994.47 361.73H2470.56C2500.96 361.73 2530.12 373.807 2551.62 395.304C2573.11 416.802 2585.19 445.958 2585.19 476.36V1399.55C2585.19 1429.95 2573.11 1459.11 2551.62 1480.61C2530.12 1502.1 2500.96 1514.18 2470.56 1514.18H1994.47Z" fill="#DBD2DB"/>
<path d="M2470.55 410.12H1994.47C1957.89 410.12 1928.23 439.777 1928.23 476.36V1399.54C1928.23 1436.12 1957.89 1465.78 1994.47 1465.78H2470.55C2507.13 1465.78 2536.79 1436.12 2536.79 1399.54V476.36C2536.79 439.777 2507.13 410.12 2470.55 410.12Z" fill="white"/>
<path d="M2497 1024.75V1373.31C2497 1382.61 2493.3 1391.53 2486.72 1398.11C2480.14 1404.69 2471.22 1408.38 2461.92 1408.38H2003.16C1998.55 1408.38 1993.99 1407.48 1989.74 1405.71C1985.48 1403.95 1981.62 1401.37 1978.36 1398.11C1975.1 1394.85 1972.52 1390.99 1970.76 1386.73C1968.99 1382.48 1968.09 1377.92 1968.09 1373.31V1024.75C1968.09 1020.14 1968.99 1015.58 1970.76 1011.33C1972.52 1007.07 1975.1 1003.21 1978.36 999.949C1981.62 996.692 1985.48 994.109 1989.74 992.347C1993.99 990.585 1998.55 989.679 2003.16 989.68H2461.87C2466.48 989.672 2471.05 990.574 2475.31 992.332C2479.57 994.091 2483.44 996.673 2486.71 999.931C2489.97 1003.19 2492.56 1007.06 2494.32 1011.32C2496.09 1015.57 2497 1020.14 2497 1024.75V1024.75Z" fill="url(#paint2_linear_26_3)"/>
<path d="M2497 1066.1V1373.31C2497 1382.61 2493.3 1391.53 2486.72 1398.11C2480.14 1404.69 2471.22 1408.38 2461.92 1408.38H2003.16C1998.55 1408.38 1993.99 1407.48 1989.74 1405.71C1985.48 1403.95 1981.62 1401.37 1978.36 1398.11C1975.1 1394.85 1972.52 1390.99 1970.76 1386.73C1968.99 1382.48 1968.09 1377.92 1968.09 1373.31V1305.14C1968.09 1305.14 2049.35 1244.62 2147.01 1268.7C2244.67 1292.78 2238.74 1183.7 2274.26 1128.39C2309.78 1073.08 2331.92 1141.39 2403.85 1115.39C2437.09 1103.48 2468.46 1086.88 2497 1066.1V1066.1Z" fill="#FFCF4A"/>
<path d="M2111.55 410.12H2353.47V413.38C2353.47 424.729 2348.96 435.613 2340.94 443.637C2332.91 451.662 2322.03 456.17 2310.68 456.17H2154.34C2142.99 456.17 2132.11 451.662 2124.08 443.637C2116.06 435.613 2111.55 424.729 2111.55 413.38V410.12Z" fill="#DBD2DB"/>
<path d="M455.08 414.75H81.5098L429.59 256.42L433.11 278.27L434.2 285.1L452.76 278.27L455.08 414.75Z" fill="#FFB114"/>
<path d="M2282.94 1214C2275.15 1215.09 2267.29 1215.93 2259.36 1216.52C2259.1 1216.54 2258.84 1216.61 2258.61 1216.73C2258.37 1216.85 2258.16 1217.01 2257.99 1217.21C2257.64 1217.61 2257.47 1218.13 2257.5 1218.67C2257.54 1219.2 2257.79 1219.69 2258.19 1220.04C2258.6 1220.38 2259.12 1220.56 2259.65 1220.52V1220.52C2267.65 1219.93 2275.6 1219.09 2283.49 1217.98C2283.97 1217.86 2284.39 1217.57 2284.67 1217.16C2284.94 1216.75 2285.06 1216.25 2284.99 1215.76C2284.92 1215.27 2284.67 1214.83 2284.3 1214.51C2283.92 1214.19 2283.43 1214.02 2282.94 1214.04V1214Z" fill="#E2B433"/>
<path d="M1792.45 932.67C1792.31 932.428 1792.11 932.219 1791.88 932.057C1791.65 931.895 1791.39 931.784 1791.11 931.731C1790.83 931.677 1790.55 931.683 1790.28 931.747C1790 931.812 1789.74 931.933 1789.52 932.104C1789.3 932.275 1789.11 932.491 1788.98 932.739C1788.84 932.986 1788.76 933.26 1788.74 933.541C1788.72 933.822 1788.75 934.104 1788.85 934.369C1788.94 934.634 1789.09 934.877 1789.29 935.08V935.08C1794.17 941.5 1799.04 947.79 1803.9 953.95C1804.25 954.297 1804.71 954.505 1805.2 954.535C1805.69 954.564 1806.17 954.412 1806.56 954.109C1806.94 953.805 1807.2 953.371 1807.29 952.888C1807.37 952.405 1807.28 951.907 1807.02 951.49C1802.18 945.35 1797.32 939.077 1792.45 932.67Z" fill="#E2B433"/>
<path d="M1885.14 1041.15C1884.76 1040.83 1884.27 1040.66 1883.78 1040.68C1883.28 1040.7 1882.81 1040.9 1882.45 1041.25C1882.1 1041.59 1881.88 1042.06 1881.85 1042.56C1881.82 1043.05 1881.98 1043.54 1882.29 1043.93C1887.93 1049.72 1893.55 1055.35 1899.16 1060.83C1899.55 1061.14 1900.04 1061.3 1900.53 1061.27C1901.03 1061.24 1901.5 1061.02 1901.84 1060.67C1902.19 1060.31 1902.39 1059.84 1902.41 1059.34C1902.43 1058.85 1902.26 1058.36 1901.94 1057.98C1896.36 1052.53 1890.76 1046.92 1885.14 1041.15Z" fill="#E2B433"/>
<path d="M1737.15 855.15C1737.02 854.897 1736.84 854.674 1736.62 854.496C1736.4 854.318 1736.14 854.189 1735.87 854.118C1735.59 854.047 1735.31 854.035 1735.03 854.082C1734.75 854.13 1734.48 854.237 1734.25 854.396C1734.01 854.554 1733.81 854.761 1733.66 855.003C1733.52 855.244 1733.42 855.514 1733.38 855.796C1733.35 856.077 1733.37 856.363 1733.45 856.634C1733.53 856.906 1733.67 857.156 1733.86 857.37C1738.34 864.037 1742.82 870.61 1747.29 877.09C1747.42 877.338 1747.61 877.555 1747.83 877.727C1748.05 877.899 1748.31 878.022 1748.58 878.088C1748.86 878.154 1749.14 878.161 1749.42 878.11C1749.69 878.058 1749.96 877.949 1750.19 877.789C1750.42 877.629 1750.62 877.422 1750.76 877.181C1750.91 876.94 1751 876.672 1751.04 876.392C1751.07 876.113 1751.05 875.83 1750.96 875.56C1750.88 875.291 1750.74 875.042 1750.56 874.83C1746.1 868.383 1741.63 861.823 1737.15 855.15Z" fill="#E2B433"/>
<path d="M1711.11 815.28C1710.99 815.024 1710.81 814.797 1710.6 814.614C1710.38 814.43 1710.13 814.295 1709.86 814.216C1709.58 814.138 1709.3 814.118 1709.02 814.159C1708.74 814.199 1708.47 814.298 1708.23 814.45C1707.99 814.602 1707.79 814.804 1707.63 815.04C1707.48 815.277 1707.37 815.545 1707.33 815.824C1707.28 816.104 1707.3 816.39 1707.37 816.664C1707.45 816.937 1707.58 817.192 1707.76 817.41C1712.07 824.197 1716.38 830.883 1720.68 837.47C1720.81 837.722 1720.98 837.944 1721.2 838.122C1721.42 838.301 1721.67 838.431 1721.95 838.504C1722.22 838.578 1722.5 838.593 1722.78 838.549C1723.06 838.505 1723.32 838.403 1723.56 838.249C1723.8 838.095 1724 837.893 1724.15 837.657C1724.3 837.42 1724.4 837.154 1724.44 836.875C1724.49 836.597 1724.47 836.313 1724.4 836.041C1724.32 835.77 1724.19 835.517 1724.01 835.3C1719.72 828.72 1715.42 822.047 1711.11 815.28Z" fill="#E2B433"/>
<path d="M1821.92 970.05C1821.57 969.7 1821.1 969.493 1820.61 969.469C1820.11 969.444 1819.62 969.605 1819.24 969.918C1818.86 970.232 1818.6 970.677 1818.53 971.167C1818.46 971.657 1818.57 972.157 1818.84 972.57C1823.95 978.823 1829.04 984.933 1834.13 990.9C1834.28 991.146 1834.48 991.357 1834.72 991.518C1834.97 991.678 1835.24 991.785 1835.52 991.829C1835.81 991.874 1836.1 991.857 1836.38 991.778C1836.66 991.699 1836.92 991.561 1837.14 991.373C1837.36 991.184 1837.53 990.951 1837.65 990.688C1837.77 990.425 1837.83 990.139 1837.83 989.85C1837.83 989.561 1837.77 989.275 1837.65 989.013C1837.53 988.75 1837.35 988.517 1837.13 988.33C1832.08 982.37 1827.01 976.277 1821.92 970.05Z" fill="#E2B433"/>
<path d="M1852.77 1006.29C1852.6 1006.08 1852.39 1005.91 1852.15 1005.78C1851.91 1005.65 1851.65 1005.58 1851.38 1005.55C1851.11 1005.53 1850.84 1005.56 1850.59 1005.65C1850.33 1005.73 1850.09 1005.87 1849.89 1006.04C1849.69 1006.22 1849.52 1006.44 1849.41 1006.68C1849.29 1006.93 1849.23 1007.19 1849.21 1007.46C1849.2 1007.73 1849.25 1008 1849.34 1008.25C1849.44 1008.51 1849.58 1008.74 1849.77 1008.93V1008.93C1855.14 1014.97 1860.49 1020.86 1865.82 1026.61C1865.99 1026.84 1866.2 1027.03 1866.44 1027.17C1866.69 1027.32 1866.96 1027.4 1867.24 1027.43C1867.53 1027.46 1867.81 1027.43 1868.08 1027.34C1868.35 1027.25 1868.59 1027.1 1868.8 1026.91C1869.01 1026.71 1869.17 1026.48 1869.28 1026.22C1869.4 1025.96 1869.45 1025.68 1869.44 1025.39C1869.43 1025.11 1869.37 1024.83 1869.25 1024.57C1869.12 1024.32 1868.95 1024.09 1868.73 1023.91C1863.44 1018.19 1858.12 1012.32 1852.77 1006.29Z" fill="#E2B433"/>
<path d="M1764.23 894.32C1764.09 894.072 1763.91 893.855 1763.68 893.685C1763.46 893.514 1763.2 893.393 1762.92 893.33C1762.64 893.267 1762.36 893.263 1762.08 893.319C1761.8 893.375 1761.54 893.488 1761.31 893.653C1761.08 893.818 1760.89 894.029 1760.75 894.274C1760.6 894.518 1760.52 894.79 1760.49 895.072C1760.46 895.353 1760.49 895.637 1760.58 895.906C1760.66 896.175 1760.81 896.422 1761 896.63C1765.67 903.19 1770.33 909.634 1775 915.96C1775.14 916.207 1775.33 916.422 1775.56 916.59C1775.78 916.759 1776.04 916.877 1776.32 916.936C1776.6 916.996 1776.88 916.997 1777.16 916.938C1777.44 916.879 1777.7 916.761 1777.93 916.594C1778.16 916.426 1778.35 916.212 1778.49 915.965C1778.62 915.719 1778.71 915.445 1778.74 915.163C1778.76 914.881 1778.73 914.597 1778.63 914.329C1778.54 914.061 1778.39 913.816 1778.2 913.61C1773.55 907.304 1768.9 900.874 1764.23 894.32Z" fill="#E2B433"/>
<path d="M1686 774.79C1685.88 774.535 1685.71 774.308 1685.5 774.123C1685.29 773.938 1685.04 773.8 1684.77 773.718C1684.5 773.636 1684.22 773.611 1683.94 773.646C1683.66 773.681 1683.39 773.775 1683.15 773.92C1682.91 774.066 1682.7 774.261 1682.54 774.492C1682.38 774.724 1682.27 774.986 1682.22 775.263C1682.17 775.539 1682.17 775.824 1682.24 776.097C1682.31 776.371 1682.43 776.627 1682.6 776.85V776.85C1686.76 783.73 1690.91 790.514 1695.06 797.2C1695.36 797.586 1695.8 797.846 1696.28 797.931C1696.77 798.017 1697.26 797.921 1697.68 797.663C1698.1 797.405 1698.41 797.002 1698.55 796.531C1698.69 796.06 1698.65 795.555 1698.44 795.11C1694.31 788.43 1690.16 781.657 1686 774.79Z" fill="#E2B433"/>
<path d="M1586.09 612.27C1585.96 612.019 1585.77 611.799 1585.55 611.625C1585.32 611.452 1585.06 611.328 1584.79 611.262C1584.51 611.196 1584.22 611.19 1583.94 611.244C1583.67 611.298 1583.4 611.41 1583.17 611.574C1582.94 611.738 1582.74 611.95 1582.6 612.195C1582.45 612.44 1582.36 612.713 1582.33 612.995C1582.3 613.277 1582.33 613.563 1582.42 613.833C1582.51 614.103 1582.66 614.351 1582.85 614.56C1587.38 620.987 1591.88 627.517 1596.35 634.15C1596.67 634.528 1597.11 634.775 1597.6 634.844C1598.09 634.912 1598.59 634.798 1599 634.523C1599.41 634.247 1599.7 633.83 1599.82 633.351C1599.94 632.873 1599.88 632.367 1599.65 631.93C1595.16 625.31 1590.64 618.757 1586.09 612.27Z" fill="#E2B433"/>
<path d="M1527.77 536.67C1527.41 536.362 1526.95 536.193 1526.47 536.194C1525.99 536.195 1525.53 536.365 1525.17 536.675C1524.81 536.985 1524.57 537.413 1524.5 537.883C1524.42 538.353 1524.52 538.834 1524.77 539.24C1529.85 545.24 1534.9 551.353 1539.92 557.58C1540.27 557.937 1540.74 558.151 1541.23 558.181C1541.73 558.211 1542.22 558.054 1542.61 557.741C1543 557.429 1543.25 556.983 1543.33 556.49C1543.41 555.998 1543.3 555.495 1543.02 555.08C1537.95 548.84 1532.87 542.704 1527.77 536.67Z" fill="#E2B433"/>
<path d="M1612.8 651.85C1612.49 651.466 1612.05 651.21 1611.56 651.132C1611.07 651.055 1610.57 651.16 1610.16 651.428C1609.74 651.696 1609.44 652.108 1609.31 652.585C1609.19 653.062 1609.24 653.569 1609.46 654.01V654.01C1613.74 660.617 1617.98 667.32 1622.19 674.12C1622.31 674.375 1622.48 674.602 1622.7 674.785C1622.91 674.969 1623.16 675.106 1623.43 675.186C1623.7 675.266 1623.98 675.288 1624.26 675.251C1624.54 675.214 1624.81 675.118 1625.05 674.97C1625.29 674.821 1625.5 674.624 1625.66 674.391C1625.81 674.158 1625.92 673.893 1625.97 673.616C1626.02 673.338 1626.01 673.053 1625.94 672.78C1625.87 672.507 1625.74 672.251 1625.57 672.03C1621.34 665.21 1617.09 658.483 1612.8 651.85Z" fill="#E2B433"/>
<path d="M1638 692.45C1637.89 692.186 1637.73 691.948 1637.52 691.753C1637.31 691.557 1637.06 691.409 1636.79 691.317C1636.52 691.226 1636.23 691.194 1635.95 691.223C1635.66 691.252 1635.39 691.342 1635.14 691.486C1634.89 691.63 1634.68 691.826 1634.52 692.06C1634.35 692.293 1634.24 692.559 1634.19 692.84C1634.13 693.121 1634.14 693.41 1634.21 693.688C1634.28 693.966 1634.4 694.226 1634.58 694.45C1638.58 701.21 1642.58 708.07 1646.58 715.03C1646.7 715.279 1646.87 715.5 1647.08 715.68C1647.29 715.86 1647.53 715.995 1647.79 716.077C1648.06 716.158 1648.34 716.184 1648.61 716.153C1648.88 716.121 1649.15 716.034 1649.39 715.896C1649.63 715.757 1649.83 715.571 1650 715.349C1650.16 715.126 1650.27 714.873 1650.33 714.604C1650.4 714.335 1650.4 714.056 1650.35 713.785C1650.29 713.514 1650.19 713.257 1650.03 713.03C1646.01 706.097 1642 699.237 1638 692.45Z" fill="#E2B433"/>
<path d="M1661.77 733.78C1661.65 733.525 1661.49 733.297 1661.28 733.111C1661.07 732.924 1660.82 732.784 1660.56 732.699C1660.29 732.614 1660.01 732.585 1659.73 732.615C1659.45 732.646 1659.18 732.734 1658.94 732.875C1658.7 733.015 1658.49 733.205 1658.33 733.432C1658.16 733.659 1658.05 733.917 1657.99 734.191C1657.93 734.465 1657.93 734.748 1657.99 735.021C1658.05 735.295 1658.17 735.554 1658.33 735.78V735.78C1662.33 742.733 1666.33 749.6 1670.33 756.38C1670.44 756.644 1670.6 756.882 1670.81 757.078C1671.02 757.273 1671.27 757.421 1671.54 757.513C1671.81 757.604 1672.1 757.636 1672.38 757.607C1672.67 757.578 1672.94 757.488 1673.19 757.344C1673.44 757.2 1673.65 757.004 1673.81 756.771C1673.98 756.537 1674.09 756.271 1674.14 755.99C1674.2 755.709 1674.19 755.42 1674.12 755.142C1674.05 754.864 1673.93 754.604 1673.75 754.38C1669.78 747.593 1665.78 740.727 1661.77 733.78Z" fill="#E2B433"/>
<path d="M1557.76 573.83C1557.62 573.587 1557.42 573.377 1557.19 573.215C1556.96 573.053 1556.69 572.941 1556.41 572.889C1556.14 572.836 1555.85 572.843 1555.57 572.909C1555.3 572.975 1555.04 573.099 1554.82 573.272C1554.59 573.445 1554.41 573.664 1554.28 573.914C1554.14 574.164 1554.06 574.439 1554.05 574.722C1554.03 575.004 1554.07 575.287 1554.17 575.553C1554.27 575.818 1554.42 576.059 1554.62 576.26V576.26C1559.42 582.494 1564.19 588.827 1568.93 595.26C1569.24 595.682 1569.71 595.963 1570.23 596.041C1570.75 596.12 1571.28 595.99 1571.71 595.68C1572.13 595.366 1572.41 594.897 1572.49 594.377C1572.57 593.856 1572.44 593.326 1572.13 592.9C1567.38 586.44 1562.59 580.084 1557.76 573.83Z" fill="#E2B433"/>
<path d="M2374.47 1189.72C2367.1 1192.59 2359.66 1195.25 2352.14 1197.72C2351.86 1197.77 2351.6 1197.89 2351.37 1198.05C2351.13 1198.22 2350.94 1198.43 2350.8 1198.67C2350.65 1198.92 2350.56 1199.19 2350.53 1199.47C2350.5 1199.75 2350.53 1200.04 2350.62 1200.31C2350.71 1200.58 2350.86 1200.83 2351.05 1201.03C2351.24 1201.24 2351.47 1201.41 2351.73 1201.52C2352 1201.63 2352.28 1201.69 2352.56 1201.68C2352.84 1201.68 2353.12 1201.61 2353.38 1201.49C2360.97 1198.99 2368.48 1196.29 2375.92 1193.38C2376.19 1193.31 2376.45 1193.18 2376.67 1193C2376.88 1192.82 2377.06 1192.6 2377.19 1192.35C2377.32 1192.1 2377.39 1191.82 2377.4 1191.54C2377.42 1191.26 2377.37 1190.98 2377.27 1190.72C2377.17 1190.46 2377.01 1190.22 2376.81 1190.02C2376.61 1189.82 2376.37 1189.67 2376.1 1189.57C2375.84 1189.47 2375.56 1189.43 2375.27 1189.45C2374.99 1189.47 2374.72 1189.55 2374.47 1189.68V1189.72Z" fill="#E2B433"/>
<path d="M2329.4 1204.56C2321.78 1206.6 2314.09 1208.42 2306.32 1210.01C2305.85 1210.16 2305.45 1210.47 2305.19 1210.9C2304.94 1211.33 2304.86 1211.83 2304.95 1212.32C2305.05 1212.8 2305.33 1213.23 2305.73 1213.53C2306.12 1213.82 2306.62 1213.96 2307.11 1213.91C2314.96 1212.3 2322.74 1210.46 2330.43 1208.4C2330.71 1208.36 2330.98 1208.27 2331.22 1208.12C2331.47 1207.97 2331.67 1207.77 2331.83 1207.54C2331.99 1207.3 2332.1 1207.03 2332.15 1206.75C2332.19 1206.47 2332.18 1206.19 2332.11 1205.91C2332.04 1205.64 2331.91 1205.38 2331.73 1205.16C2331.55 1204.94 2331.33 1204.76 2331.08 1204.63C2330.82 1204.5 2330.54 1204.43 2330.26 1204.42C2329.98 1204.41 2329.69 1204.45 2329.43 1204.56H2329.4Z" fill="#E2B433"/>
<path d="M2235.66 1217.52H2233.15C2226.14 1217.52 2219.08 1217.31 2211.97 1216.88C2211.71 1216.86 2211.44 1216.9 2211.2 1216.99C2210.95 1217.07 2210.72 1217.21 2210.52 1217.38C2210.32 1217.56 2210.16 1217.77 2210.05 1218C2209.93 1218.24 2209.87 1218.5 2209.85 1218.76C2209.83 1219.02 2209.87 1219.29 2209.96 1219.53C2210.04 1219.78 2210.18 1220.01 2210.35 1220.21C2210.53 1220.41 2210.74 1220.57 2210.97 1220.68C2211.21 1220.8 2211.47 1220.86 2211.73 1220.88V1220.88C2218.92 1221.31 2226.06 1221.53 2233.15 1221.52H2235.69C2236.22 1221.52 2236.73 1221.31 2237.1 1220.93C2237.48 1220.56 2237.69 1220.05 2237.69 1219.52C2237.69 1218.99 2237.48 1218.48 2237.1 1218.11C2236.73 1217.73 2236.22 1217.52 2235.69 1217.52H2235.66Z" fill="#E2B433"/>
<path d="M2417.81 1170.33C2410.75 1173.89 2403.6 1177.29 2396.37 1180.54C2395.94 1180.79 2395.62 1181.19 2395.47 1181.66C2395.32 1182.13 2395.34 1182.64 2395.55 1183.09C2395.75 1183.54 2396.11 1183.9 2396.57 1184.1C2397.02 1184.3 2397.53 1184.33 2398 1184.17C2405.28 1180.9 2412.48 1177.47 2419.6 1173.88C2419.86 1173.78 2420.1 1173.63 2420.3 1173.43C2420.5 1173.24 2420.66 1173 2420.76 1172.74C2420.87 1172.47 2420.91 1172.19 2420.9 1171.91C2420.89 1171.63 2420.81 1171.36 2420.69 1171.11C2420.56 1170.85 2420.38 1170.63 2420.16 1170.46C2419.95 1170.28 2419.69 1170.15 2419.42 1170.08C2419.15 1170 2418.87 1169.99 2418.59 1170.03C2418.31 1170.07 2418.05 1170.18 2417.81 1170.33Z" fill="#E2B433"/>
<path d="M2501.79 1121.47C2501.48 1121.04 2501.02 1120.75 2500.5 1120.67C2499.98 1120.58 2499.45 1120.7 2499.02 1121C2492.56 1125.57 2486.02 1130.05 2479.39 1134.43C2479.02 1134.75 2478.78 1135.19 2478.71 1135.67C2478.64 1136.15 2478.76 1136.64 2479.02 1137.05C2479.29 1137.46 2479.7 1137.75 2480.17 1137.88C2480.64 1138.01 2481.14 1137.96 2481.58 1137.74C2488.25 1133.34 2494.83 1128.84 2501.32 1124.24C2501.75 1123.93 2502.04 1123.47 2502.12 1122.95C2502.21 1122.43 2502.09 1121.9 2501.79 1121.47Z" fill="#E2B433"/>
<path d="M1919.18 1074.35C1918.78 1074.07 1918.3 1073.94 1917.81 1073.99C1917.32 1074.04 1916.87 1074.26 1916.54 1074.62C1916.21 1074.98 1916.02 1075.45 1916.01 1075.93C1916 1076.42 1916.17 1076.9 1916.49 1077.27C1922.44 1082.77 1928.37 1088.1 1934.28 1093.27C1934.68 1093.55 1935.18 1093.67 1935.67 1093.61C1936.16 1093.55 1936.61 1093.31 1936.93 1092.94C1937.25 1092.57 1937.43 1092.09 1937.42 1091.6C1937.41 1091.1 1937.22 1090.63 1936.89 1090.27C1931.01 1085.12 1925.11 1079.82 1919.18 1074.35Z" fill="#E2B433"/>
<path d="M2459.32 1147.18C2452.56 1151.31 2445.72 1155.31 2438.8 1159.18C2438.4 1159.47 2438.13 1159.89 2438.02 1160.37C2437.92 1160.84 2437.99 1161.34 2438.23 1161.77C2438.47 1162.2 2438.85 1162.52 2439.31 1162.68C2439.77 1162.85 2440.28 1162.83 2440.73 1162.65C2447.7 1158.75 2454.58 1154.72 2461.39 1150.57C2461.65 1150.45 2461.88 1150.28 2462.06 1150.07C2462.25 1149.86 2462.39 1149.61 2462.47 1149.34C2462.55 1149.07 2462.58 1148.78 2462.54 1148.5C2462.5 1148.22 2462.41 1147.95 2462.26 1147.71C2462.12 1147.47 2461.92 1147.26 2461.69 1147.1C2461.45 1146.94 2461.19 1146.83 2460.91 1146.78C2460.63 1146.73 2460.35 1146.74 2460.07 1146.81C2459.8 1146.88 2459.54 1147.01 2459.32 1147.18V1147.18Z" fill="#E2B433"/>
<path d="M2012.66 1147.43C2006.12 1143.23 1999.55 1138.82 1992.94 1134.2C1992.51 1133.96 1992 1133.89 1991.52 1134C1991.04 1134.11 1990.62 1134.4 1990.33 1134.8C1990.05 1135.21 1989.93 1135.7 1989.99 1136.19C1990.05 1136.69 1990.29 1137.14 1990.66 1137.46C1997.33 1142.13 2003.94 1146.57 2010.51 1150.78C2010.95 1151.01 2011.46 1151.06 2011.94 1150.93C2012.42 1150.8 2012.83 1150.5 2013.1 1150.08C2013.37 1149.66 2013.47 1149.16 2013.39 1148.67C2013.31 1148.18 2013.05 1147.74 2012.66 1147.43V1147.43Z" fill="#E2B433"/>
<path d="M1973.75 1120.21C1967.55 1115.51 1961.32 1110.61 1955.07 1105.52C1954.87 1105.32 1954.64 1105.16 1954.37 1105.06C1954.11 1104.95 1953.83 1104.9 1953.55 1104.92C1953.27 1104.93 1952.99 1105 1952.74 1105.13C1952.49 1105.25 1952.26 1105.43 1952.09 1105.65C1951.91 1105.87 1951.78 1106.12 1951.7 1106.4C1951.63 1106.67 1951.62 1106.95 1951.66 1107.23C1951.71 1107.51 1951.81 1107.78 1951.96 1108.01C1952.12 1108.25 1952.32 1108.45 1952.56 1108.6V1108.6C1958.85 1113.72 1965.11 1118.64 1971.35 1123.37C1971.55 1123.57 1971.8 1123.72 1972.06 1123.82C1972.33 1123.92 1972.61 1123.96 1972.9 1123.94C1973.18 1123.92 1973.45 1123.84 1973.7 1123.7C1973.95 1123.57 1974.17 1123.38 1974.34 1123.15C1974.51 1122.93 1974.64 1122.67 1974.7 1122.39C1974.76 1122.11 1974.77 1121.83 1974.71 1121.55C1974.66 1121.27 1974.54 1121.01 1974.37 1120.77C1974.21 1120.54 1974 1120.35 1973.75 1120.21V1120.21Z" fill="#E2B433"/>
<path d="M2053.7 1171.25C2046.81 1167.67 2039.88 1163.86 2032.91 1159.81C2032.46 1159.61 2031.95 1159.58 2031.48 1159.73C2031.01 1159.88 2030.61 1160.2 2030.36 1160.63C2030.11 1161.06 2030.03 1161.56 2030.13 1162.05C2030.23 1162.53 2030.51 1162.96 2030.91 1163.25V1163.25C2037.93 1167.33 2044.91 1171.17 2051.86 1174.78C2052.09 1174.94 2052.36 1175.04 2052.64 1175.09C2052.91 1175.13 2053.2 1175.12 2053.47 1175.05C2053.74 1174.98 2053.99 1174.86 2054.21 1174.68C2054.43 1174.51 2054.61 1174.29 2054.74 1174.04C2054.87 1173.79 2054.95 1173.51 2054.97 1173.23C2054.98 1172.95 2054.94 1172.67 2054.84 1172.41C2054.74 1172.15 2054.59 1171.91 2054.39 1171.71C2054.19 1171.51 2053.95 1171.35 2053.69 1171.25H2053.7Z" fill="#E2B433"/>
<path d="M2141.89 1205.65C2134.36 1203.65 2126.79 1201.42 2119.16 1198.95C2118.68 1198.85 2118.17 1198.92 2117.74 1199.17C2117.31 1199.42 2116.99 1199.81 2116.84 1200.28C2116.68 1200.75 2116.71 1201.26 2116.91 1201.71C2117.11 1202.17 2117.47 1202.53 2117.92 1202.73V1202.73C2125.62 1205.25 2133.29 1207.5 2140.92 1209.49C2141.18 1209.6 2141.47 1209.64 2141.75 1209.63C2142.03 1209.62 2142.31 1209.55 2142.57 1209.42C2142.82 1209.29 2143.04 1209.11 2143.22 1208.89C2143.4 1208.67 2143.53 1208.41 2143.6 1208.14C2143.67 1207.86 2143.68 1207.58 2143.64 1207.3C2143.59 1207.02 2143.48 1206.75 2143.32 1206.51C2143.16 1206.28 2142.96 1206.08 2142.71 1205.93C2142.47 1205.78 2142.2 1205.69 2141.92 1205.65H2141.89Z" fill="#E2B433"/>
<path d="M2188.38 1214.68C2180.64 1213.7 2172.84 1212.45 2164.99 1210.92C2164.5 1210.88 2164.01 1211.03 2163.62 1211.32C2163.23 1211.62 2162.97 1212.05 2162.87 1212.53C2162.78 1213.01 2162.87 1213.51 2163.12 1213.93C2163.37 1214.36 2163.76 1214.67 2164.23 1214.82C2172.17 1216.36 2180.05 1217.63 2187.88 1218.62C2188.15 1218.69 2188.44 1218.7 2188.72 1218.65C2189 1218.6 2189.26 1218.49 2189.49 1218.33C2189.73 1218.17 2189.92 1217.96 2190.07 1217.72C2190.22 1217.48 2190.31 1217.21 2190.35 1216.93C2190.39 1216.65 2190.36 1216.37 2190.28 1216.1C2190.2 1215.83 2190.06 1215.58 2189.87 1215.36C2189.68 1215.15 2189.46 1214.98 2189.2 1214.86C2188.94 1214.74 2188.66 1214.68 2188.38 1214.68V1214.68Z" fill="#E2B433"/>
<path d="M2096.85 1190.93C2089.62 1188.08 2082.35 1184.99 2075.02 1181.66C2074.78 1181.51 2074.51 1181.42 2074.23 1181.38C2073.95 1181.34 2073.66 1181.37 2073.39 1181.45C2073.12 1181.53 2072.87 1181.67 2072.65 1181.86C2072.44 1182.04 2072.27 1182.27 2072.15 1182.53C2072.03 1182.79 2071.97 1183.07 2071.97 1183.35C2071.97 1183.64 2072.03 1183.92 2072.14 1184.18C2072.26 1184.43 2072.43 1184.67 2072.64 1184.85C2072.85 1185.04 2073.1 1185.19 2073.37 1185.27V1185.27C2080.75 1188.64 2088.08 1191.76 2095.37 1194.62C2095.84 1194.74 2096.34 1194.68 2096.77 1194.45C2097.2 1194.23 2097.53 1193.86 2097.71 1193.41C2097.89 1192.96 2097.89 1192.46 2097.73 1192C2097.57 1191.55 2097.24 1191.17 2096.82 1190.93H2096.85Z" fill="#E2B433"/>
<path d="M1390.76 404C1390.56 403.797 1390.32 403.639 1390.06 403.537C1389.79 403.434 1389.51 403.389 1389.22 403.405C1388.94 403.421 1388.66 403.497 1388.41 403.628C1388.16 403.759 1387.94 403.943 1387.76 404.167C1387.58 404.39 1387.46 404.649 1387.39 404.925C1387.32 405.201 1387.31 405.488 1387.37 405.768C1387.42 406.047 1387.53 406.313 1387.69 406.546C1387.85 406.779 1388.07 406.975 1388.31 407.12V407.12C1394.51 411.98 1400.68 416.954 1406.83 422.04C1407.02 422.246 1407.26 422.408 1407.52 422.515C1407.78 422.623 1408.07 422.673 1408.35 422.664C1408.63 422.654 1408.91 422.585 1409.16 422.46C1409.42 422.335 1409.64 422.157 1409.82 421.939C1410 421.721 1410.14 421.467 1410.21 421.194C1410.29 420.921 1410.3 420.635 1410.26 420.355C1410.21 420.076 1410.11 419.808 1409.96 419.571C1409.8 419.334 1409.6 419.133 1409.36 418.98C1403.19 413.834 1396.99 408.84 1390.76 404Z" fill="#E2B433"/>
<path d="M738 229.9C730 230.694 722.083 231.56 714.25 232.5C713.966 232.498 713.685 232.556 713.425 232.671C713.165 232.786 712.933 232.955 712.744 233.166C712.554 233.378 712.412 233.628 712.327 233.898C712.241 234.169 712.214 234.455 712.248 234.737C712.282 235.019 712.375 235.291 712.522 235.534C712.668 235.777 712.865 235.986 713.099 236.147C713.333 236.308 713.599 236.418 713.878 236.468C714.158 236.519 714.444 236.509 714.72 236.44C722.553 235.507 730.443 234.644 738.39 233.85C738.92 233.799 739.408 233.538 739.747 233.127C740.085 232.715 740.247 232.186 740.195 231.655C740.143 231.125 739.883 230.637 739.471 230.298C739.06 229.96 738.53 229.799 738 229.85V229.9Z" fill="#E2B433"/>
<path d="M928.89 227.44C920.89 226.807 912.943 226.273 905.05 225.84C904.52 225.811 903.999 225.993 903.604 226.348C903.208 226.702 902.969 227.199 902.94 227.73C902.911 228.26 903.094 228.781 903.448 229.176C903.803 229.572 904.3 229.811 904.83 229.84C912.724 230.273 920.637 230.803 928.57 231.43C929.101 231.472 929.626 231.302 930.031 230.957C930.436 230.612 930.688 230.12 930.73 229.59C930.773 229.06 930.602 228.534 930.257 228.129C929.912 227.724 929.42 227.472 928.89 227.43V227.44Z" fill="#E2B433"/>
<path d="M785.65 226.15C777.65 226.61 769.706 227.154 761.82 227.78C761.289 227.822 760.797 228.072 760.451 228.476C760.105 228.88 759.934 229.405 759.975 229.935C760.016 230.466 760.266 230.958 760.67 231.304C761.074 231.65 761.599 231.822 762.13 231.78V231.78C769.99 231.16 777.906 230.62 785.88 230.16C786.41 230.13 786.907 229.89 787.26 229.493C787.614 229.097 787.795 228.576 787.765 228.045C787.734 227.515 787.494 227.018 787.098 226.665C786.701 226.311 786.18 226.13 785.65 226.16V226.15Z" fill="#E2B433"/>
<path d="M643.39 243.06C635.47 244.473 627.643 245.943 619.91 247.47C619.629 247.494 619.357 247.576 619.111 247.712C618.865 247.848 618.65 248.034 618.48 248.259C618.311 248.484 618.191 248.742 618.128 249.016C618.065 249.29 618.06 249.574 618.115 249.851C618.169 250.127 618.282 250.388 618.444 250.618C618.607 250.847 618.816 251.04 619.058 251.184C619.3 251.327 619.57 251.418 619.849 251.45C620.129 251.482 620.412 251.455 620.68 251.37C628.393 249.85 636.197 248.387 644.09 246.98C644.368 246.957 644.638 246.877 644.882 246.744C645.127 246.611 645.341 246.428 645.511 246.207C645.681 245.986 645.803 245.732 645.869 245.462C645.936 245.191 645.944 244.91 645.895 244.635C645.846 244.361 645.741 244.1 645.585 243.869C645.429 243.638 645.227 243.442 644.991 243.294C644.755 243.145 644.491 243.048 644.215 243.008C643.939 242.968 643.658 242.985 643.39 243.06Z" fill="#E2B433"/>
<path d="M833.4 224.42C825.4 224.54 817.44 224.743 809.52 225.03C809.257 225.039 808.999 225.1 808.76 225.209C808.521 225.318 808.305 225.473 808.126 225.665C807.947 225.857 807.807 226.083 807.715 226.329C807.623 226.575 807.581 226.837 807.59 227.1C807.599 227.363 807.66 227.621 807.769 227.86C807.878 228.099 808.033 228.314 808.225 228.494C808.418 228.673 808.643 228.812 808.889 228.904C809.136 228.996 809.397 229.039 809.66 229.03C817.553 228.743 825.487 228.543 833.46 228.43C833.723 228.426 833.982 228.37 834.223 228.266C834.464 228.162 834.683 228.011 834.865 227.823C835.048 227.634 835.192 227.412 835.289 227.168C835.386 226.923 835.434 226.663 835.43 226.4C835.426 226.137 835.371 225.878 835.266 225.637C835.162 225.396 835.012 225.177 834.823 224.995C834.635 224.812 834.412 224.668 834.168 224.571C833.924 224.474 833.663 224.426 833.4 224.43V224.42Z" fill="#E2B433"/>
<path d="M881.18 224.82C873.18 224.573 865.217 224.417 857.29 224.35C856.76 224.35 856.251 224.561 855.876 224.936C855.501 225.311 855.29 225.82 855.29 226.35C855.29 226.881 855.501 227.389 855.876 227.764C856.251 228.139 856.76 228.35 857.29 228.35C865.183 228.417 873.113 228.573 881.08 228.82C881.343 228.829 881.604 228.785 881.85 228.693C882.096 228.6 882.321 228.46 882.513 228.28C882.705 228.101 882.859 227.885 882.968 227.646C883.076 227.406 883.136 227.148 883.145 226.885C883.154 226.622 883.11 226.361 883.018 226.115C882.925 225.869 882.785 225.644 882.605 225.452C882.426 225.26 882.21 225.106 881.97 224.997C881.731 224.889 881.473 224.829 881.21 224.82H881.18Z" fill="#E2B433"/>
<path d="M690.58 235.57C682.62 236.677 674.743 237.85 666.95 239.09C666.472 239.217 666.058 239.517 665.788 239.932C665.518 240.346 665.411 240.846 665.488 241.335C665.565 241.823 665.821 242.266 666.205 242.577C666.59 242.889 667.076 243.047 667.57 243.02C675.35 241.78 683.203 240.607 691.13 239.5C691.414 239.497 691.693 239.433 691.95 239.312C692.208 239.192 692.436 239.019 692.621 238.803C692.806 238.588 692.943 238.335 693.023 238.063C693.103 237.791 693.124 237.504 693.084 237.223C693.045 236.942 692.946 236.673 692.795 236.433C692.643 236.193 692.442 235.988 692.205 235.831C691.968 235.675 691.701 235.571 691.421 235.526C691.14 235.481 690.854 235.496 690.58 235.57V235.57Z" fill="#E2B433"/>
<path d="M458.21 289.81C450.41 292.363 442.86 294.903 435.56 297.43C435.112 297.639 434.757 298.007 434.565 298.462C434.372 298.918 434.354 299.428 434.516 299.896C434.678 300.363 435.007 300.754 435.44 300.993C435.872 301.232 436.378 301.302 436.86 301.19C444.14 298.67 451.667 296.137 459.44 293.59C459.888 293.387 460.245 293.025 460.443 292.575C460.642 292.125 460.667 291.618 460.515 291.15C460.363 290.682 460.044 290.287 459.618 290.04C459.193 289.793 458.692 289.711 458.21 289.81V289.81Z" fill="#E2B433"/>
<path d="M413 305.45C405.173 308.31 397.713 311.113 390.62 313.86C390.348 313.932 390.094 314.06 389.876 314.236C389.657 314.413 389.478 314.633 389.35 314.884C389.222 315.134 389.148 315.408 389.134 315.689C389.119 315.97 389.164 316.251 389.265 316.513C389.366 316.775 389.521 317.013 389.72 317.211C389.92 317.41 390.158 317.564 390.421 317.663C390.684 317.763 390.965 317.806 391.245 317.79C391.526 317.774 391.8 317.699 392.05 317.57V317.57C399.123 314.837 406.56 312.04 414.36 309.18C414.636 309.116 414.895 308.994 415.12 308.823C415.346 308.651 415.532 308.434 415.667 308.185C415.802 307.936 415.883 307.661 415.903 307.379C415.924 307.096 415.885 306.812 415.788 306.546C415.691 306.28 415.538 306.038 415.34 305.835C415.143 305.632 414.904 305.474 414.641 305.37C414.377 305.267 414.095 305.22 413.812 305.234C413.529 305.248 413.252 305.321 413 305.45Z" fill="#E2B433"/>
<path d="M596.51 252.3C588.63 254 580.86 255.75 573.2 257.55C572.736 257.715 572.349 258.045 572.114 258.477C571.878 258.909 571.81 259.413 571.923 259.892C572.035 260.372 572.321 260.792 572.724 261.074C573.128 261.356 573.621 261.479 574.11 261.42V261.42C581.737 259.633 589.483 257.89 597.35 256.19C597.821 256.037 598.219 255.715 598.466 255.285C598.713 254.856 598.792 254.35 598.688 253.865C598.583 253.381 598.303 252.953 597.9 252.664C597.498 252.374 597.002 252.245 596.51 252.3V252.3Z" fill="#E2B433"/>
<path d="M368.44 322.68C360.44 325.96 353.086 329.047 346.38 331.94C346.107 332.019 345.854 332.156 345.639 332.34C345.423 332.525 345.249 332.753 345.128 333.01C345.007 333.267 344.943 333.547 344.939 333.831C344.935 334.115 344.991 334.396 345.104 334.657C345.217 334.917 345.384 335.15 345.594 335.341C345.805 335.532 346.053 335.676 346.323 335.763C346.593 335.851 346.879 335.879 347.161 335.848C347.443 335.816 347.715 335.725 347.96 335.58V335.58C354.586 332.72 361.92 329.647 369.96 326.36C370.39 326.124 370.719 325.738 370.883 325.275C371.048 324.813 371.036 324.306 370.851 323.851C370.665 323.396 370.319 323.026 369.878 322.81C369.437 322.594 368.932 322.548 368.46 322.68H368.44Z" fill="#E2B433"/>
<path d="M503.88 275.73C496.06 277.99 488.427 280.27 480.98 282.57C480.528 282.766 480.164 283.121 479.958 283.568C479.751 284.016 479.718 284.524 479.862 284.994C480.007 285.465 480.321 285.866 480.743 286.12C481.165 286.374 481.666 286.463 482.15 286.37C489.577 284.083 497.187 281.807 504.98 279.54C505.262 279.498 505.531 279.395 505.77 279.241C506.009 279.086 506.212 278.881 506.365 278.642C506.519 278.402 506.62 278.132 506.661 277.85C506.702 277.569 506.682 277.281 506.603 277.008C506.524 276.734 506.388 276.481 506.203 276.264C506.018 276.048 505.789 275.873 505.531 275.752C505.273 275.631 504.993 275.566 504.708 275.563C504.423 275.559 504.141 275.616 503.88 275.73V275.73Z" fill="#E2B433"/>
<path d="M550 263.21C542.16 265.21 534.456 267.23 526.89 269.27C526.605 269.302 526.329 269.395 526.083 269.542C525.837 269.69 525.626 269.888 525.463 270.125C525.301 270.361 525.191 270.63 525.141 270.913C525.092 271.195 525.104 271.485 525.176 271.763C525.249 272.041 525.38 272.299 525.561 272.522C525.743 272.744 525.97 272.925 526.227 273.052C526.485 273.179 526.766 273.249 527.053 273.257C527.34 273.265 527.625 273.212 527.89 273.1C535.43 271.06 543.096 269.06 550.89 267.1C551.167 267.059 551.432 266.959 551.669 266.808C551.905 266.658 552.107 266.459 552.262 266.225C552.417 265.991 552.52 265.727 552.566 265.45C552.613 265.174 552.6 264.891 552.529 264.619C552.459 264.348 552.332 264.094 552.157 263.875C551.982 263.656 551.763 263.476 551.514 263.347C551.266 263.218 550.992 263.142 550.712 263.126C550.432 263.109 550.152 263.151 549.89 263.25L550 263.21Z" fill="#E2B433"/>
<path d="M1462.67 466.8C1462.28 466.5 1461.8 466.353 1461.31 466.388C1460.82 466.423 1460.36 466.637 1460.01 466.989C1459.67 467.341 1459.47 467.807 1459.45 468.298C1459.43 468.789 1459.59 469.27 1459.9 469.65C1465.54 475.144 1471.16 480.74 1476.75 486.44C1476.92 486.663 1477.14 486.846 1477.39 486.978C1477.64 487.111 1477.91 487.189 1478.19 487.208C1478.48 487.227 1478.76 487.186 1479.02 487.089C1479.29 486.991 1479.53 486.839 1479.73 486.642C1479.93 486.445 1480.09 486.207 1480.19 485.945C1480.29 485.683 1480.34 485.402 1480.33 485.12C1480.31 484.839 1480.24 484.563 1480.11 484.311C1479.99 484.06 1479.81 483.838 1479.59 483.66C1473.98 477.934 1468.34 472.314 1462.67 466.8Z" fill="#E2B433"/>
<path d="M324.53 341.68C310.46 348.16 302.9 352.1 302.87 352.11C302.454 352.382 302.155 352.798 302.029 353.278C301.903 353.759 301.961 354.269 302.19 354.709C302.42 355.149 302.805 355.488 303.271 355.661C303.736 355.833 304.249 355.825 304.71 355.64L305.05 355.47C306.66 354.64 313.93 350.94 326.19 345.3C326.609 345.045 326.92 344.645 327.064 344.176C327.207 343.707 327.173 343.201 326.968 342.756C326.763 342.31 326.401 341.955 325.952 341.759C325.502 341.562 324.997 341.538 324.53 341.69V341.68Z" fill="#E2B433"/>
<path d="M1371.74 389.49C1365.3 384.73 1358.83 380.09 1352.33 375.57C1352.12 375.383 1351.87 375.242 1351.6 375.158C1351.33 375.073 1351.05 375.047 1350.77 375.08C1350.49 375.114 1350.22 375.206 1349.97 375.352C1349.73 375.497 1349.52 375.692 1349.36 375.924C1349.2 376.155 1349.09 376.419 1349.04 376.696C1348.98 376.974 1348.99 377.259 1349.06 377.534C1349.12 377.808 1349.25 378.066 1349.42 378.289C1349.59 378.513 1349.81 378.697 1350.06 378.83C1356.52 383.33 1362.96 387.95 1369.38 392.69C1369.59 392.881 1369.83 393.026 1370.1 393.115C1370.36 393.205 1370.65 393.237 1370.93 393.211C1371.21 393.184 1371.48 393.099 1371.72 392.96C1371.97 392.822 1372.18 392.633 1372.34 392.407C1372.51 392.181 1372.63 391.922 1372.69 391.647C1372.75 391.373 1372.75 391.089 1372.69 390.813C1372.64 390.538 1372.52 390.278 1372.36 390.05C1372.19 389.822 1371.98 389.631 1371.74 389.49V389.49Z" fill="#E2B433"/>
<path d="M1332.53 362.2C1325.83 357.807 1319.1 353.54 1312.35 349.4C1311.9 349.188 1311.4 349.149 1310.92 349.289C1310.45 349.43 1310.04 349.74 1309.79 350.161C1309.53 350.581 1309.43 351.083 1309.52 351.568C1309.61 352.053 1309.88 352.489 1310.27 352.79C1316.99 356.91 1323.68 361.153 1330.35 365.52C1330.57 365.702 1330.82 365.836 1331.09 365.914C1331.36 365.991 1331.65 366.01 1331.93 365.969C1332.21 365.929 1332.47 365.829 1332.71 365.677C1332.95 365.525 1333.15 365.324 1333.31 365.088C1333.46 364.852 1333.57 364.585 1333.61 364.306C1333.66 364.027 1333.64 363.742 1333.57 363.469C1333.5 363.196 1333.36 362.942 1333.19 362.723C1333.01 362.504 1332.78 362.326 1332.53 362.2V362.2Z" fill="#E2B433"/>
<path d="M1427.55 434.42C1427.15 434.139 1426.65 434.017 1426.16 434.078C1425.67 434.139 1425.22 434.378 1424.9 434.75C1424.58 435.122 1424.4 435.6 1424.41 436.093C1424.42 436.586 1424.61 437.058 1424.94 437.42C1430.86 442.6 1436.76 447.897 1442.63 453.31C1442.81 453.526 1443.04 453.701 1443.3 453.822C1443.55 453.944 1443.83 454.009 1444.11 454.015C1444.4 454.021 1444.68 453.966 1444.94 453.855C1445.2 453.744 1445.43 453.579 1445.62 453.37C1445.82 453.162 1445.96 452.915 1446.05 452.647C1446.14 452.378 1446.17 452.093 1446.14 451.812C1446.11 451.53 1446.03 451.258 1445.88 451.012C1445.74 450.767 1445.55 450.555 1445.32 450.39C1439.43 444.944 1433.5 439.62 1427.55 434.42Z" fill="#E2B433"/>
<path d="M1291.82 337.19C1284.87 333.19 1277.9 329.324 1270.93 325.59C1270.47 325.41 1269.97 325.403 1269.51 325.572C1269.05 325.74 1268.66 326.072 1268.43 326.504C1268.2 326.936 1268.14 327.438 1268.25 327.915C1268.36 328.391 1268.65 328.81 1269.05 329.09V329.09C1276 332.824 1282.93 336.674 1289.84 340.64C1290.29 340.858 1290.81 340.897 1291.29 340.748C1291.77 340.6 1292.18 340.276 1292.44 339.84C1292.69 339.405 1292.77 338.89 1292.66 338.399C1292.55 337.908 1292.25 337.476 1291.84 337.19H1291.82Z" fill="#E2B433"/>
<path d="M1496.08 500.94C1495.71 500.618 1495.23 500.445 1494.74 500.454C1494.24 500.463 1493.77 500.654 1493.41 500.99C1493.05 501.326 1492.82 501.783 1492.78 502.274C1492.74 502.765 1492.87 503.255 1493.17 503.65V503.65C1498.5 509.41 1503.84 515.28 1509.17 521.26C1509.53 521.632 1510.01 521.851 1510.53 521.873C1511.04 521.894 1511.55 521.716 1511.93 521.376C1512.32 521.036 1512.56 520.559 1512.6 520.045C1512.65 519.532 1512.49 519.021 1512.17 518.62C1506.82 512.613 1501.46 506.72 1496.08 500.94Z" fill="#E2B433"/>
<path d="M1161.92 276.94C1154.4 274.22 1146.87 271.617 1139.34 269.13C1138.86 269.02 1138.35 269.095 1137.91 269.339C1137.48 269.584 1137.16 269.981 1137 270.453C1136.84 270.925 1136.87 271.438 1137.07 271.892C1137.27 272.346 1137.64 272.709 1138.09 272.91V272.91C1145.59 275.383 1153.08 277.973 1160.57 280.68C1161.05 280.796 1161.55 280.731 1161.99 280.497C1162.42 280.264 1162.75 279.878 1162.92 279.415C1163.09 278.952 1163.08 278.443 1162.89 277.986C1162.71 277.529 1162.36 277.157 1161.92 276.94V276.94Z" fill="#E2B433"/>
<path d="M1249.72 314.59C1242.55 311.017 1235.38 307.564 1228.19 304.23C1227.95 304.079 1227.68 303.982 1227.4 303.943C1227.12 303.905 1226.83 303.927 1226.56 304.007C1226.29 304.088 1226.04 304.226 1225.82 304.411C1225.61 304.597 1225.43 304.826 1225.31 305.083C1225.19 305.341 1225.13 305.621 1225.13 305.904C1225.13 306.188 1225.18 306.469 1225.3 306.729C1225.41 306.989 1225.58 307.222 1225.79 307.411C1226 307.601 1226.25 307.744 1226.52 307.83C1233.67 311.164 1240.81 314.604 1247.94 318.15C1248.18 318.299 1248.44 318.397 1248.72 318.438C1248.99 318.479 1249.28 318.461 1249.55 318.386C1249.81 318.311 1250.06 318.18 1250.28 318.002C1250.5 317.824 1250.67 317.603 1250.8 317.354C1250.92 317.104 1250.99 316.83 1251.01 316.551C1251.02 316.272 1250.97 315.993 1250.87 315.733C1250.77 315.473 1250.62 315.237 1250.42 315.04C1250.22 314.843 1249.98 314.69 1249.72 314.59V314.59Z" fill="#E2B433"/>
<path d="M1023.63 239.74C1015.76 238.3 1007.91 236.967 1000.07 235.74C999.799 235.668 999.515 235.653 999.238 235.697C998.961 235.742 998.696 235.844 998.461 235.997C998.226 236.15 998.026 236.351 997.874 236.587C997.721 236.823 997.62 237.088 997.577 237.366C997.534 237.643 997.55 237.926 997.624 238.197C997.697 238.468 997.827 238.72 998.005 238.938C998.182 239.155 998.404 239.333 998.655 239.459C998.905 239.585 999.18 239.657 999.46 239.67C1007.26 240.883 1015.08 242.217 1022.92 243.67C1023.19 243.752 1023.47 243.775 1023.75 243.74C1024.03 243.704 1024.3 243.609 1024.54 243.462C1024.78 243.315 1024.99 243.119 1025.15 242.887C1025.31 242.654 1025.42 242.391 1025.47 242.113C1025.52 241.836 1025.51 241.551 1025.44 241.277C1025.37 241.004 1025.25 240.747 1025.08 240.525C1024.9 240.303 1024.68 240.12 1024.43 239.988C1024.19 239.856 1023.91 239.779 1023.63 239.76V239.74Z" fill="#E2B433"/>
<path d="M1116.54 262C1108.88 259.707 1101.21 257.537 1093.54 255.49C1093.06 255.428 1092.57 255.544 1092.16 255.816C1091.76 256.088 1091.47 256.499 1091.35 256.97C1091.23 257.441 1091.28 257.94 1091.5 258.375C1091.72 258.809 1092.09 259.149 1092.54 259.33C1100.17 261.37 1107.8 263.53 1115.42 265.81C1115.68 265.919 1115.96 265.972 1116.24 265.966C1116.52 265.96 1116.79 265.895 1117.05 265.775C1117.3 265.656 1117.53 265.484 1117.71 265.271C1117.89 265.058 1118.03 264.809 1118.11 264.54C1118.19 264.271 1118.21 263.988 1118.18 263.71C1118.14 263.431 1118.05 263.163 1117.9 262.924C1117.76 262.684 1117.56 262.478 1117.33 262.319C1117.1 262.16 1116.84 262.051 1116.56 262H1116.54Z" fill="#E2B433"/>
<path d="M1070.39 249.58C1062.61 247.72 1054.84 245.973 1047.08 244.34C1046.81 244.252 1046.53 244.221 1046.25 244.25C1045.97 244.278 1045.7 244.366 1045.46 244.506C1045.21 244.646 1045 244.836 1044.84 245.064C1044.67 245.292 1044.55 245.551 1044.5 245.827C1044.44 246.102 1044.44 246.386 1044.5 246.661C1044.56 246.936 1044.67 247.196 1044.84 247.422C1045.01 247.649 1045.22 247.838 1045.46 247.978C1045.71 248.117 1045.98 248.203 1046.26 248.23C1053.99 249.857 1061.72 251.597 1069.47 253.45C1069.96 253.513 1070.46 253.393 1070.86 253.112C1071.27 252.831 1071.56 252.409 1071.67 251.929C1071.79 251.448 1071.72 250.942 1071.48 250.509C1071.24 250.075 1070.86 249.744 1070.39 249.58Z" fill="#E2B433"/>
<path d="M1206.37 294.49C1199.04 291.343 1191.67 288.31 1184.27 285.39C1184.02 285.26 1183.75 285.184 1183.47 285.167C1183.19 285.149 1182.91 285.191 1182.64 285.288C1182.38 285.386 1182.14 285.539 1181.94 285.735C1181.74 285.931 1181.59 286.168 1181.48 286.429C1181.38 286.689 1181.33 286.969 1181.35 287.249C1181.36 287.529 1181.43 287.804 1181.55 288.055C1181.68 288.306 1181.86 288.528 1182.07 288.706C1182.29 288.884 1182.54 289.015 1182.81 289.09C1190.14 291.99 1197.48 294.99 1204.81 298.09C1205.28 298.231 1205.78 298.194 1206.23 297.986C1206.67 297.779 1207.03 297.415 1207.22 296.964C1207.41 296.514 1207.44 296.008 1207.28 295.542C1207.13 295.077 1206.8 294.685 1206.38 294.44L1206.37 294.49Z" fill="#E2B433"/>
<path d="M976.42 232.38C968.48 231.353 960.566 230.43 952.68 229.61C952.149 229.556 951.619 229.714 951.206 230.051C950.792 230.388 950.529 230.875 950.475 231.405C950.42 231.936 950.579 232.466 950.916 232.879C951.252 233.293 951.739 233.556 952.27 233.61C960.13 234.417 968.006 235.333 975.9 236.36C976.173 236.428 976.458 236.438 976.735 236.389C977.013 236.339 977.277 236.232 977.51 236.073C977.743 235.915 977.94 235.709 978.087 235.469C978.235 235.229 978.331 234.961 978.367 234.682C978.404 234.402 978.382 234.118 978.301 233.848C978.221 233.578 978.084 233.328 977.9 233.115C977.716 232.901 977.489 232.729 977.234 232.609C976.979 232.489 976.701 232.425 976.42 232.42V232.38Z" fill="#E2B433"/>
<path d="M81.5098 414.75L538.49 359.14L452.76 278.28L81.5098 414.75Z" fill="#FFDE70"/>
<path d="M81.5098 414.75L429.59 152.41V256.42L81.5098 414.75Z" fill="#FFDE70"/>
<path d="M455.08 109L518.23 13.2701C518.23 13.2701 486.87 -16.0899 474.54 12.6601C462.21 41.4101 455.08 109 455.08 109Z" fill="#FFDE70"/>
<path d="M558.16 113.86C558.16 113.86 556.83 71.3598 543.58 82.5398C530.33 93.7198 476.3 134.1 476.3 134.1C476.3 134.1 552.88 128.49 558.16 113.86Z" fill="#FFDE70"/>
<path d="M2443 525.46H2403.9V626.15H2443C2449.61 626.151 2456.16 624.85 2462.27 622.321C2468.38 619.792 2473.93 616.084 2478.6 611.409C2483.28 606.735 2486.99 601.185 2489.52 595.077C2492.05 588.968 2493.35 582.422 2493.35 575.81V575.81C2493.35 569.198 2492.05 562.651 2489.52 556.542C2486.99 550.433 2483.28 544.883 2478.6 540.207C2473.93 535.532 2468.38 531.823 2462.27 529.293C2456.16 526.762 2449.61 525.46 2443 525.46Z" fill="#6584C6"/>
<path d="M2018.42 525.46C2011.81 525.46 2005.26 526.762 1999.15 529.293C1993.05 531.823 1987.5 535.532 1982.82 540.208C1978.15 544.883 1974.44 550.434 1971.91 556.543C1969.38 562.651 1968.08 569.198 1968.08 575.81C1968.08 589.161 1973.38 601.965 1982.82 611.406C1992.26 620.846 2005.07 626.15 2018.42 626.15H2403.86V525.46H2018.42Z" fill="#6584C6"/>
<path d="M2018.42 615.12C2007.99 615.12 1998 610.978 1990.62 603.606C1983.25 596.234 1979.11 586.236 1979.11 575.81C1979.11 565.384 1983.25 555.386 1990.62 548.014C1998 540.642 2007.99 536.5 2018.42 536.5H2392.82V615.12H2018.42Z" fill="white"/>
<path d="M2427.87 560.47C2424.64 563.721 2422.72 568.052 2422.48 572.631C2422.25 577.21 2423.71 581.715 2426.59 585.281C2429.48 588.846 2433.57 591.222 2438.1 591.951C2442.63 592.68 2447.26 591.711 2451.12 589.23L2462.96 601.07C2463.32 601.439 2463.75 601.733 2464.23 601.935C2464.7 602.137 2465.21 602.242 2465.73 602.245C2466.24 602.247 2466.76 602.147 2467.23 601.951C2467.71 601.754 2468.15 601.465 2468.51 601.1C2468.87 600.734 2469.16 600.3 2469.36 599.823C2469.55 599.345 2469.65 598.833 2469.65 598.317C2469.65 597.8 2469.54 597.29 2469.34 596.815C2469.13 596.34 2468.84 595.91 2468.47 595.55L2456.63 583.71C2459.13 579.855 2460.11 575.211 2459.39 570.675C2458.66 566.138 2456.29 562.03 2452.71 559.143C2449.14 556.256 2444.62 554.794 2440.04 555.039C2435.45 555.284 2431.12 557.219 2427.87 560.47V560.47ZM2450.04 582.64C2448.26 584.424 2445.98 585.639 2443.51 586.13C2441.03 586.622 2438.47 586.369 2436.13 585.403C2433.8 584.437 2431.81 582.802 2430.41 580.703C2429.01 578.605 2428.26 576.139 2428.26 573.615C2428.26 571.092 2429.01 568.625 2430.41 566.527C2431.81 564.429 2433.8 562.793 2436.13 561.827C2438.47 560.861 2441.03 560.608 2443.51 561.1C2445.98 561.592 2448.26 562.806 2450.04 564.59C2451.22 565.778 2452.16 567.187 2452.8 568.737C2453.44 570.287 2453.76 571.947 2453.76 573.623C2453.76 575.3 2453.42 576.959 2452.78 578.506C2452.13 580.053 2451.19 581.458 2450 582.64H2450.04Z" fill="white"/>
<path d="M2178.72 717.83H1987.82C1976.92 717.83 1968.08 726.668 1968.08 737.57V902.35C1968.08 913.252 1976.92 922.09 1987.82 922.09H2178.72C2189.62 922.09 2198.46 913.252 2198.46 902.35V737.57C2198.46 726.668 2189.62 717.83 2178.72 717.83Z" fill="#FFB114"/>
<path d="M2481.6 722.91H2293.13C2286.56 722.91 2281.23 728.238 2281.23 734.81C2281.23 741.382 2286.56 746.71 2293.13 746.71H2481.6C2488.17 746.71 2493.5 741.382 2493.5 734.81C2493.5 728.238 2488.17 722.91 2481.6 722.91Z" fill="url(#paint3_linear_26_3)"/>
<path d="M2481.6 778.25H2255.49C2248.92 778.25 2243.59 783.578 2243.59 790.15C2243.59 796.722 2248.92 802.05 2255.49 802.05H2481.6C2488.17 802.05 2493.5 796.722 2493.5 790.15C2493.5 783.578 2488.17 778.25 2481.6 778.25Z" fill="#DBD2DB"/>
<path d="M2481.6 833.59H2255.49C2248.92 833.59 2243.59 838.918 2243.59 845.49C2243.59 852.062 2248.92 857.39 2255.49 857.39H2481.6C2488.17 857.39 2493.5 852.062 2493.5 845.49C2493.5 838.918 2488.17 833.59 2481.6 833.59Z" fill="#DBD2DB"/>
<path d="M2384.52 888.93H2255.49C2248.92 888.93 2243.59 894.258 2243.59 900.83C2243.59 907.402 2248.92 912.73 2255.49 912.73H2384.52C2391.09 912.73 2396.42 907.402 2396.42 900.83C2396.42 894.258 2391.09 888.93 2384.52 888.93Z" fill="#DBD2DB"/>
<path d="M1862.08 2225.95H1825.19L1793.72 2106.51H1830.62L1862.08 2225.95Z" fill="white"/>
<path d="M1717.33 1543.44L1624.12 1648.44L1564.12 1714.78H1568.36L1727.8 1545.67C1727.8 1545.67 1725.5 1541.23 1717.33 1543.44Z" fill="#FFB114"/>
<path d="M2565.73 1766.43H2465.62C2459.78 1766.43 2455.04 1771.17 2455.04 1777.01C2455.04 1782.85 2459.78 1787.59 2465.62 1787.59H2565.73C2571.57 1787.59 2576.31 1782.85 2576.31 1777.01C2576.31 1771.17 2571.57 1766.43 2565.73 1766.43Z" fill="white"/>
<path d="M2268.66 1656.64H2168.55C2162.71 1656.64 2157.97 1661.38 2157.97 1667.22C2157.97 1673.06 2162.71 1677.8 2168.55 1677.8H2268.66C2274.5 1677.8 2279.24 1673.06 2279.24 1667.22C2279.24 1661.38 2274.5 1656.64 2268.66 1656.64Z" fill="white"/>
<path d="M2324.31 1893.47H2224.2C2218.36 1893.47 2213.62 1898.21 2213.62 1904.05C2213.62 1909.89 2218.36 1914.63 2224.2 1914.63H2324.31C2330.15 1914.63 2334.89 1909.89 2334.89 1904.05C2334.89 1898.21 2330.15 1893.47 2324.31 1893.47Z" fill="white"/>
<path d="M2335.2 1656.64H2320.03C2314.19 1656.64 2309.45 1661.38 2309.45 1667.22C2309.45 1673.06 2314.19 1677.8 2320.03 1677.8H2335.2C2341.04 1677.8 2345.78 1673.06 2345.78 1667.22C2345.78 1661.38 2341.04 1656.64 2335.2 1656.64Z" fill="white"/>
<path d="M1150.79 2833.11C1147.88 2836.58 1141.87 2840.37 1135.34 2843.81C1120.87 2851.38 1104.53 2854.65 1088.26 2853.23L944.17 2841.23C944.17 2841.23 899 2841.65 889.87 2811.13C888.26 2805.75 888.27 2798.36 889.4 2789.84C926.88 2801.12 1069.22 2841.75 1150.79 2833.11Z" fill="#1A1A1A"/>
<path d="M1025.55 706C1025.1 716.51 1012.48 722.54 1003.55 725.51C1003.11 717.99 1002.55 712.65 1002.55 712.65C1002.55 712.65 1017.82 715.28 1025.55 706Z" fill="#E8766F"/>
<path d="M991.68 766.85L941.68 753.85L981.62 862.32L1047.19 948.32C1047.19 948.32 1012.51 791.7 991.68 766.85Z" fill="#152A52"/>
<path d="M1133.4 804.76L1123.54 972.48C1123.54 972.48 1168.79 900.93 1176.92 870.41C1185.05 839.89 1172.49 813.99 1172.49 813.99C1172.49 813.99 1145.62 804.76 1133.4 804.76Z" fill="#152A52"/>
<path d="M1771 291.17L1754.7 316.22C1724.76 296.783 1689.83 286.439 1654.14 286.439C1618.45 286.439 1583.52 296.783 1553.58 316.22L1537.29 291.17C1572.07 268.569 1612.66 256.54 1654.15 256.54C1695.63 256.54 1736.22 268.569 1771 291.17V291.17Z" fill="url(#paint4_linear_26_3)"/>
<path d="M1738.43 341.29C1732.94 349.75 1727.5 358.15 1722.16 366.37C1701.9 353.229 1678.28 346.236 1654.13 346.236C1629.98 346.236 1606.36 353.229 1586.1 366.37C1580.78 358.15 1575.32 349.75 1569.85 341.3C1594.95 325.013 1624.22 316.345 1654.14 316.345C1684.06 316.345 1713.33 325.013 1738.43 341.3V341.29Z" fill="url(#paint5_linear_26_3)"/>
<path d="M1705.91 391.46C1700.2 400.28 1694.75 408.71 1689.67 416.54C1679.09 409.674 1666.75 406.021 1654.14 406.021C1641.52 406.021 1629.18 409.674 1618.6 416.54C1613.53 408.69 1608.07 400.27 1602.35 391.44C1617.77 381.434 1635.75 376.109 1654.13 376.109C1672.51 376.109 1690.49 381.434 1705.91 391.44V391.46Z" fill="url(#paint6_linear_26_3)"/>
<path d="M1689.71 471.51C1689.71 477.678 1688.11 483.741 1685.06 489.102C1682.01 494.463 1677.61 498.939 1672.31 502.09C1667.01 505.241 1660.98 506.96 1654.81 507.076C1648.64 507.192 1642.55 505.703 1637.14 502.755C1631.72 499.806 1627.16 495.499 1623.91 490.257C1620.66 485.014 1618.83 479.017 1618.6 472.853C1618.36 466.689 1619.74 460.571 1622.58 455.099C1625.43 449.627 1629.65 444.989 1634.83 441.64C1640.2 438.172 1646.41 436.215 1652.8 435.976C1659.19 435.736 1665.52 437.223 1671.14 440.28C1676.76 443.336 1681.44 447.85 1684.71 453.346C1687.98 458.841 1689.71 465.116 1689.71 471.51V471.51Z" fill="url(#paint7_linear_26_3)"/>
<path d="M2073.76 832.58L2020.05 787.82V816.69L2073.76 861.46L2171.42 746.71V717.83L2073.76 832.58Z" fill="white"/>
<path d="M1013 594C1011.42 592.31 1009.6 590.868 1007.6 589.72C1002.72 586.922 997.331 585.108 991.75 584.38C987.01 583.83 984.93 585.02 984.08 585.98C983.764 586.321 983.558 586.75 983.49 587.21V587.36C983.543 587.823 983.723 588.263 984.01 588.63C984.78 589.72 986.61 590.85 990.86 591.34C995.833 591.904 1000.75 592.871 1005.57 594.23C1007.89 594.92 1009.93 595.67 1011.44 596.23C1012.95 596.79 1013.94 597.08 1014.28 596.74C1014.62 596.4 1014.21 595.32 1013 594Z" fill="#152A52"/>
<path d="M997.27 603.39C994.117 602.355 990.807 601.878 987.49 601.98C984.91 602.11 983.31 602.76 983.23 603.59C983.15 604.42 984.55 605.33 986.77 606.27C988.99 607.21 992.06 608.2 995.46 609.27C1002.25 611.33 1007.92 612.9 1008.77 611.44C1009.62 609.98 1004.71 605.65 997.27 603.39Z" fill="#152A52"/>
<path d="M993.3 606.92C990.55 605.68 987.73 607.35 987 610.65C986.27 613.95 987.91 617.65 990.66 618.88C993.41 620.11 996.23 618.45 996.96 615.15C997.69 611.85 996.05 608.16 993.3 606.92Z" fill="#152A52"/>
<path d="M963.4 587.22C963.09 586.34 961.95 584.86 958.4 584.44L957.03 584.33C956.56 584.33 956.03 584.33 955.56 584.33C954.515 584.372 953.475 584.496 952.45 584.7C950.413 585.118 948.449 585.832 946.62 586.82C943.21 588.67 941.32 591.1 941.83 591.67C942.34 592.24 944.83 591.14 948.03 590.44C949.704 590.058 951.406 589.814 953.12 589.71C953.98 589.71 954.82 589.63 955.61 589.71H956.77L957.84 589.83C960.56 590.14 961.94 589.77 962.73 589.14C963.01 588.929 963.236 588.655 963.39 588.34C963.527 587.98 963.531 587.583 963.4 587.22V587.22Z" fill="#152A52"/>
<path d="M959.19 598.51C957.042 597.028 954.508 596.208 951.9 596.15C949.224 596.022 946.577 596.747 944.34 598.22C942.66 599.43 942.05 600.82 942.55 601.5C943.05 602.18 944.23 602.29 945.84 602.3C947.45 602.31 949.46 602.3 951.7 602.3C953.94 602.3 956.05 602.55 957.7 602.6C959.35 602.65 960.7 602.41 961.04 601.6C961.38 600.79 960.79 599.68 959.19 598.51Z" fill="#152A52"/>
<path d="M955.005 607.827C955.107 604.565 953.024 601.852 950.352 601.769C947.68 601.685 945.432 604.262 945.33 607.525C945.228 610.787 947.311 613.499 949.983 613.583C952.654 613.666 954.903 611.089 955.005 607.827Z" fill="#152A52"/>
<path d="M1003.58 636.91C1001.62 636.449 999.551 636.771 997.82 637.807C996.09 638.843 994.831 640.512 994.31 642.46C994.069 643.418 994.023 644.415 994.174 645.391C994.326 646.367 994.673 647.302 995.193 648.142C995.714 648.982 996.398 649.708 997.205 650.278C998.011 650.848 998.924 651.25 999.89 651.46C1001.86 651.921 1003.92 651.598 1005.66 650.56C1007.39 649.522 1008.65 647.851 1009.17 645.9C1009.41 644.942 1009.45 643.946 1009.3 642.97C1009.15 641.995 1008.8 641.06 1008.28 640.221C1007.76 639.383 1007.07 638.657 1006.27 638.089C1005.46 637.52 1004.54 637.119 1003.58 636.91Z" fill="#FD4056"/>
<path d="M949 635.18C947.52 634.43 946 636.33 945.67 639.42C945.34 642.51 946.22 645.63 947.67 646.42C949.12 647.21 950.67 645.27 951 642.18C951.33 639.09 950.44 635.93 949 635.18Z" fill="#FD4056"/>
<path d="M978.68 649C978.267 648.97 977.86 649.105 977.547 649.375C977.234 649.645 977.041 650.028 977.01 650.44V650.44C977.001 650.711 976.918 650.974 976.77 651.2C976.657 651.348 976.518 651.473 976.36 651.57C975.982 651.798 975.565 651.955 975.13 652.03C974.513 652.145 973.887 652.198 973.26 652.19C971.471 652.145 969.691 651.914 967.95 651.5C967.17 651.33 966.51 651.16 966.04 651.03L965.5 650.87H965.36C965.232 650.836 965.101 650.813 964.97 650.8V650.8C963.587 650.701 962.223 650.425 960.91 649.98C960.069 649.716 959.29 649.284 958.62 648.71C958.378 648.488 958.178 648.224 958.03 647.93C957.896 647.639 957.828 647.321 957.83 647C957.835 646.693 957.879 646.387 957.96 646.09C958.33 644.76 959.25 642.09 960.41 638.93C962.15 634.11 964.41 627.93 966.29 622.33C967.22 619.54 968.04 616.89 968.64 614.62C968.94 613.48 969.18 612.43 969.35 611.5C969.511 610.676 969.605 609.84 969.63 609C969.639 608.473 969.554 607.948 969.38 607.45C969.307 607.26 969.197 607.086 969.057 606.938C968.917 606.79 968.749 606.671 968.563 606.587C968.376 606.504 968.176 606.459 967.972 606.453C967.768 606.448 967.565 606.482 967.375 606.555C967.184 606.628 967.01 606.738 966.862 606.878C966.714 607.018 966.595 607.186 966.512 607.372C966.429 607.559 966.383 607.759 966.378 607.963C966.372 608.167 966.407 608.37 966.48 608.56C966.495 608.707 966.495 608.854 966.48 609C966.432 609.95 966.299 610.894 966.08 611.82C965.61 613.97 964.77 616.82 963.75 619.99C962.21 624.71 960.28 630.05 958.59 634.69C957.75 637.01 956.97 639.16 956.34 640.97C955.71 642.78 955.21 644.24 954.93 645.27C954.766 645.832 954.682 646.415 954.68 647C954.675 647.804 954.857 648.598 955.21 649.32C955.797 650.439 956.697 651.363 957.8 651.98C959.229 652.772 960.78 653.32 962.39 653.6C963.113 653.74 963.845 653.836 964.58 653.89C964.97 654.01 965.97 654.3 967.28 654.6C969.248 655.063 971.259 655.318 973.28 655.36C974.762 655.414 976.237 655.127 977.59 654.52C978.282 654.18 978.879 653.676 979.33 653.05C979.803 652.364 980.079 651.562 980.13 650.73C980.153 650.52 980.134 650.308 980.073 650.106C980.012 649.904 979.911 649.717 979.775 649.555C979.639 649.393 979.473 649.261 979.284 649.165C979.096 649.07 978.89 649.014 978.68 649V649Z" fill="#152A52"/>
<path d="M988.75 661C988.75 661 985.19 668.67 971.66 671C976.59 681.82 988.55 680.14 993.42 673.69C998.29 667.24 988.75 661 988.75 661Z" fill="white"/>
<defs>
<linearGradient id="paint0_linear_26_3" x1="666.85" y1="2613.01" x2="1156.39" y2="2613.01" gradientUnits="userSpaceOnUse">
<stop stop-color="#68B2FC"/>
<stop offset="1" stop-color="#529BF7"/>
</linearGradient>
<linearGradient id="paint1_linear_26_3" x1="97.3398" y1="2670.4" x2="2900.17" y2="2670.4" gradientUnits="userSpaceOnUse">
<stop stop-color="#68B2FC"/>
<stop offset="1" stop-color="#529BF7"/>
</linearGradient>
<linearGradient id="paint2_linear_26_3" x1="1968.09" y1="1199.03" x2="2496.95" y2="1199.03" gradientUnits="userSpaceOnUse">
<stop stop-color="#539A11"/>
<stop offset="1" stop-color="#529BF7"/>
</linearGradient>
<linearGradient id="paint3_linear_26_3" x1="2281.23" y1="734.81" x2="2493.49" y2="734.81" gradientUnits="userSpaceOnUse">
<stop stop-color="#68B2FC"/>
<stop offset="1" stop-color="#529BF7"/>
</linearGradient>
<linearGradient id="paint4_linear_26_3" x1="1537.28" y1="286.38" x2="1770.99" y2="286.38" gradientUnits="userSpaceOnUse">
<stop stop-color="#4085F0"/>
<stop offset="1" stop-color="#275DC9"/>
</linearGradient>
<linearGradient id="paint5_linear_26_3" x1="1569.85" y1="341.36" x2="1738.43" y2="341.36" gradientUnits="userSpaceOnUse">
<stop stop-color="#4085F0"/>
<stop offset="1" stop-color="#275DC9"/>
</linearGradient>
<linearGradient id="paint6_linear_26_3" x1="1602.35" y1="396.35" x2="1705.91" y2="396.35" gradientUnits="userSpaceOnUse">
<stop stop-color="#4085F0"/>
<stop offset="1" stop-color="#275DC9"/>
</linearGradient>
<linearGradient id="paint7_linear_26_3" x1="1618.57" y1="471.51" x2="1689.71" y2="471.51" gradientUnits="userSpaceOnUse">
<stop stop-color="#4085F0"/>
<stop offset="1" stop-color="#275DC9"/>
</linearGradient>
</defs>
</svg>
