<svg width="4680" height="3120" viewBox="0 0 4680 3120" fill="none" xmlns="http://www.w3.org/2000/svg">
<path d="M685.85 2637.97L3960.51 2655.98L4145.19 683.08L492.17 439.84L685.85 2637.97Z" fill="#F5D4CC"/>
<path d="M962.724 832.374C996.61 798.489 996.61 743.549 962.724 709.663C928.838 675.777 873.899 675.777 840.013 709.663C806.127 743.549 806.127 798.489 840.013 832.374C873.899 866.26 928.838 866.26 962.724 832.374Z" fill="#F5B314"/>
<path d="M2087.97 460.86H1899.04C1898.29 460.86 1897.68 461.469 1897.68 462.22V651.87C1897.68 652.621 1898.29 653.23 1899.04 653.23H2087.97C2088.72 653.23 2089.33 652.621 2089.33 651.87V462.22C2089.33 461.469 2088.72 460.86 2087.97 460.86Z" fill="#F5B314"/>
<path d="M611.59 2759.82L4055.21 2684.96L4096.8 2227.48L470.19 1453.91L611.59 2759.82Z" fill="#418106"/>
<path d="M3187.54 2108.23L3260.4 2100.09L3420.85 697.77L3270.68 622.86L3187.54 2108.23Z" fill="#193584"/>
<path d="M3266.83 728.41L1534 899.18C1531.55 899.42 1529.56 901.36 1529.56 903.51V1927.89C1529.65 1929.03 1530.12 1930.11 1530.9 1930.95C1531.68 1931.79 1532.72 1932.35 1533.85 1932.52L3185.12 2214.43C3187.49 2214.83 3189.51 2212.65 3189.63 2209.56L3271.05 733.56C3271.18 730.48 3269.28 728.17 3266.83 728.41Z" fill="#193584"/>
<path d="M3269.24 622.21L1536.42 793C1533.97 793.24 1531.98 795.18 1531.98 797.33V1821.69C1532.07 1822.83 1532.54 1823.92 1533.32 1824.76C1534.1 1825.6 1535.15 1826.15 1536.28 1826.32L3187.54 2108.23C3189.91 2108.63 3191.93 2106.45 3192.05 2103.36L3273.47 627.36C3273.59 624.28 3271.7 622 3269.24 622.21Z" fill="#2459D3"/>
<path d="M1553.76 1758.74L3171.96 2004.47L3222.62 680.3L1554.43 828.53L1553.76 1758.74Z" fill="white"/>
<path d="M1554.38 887.95L3219.39 764.89L3222.66 679.24L1554.43 827.78L1554.38 887.95Z" fill="#F5B314"/>
<path d="M1604.15 837.75C1594.29 838.59 1586.29 846.07 1586.27 854.45C1586.25 862.83 1594.27 869.01 1604.08 868.24C1613.89 867.47 1621.93 860 1621.95 851.54C1621.97 843.08 1614 836.91 1604.15 837.75Z" fill="#FF665B"/>
<path d="M1663.64 832.67C1653.78 833.51 1645.77 841.09 1645.73 849.6C1645.69 858.11 1653.66 864.38 1663.51 863.6C1673.36 862.82 1681.37 855.26 1681.41 846.67C1681.45 838.08 1673.49 831.82 1663.64 832.67Z" fill="#F19E20"/>
<path d="M1726.1 827.33C1716.24 828.17 1708.21 835.86 1708.17 844.5C1708.13 853.14 1716.06 859.5 1725.91 858.75C1735.76 858 1743.79 850.3 1743.84 841.58C1743.89 832.86 1736 826.48 1726.1 827.33Z" fill="#65A896"/>
<path d="M2242.76 1338.34L3071.29 1369.54L3090.16 837.56L2251.17 888.76L2242.76 1338.34Z" fill="#F5B314"/>
<path d="M2143.79 1788.81L3140.26 1926.48L3159.31 1420.93L2151.04 1376.31L2143.79 1788.81Z" fill="#648AF5"/>
<path d="M2150.34 1416.04L3157.48 1469.61L3159.34 1420.18L2151.05 1375.7L2150.34 1416.04Z" fill="#193584"/>
<path d="M2644.5 925.55C2550.19 930.16 2471.76 1016.9 2469.32 1119.3C2466.88 1221.7 2540.63 1306.89 2634.02 1309.57C2727.41 1312.25 2805.84 1225.57 2809.2 1115.82C2812.56 1006.07 2738.82 920.94 2644.5 925.55Z" fill="#F54444"/>
<path d="M2577.46 1243.25L2743.28 1110.69L2583.99 993.08L2577.46 1243.25Z" fill="white"/>
<path d="M1638.68 1722.32L2110.23 1786.06L2124.28 901.81L1641.28 933.09L1638.68 1722.32Z" fill="#F54444"/>
<path d="M1639.63 984.64L2123.29 961.22L2124.28 901.81L1639.81 931.64L1639.63 984.64Z" fill="#193584"/>
<path d="M2099.3 917.48L2071.07 947C2070.52 947.551 2070.2 948.295 2070.19 949.076C2070.17 949.856 2070.47 950.611 2071 951.18C2071.27 951.439 2071.6 951.638 2071.95 951.765C2072.31 951.893 2072.68 951.945 2073.06 951.92C2073.85 951.879 2074.59 951.539 2075.14 950.97L2103.37 921.46C2103.93 920.907 2104.25 920.155 2104.26 919.367C2104.27 918.58 2103.97 917.819 2103.43 917.25C2103.14 916.992 2102.81 916.793 2102.45 916.665C2102.09 916.537 2101.7 916.482 2101.32 916.503C2100.93 916.525 2100.56 916.622 2100.21 916.79C2099.86 916.957 2099.55 917.192 2099.3 917.48V917.48Z" fill="white"/>
<path d="M2075.64 918.87C2075.35 918.612 2075.02 918.414 2074.65 918.287C2074.29 918.159 2073.9 918.105 2073.52 918.127C2073.13 918.15 2072.76 918.248 2072.41 918.417C2072.06 918.585 2071.75 918.821 2071.5 919.11C2070.95 919.66 2070.63 920.403 2070.62 921.181C2070.61 921.959 2070.9 922.712 2071.43 923.28L2098.78 949.74C2099.04 949.995 2099.36 950.194 2099.7 950.323C2100.05 950.452 2100.41 950.509 2100.78 950.49C2101.58 950.439 2102.32 950.08 2102.86 949.49C2103.42 948.938 2103.74 948.19 2103.75 947.404C2103.77 946.619 2103.47 945.86 2102.93 945.29L2075.64 918.87Z" fill="white"/>
<path d="M2051.68 920.88L2016.8 922.88C2016.72 922.885 2016.64 922.92 2016.59 922.977C2016.53 923.034 2016.5 923.11 2016.5 923.19L2016.44 926.96C2016.44 926.997 2016.45 927.034 2016.46 927.068C2016.48 927.102 2016.5 927.133 2016.53 927.158C2016.55 927.184 2016.58 927.203 2016.62 927.216C2016.66 927.228 2016.69 927.233 2016.73 927.23L2051.62 925.23C2051.7 925.223 2051.77 925.188 2051.83 925.131C2051.88 925.074 2051.91 924.999 2051.92 924.92V921.13C2051.92 921.067 2051.89 921.007 2051.84 920.961C2051.8 920.916 2051.74 920.887 2051.68 920.88V920.88Z" fill="white"/>
<path d="M2051.5 932.93L2016.63 934.87C2016.55 934.875 2016.48 934.91 2016.42 934.967C2016.36 935.024 2016.33 935.1 2016.33 935.18V938.95C2016.33 938.988 2016.34 939.025 2016.35 939.06C2016.36 939.095 2016.39 939.126 2016.41 939.152C2016.44 939.178 2016.47 939.197 2016.51 939.209C2016.54 939.221 2016.58 939.224 2016.62 939.22L2051.49 937.32C2051.57 937.313 2051.64 937.278 2051.7 937.221C2051.75 937.164 2051.79 937.089 2051.79 937.01L2051.84 933.21C2051.84 933.167 2051.84 933.124 2051.82 933.084C2051.8 933.045 2051.78 933.01 2051.74 932.982C2051.71 932.955 2051.67 932.936 2051.63 932.927C2051.59 932.918 2051.54 932.919 2051.5 932.93V932.93Z" fill="white"/>
<path d="M2051.34 943.89L2016.48 945.75C2016.4 945.75 2016.32 945.782 2016.27 945.838C2016.21 945.894 2016.18 945.97 2016.18 946.05L2016.12 949.82C2016.12 949.857 2016.13 949.894 2016.14 949.928C2016.16 949.962 2016.18 949.993 2016.21 950.018C2016.23 950.044 2016.27 950.063 2016.3 950.075C2016.34 950.088 2016.37 950.093 2016.41 950.09L2051.27 948.28C2051.35 948.275 2051.42 948.241 2051.48 948.183C2051.54 948.126 2051.57 948.05 2051.57 947.97L2051.63 944.17C2051.63 944.132 2051.62 944.095 2051.61 944.06C2051.59 944.026 2051.57 943.995 2051.54 943.968C2051.52 943.942 2051.49 943.922 2051.45 943.908C2051.42 943.895 2051.38 943.889 2051.34 943.89V943.89Z" fill="white"/>
<path d="M1716.43 1007.92C1690.36 1009.01 1669.15 1029.22 1669.04 1053.06C1668.94 1076.89 1689.93 1095.78 1715.93 1095.25C1741.93 1094.72 1763.15 1074.51 1763.32 1050.12C1763.49 1025.73 1742.51 1006.83 1716.43 1007.92Z" fill="#F5B314"/>
<path d="M1639.57 1146.89L2120.26 1143.07L2120.38 1135.8L1639.59 1140.4L1639.57 1146.89Z" fill="#193584"/>
<path d="M1639.01 1310.33L2117.19 1326.23L2117.31 1318.96L1639.03 1303.84L1639.01 1310.33Z" fill="#193584"/>
<path d="M1638.46 1471.11L2114.18 1506.41L2114.3 1499.13L1638.48 1464.61L1638.46 1471.11Z" fill="#193584"/>
<path d="M2061.48 1024.72C2056.12 1024.95 2051.06 1027.21 2047.3 1031.04C2043.55 1034.87 2041.39 1039.98 2041.26 1045.34C2041.2 1047.92 2041.67 1050.49 2042.64 1052.89C2043.61 1055.28 2045.05 1057.46 2046.89 1059.27C2048.73 1061.09 2050.91 1062.52 2053.32 1063.46C2055.72 1064.4 2058.3 1064.85 2060.88 1064.76C2066.25 1064.56 2071.34 1062.31 2075.1 1058.47C2078.86 1054.64 2081.01 1049.5 2081.1 1044.13C2081.18 1041.54 2080.73 1038.96 2079.77 1036.56C2078.81 1034.15 2077.36 1031.97 2075.52 1030.15C2073.68 1028.33 2071.48 1026.91 2069.07 1025.97C2066.65 1025.04 2064.07 1024.61 2061.48 1024.72Z" fill="white"/>
<path d="M1934.06 1004.5L1789.71 1010.35C1788.75 1010.38 1787.83 1010.77 1787.14 1011.45C1786.45 1012.13 1786.05 1013.04 1786 1014V1014.31C1786.01 1014.78 1786.11 1015.24 1786.31 1015.67C1786.5 1016.09 1786.78 1016.48 1787.13 1016.79C1787.48 1017.11 1787.89 1017.35 1788.33 1017.5C1788.77 1017.65 1789.24 1017.71 1789.71 1017.67L1934.02 1012.08C1935.01 1012.04 1935.95 1011.63 1936.65 1010.93C1937.35 1010.23 1937.76 1009.29 1937.8 1008.3V1008C1937.8 1007.52 1937.71 1007.04 1937.52 1006.6C1937.33 1006.16 1937.05 1005.76 1936.7 1005.43C1936.35 1005.1 1935.93 1004.85 1935.48 1004.69C1935.02 1004.53 1934.54 1004.46 1934.06 1004.5V1004.5Z" fill="#F5B314"/>
<path d="M1996.87 1034.66L1789.47 1041.51C1788.5 1041.53 1787.57 1041.91 1786.87 1042.59C1786.18 1043.27 1785.76 1044.18 1785.71 1045.15V1045.45C1785.72 1045.92 1785.82 1046.38 1786.02 1046.81C1786.21 1047.24 1786.49 1047.62 1786.83 1047.94C1787.18 1048.26 1787.59 1048.5 1788.03 1048.65C1788.47 1048.81 1788.94 1048.87 1789.41 1048.84L1996.77 1042.36C1997.76 1042.32 1998.71 1041.9 1999.41 1041.2C2000.11 1040.49 2000.52 1039.55 2000.55 1038.55V1038.23C2000.56 1037.75 2000.47 1037.27 2000.28 1036.83C2000.1 1036.39 1999.83 1035.98 1999.48 1035.65C1999.14 1035.32 1998.73 1035.06 1998.28 1034.88C1997.83 1034.71 1997.35 1034.64 1996.87 1034.66V1034.66Z" fill="#F5B314"/>
<path d="M1996.41 1068.82L1789.21 1074.05C1788.24 1074.06 1787.32 1074.43 1786.62 1075.1C1785.92 1075.77 1785.51 1076.68 1785.46 1077.65V1077.96C1785.47 1078.43 1785.57 1078.89 1785.76 1079.32C1785.96 1079.75 1786.23 1080.14 1786.58 1080.46C1786.92 1080.77 1787.33 1081.02 1787.77 1081.18C1788.21 1081.34 1788.68 1081.41 1789.15 1081.38L1996.31 1076.52C1997.3 1076.49 1998.24 1076.08 1998.94 1075.38C1999.64 1074.67 2000.05 1073.73 2000.08 1072.74V1072.42C2000.09 1071.94 1999.99 1071.46 1999.81 1071.02C1999.63 1070.58 1999.36 1070.17 1999.01 1069.84C1998.67 1069.5 1998.26 1069.24 1997.82 1069.06C1997.37 1068.89 1996.89 1068.81 1996.41 1068.82V1068.82Z" fill="#F5B314"/>
<path d="M1668.13 1265.3L1761.78 1267.33L1762.41 1178.99L1668.5 1178.98L1668.13 1265.3Z" fill="white"/>
<path d="M2058.66 1210.27C2054.7 1210.18 2050.79 1211.26 2047.45 1213.39C2044.1 1215.52 2041.47 1218.59 2039.87 1222.22C2038.28 1225.85 2037.8 1229.87 2038.49 1233.77C2039.19 1237.68 2041.03 1241.29 2043.78 1244.14C2046.53 1247 2050.07 1248.97 2053.94 1249.81C2057.82 1250.65 2061.85 1250.32 2065.54 1248.86C2069.23 1247.4 2072.4 1244.88 2074.65 1241.62C2076.9 1238.35 2078.13 1234.49 2078.18 1230.53C2078.24 1227.91 2077.79 1225.31 2076.84 1222.87C2075.89 1220.43 2074.47 1218.21 2072.65 1216.32C2070.83 1214.44 2068.66 1212.93 2066.26 1211.9C2063.86 1210.86 2061.28 1210.3 2058.66 1210.27V1210.27Z" fill="white"/>
<path d="M1931.92 1184.7L1788.34 1184.49C1787.38 1184.47 1786.45 1184.83 1785.75 1185.48C1785.06 1186.14 1784.64 1187.04 1784.6 1188V1188.3C1784.61 1188.77 1784.71 1189.24 1784.9 1189.67C1785.09 1190.1 1785.37 1190.5 1785.71 1190.82C1786.05 1191.15 1786.45 1191.41 1786.9 1191.58C1787.34 1191.75 1787.81 1191.83 1788.28 1191.82L1931.83 1192.29C1932.81 1192.3 1933.75 1191.92 1934.45 1191.24C1935.15 1190.56 1935.56 1189.64 1935.59 1188.66V1188.34C1935.59 1187.86 1935.49 1187.38 1935.31 1186.94C1935.12 1186.5 1934.85 1186.09 1934.51 1185.76C1934.17 1185.42 1933.77 1185.15 1933.32 1184.97C1932.88 1184.79 1932.4 1184.7 1931.92 1184.7V1184.7Z" fill="#F5B314"/>
<path d="M1994.4 1217.51L1788.1 1215.65C1787.14 1215.62 1786.21 1215.97 1785.51 1216.62C1784.81 1217.27 1784.4 1218.17 1784.36 1219.13V1219.43C1784.38 1220.38 1784.77 1221.29 1785.45 1221.96C1786.13 1222.63 1787.05 1223 1788 1223L1994.25 1225.22C1995.23 1225.23 1996.18 1224.85 1996.88 1224.17C1997.58 1223.48 1997.99 1222.55 1998.01 1221.57V1221.25C1998.03 1220.28 1997.66 1219.33 1996.98 1218.63C1996.3 1217.93 1995.37 1217.53 1994.4 1217.51V1217.51Z" fill="#F5B314"/>
<path d="M1993.93 1251.67L1787.84 1248.19C1787.37 1248.17 1786.9 1248.24 1786.45 1248.4C1786.01 1248.57 1785.6 1248.81 1785.25 1249.14C1784.91 1249.46 1784.63 1249.84 1784.43 1250.27C1784.23 1250.7 1784.13 1251.17 1784.11 1251.64V1251.94C1784.13 1252.9 1784.53 1253.81 1785.22 1254.48C1785.9 1255.15 1786.82 1255.52 1787.78 1255.52L1993.78 1259.37C1994.26 1259.38 1994.75 1259.29 1995.2 1259.12C1995.65 1258.94 1996.06 1258.67 1996.41 1258.34C1996.76 1258 1997.03 1257.6 1997.23 1257.16C1997.42 1256.71 1997.52 1256.23 1997.53 1255.75V1255.43C1997.54 1254.46 1997.17 1253.52 1996.49 1252.82C1995.82 1252.12 1994.9 1251.7 1993.93 1251.67V1251.67Z" fill="#F5B314"/>
<path d="M1714.53 1339.24C1688.73 1338.24 1667.73 1356.71 1667.63 1380.54C1667.53 1404.37 1688.3 1424.99 1714.03 1426.54C1739.76 1428.09 1760.76 1409.64 1760.94 1385.24C1761.12 1360.84 1740.34 1340.27 1714.53 1339.24Z" fill="#F5B314"/>
<path d="M2056 1384.11C2053.42 1383.99 2050.85 1384.38 2048.43 1385.28C2046.02 1386.18 2043.81 1387.56 2041.94 1389.33C2040.07 1391.11 2038.58 1393.25 2037.56 1395.61C2036.54 1397.98 2036.01 1400.53 2036 1403.11C2035.95 1408.42 2037.94 1413.55 2041.54 1417.46C2045.15 1421.36 2050.11 1423.74 2055.41 1424.11C2057.99 1424.25 2060.57 1423.85 2062.99 1422.96C2065.41 1422.07 2067.62 1420.69 2069.5 1418.91C2071.37 1417.13 2072.86 1414.99 2073.87 1412.62C2074.89 1410.25 2075.41 1407.69 2075.41 1405.11C2075.5 1399.78 2073.53 1394.63 2069.91 1390.72C2066.3 1386.81 2061.32 1384.44 2056 1384.11Z" fill="white"/>
<path d="M1929.92 1353.51L1787.06 1347.63C1786.59 1347.6 1786.12 1347.66 1785.68 1347.81C1785.24 1347.97 1784.83 1348.21 1784.49 1348.52C1784.14 1348.83 1783.86 1349.21 1783.66 1349.64C1783.46 1350.06 1783.35 1350.52 1783.34 1350.99V1351.3C1783.36 1352.27 1783.75 1353.19 1784.43 1353.88C1785.11 1354.57 1786.03 1354.97 1787 1355L1929.83 1361.14C1930.31 1361.17 1930.78 1361.09 1931.23 1360.93C1931.68 1360.77 1932.09 1360.52 1932.44 1360.19C1932.78 1359.87 1933.06 1359.48 1933.26 1359.04C1933.45 1358.61 1933.55 1358.14 1933.56 1357.66V1357.34C1933.56 1356.36 1933.19 1355.41 1932.51 1354.69C1931.83 1353.98 1930.9 1353.56 1929.92 1353.51V1353.51Z" fill="#F5B314"/>
<path d="M1992.08 1388.81L1786.81 1378.81C1786.34 1378.77 1785.88 1378.83 1785.43 1378.98C1784.99 1379.13 1784.58 1379.37 1784.24 1379.68C1783.89 1379.99 1783.61 1380.37 1783.41 1380.79C1783.21 1381.21 1783.1 1381.67 1783.09 1382.14V1382.45C1783.12 1383.42 1783.51 1384.33 1784.19 1385.02C1784.87 1385.71 1785.79 1386.11 1786.75 1386.15L1992 1396.51C1992.48 1396.54 1992.96 1396.47 1993.41 1396.3C1993.86 1396.14 1994.27 1395.89 1994.62 1395.56C1994.97 1395.23 1995.25 1394.83 1995.44 1394.39C1995.64 1393.95 1995.74 1393.48 1995.74 1393V1392.68C1995.74 1391.69 1995.37 1390.73 1994.68 1390.01C1994 1389.29 1993.07 1388.86 1992.08 1388.81V1388.81Z" fill="#F5B314"/>
<path d="M1991.61 1423L1786.55 1411.35C1786.09 1411.31 1785.62 1411.36 1785.18 1411.51C1784.74 1411.65 1784.33 1411.89 1783.98 1412.2C1783.63 1412.51 1783.35 1412.88 1783.16 1413.31C1782.96 1413.73 1782.85 1414.19 1782.84 1414.65V1414.96C1782.87 1415.93 1783.26 1416.85 1783.94 1417.54C1784.62 1418.23 1785.53 1418.64 1786.5 1418.68L1991.5 1430.68C1991.98 1430.71 1992.45 1430.64 1992.9 1430.48C1993.35 1430.32 1993.77 1430.07 1994.11 1429.74C1994.46 1429.42 1994.74 1429.02 1994.93 1428.59C1995.13 1428.15 1995.23 1427.68 1995.23 1427.2V1426.88C1995.23 1425.9 1994.85 1424.95 1994.18 1424.23C1993.51 1423.51 1992.59 1423.07 1991.61 1423V1423Z" fill="#F5B314"/>
<path d="M2044.66 1659.7C2034.66 1658.59 2026.4 1665.95 2026.25 1676.14C2026.1 1686.33 2034.09 1695.56 2044.1 1696.75C2054.11 1697.94 2062.35 1690.6 2062.51 1680.32C2062.67 1670.04 2054.67 1660.82 2044.66 1659.7Z" fill="white"/>
<path d="M1970.19 1651.43C1967.89 1651.11 1965.56 1651.29 1963.33 1651.96C1961.11 1652.63 1959.06 1653.76 1957.32 1655.29C1955.58 1656.82 1954.19 1658.71 1953.24 1660.82C1952.29 1662.94 1951.8 1665.23 1951.82 1667.55C1951.87 1672.52 1953.71 1677.3 1956.99 1681.03C1960.28 1684.75 1964.8 1687.17 1969.72 1687.84C1972.02 1688.17 1974.36 1688 1976.58 1687.34C1978.81 1686.68 1980.87 1685.54 1982.61 1684.01C1984.35 1682.48 1985.75 1680.59 1986.69 1678.47C1987.64 1676.35 1988.11 1674.05 1988.08 1671.73C1988.07 1666.75 1986.24 1661.95 1982.95 1658.22C1979.66 1654.48 1975.13 1652.07 1970.19 1651.43V1651.43Z" fill="white"/>
<path d="M1885.22 1642C1875.22 1640.89 1867 1647.94 1866.9 1657.75C1866.8 1667.56 1874.83 1676.49 1884.84 1677.69C1894.85 1678.89 1903.05 1671.83 1903.16 1661.94C1903.27 1652.05 1895.24 1643.1 1885.22 1642Z" fill="white"/>
<path d="M2186.33 1510.17L3123.89 1579.41L3125.76 1529.13L2187.1 1468.58L2186.33 1510.17Z" fill="white"/>
<path d="M2259.18 1515.55L2373.14 1523.97L2374.13 1480.64L2260.03 1473.28L2259.18 1515.55Z" fill="#F54444"/>
<path d="M2592.25 1540.15L2646.89 1544.18L2648.2 1498.32L2593.5 1494.79L2592.25 1540.15Z" fill="#F54444"/>
<path d="M2685.07 1547.01L2766.72 1553.04L2768.17 1506.06L2686.42 1500.79L2685.07 1547.01Z" fill="#F54444"/>
<path d="M2427.18 1527.96L2464.78 1530.74L2465.88 1486.56L2428.24 1484.13L2427.18 1527.96Z" fill="#F5B314"/>
<path d="M2844.26 1558.76L2954.7 1566.92L2956.38 1518.2L2845.81 1511.07L2844.26 1558.76Z" fill="#F5B314"/>
<path d="M2185.18 1572.57L3121.08 1654.83L3122.95 1604.55L2185.95 1530.97L2185.18 1572.57Z" fill="white"/>
<path d="M2984.74 1642.85L3071.82 1650.5L3073.64 1600.68L2986.45 1593.83L2984.74 1642.85Z" fill="#F5B314"/>
<path d="M2293.37 1582.08L2552.85 1604.88L2554.06 1559.88L2294.27 1539.48L2293.37 1582.08Z" fill="#F5B314"/>
<path d="M2487.1 1532.38L2503.55 1533.6L2504.69 1489.07L2488.22 1488L2487.1 1532.38Z" fill="#F5B314"/>
<path d="M2784.77 1625.44L2801.19 1626.89L2802.68 1579.58L2786.25 1578.28L2784.77 1625.44Z" fill="#F54444"/>
<path d="M2634.8 1612.26L2651.22 1613.7L2652.54 1567.78L2636.1 1566.49L2634.8 1612.26Z" fill="#F54444"/>
<path d="M2221.39 1575.9L2237.8 1577.35L2238.64 1535.26L2222.2 1533.97L2221.39 1575.9Z" fill="#F54444"/>
<path d="M2673.5 1615.66L2689.92 1617.1L2691.28 1570.82L2674.85 1569.53L2673.5 1615.66Z" fill="#F54444"/>
<path d="M2741.96 1621.68L2769.53 1624.1L2770.98 1577.09L2743.39 1574.92L2741.96 1621.68Z" fill="#F54444"/>
<path d="M2530.57 1535.6L2547.02 1536.81L2548.21 1491.87L2531.75 1490.81L2530.57 1535.6Z" fill="#F5B314"/>
<path d="M2183.83 1645.29L2747.51 1704.1L2748.94 1657.34L2184.6 1603.76L2183.83 1645.29Z" fill="white"/>
<path d="M2227.63 1649.86L2296.15 1657.01L2297.05 1614.43L2228.45 1607.92L2227.63 1649.86Z" fill="#F54444"/>
<path d="M2427.88 1670.76L2460.73 1674.18L2461.82 1630.08L2428.94 1626.95L2427.88 1670.76Z" fill="#F54444"/>
<path d="M2483.68 1676.58L2532.78 1681.7L2533.96 1636.92L2484.8 1632.26L2483.68 1676.58Z" fill="#F54444"/>
<path d="M2328.64 1660.4L2351.24 1662.76L2352.21 1619.67L2329.58 1617.52L2328.64 1660.4Z" fill="#F5B314"/>
<path d="M2579.4 1686.56L2645.79 1693.49L2647.11 1647.67L2580.63 1641.36L2579.4 1686.56Z" fill="#F5B314"/>
<path d="M2182.68 1707.59L2745.36 1774.26L2746.79 1727.49L2183.45 1666.06L2182.68 1707.59Z" fill="white"/>
<path d="M2663.39 1764.54L2715.75 1770.75L2717.14 1724.25L2664.73 1718.54L2663.39 1764.54Z" fill="#F5B314"/>
<path d="M2247.73 1715.3L2403.74 1733.78L2404.76 1690.19L2248.57 1673.16L2247.73 1715.3Z" fill="#F5B314"/>
<path d="M2364.66 1664.16L2374.55 1665.19L2375.55 1621.88L2365.64 1620.94L2364.66 1664.16Z" fill="#F5B314"/>
<path d="M2543.17 1750.47L2553.04 1751.64L2554.24 1706.66L2544.36 1705.58L2543.17 1750.47Z" fill="#F54444"/>
<path d="M2453 1739.78L2462.87 1740.95L2463.97 1696.81L2454.09 1695.73L2453 1739.78Z" fill="#F54444"/>
<path d="M2204.45 1710.33L2214.32 1711.49L2215.13 1669.67L2205.24 1668.59L2204.45 1710.33Z" fill="#F54444"/>
<path d="M2476.27 1742.54L2486.14 1743.71L2487.27 1699.35L2477.38 1698.27L2476.27 1742.54Z" fill="#F54444"/>
<path d="M2517.43 1747.42L2534 1749.38L2535.18 1704.58L2518.59 1702.77L2517.43 1747.42Z" fill="#F54444"/>
<path d="M2390.8 1666.89L2400.69 1667.92L2401.71 1624.37L2391.81 1623.43L2390.8 1666.89Z" fill="#F5B314"/>
<path d="M2260.46 1452.61L2189.84 1448.37C2189.37 1448.35 2188.9 1448.42 2188.46 1448.59C2188.02 1448.75 2187.62 1449.01 2187.28 1449.34C2186.95 1449.66 2186.68 1450.06 2186.5 1450.49C2186.32 1450.92 2186.23 1451.39 2186.24 1451.86C2186.21 1452.83 2186.55 1453.78 2187.19 1454.51C2187.83 1455.23 2188.73 1455.69 2189.7 1455.77L2260.3 1460.12C2260.77 1460.14 2261.25 1460.06 2261.69 1459.89C2262.13 1459.72 2262.53 1459.46 2262.87 1459.13C2263.21 1458.8 2263.47 1458.4 2263.65 1457.96C2263.83 1457.52 2263.92 1457.05 2263.91 1456.58C2263.95 1455.6 2263.62 1454.65 2262.98 1453.91C2262.33 1453.17 2261.43 1452.7 2260.46 1452.61V1452.61Z" fill="#F54444"/>
<path d="M2257.68 1589.76L2187.34 1583.41C2186.88 1583.37 2186.41 1583.43 2185.97 1583.58C2185.53 1583.74 2185.13 1583.98 2184.79 1584.3C2184.45 1584.62 2184.18 1585 2184 1585.43C2183.83 1585.86 2183.74 1586.32 2183.75 1586.79C2183.73 1587.77 2184.07 1588.71 2184.71 1589.45C2185.34 1590.19 2186.23 1590.67 2187.2 1590.79L2257.53 1597.25C2258 1597.29 2258.47 1597.22 2258.91 1597.07C2259.35 1596.91 2259.75 1596.66 2260.09 1596.34C2260.43 1596.01 2260.7 1595.62 2260.88 1595.19C2261.05 1594.75 2261.14 1594.29 2261.12 1593.82C2261.14 1592.84 2260.81 1591.88 2260.17 1591.14C2259.54 1590.39 2258.65 1589.9 2257.68 1589.76V1589.76Z" fill="#F54444"/>
<path d="M2091.74 451.46H1898C1897.11 451.46 1896.24 451.634 1895.42 451.973C1894.6 452.312 1893.86 452.809 1893.24 453.435C1892.61 454.061 1892.12 454.804 1891.78 455.621C1891.44 456.439 1891.27 457.315 1891.27 458.2V651.91C1891.27 652.795 1891.44 653.671 1891.78 654.489C1892.12 655.306 1892.61 656.049 1893.24 656.675C1893.86 657.301 1894.6 657.798 1895.42 658.137C1896.24 658.476 1897.11 658.65 1898 658.65H2091.71C2093.5 658.65 2095.21 657.94 2096.48 656.676C2097.74 655.412 2098.45 653.698 2098.45 651.91V458.2C2098.45 456.417 2097.75 454.705 2096.49 453.442C2095.23 452.178 2093.52 451.465 2091.74 451.46V451.46ZM2085 645.17H1904.77V464.94H2085V645.17Z" fill="#F54444"/>
<path d="M2075.93 482.62C2074.5 481.549 2072.7 481.088 2070.94 481.338C2069.17 481.587 2067.57 482.526 2066.49 483.95L1980.26 598.43L1932.75 548C1931.52 546.698 1929.83 545.936 1928.04 545.881C1926.26 545.827 1924.52 546.485 1923.22 547.71C1921.92 548.935 1921.16 550.628 1921.1 552.415C1921.05 554.202 1921.7 555.938 1922.93 557.24L1975.93 613.53C1976.56 614.2 1977.32 614.734 1978.16 615.099C1979.01 615.463 1979.92 615.651 1980.84 615.65H1981.21C1982.19 615.597 1983.14 615.331 1984.01 614.87C1984.87 614.409 1985.62 613.763 1986.21 612.98L2077.27 492.12C2077.81 491.41 2078.2 490.6 2078.43 489.737C2078.65 488.873 2078.71 487.974 2078.58 487.09C2078.46 486.207 2078.16 485.357 2077.7 484.59C2077.25 483.822 2076.64 483.153 2075.93 482.62Z" fill="#F54444"/>
<path d="M953.219 754.26L874.46 698.88C873.852 698.442 873.133 698.183 872.385 698.134C871.637 698.084 870.89 698.246 870.229 698.6C869.563 698.944 869.004 699.464 868.615 700.105C868.225 700.745 868.019 701.48 868.02 702.23V809.29C868.022 810.027 868.223 810.751 868.602 811.383C868.981 812.016 869.524 812.534 870.173 812.884C870.822 813.235 871.553 813.403 872.29 813.372C873.027 813.342 873.742 813.113 874.359 812.71L953.12 761C953.68 760.635 954.142 760.138 954.465 759.552C954.788 758.966 954.962 758.31 954.972 757.642C954.982 756.973 954.827 756.312 954.522 755.717C954.216 755.122 953.769 754.611 953.219 754.23V754.26ZM876.219 801.72V710.11L943.62 757.49L876.219 801.72Z" fill="#F54444"/>
<path d="M899.22 671.9C882.363 671.9 865.885 676.899 851.869 686.264C837.853 695.629 826.929 708.94 820.478 724.514C814.027 740.088 812.339 757.225 815.628 773.758C818.917 790.291 827.034 805.477 838.954 817.397C850.873 829.316 866.06 837.434 882.593 840.722C899.126 844.011 916.263 842.323 931.836 835.872C947.41 829.421 960.721 818.497 970.086 804.481C979.452 790.465 984.45 773.987 984.45 757.13C984.426 734.533 975.439 712.868 959.461 696.89C943.482 680.911 921.817 671.924 899.22 671.9V671.9ZM899.22 834.16C883.991 834.16 869.104 829.644 856.441 821.183C843.779 812.722 833.91 800.697 828.082 786.627C822.254 772.557 820.729 757.075 823.7 742.138C826.671 727.202 834.004 713.481 844.773 702.713C855.542 691.944 869.262 684.611 884.198 681.64C899.135 678.668 914.617 680.193 928.687 686.021C942.757 691.849 954.783 701.719 963.243 714.381C971.704 727.044 976.22 741.931 976.22 757.16C976.189 777.572 968.066 797.139 953.632 811.572C939.199 826.006 919.632 834.128 899.22 834.16V834.16Z" fill="#F54444"/>
<path d="M3939.38 1787.7C3966.21 1787.7 3987.97 1753.8 3987.97 1711.98C3987.97 1670.16 3966.21 1636.26 3939.38 1636.26C3912.54 1636.26 3890.79 1670.16 3890.79 1711.98C3890.79 1753.8 3912.54 1787.7 3939.38 1787.7Z" fill="#FF9900"/>
<path d="M4094.36 1842.32C4091.49 1869.07 4077.61 1890.48 4059.61 1896.48C4077.61 1902.48 4091.49 1923.89 4094.36 1950.64C4097.23 1923.89 4111.12 1902.49 4129.12 1896.48C4111.12 1890.48 4097.23 1869.07 4094.36 1842.32Z" fill="#FF9900"/>
<path d="M3962 2026.31C3959.13 2053.05 3945.24 2074.46 3927.25 2080.47C3945.25 2086.47 3959.13 2107.88 3962 2134.62C3964.87 2107.88 3978.76 2086.47 3996.75 2080.47C3978.73 2074.46 3964.84 2053.05 3962 2026.31Z" fill="#FF9900"/>
<path d="M1174.35 629.28C1210.44 629.28 1239.7 583.685 1239.7 527.44C1239.7 471.195 1210.44 425.6 1174.35 425.6C1138.26 425.6 1109 471.195 1109 527.44C1109 583.685 1138.26 629.28 1174.35 629.28Z" fill="#FF9900"/>
<path d="M1382.78 848.4C1408.59 848.4 1429.52 815.793 1429.52 775.57C1429.52 735.347 1408.59 702.74 1382.78 702.74C1356.97 702.74 1336.04 735.347 1336.04 775.57C1336.04 815.793 1356.97 848.4 1382.78 848.4Z" fill="#FF9900"/>
<path d="M800.27 1439C826.084 1439 847.01 1406.39 847.01 1366.17C847.01 1325.95 826.084 1293.34 800.27 1293.34C774.456 1293.34 753.53 1325.95 753.53 1366.17C753.53 1406.39 774.456 1439 800.27 1439Z" fill="#FF9900"/>
<path d="M1507.44 462.62C1505.44 481.17 1495.82 496.02 1483.34 500.18C1495.82 504.35 1505.45 519.18 1507.44 537.75C1509.44 519.2 1519.06 504.35 1531.55 500.18C1519.06 496 1509.43 481.17 1507.44 462.62Z" fill="#FF9900"/>
<path d="M711.88 1260.5C725.195 1260.5 735.99 1243.68 735.99 1222.93C735.99 1202.18 725.195 1185.36 711.88 1185.36C698.564 1185.36 687.77 1202.18 687.77 1222.93C687.77 1243.68 698.564 1260.5 711.88 1260.5Z" fill="#FF9900"/>
<path d="M1204.73 1095.83C1230.54 1095.83 1251.47 1063.22 1251.47 1023C1251.47 982.777 1230.54 950.17 1204.73 950.17C1178.92 950.17 1157.99 982.777 1157.99 1023C1157.99 1063.22 1178.92 1095.83 1204.73 1095.83Z" fill="#FF9900"/>
<path d="M1177.09 1377.82C1172.7 1377.83 1168.33 1377.27 1164.09 1376.15C1156.4 1374.06 1149.29 1370.25 1143.29 1365.01C1136.72 1359.34 1131.33 1352.45 1127.4 1344.71L1127.63 1344.61C1131.54 1352.31 1136.91 1359.18 1143.45 1364.83C1149.42 1370.05 1156.51 1373.83 1164.16 1375.91C1173.48 1378.38 1183.59 1378.09 1194.22 1375.05L1194.29 1375.29C1188.7 1376.93 1182.91 1377.78 1177.09 1377.82Z" fill="#DA635F"/>
<path d="M2296.72 2008.47C2163.72 2030.47 2085.44 2191.19 2085.44 2191.19C2103.39 2283.37 2177.62 2272.77 2280.44 2231.98C2383.26 2191.19 2438.2 2077.39 2437.6 2067.56C2435.93 2040.64 2429.68 1986.44 2296.72 2008.47Z" fill="#2F53A5"/>
<path d="M2150.22 2072.71L2008.06 2183.38L2046.81 2252.21C2100.31 2253.6 2162.71 2230.21 2189.08 2206.68C2215.45 2183.15 2287.57 2100.73 2287.57 2100.73L2190.57 2066.2C2183.84 2063.8 2176.61 2063.15 2169.56 2064.28C2162.51 2065.42 2155.86 2068.32 2150.22 2072.71V2072.71Z" fill="#F9B497"/>
<path d="M2260.1 2123.27C2260.1 2123.27 2304.39 2110.79 2291.63 2093.42C2278.87 2076.05 2247.34 2074.86 2236.4 2072.28C2225.46 2069.7 2165.83 2044.7 2152.1 2055.97C2138.37 2067.24 2121.72 2109.34 2121.72 2109.34L2235.81 2150.15C2235.81 2150.15 2311.81 2183.98 2337.65 2174.8C2363.49 2165.62 2260.1 2123.27 2260.1 2123.27Z" fill="#F9B497"/>
<path d="M2325.1 2092.43C2313.89 2085.72 2270.42 2079.52 2270.42 2079.52L2281.3 2075.07C2292.18 2070.62 2312.4 2082.07 2343.67 2079.18C2374.94 2076.29 2366.31 2058.62 2366.31 2058.62C2366.31 2058.62 2302.39 2043.85 2289.31 2039.35C2276.23 2034.85 2208.2 2058.43 2208.2 2058.43C2208.2 2058.43 2233.31 2043.92 2269.36 2031.99C2305.41 2020.06 2302.36 2005.77 2302.36 2005.77C2302.36 2005.77 2273.73 2004.77 2253.36 2010.28C2232.99 2015.79 2178.57 2031.02 2166.98 2037.17C2155.39 2043.32 2104.51 2112.17 2104.51 2112.17L2248.71 2126.54L2274.1 2116.15C2274.1 2116.15 2312.89 2114.39 2340.65 2127.02C2368.41 2139.65 2373.65 2131.85 2382.36 2125.47C2391.07 2119.09 2336.31 2099.13 2325.1 2092.43Z" fill="#F9B497"/>
<path d="M1616.12 2261.89L1471.37 2347.89C1466.25 2422.19 1455.1 2452.38 1534.29 2504.12C1613.48 2555.86 1993.41 2304.62 2142.6 2207.92L2023.77 2175.44C1895.38 2211.45 1616.12 2261.89 1616.12 2261.89Z" fill="#F9B497"/>
<path d="M1376.85 1394C1407.72 1409.7 1433.78 1404.18 1436.33 1401.89C1438.88 1399.6 1442.51 1382.44 1442.51 1382.44C1442.51 1382.44 1346 1378.25 1376.85 1394Z" fill="white"/>
<path d="M1374.7 1947.4C1374.7 1947.4 1413.59 2461.3 1524.78 2500.55C1635.97 2539.8 1702.36 2283.55 1702.36 2283.55L1606.29 1874.24L1374.7 1947.4Z" fill="#F9B497"/>
<path d="M1573.09 2070L1397.83 2146.56C1420.2 2295.71 1460.35 2477.81 1524.77 2500.56C1527.23 2501.42 1529.64 2501.97 1532.05 2502.56C1532.83 2503.08 1533.49 2503.56 1534.29 2504.1C1545.13 2511.18 1561.76 2512.42 1582.51 2509.32C1582.31 2508.62 1582.2 2508.02 1581.99 2507.32C1539.15 2363.22 1638.68 2260.95 1687.66 2220.94L1654.29 2078.77L1573.09 2070Z" fill="#F29E81"/>
<path d="M1109.85 1373.17C1109.85 1373.17 1095.85 1527.56 1046.91 1582.95C997.97 1638.34 1301.62 1630.12 1301.62 1630.12L1301.35 1441.12L1109.85 1373.17Z" fill="#F9B497"/>
<path d="M1303.08 1611.17C1246.67 1622.1 1055.65 1572.46 1055.65 1572.46C1055.65 1572.46 942.19 1583.73 823.09 1668.88C684.3 1768.11 740.98 2159.88 725.25 2561.05C724.86 2570.93 1383.43 2561.05 1383.43 2561.05L1397.32 2274.92L1404.2 2331.37L1685 2200.58C1685 2200.58 1636.06 1843.16 1572.81 1751.83C1548.86 1717.18 1303.08 1611.17 1303.08 1611.17Z" fill="#F49F16"/>
<path d="M1377.32 2003.88C1388.76 2216.18 1220.95 2240.33 1220.95 2240.33L1213.32 2539.08L1384.67 2535.51L1397.32 2274.92L1404.2 2331.37L1685 2200.58C1685 2200.58 1683.31 2188.31 1680.19 2167.82C1623.29 2186 1442.31 2224.42 1377.32 2003.88Z" fill="#F48116"/>
<path d="M1423.44 1248.49C1412.2 1200.05 1452.58 1199.76 1412.66 1077.03C1412.66 1077.03 1172.78 880.91 1029.43 1089.1C927.11 1237.7 1111.43 1371.26 1111.43 1371.26C1191.09 1522.62 1364.43 1523.84 1401.53 1510.96C1438.63 1498.08 1414.53 1459.25 1435.98 1426.96C1443.85 1415.15 1417.15 1434.36 1401.92 1408.8C1395.48 1397.98 1405.06 1390.1 1406.98 1390.17C1438.77 1391.26 1447.23 1389.68 1448.67 1380.17C1449.36 1375.63 1429.67 1348.06 1447.25 1339.75C1464.83 1331.44 1467.37 1316.42 1461.46 1310.29C1446.92 1295.25 1430.53 1279 1423.44 1248.49Z" fill="#F9B497"/>
<path d="M1388.53 920.79C1375.22 928.98 1287.65 972.32 1227.44 969.92C1167.23 967.52 1043.06 973.75 1058.22 1022.24C948.1 1110.24 956.15 1193.34 1008.22 1258.56C1060.29 1323.78 1091.73 1455.38 1091.73 1455.38C1116.66 1472.38 1139.13 1362.38 1136.73 1349.66C1112.28 1291.29 1132.66 1250.99 1165.93 1241.3C1199.2 1231.61 1216.74 1260.49 1219.7 1273.12C1263.19 1261.04 1248.84 1188.89 1248.84 1188.89C1329.11 1182.15 1398.4 1098.67 1374.39 1050.35C1413.07 1089.79 1434.82 1121.35 1444.25 1148.24C1453.34 1114.4 1439.25 1080.87 1435.36 1072.24C1475.52 1015.9 1401.84 912.59 1388.53 920.79Z" fill="#2B1710"/>
<path d="M1402.17 1175.71C1386.05 1173.13 1345.1 1170.54 1334.89 1195.4C1331.05 1204.77 1349.35 1201.28 1360.55 1197.89C1371.75 1194.5 1397.07 1200.82 1406.55 1199.47C1416.03 1198.12 1418.28 1178.29 1402.17 1175.71Z" fill="#AA492D"/>
<path d="M1384.93 1221.76C1378.31 1221.94 1373.32 1235.52 1373.8 1252.08C1374.28 1268.64 1380.04 1281.91 1386.66 1281.72C1393.28 1281.53 1398.28 1267.97 1397.8 1251.41C1397.32 1234.85 1391.56 1221.58 1384.93 1221.76Z" fill="#412016"/>
<g opacity="0.44">
<path d="M1247.08 1383.66L1239.87 1386.94C1239.87 1386.94 1210.61 1505.33 1301.72 1559.56L1300.37 1509.24C1354.26 1523.64 1382.05 1517.24 1399.55 1511.24C1334.32 1509.32 1288.38 1487.9 1247.08 1383.66Z" fill="#DA635F"/>
</g>
<path d="M1391.85 1384.38C1391.38 1384.1 1390.82 1384.02 1390.29 1384.16C1389.76 1384.29 1389.31 1384.63 1389.03 1385.1C1388.31 1386.31 1382.03 1397.1 1383.71 1404.04C1383.83 1404.53 1384.12 1404.96 1384.53 1405.25C1384.94 1405.54 1385.45 1405.67 1385.95 1405.61H1386.19C1386.46 1405.55 1386.71 1405.44 1386.93 1405.29C1387.15 1405.13 1387.34 1404.93 1387.49 1404.7C1387.63 1404.47 1387.72 1404.21 1387.76 1403.94C1387.8 1403.67 1387.78 1403.39 1387.71 1403.13C1386.64 1398.63 1390.86 1390.13 1392.57 1387.25C1392.72 1387.02 1392.81 1386.75 1392.86 1386.48C1392.9 1386.21 1392.89 1385.93 1392.82 1385.66C1392.75 1385.39 1392.63 1385.14 1392.46 1384.92C1392.3 1384.7 1392.09 1384.52 1391.85 1384.38V1384.38Z" fill="#FF7171"/>
<path d="M687.6 1804.77C660 1920.46 601.68 2096 601.68 2096C601.68 2096 811.68 2206.61 851.43 2179.32C880.83 2159.13 901.77 2100.95 912.1 2064.57L904 1625.33C827.11 1662.54 715.24 1689.09 687.6 1804.77Z" fill="#F49F16"/>
<path d="M912.11 2065.29L912.66 2062.58C912.48 2063.24 912.29 2063.92 912.1 2064.58L912.11 2065.29Z" fill="#F49F16"/>
<path d="M912.66 2062.58C921.39 2031.34 921.88 2017.81 912.66 2062.58V2062.58Z" fill="#F49F16"/>
<path d="M1568.94 2456.64C1522.36 2465.29 1493.57 2443.96 1493.29 2443.74C1492.73 2443.34 1492.04 2443.16 1491.35 2443.26C1490.67 2443.35 1490.05 2443.71 1489.62 2444.25C1489.41 2444.52 1489.26 2444.84 1489.17 2445.17C1489.08 2445.5 1489.06 2445.85 1489.11 2446.19C1489.15 2446.53 1489.27 2446.86 1489.44 2447.16C1489.62 2447.46 1489.85 2447.71 1490.13 2447.92C1491.13 2448.7 1511.76 2464 1546.65 2464C1554.44 2463.98 1562.22 2463.25 1569.88 2461.81C1570.22 2461.75 1570.54 2461.62 1570.83 2461.43C1571.13 2461.25 1571.38 2461 1571.57 2460.72C1571.77 2460.43 1571.91 2460.11 1571.98 2459.78C1572.05 2459.44 1572.05 2459.09 1571.99 2458.75C1571.84 2458.08 1571.45 2457.49 1570.88 2457.09C1570.31 2456.7 1569.62 2456.54 1568.94 2456.64Z" fill="#EB5959"/>
<path d="M690.2 1956.45C689.576 1948.13 685.67 1940.39 679.342 1934.95C673.015 1929.5 664.784 1926.8 656.46 1927.42C648.136 1928.04 640.401 1931.95 634.957 1938.28C629.513 1944.61 626.806 1952.84 627.43 1961.16L672.89 2566.9C673.49 2574.81 677.051 2582.2 682.864 2587.59C688.676 2592.99 696.31 2595.99 704.24 2596C705.03 2596 705.83 2596 706.63 2595.92C714.947 2595.28 722.671 2591.37 728.108 2585.05C733.545 2578.72 736.25 2570.5 735.63 2562.18L690.2 1956.45Z" fill="#D8916C"/>
<path d="M1195.64 1853.67H662.06C618.15 1853.67 583.58 1888.67 587.13 1929.5L645.44 2758.36L1329.86 2760L1270.57 1918.15C1267.4 1881.72 1234.8 1853.67 1195.64 1853.67Z" fill="#F54444"/>
<path d="M1193.91 2532.14L1188.47 2528.87L1316.81 2759.45L1766 2758.36L1746.43 2556.06L1193.91 2532.14Z" fill="#F54444"/>
<g style="mix-blend-mode:multiply" opacity="0.49">
<path d="M1200.55 1853.06C1158.64 1854.7 1126.1 1888.73 1129.55 1928.58L1187.21 2598.89H1329.88L1271.25 1917.23C1268.18 1881.9 1237.71 1854.68 1200.55 1853.06Z" fill="#FF775F"/>
</g>
<path d="M1246 1956.45C1244.59 1939.12 1228.08 1926.13 1209.69 1927.45C1191.04 1928.76 1177.06 1943.86 1178.45 1961.19L1227.38 2566.93C1228.72 2583.46 1243.56 2596.04 1261.11 2596.04C1261.97 2596.04 1262.83 2596.04 1263.69 2595.96C1282.34 2594.65 1296.32 2579.55 1294.93 2562.22L1246 1956.45Z" fill="white"/>
<path d="M1804.71 2503.57H1266.26C1257.91 2503.57 1249.91 2506.89 1244.01 2512.79C1238.11 2518.69 1234.79 2526.69 1234.79 2535.04C1234.79 2543.39 1238.11 2551.39 1244.01 2557.29C1249.91 2563.19 1257.91 2566.51 1266.26 2566.51H1804.71C1813.06 2566.51 1821.06 2563.19 1826.96 2557.29C1832.86 2551.39 1836.18 2543.39 1836.18 2535.04C1836.18 2526.69 1832.86 2518.69 1826.96 2512.79C1821.06 2506.89 1813.06 2503.57 1804.71 2503.57V2503.57Z" fill="white"/>
<path d="M1185.41 1274.29C1171.55 1267.2 1157.81 1273.17 1157.23 1273.43L1159.92 1280.27C1160.03 1280.27 1171.32 1275.41 1182.24 1281.03C1190.35 1285.2 1196.37 1294.03 1200.24 1307.3C1191.64 1308.14 1173.61 1311.3 1167.16 1323.56L1173.42 1327.04C1178.7 1317.04 1197.89 1314.55 1204.83 1314.45L1209.41 1314.38L1208.33 1309.77C1204.05 1291.82 1196.36 1279.88 1185.41 1274.29Z" fill="#38261F"/>
<path d="M3640.8 809.34C3538.36 896.26 3437.94 976.21 3340.67 1049.63C3337.73 1052.25 3322.14 1065.63 3301.67 1062.75C3296.09 1061.93 3290.71 1060.03 3285.86 1057.15L3222.86 1000.45C3218.58 995.408 3215.81 989.264 3214.86 982.72C3214.14 977.265 3214.78 971.716 3216.73 966.57C3214.41 971.95 3212.09 977.327 3209.78 982.7C3207.5 988.193 3206.71 994.193 3207.49 1000.09C3208.44 1006.63 3211.21 1012.78 3215.49 1017.82L3278.49 1074.52C3283.34 1077.4 3288.72 1079.3 3294.3 1080.12C3314.75 1083.02 3330.3 1069.62 3333.3 1067C3430.57 993.58 3530.99 913.63 3633.43 826.71C3741.84 734.71 3842.2 643.65 3934.84 554.92C3937.8 551.562 3940.28 547.818 3942.23 543.79C3944.57 538.223 3946.9 532.653 3949.23 527.08C3947.33 530.86 3944.95 534.379 3942.15 537.55C3849.57 626.28 3749.21 717.35 3640.8 809.34Z" fill="#193584"/>
<path d="M3951.34 522.19C3951.48 521.87 3951.62 521.54 3951.75 521.19C3951.68 521.28 3951.62 521.37 3951.55 521.45C3951.47 521.71 3951.42 522 3951.34 522.19Z" fill="#0F2554"/>
<path d="M3218.55 962.39C3218.67 962.16 3218.77 961.9 3218.89 961.67L3218.55 962.39Z" fill="#0F2554"/>
<path d="M3951.25 498.77C3951.25 498.77 3950.9 497.85 3950.49 496.94C3948.54 492.58 3911.72 416.5 3893.4 378.65C3892.32 376.18 3885.72 361.65 3873.68 360.13C3871.44 359.9 3869.19 360.022 3866.99 360.49C3859.33 361.96 3852.31 365.756 3846.89 371.36C3753.39 461.58 3658.06 552.22 3560.89 643.28C3448.76 748.32 3337.31 850.953 3226.56 951.18C3223.51 954.279 3220.93 957.814 3218.91 961.67C3218.79 961.9 3218.69 962.16 3218.57 962.39C3217.89 963.748 3217.29 965.144 3216.77 966.57C3214.82 971.716 3214.18 977.265 3214.9 982.72C3215.85 989.264 3218.62 995.408 3222.9 1000.45L3285.9 1057.15C3290.76 1060.03 3296.13 1061.93 3301.71 1062.75C3322.16 1065.65 3337.71 1052.25 3340.71 1049.63C3437.98 976.21 3538.4 896.26 3640.84 809.34C3749.25 717.34 3849.61 626.28 3942.25 537.55C3945.05 534.379 3947.43 530.86 3949.33 527.08C3950.12 525.495 3950.8 523.862 3951.38 522.19C3951.46 521.96 3951.51 521.71 3951.59 521.47C3953.22 516.724 3953.77 511.677 3953.22 506.69C3952.9 503.978 3952.23 501.318 3951.25 498.77V498.77Z" fill="#2459D3"/>
<path d="M4095.31 830L4095.05 830.25L4095.31 830Z" fill="#0F2554"/>
<path d="M4237.36 1364.83C4171.72 1395.61 4103.6 1425.88 4033 1455.65C3861.29 1527.74 3695.81 1586.77 3539.12 1635.3C3537.91 1635.73 3530.57 1638.14 3523.35 1634.1C3520.09 1632.25 3517.45 1629.46 3515.78 1626.1C3481.49 1527.74 3451.21 1447.72 3428.14 1388.77C3403 1324.53 3384.76 1281.07 3377.75 1264.48C3363.92 1231.73 3350.01 1199.8 3336 1168.69C3332.66 1169.87 3329.26 1171.1 3325.92 1172.27C3323.72 1173.55 3321.3 1174.39 3318.79 1174.75C3333.82 1208.08 3348.78 1242.31 3363.65 1277.44C3370.65 1294.03 3388.9 1337.44 3414.04 1401.73C3437.11 1460.73 3467.38 1540.73 3501.67 1639.06C3503.35 1642.42 3505.98 1645.2 3509.24 1647.06C3516.47 1651.06 3523.8 1648.69 3525.02 1648.26C3681.71 1599.73 3847.18 1540.7 4018.9 1468.61C4089.51 1438.97 4157.63 1408.7 4223.28 1377.79C4224.63 1377.14 4225.9 1376.31 4227.04 1375.33V1375.33L4241.9 1361.71H4241.81C4240.5 1362.97 4238.99 1364.03 4237.36 1364.83V1364.83Z" fill="#193584"/>
<path d="M4201.87 1167.15C4169.94 1046.98 4135.22 933.04 4098.87 825.35C4097.84 827.024 4096.64 828.583 4095.28 830L4095.02 830.25C4094.03 831.256 4092.97 832.182 4091.84 833.02L4078.07 845.02C4076.44 846.497 4074.64 847.769 4072.71 848.81C3960.71 907.28 3839 966 3707.77 1022.92C3578.25 1079.1 3453.82 1127.25 3335.94 1168.73C3349.94 1199.86 3363.86 1231.79 3377.69 1264.52C3384.69 1281.11 3402.94 1324.52 3428.08 1388.81C3451.15 1447.81 3481.43 1527.81 3515.72 1626.14C3517.39 1629.5 3520.03 1632.29 3523.29 1634.14C3530.51 1638.14 3537.85 1635.77 3539.06 1635.34C3695.75 1586.81 3861.23 1527.78 4032.94 1455.69C4103.56 1426.05 4171.69 1395.78 4237.32 1364.87C4238.96 1364.06 4240.46 1363.01 4241.78 1361.74C4243.04 1360.59 4244.09 1359.24 4244.9 1357.74C4245.94 1355.69 4246.55 1353.44 4246.69 1351.15C4246.83 1348.85 4246.51 1346.55 4245.74 1344.38C4232.44 1286.43 4217.82 1227.36 4201.87 1167.15Z" fill="#2459D3"/>
<path d="M3276 1105.11C3275.94 1105 3276 1105.11 3276 1105.11V1105.11Z" fill="#193584"/>
<path d="M3723.62 1009.27C3590.42 1067.04 3462.55 1116.39 3341.71 1158.65C3340.9 1159.14 3333.97 1163.23 3326.82 1160.14C3324.43 1159.07 3322.36 1157.4 3320.82 1155.29L3293.62 1095.03C3292.85 1093.92 3292.25 1092.7 3291.81 1091.42C3291.08 1089.08 3290.89 1086.61 3291.26 1084.19C3291.9 1081.18 3293.54 1078.48 3295.92 1076.53V1076.53L3280.71 1089.69C3278.02 1091.68 3276.15 1094.58 3275.44 1097.85C3275.07 1100.27 3275.26 1102.74 3275.99 1105.08C3276.28 1105.65 3279.33 1112.08 3304.99 1168.9C3306.53 1171.02 3308.6 1172.7 3310.99 1173.76C3313.43 1174.8 3316.12 1175.15 3318.75 1174.76C3321.26 1174.4 3323.69 1173.56 3325.88 1172.28C3329.22 1171.11 3332.62 1169.88 3335.96 1168.7C3453.84 1127.22 3578.27 1079.07 3707.79 1022.89C3839 966 3960.74 907.27 4072.75 848.8C4074.68 847.759 4076.48 846.487 4078.11 845.01V845.01L4091.88 833.01C4090.82 833.801 4089.71 834.513 4088.55 835.14C3976.55 893.62 3854.85 952.34 3723.62 1009.27Z" fill="#193584"/>
<path d="M3291.79 1091.47C3291.73 1091.35 3291.79 1091.47 3291.79 1091.47V1091.47Z" fill="#2459D3"/>
<path d="M4063.56 697.29C4061.48 688.98 4055.24 682.85 4047.87 681.81C4043.54 681.316 4039.18 682.38 4035.57 684.81C3925.91 752.41 3807.44 820.81 3680.18 888.28C3548.6 958.04 3421.46 1019.48 3300.31 1073.66C3298.71 1074.43 3297.22 1075.41 3295.89 1076.58C3293.51 1078.53 3291.87 1081.23 3291.23 1084.24C3290.86 1086.66 3291.05 1089.13 3291.78 1091.47C3292.07 1092.04 3295.12 1098.47 3320.78 1155.29C3322.32 1157.4 3324.39 1159.07 3326.78 1160.14C3333.93 1163.23 3340.86 1159.14 3341.67 1158.65C3462.51 1116.39 3590.38 1067.04 3723.58 1009.27C3854.81 952.34 3976.51 893.62 4088.51 835.15C4091.01 833.781 4093.29 832.045 4095.28 830C4097.62 827.555 4099.5 824.71 4100.83 821.6C4103.35 815.366 4103.5 808.428 4101.26 802.09L4063.56 697.29Z" fill="#2459D3"/>
<path d="M3546.34 977.67C3530.53 969.59 3513.95 961.67 3496.58 953.92C3449.83 933.168 3401.56 915.995 3352.21 902.55C3344.84 899.936 3337 898.947 3329.21 899.65C3325.25 900.043 3321.35 900.858 3317.56 902.08C3300.32 907.95 3275.66 920.15 3281.91 941.45C3297.08 999.523 3317.1 1056.22 3341.76 1110.94C3342.76 1113.13 3344.56 1120.13 3350.84 1124.53C3360.58 1131.35 3374.27 1127.53 3381.55 1125.32C3404.82 1118.17 3471.87 1093.14 3560.55 1057.55C3563.69 1056 3575.14 1049.87 3579.19 1036.98C3581.73 1028.92 3580.19 1021.98 3579.19 1017.74C3573.72 994.83 3553 981.59 3546.34 977.67Z" fill="#F59014"/>
<path d="M3330.59 928.27C3326.62 929.432 3323.09 931.745 3320.44 934.914C3317.79 938.084 3316.14 941.968 3315.7 946.077C3315.25 950.185 3316.04 954.332 3317.95 957.994C3319.87 961.656 3322.82 964.668 3326.45 966.649C3330.08 968.63 3334.21 969.491 3338.33 969.124C3342.44 968.756 3346.36 967.176 3349.57 964.583C3352.79 961.991 3355.17 958.502 3356.4 954.559C3357.64 950.616 3357.67 946.395 3356.51 942.43C3354.95 937.116 3351.34 932.639 3346.48 929.984C3341.62 927.328 3335.9 926.712 3330.59 928.27V928.27Z" fill="#F54444"/>
<path d="M3372.92 1059.93C3368.96 1061.09 3365.43 1063.41 3362.78 1066.58C3360.13 1069.75 3358.48 1073.64 3358.04 1077.74C3357.6 1081.85 3358.38 1086 3360.3 1089.66C3362.22 1093.32 3365.17 1096.33 3368.8 1098.31C3372.43 1100.29 3376.56 1101.15 3380.68 1100.78C3384.79 1100.41 3388.7 1098.83 3391.92 1096.23C3395.14 1093.64 3397.51 1090.15 3398.75 1086.21C3399.98 1082.26 3400.02 1078.04 3398.85 1074.08C3398.08 1071.45 3396.79 1068.99 3395.07 1066.86C3393.35 1064.72 3391.22 1062.95 3388.82 1061.63C3386.41 1060.32 3383.77 1059.49 3381.04 1059.2C3378.31 1058.91 3375.55 1059.16 3372.92 1059.93Z" fill="#F54444"/>
<path d="M3512.4 1005.86C3508.43 1007.02 3504.9 1009.33 3502.25 1012.5C3499.6 1015.67 3497.95 1019.56 3497.51 1023.67C3497.06 1027.78 3497.85 1031.92 3499.76 1035.58C3501.68 1039.25 3504.64 1042.26 3508.26 1044.24C3511.89 1046.22 3516.02 1047.08 3520.14 1046.71C3524.25 1046.35 3528.17 1044.77 3531.38 1042.17C3534.6 1039.58 3536.98 1036.09 3538.21 1032.15C3539.45 1028.21 3539.48 1023.98 3538.32 1020.02C3536.76 1014.71 3533.15 1010.23 3528.29 1007.57C3523.43 1004.92 3517.72 1004.3 3512.4 1005.86V1005.86Z" fill="#F54444"/>
<path d="M3433.32 801.7C3427.04 807.59 3419.46 816.2 3411.17 824.65L3451.09 840.06C3470.66 847.61 3490.91 854.62 3511.09 861.97C3525.55 868.48 3540.09 874.79 3554.62 881.2C3583.17 857.767 3611.9 833.813 3640.8 809.34C3649.33 802.1 3657.73 794.87 3666.17 787.64L3514.34 724.64C3487.35 750.36 3460.5 776.2 3433.32 801.7Z" fill="white"/>
<path d="M3684.37 564L3850.55 623.65C3881.88 594.73 3912.45 566.017 3942.24 537.51C3947.1 532.054 3950.59 525.521 3952.43 518.45L3796.82 458.04C3758 491.86 3721.56 528.29 3684.37 564Z" fill="white"/>
<path d="M3546.73 694L3701 757.57C3738.87 724.65 3775.72 691.91 3811.55 659.35L3652.43 594.45C3617.33 627.77 3582 660.83 3546.73 694Z" fill="white"/>
<path d="M3734.17 984.23C3773.08 967.23 3811.74 949.7 3850.06 931.16C3856.47 928.06 3862.87 924.943 3869.26 921.81C3869.55 875.63 3869.84 829.447 3870.14 783.26C3825.69 808.833 3779.99 834.363 3733.04 859.85L3734.17 984.23Z" fill="white"/>
<path d="M3680.18 888.23C3649.07 904.723 3618.23 920.723 3587.65 936.23C3588.66 972.65 3589.66 1009.06 3590.65 1045.47C3597.76 1042.38 3605.11 1039.64 3612.65 1036.69C3636.84 1027.2 3660.38 1016.01 3684.27 1005.8C3691.59 1002.67 3698.88 999.5 3706.18 996.35C3705.95 955.77 3705.72 915.193 3705.51 874.62C3697.06 879.19 3688.69 883.72 3680.18 888.23Z" fill="white"/>
<path d="M4035.57 684.76C3993.57 710.64 3950.29 736.603 3905.73 762.65C3907.27 809.017 3908.8 855.383 3910.33 901.75C3940.51 886.95 3970.7 872.14 4001.05 857.68C4017.34 849.91 4033.83 842.23 4050.13 834.16L4047.76 681.8C4043.48 681.323 4039.16 682.371 4035.57 684.76V684.76Z" fill="white"/>
<path d="M4115.63 1250.39C4094.63 1260.71 4073.56 1270.87 4052.41 1280.87C4009.82 1301.01 3966.96 1320.57 3923.81 1339.54C3919.96 1341.23 3916.1 1342.89 3912.25 1344.54C3907.68 1327.04 3902.99 1309.57 3898.19 1292.14C3893.19 1273.91 3888.96 1255.14 3882.89 1237.21C3931.56 1215.61 3979.89 1193.33 4027.89 1170.36C4053.65 1158.03 4079.29 1145.48 4104.82 1132.72C4114.95 1127.66 4125.37 1122.72 4135.73 1117.62C4134.03 1111.24 4132.25 1104.89 4130.5 1098.52C4122.7 1102.52 4114.93 1106.6 4107.16 1110.52C4084.33 1121.85 4061.44 1133.08 4038.49 1144.19C4001.16 1162.33 3963.62 1180.05 3925.89 1197.35C3925.39 1193.74 3923.89 1190.06 3922.89 1186.45C3920.69 1178.45 3918.56 1170.51 3916.4 1162.55C3912.07 1146.62 3907.75 1130.69 3903.63 1114.7C3895.74 1084.05 3888.43 1053.26 3881.44 1022.39C3900.02 1014.29 3918.59 1006.18 3937.08 997.86C3984.11 976.687 4030.87 954.913 4077.37 932.54C4074.8 926.06 4072.29 919.56 4069.84 913.04C3982.7 955.5 3894.62 995.833 3805.59 1034.04C3711.24 1074.53 3615.44 1111.47 3518.96 1146.54C3491.6 1156.54 3464.11 1166.09 3436.71 1175.93C3428.2 1178.99 3419.49 1181.93 3410.78 1184.87C3411.93 1189.87 3413.02 1194.87 3414.15 1199.82C3420.28 1197.82 3426.38 1195.82 3432.42 1193.93C3456.75 1186.2 3480.97 1178.14 3505.06 1169.76C3537.26 1158.64 3569.32 1147.13 3601.24 1135.24C3612.75 1170.15 3624.07 1205.14 3634.85 1240.24C3640.29 1257.96 3645.54 1275.74 3650.85 1293.5C3652.85 1300 3654.18 1307.99 3656.85 1314.7C3643.59 1320.12 3630.36 1325.62 3617.04 1330.92C3590.51 1341.49 3563.84 1351.69 3537.23 1362.07C3518.31 1369.46 3498.52 1376.07 3479.84 1384.59C3481.27 1388.49 3482.67 1392.4 3484.08 1396.31C3501.08 1391.41 3517.71 1384.78 3534.2 1378.82C3558.2 1370.16 3581.94 1360.97 3605.7 1351.82C3653.21 1333.43 3700.53 1314.52 3747.64 1295.09C3787.98 1278.5 3828.09 1261.38 3867.97 1243.73C3871.97 1261.55 3877.68 1279.17 3882.55 1296.73C3882.7 1297.25 3882.85 1297.73 3882.99 1298.29C3838.08 1318.69 3793.08 1338.76 3747.31 1357.29C3691.83 1379.76 3635.67 1400.44 3579.06 1419.89C3563.58 1425.21 3548 1430.25 3532.52 1435.58C3522.36 1439.07 3511.72 1442.09 3501.52 1445.87L3506.08 1459.08C3514.47 1456.95 3522.78 1454.32 3530.98 1451.95C3545.22 1447.83 3559.35 1443.33 3573.46 1438.78C3602.17 1429.52 3630.69 1419.69 3659.08 1409.5C3716.34 1388.93 3772.95 1366.69 3828.92 1342.78C3848.77 1334.3 3868.55 1325.63 3888.27 1316.78C3891.46 1328.14 3894.63 1339.5 3897.93 1350.78C3819.67 1384.97 3740.98 1418.11 3661.39 1449.12C3636.39 1458.84 3611.39 1468.31 3586.32 1477.84C3573.8 1482.6 3561.26 1487.32 3548.7 1492C3539.47 1495.43 3529.81 1498.18 3521.7 1503.51C3522.8 1506.57 3523.89 1509.62 3525 1512.66C3533.43 1511.8 3541.41 1508.52 3549.56 1505.66C3561.23 1501.66 3572.89 1497.6 3584.56 1493.47C3606.89 1485.61 3629.12 1477.47 3651.3 1469.19C3695.68 1452.65 3739.84 1435.57 3783.79 1417.94C3871.2 1382.89 3957.56 1345.44 4042.88 1305.59C4066.84 1294.39 4090.7 1282.99 4114.47 1271.39C4132.39 1262.64 4151.47 1254.45 4169.04 1244.39L4164.3 1226.3C4147.67 1233.48 4131.66 1242.51 4115.63 1250.39ZM3671.39 1308.85L3670.9 1307.01C3668.59 1298.57 3666.13 1290.16 3663.7 1281.75C3658.7 1264.42 3653.38 1247.2 3648.07 1229.97C3637.76 1196.46 3627.03 1163.08 3615.86 1129.84C3627.86 1125.35 3639.84 1120.82 3651.8 1116.24C3724.18 1088.55 3795.96 1059.36 3867.13 1028.69C3873.8 1058.95 3880.99 1089.08 3888.7 1119.07C3892.82 1135.07 3897.01 1151.07 3901.47 1166.92C3903.69 1174.87 3906.02 1182.79 3908.36 1190.71C3909.64 1195.05 3910.36 1199.81 3912.68 1203.45C3908.48 1205.37 3904.31 1207.35 3900.11 1209.26C3824.41 1243.72 3748.28 1277.16 3671.39 1308.85V1308.85Z" fill="white"/>
<path d="M4175.59 1307.24C4152.81 1318.57 4129.92 1329.66 4106.93 1340.49C4060.72 1362.32 4014.1 1383.25 3967.07 1403.28C3873.46 1443.13 3778.42 1479.39 3681.96 1512.06C3635.57 1527.78 3588.43 1541.86 3542.2 1558.16C3543.84 1562.26 3545.51 1566.35 3547.2 1570.42C3588.42 1560.3 3629.2 1547.07 3669.29 1533.8C3717.58 1517.84 3765.55 1500.95 3813.22 1483.14C3908.76 1447.42 4002.85 1408.09 4095.49 1365.14C4121.34 1353.14 4147.06 1340.9 4172.65 1328.41C4178.13 1325.73 4183.7 1323.1 4189.29 1320.47C4187.68 1314.55 4186.09 1308.61 4184.49 1302.69C4181.51 1304.23 4178.56 1305.77 4175.59 1307.24Z" fill="white"/>
<path d="M3325.54 941.64C3317.31 944.06 3321.05 956.86 3329.3 954.44C3337.55 952.02 3333.78 939.22 3325.54 941.64Z" fill="white"/>
<path d="M3368.06 1071.79C3358.39 1074.63 3362.79 1089.67 3372.48 1086.79C3382.17 1083.91 3377.75 1068.94 3368.06 1071.79Z" fill="white"/>
<path d="M3504.44 1028.54C3508.37 1034.83 3519.44 1030.77 3515.44 1021.74C3511.5 1015.44 3500.42 1019.52 3504.44 1028.54Z" fill="white"/>
<path d="M3372.57 1860.61C3367.59 1859.15 3362.39 1858.59 3357.21 1858.96C3388.08 1871.35 3403 1917.83 3390.55 1965.54C3379.55 2007.6 3350.91 2036.92 3322.1 2038.73C3323.3 2039.21 3324.48 2039.73 3325.72 2040.13C3359.08 2050.19 3396.6 2018.13 3409.53 1968.59C3422.46 1919.05 3405.92 1870.67 3372.57 1860.61Z" fill="#1A4499"/>
<path d="M3419.43 2081.76C3413.92 2080.12 3408.18 2079.35 3402.43 2079.48C3443.49 2093.6 3463.66 2154.02 3447.43 2216.06C3433.15 2270.78 3395.32 2308.63 3357.84 2309.33C3358.51 2309.56 3359.14 2309.89 3359.84 2310.09C3402.26 2322.89 3449.98 2282.15 3466.44 2219.09C3482.9 2156.03 3461.85 2094.56 3419.43 2081.76Z" fill="#1A4499"/>
<path d="M3051.26 1863.19C2991.51 2092.14 3067.95 2315.41 3221.98 2361.88C3233.37 2365.28 3245.03 2367.65 3256.84 2368.96C3251.54 2367.82 3246.24 2366.51 3240.97 2364.96C3086.97 2318.49 3010.5 2095.22 3070.24 1866.27C3125.52 1654.46 3277.98 1512.12 3422.46 1528.77C3272.58 1496.57 3109 1642.07 3051.26 1863.19Z" fill="#FCEBC2"/>
<path d="M3444.07 1586.61C3438.56 1584.97 3432.82 1584.2 3427.07 1584.33C3468.13 1598.45 3488.3 1658.87 3472.07 1720.91C3457.79 1775.63 3419.96 1813.48 3382.48 1814.18C3383.15 1814.41 3383.78 1814.74 3384.48 1814.94C3426.9 1827.74 3474.62 1787 3491.08 1723.94C3507.54 1660.88 3486.49 1599.41 3444.07 1586.61Z" fill="#1A4499"/>
<path d="M3557.23 1818.65C3551.72 1817.01 3545.98 1816.23 3540.23 1816.36C3581.29 1830.48 3601.46 1890.9 3585.23 1952.94C3570.95 2007.66 3533.12 2045.52 3495.64 2046.22C3496.31 2046.45 3496.94 2046.77 3497.64 2046.97C3540.06 2059.77 3587.79 2019.03 3604.24 1955.97C3620.69 1892.91 3599.65 1831.44 3557.23 1818.65Z" fill="#1A4499"/>
<path d="M3230.93 1720.21C3225.42 1718.57 3219.68 1717.8 3213.93 1717.93C3254.99 1732.04 3275.16 1792.46 3258.93 1854.5C3244.65 1909.22 3206.82 1947.07 3169.34 1947.78C3170.01 1948.01 3170.64 1948.33 3171.34 1948.54C3213.76 1961.33 3261.48 1920.54 3277.93 1857.54C3294.38 1794.54 3273.35 1733 3230.93 1720.21Z" fill="#1A4499"/>
<path d="M3220.31 2010.53C3214.8 2008.89 3209.06 2008.12 3203.31 2008.25C3244.37 2022.36 3264.54 2082.78 3248.31 2144.82C3234.03 2199.54 3196.2 2237.4 3158.72 2238.1C3159.39 2238.33 3160.02 2238.65 3160.72 2238.86C3203.14 2251.65 3250.86 2210.86 3267.32 2147.86C3283.78 2084.86 3262.73 2023.33 3220.31 2010.53Z" fill="#1A4499"/>
<path d="M3457.33 1535.82C3445.94 1532.42 3434.27 1530.05 3422.46 1528.73C3277.98 1512.08 3125.52 1654.42 3070.24 1866.23C3010.5 2095.18 3086.93 2318.45 3240.97 2364.92C3246.24 2366.51 3251.54 2367.82 3256.84 2368.92C3406.73 2401.08 3570.35 2255.58 3628.05 2034.47C3687.8 1805.56 3611.36 1582.29 3457.33 1535.82ZM3337.47 1677.61C3351.75 1622.89 3389.58 1585.03 3427.06 1584.33C3432.81 1584.2 3438.55 1584.97 3444.06 1586.61C3486.48 1599.41 3507.53 1660.9 3491.06 1723.95C3474.59 1787 3426.88 1827.74 3384.46 1814.95C3383.78 1814.75 3383.15 1814.42 3382.46 1814.19C3341.45 1800.07 3321.28 1739.65 3337.47 1677.61ZM3267.33 2147.86C3250.87 2210.86 3203.15 2251.65 3160.73 2238.86C3160.05 2238.65 3159.42 2238.33 3158.73 2238.1C3117.67 2223.98 3097.5 2163.56 3113.73 2101.52C3128.01 2046.8 3165.84 2008.95 3203.32 2008.25C3209.07 2008.12 3214.81 2008.89 3220.32 2010.53C3262.73 2023.33 3283.78 2084.81 3267.33 2147.86V2147.86ZM3277.94 1857.54C3261.49 1920.54 3213.77 1961.33 3171.35 1948.54C3170.67 1948.33 3170.04 1948.01 3169.35 1947.78C3128.29 1933.66 3108.12 1873.24 3124.35 1811.2C3138.63 1756.48 3176.46 1718.63 3213.94 1717.93C3219.69 1717.8 3225.43 1718.57 3230.94 1720.21C3273.35 1733 3294.4 1794.49 3277.94 1857.54V1857.54ZM3288.76 1932.15C3299.76 1890.1 3328.4 1860.78 3357.21 1858.96C3362.39 1858.59 3367.59 1859.15 3372.57 1860.61C3405.92 1870.67 3422.47 1919.01 3409.57 1968.61C3396.67 2018.21 3359.12 2050.21 3325.76 2040.15C3324.52 2039.77 3323.34 2039.23 3322.14 2038.75C3291.23 2026.34 3276.31 1979.87 3288.76 1932.15V1932.15ZM3466.45 2219.1C3449.99 2282.15 3402.27 2322.89 3359.85 2310.1C3359.17 2309.9 3358.54 2309.57 3357.85 2309.34C3316.79 2295.23 3296.62 2234.81 3312.85 2172.77C3327.13 2118.05 3364.96 2080.19 3402.44 2079.49C3408.19 2079.36 3413.93 2080.13 3419.44 2081.77C3461.85 2094.56 3482.9 2156.05 3466.45 2219.1V2219.1ZM3604.25 1956C3587.8 2019 3540.07 2059.79 3497.65 2047C3496.97 2046.8 3496.34 2046.48 3495.65 2046.25C3454.59 2032.13 3434.42 1971.71 3450.65 1909.67C3464.93 1854.95 3502.76 1817.1 3540.24 1816.39C3545.99 1816.26 3551.73 1817.04 3557.24 1818.68C3599.65 1831.44 3620.7 1892.93 3604.25 1956Z" fill="#F26522"/>
<path d="M3457.83 1676.05C3455.36 1675.31 3452.89 1674.7 3450.41 1674.11L3449.89 1673.95C3351.81 1650.95 3244.03 1745.95 3206.21 1890.81C3169.02 2033.35 3213.06 2172.43 3304.82 2210.47H3304.91C3308.91 2212.13 3313 2213.67 3317.19 2214.93C3321.38 2216.19 3325.65 2217.17 3329.9 2218L3438.14 2250.62C3341.46 2217.07 3294.14 2074.46 3332.26 1928.2C3369.89 1784.03 3476.79 1689.28 3574.46 1710.96L3463.76 1678.02C3461.79 1677.38 3459.84 1676.65 3457.83 1676.05Z" fill="#648AF5"/>
<path d="M3024.23 2442.87C2954.14 2461.18 2898 2409.49 2894.65 2406.3L2894.93 2406.49C2891.93 2404.16 2888.8 2401.71 2885.57 2399.03C2842.47 2363.16 2831.48 2337.62 2800.52 2304.71C2769 2271.21 2737.9 2252.51 2719.52 2241.62C2691.73 2225.19 2629.24 2185.93 2548.41 2190.74C2487.49 2194.37 2428.82 2214.47 2372.02 2236.81C2374.86 2271.51 2378.26 2306.96 2382.23 2343.16C2385 2368.28 2387.97 2392.99 2391.15 2417.3C2434.7 2394.9 2482.12 2380.99 2530.87 2376.3C2558.87 2373.63 2626.21 2367.96 2698.21 2397.49C2721.49 2407.04 2725.26 2412.65 2783.56 2439.96C2805.95 2450.45 2832.97 2462.59 2868.94 2472.17C2879.72 2475.04 2888.65 2476.96 2894.43 2478.12C2907.71 2476.94 2926.43 2474.97 2948.79 2471.56C2985.74 2465.93 3004.08 2462.8 3022.62 2455.33C3038.11 2449.09 3062.12 2436.01 3086.06 2405.95C3072.44 2419.88 3052 2435.62 3024.23 2442.87Z" fill="#2459D3"/>
<path d="M3010.67 2149.16C2994.91 2140.82 2983.35 2135.61 2967.67 2128.59C2886.3 2092.13 2850.98 2086.99 2805.34 2051.79C2781.48 2033.4 2773.94 2020.7 2772.93 2007.7C2771.14 1984.64 2790.44 1959.24 2791.4 1958.18C2805 1941.32 2844.19 1896.81 2903.4 1880.24C2889.49 1883.51 2875.4 1886.91 2861.18 1890.63C2815.66 1902.48 2772.71 1915.56 2732.41 1929.32C2725.37 1931.57 2718.47 1934.24 2711.75 1937.32C2687.97 1948.18 2655.04 1963.17 2639.63 1996.78C2625.51 2027.58 2629.31 2067.05 2648.89 2092.69C2659.89 2107.15 2673.48 2113.92 2680.83 2117.49C2754.73 2153.39 2849.55 2191.67 2878.45 2204.37C2914.87 2220.37 2951.65 2236.6 2983.45 2260.51C3015.25 2284.42 3042.08 2317.06 3051.35 2355.75C3054.57 2369.22 3055.54 2383.75 3050.35 2396.61C3038.69 2425.39 2996.8 2428.86 2983.71 2430.24C2941.64 2434.68 2908.6 2415.61 2894.97 2406.51L2894.69 2406.32C2898.04 2409.51 2954.18 2461.2 3024.27 2442.89C3052.01 2435.64 3072.48 2419.89 3086.07 2405.97C3093.49 2398.42 3100.09 2390.09 3105.74 2381.14C3115.07 2366.14 3118.96 2353.01 3121.26 2345.72C3134.26 2304.55 3134.56 2257.08 3111.26 2220.72C3094 2193.82 3066.55 2178.73 3010.67 2149.16Z" fill="#648AF5"/>
<path d="M2919.5 1876.47C2913.96 1877.47 2908.62 1878.77 2903.38 1880.24C2908.76 1879 2914.18 1877.67 2919.5 1876.47Z" fill="url(#paint0_linear_46_3409)"/>
<path d="M3361.4 2187.92C3360.88 2187.82 3360.4 2187.58 3359.89 2187.45C3281.07 2089.45 3218.16 2019.34 3189.47 1992.19C3173.8 1977.47 3157.25 1963.72 3139.92 1951C3126.09 1941.15 3111.73 1932.05 3096.92 1923.75C2998.62 1868 2933.39 1874.58 2933.39 1874.58C2928.68 1875.02 2924.06 1875.66 2919.55 1876.47C2914.23 1877.67 2908.81 1878.98 2903.43 1880.24C2844.23 1896.81 2805.04 1941.32 2791.43 1958.18C2816.43 1933.68 2833.43 1926.63 2842.15 1924.18C2842.8 1924 2844.35 1923.59 2846.24 1923.11C2854.03 1921.11 2870.24 1917.42 2886.3 1916.95C2918.19 1916.02 2949 1928.04 2977.69 1941.95C3059 1981.59 3127.6 2053.53 3205 2127.4C3223.24 2144.81 3239.1 2159.89 3251.41 2171.57C3257.6 2178.58 3264.4 2185.03 3271.73 2190.85L3272.16 2191.26L3272.37 2191.32C3282.25 2199.16 3293.16 2205.61 3304.79 2210.49H3304.88C3308.88 2212.15 3312.97 2213.69 3317.16 2214.95C3321.35 2216.21 3325.62 2217.19 3329.87 2218.02L3438.11 2250.64C3407.05 2239.89 3381.09 2217.77 3361.4 2187.92Z" fill="#2459D3"/>
<path opacity="0.75" d="M2834 1923.23C2853.92 1913.42 2878.38 1905.71 2901.13 1904.63C2910.62 1899.29 2920.01 1893.76 2929.5 1888.44C2889.12 1891.35 2853.15 1905.88 2821.8 1929.63C2825.91 1927.34 2830 1925.18 2834 1923.23Z" fill="#CCDCFF"/>
<path opacity="0.75" d="M2919.89 1905.19C2944.1 1907.64 2967.96 1916.19 2990.44 1927.29C3002.08 1920.62 3013.82 1914.14 3025.65 1907.85C3001.65 1897.51 2976.65 1889.85 2950.75 1888.3C2940.27 1893.55 2930.06 1899.33 2919.89 1905.19Z" fill="#CCDCFF"/>
<path opacity="0.75" d="M3037 1913C3024.85 1919.37 3012.82 1926 3000.89 1932.76C3014.61 1940.17 3027.76 1948.4 3040.04 1956.64C3046.61 1961.05 3053.04 1965.69 3059.31 1970.44C3073.05 1962.99 3086.65 1955.28 3100.31 1947.64C3092.44 1942.88 3084.54 1938.2 3076.58 1933.69C3063.72 1926.38 3050.5 1919.33 3037 1913Z" fill="#CCDCFF"/>
<path opacity="0.75" d="M3067.82 1976.88C3086.15 1991.49 3103.68 2007.07 3120.35 2023.55C3138.03 2015.8 3155.65 2007.81 3172.64 1998.67C3152.82 1982.12 3131.84 1967 3109.86 1953.44C3095.85 1961.26 3081.89 1969.17 3067.82 1976.88Z" fill="#CCDCFF"/>
<path opacity="0.75" d="M3180.63 2005.55C3163.56 2014.94 3145.83 2023.13 3127.99 2031C3133.67 2036.67 3139.3 2042.39 3144.88 2048.15C3156.04 2059.69 3167.02 2071.37 3177.97 2083.09C3198.53 2079.01 3219.14 2074.85 3239.25 2068.97C3227.48 2054.41 3215.4 2040.13 3202.51 2026.62C3195.5 2019.29 3188.21 2012.27 3180.63 2005.55Z" fill="#CCDCFF"/>
<path opacity="0.75" d="M3185.89 2091.57C3204.83 2111.87 3223.83 2132.09 3243.35 2151.86C3263.67 2151.72 3284 2150.94 3304.35 2151.29C3284.35 2127.17 3265.55 2101.93 3246.02 2077.29C3226.3 2083.31 3206.08 2087.54 3185.89 2091.57Z" fill="#CCDCFF"/>
<path opacity="0.75" d="M3312.67 2161.35C3292.81 2160.62 3272.91 2161.35 3253.02 2161.62C3274.85 2183.03 3299.23 2201.68 3325.61 2217.14C3327.04 2217.45 3328.47 2217.78 3329.9 2218.06L3381.9 2233.72C3356.58 2212.22 3334.45 2187 3312.67 2161.35Z" fill="#CCDCFF"/>
<path opacity="0.75" d="M2711.73 1937.3H2711.65C2710.42 1939.23 2708.66 1940.76 2706.58 1941.71C2705 1942.45 2687.33 1953.35 2672.07 1968.4C2678.58 1966.62 2685.07 1964.95 2691.64 1963.3C2720.23 1956.03 2749.09 1949.88 2777.85 1943.3C2798.85 1910.38 2831.47 1899.02 2839.5 1896.44C2802 1906.71 2766.21 1917.73 2732.39 1929.27C2725.35 1931.53 2718.45 1934.21 2711.73 1937.3V1937.3Z" fill="#CCDCFF"/>
<path opacity="0.75" d="M2763.73 2026.39C2756.63 2005.04 2760.28 1984.55 2765.18 1969.94C2746.92 1974.03 2728.66 1978.08 2710.48 1982.51C2696.17 1986 2681.83 1989.63 2667.75 1993.94C2662.01 1995.7 2656.31 1997.67 2650.75 1999.94C2642.86 2024.12 2650.12 2052.94 2662.12 2071.94C2667.32 2080.16 2675.97 2090.59 2720.12 2114.99L2722.01 2115.99C2744.7 2098.14 2767.65 2080.57 2791.31 2063.99C2778.8 2054 2769 2042.35 2763.73 2026.39Z" fill="#CCDCFF"/>
<path opacity="0.75" d="M2812 2078.19C2789 2093.98 2766.69 2110.81 2744.69 2127.99C2772.5 2142.12 2792.51 2150.28 2794.22 2150.99C2819.01 2160.99 2839.4 2169.07 2856.51 2175.79C2874.15 2156.79 2892.08 2137.17 2911.87 2120.1C2867.76 2104.33 2858.21 2104.25 2831.21 2089.25C2824.46 2085.5 2818.07 2081.88 2812 2078.19Z" fill="#CCDCFF"/>
<path opacity="0.75" d="M2937.1 2129.46C2928.1 2136.73 2919.5 2144.68 2911.36 2152.56C2900.53 2163.03 2890.18 2173.96 2879.88 2184.93C2930.45 2204.66 2944.09 2209.86 2967.96 2225.26C2971.84 2227.77 2975.46 2230.26 2978.96 2232.66C2990.2 2224.37 3003.96 2218.21 3014.76 2212.45C3028.96 2204.91 3042.27 2195.29 3056 2186.35C3047.5 2181.23 3037.68 2175.77 3025.72 2169.16C3017.28 2164.51 2990 2149.78 2937.1 2129.46Z" fill="#CCDCFF"/>
<path opacity="0.75" d="M3076.7 2200.57C3059.98 2210.57 3044.49 2222.77 3027.31 2232.03C3018.02 2237.03 3008.55 2241.76 2999.63 2247.43C2999.41 2247.56 2999.2 2247.71 2998.99 2247.85C3018.91 2264.4 3030.14 2278.85 3037.79 2290.67C3044.54 2301.13 3053.44 2314.95 3058.58 2331.04C3078.05 2323.9 3098.7 2320.04 3118.93 2314.87C3119.25 2312.63 3119.62 2310.4 3119.81 2308.11C3122.48 2276.71 3112.59 2243.17 3093.67 2218.05C3088.75 2211.55 3083.05 2205.68 3076.7 2200.57Z" fill="#CCDCFF"/>
<path opacity="0.75" d="M3062.3 2349.52C3069.13 2368.39 3066.81 2389.71 3057.16 2407.87C3055.59 2410.77 3053.85 2413.58 3051.95 2416.27C3052.95 2416.49 3053.95 2416.63 3054.95 2416.86C3082.65 2393.38 3106.09 2365.32 3115.64 2331.02C3097.44 2335.22 3079.07 2339.02 3061.93 2345.75C3062.11 2347 3062.19 2348.26 3062.3 2349.52Z" fill="#CCDCFF"/>
<path opacity="0.75" d="M2504.91 2215.83C2469.46 2221.38 2433.91 2230.83 2401.03 2245.72C2405.89 2290.44 2412.03 2335 2417.27 2379.72C2425.82 2376.65 2434.66 2374.45 2443.65 2373.16C2467.77 2362.55 2493.83 2355.98 2519.65 2352.37C2549.91 2348.08 2580.65 2348.44 2610.8 2353.44L2596.31 2213.44C2566.09 2209.39 2535.54 2211 2504.91 2215.83Z" fill="#CCDCFF"/>
<path opacity="0.75" d="M2633 2221.37C2637.41 2247.76 2637.89 2274.56 2640.46 2301.31C2642.46 2321.75 2646.46 2341.85 2648.07 2362.14C2678.07 2371.05 2706.76 2383.95 2734.49 2398.61C2736.28 2399.55 2738.05 2400.55 2739.83 2401.51C2736.63 2357.18 2735.83 2312.63 2728.83 2268.69C2699.46 2248.58 2667.9 2231.92 2633 2221.37Z" fill="#CCDCFF"/>
<path opacity="0.75" d="M2743.88 2279.35C2749.62 2322.35 2750.23 2365.93 2753.73 2409.22C2774.73 2421.11 2795.5 2433.71 2817.15 2444.22C2822.59 2416.62 2828.94 2389.22 2834.15 2361.57C2829.74 2356.24 2825.33 2350.9 2820.89 2345.57C2796.33 2322.22 2771 2299.42 2743.88 2279.35Z" fill="#CCDCFF"/>
<path opacity="0.75" d="M2864.24 2396.22C2859.48 2391.16 2854.83 2385.94 2850.24 2380.63C2845.42 2404.34 2839.09 2427.72 2831.3 2450.63C2833.25 2451.47 2835.2 2452.34 2837.17 2453.13C2854.77 2460.19 2873.04 2465.04 2891.44 2469.51C2896.77 2458.57 2902.59 2447.9 2908.9 2437.51C2902.27 2432.71 2895.9 2427.58 2889.81 2422.12C2880.78 2414 2872.24 2405.35 2864.24 2396.22V2396.22Z" fill="#CCDCFF"/>
<path opacity="0.75" d="M2921.59 2445.73C2916.12 2454.73 2910.66 2463.73 2905.48 2472.86C2909.48 2473.86 2913.48 2474.78 2917.48 2475.76C2926.8 2474.68 2937.29 2473.31 2948.76 2471.56C2964.2 2469.21 2976.32 2467.29 2986.64 2465.31C2970.34 2463.75 2954.33 2459.99 2939.04 2454.14C2933 2451.82 2927.17 2449.01 2921.59 2445.73V2445.73Z" fill="#CCDCFF"/>
<path d="M3591.67 1716.15L3591.39 1716.07L3591.67 1716.15Z" fill="url(#paint1_linear_46_3409)"/>
<path d="M3591.67 1716.15L3591.4 1716.06C3588.92 1715.14 3586.4 1714.25 3583.88 1713.48C3580.75 1712.54 3577.61 1711.72 3574.46 1711.02C3476.79 1689.34 3369.89 1784.09 3332.26 1928.26C3294.1 2074.52 3341.46 2217.13 3438.14 2250.68C3439.84 2251.27 3441.51 2251.91 3443.24 2252.43C3444.97 2252.95 3446.76 2253.36 3448.52 2253.81H3448.57C3547.33 2279.12 3656.71 2183.81 3694.86 2037.64C3732.67 1892.75 3686.55 1751.39 3591.67 1716.15Z" fill="#2459D3"/>
<path d="M3555.46 1891.06C3550.48 1889.6 3545.28 1889.04 3540.1 1889.41C3570.97 1901.8 3585.89 1948.28 3573.44 1995.99C3562.44 2038.05 3533.8 2067.37 3504.99 2069.18C3506.19 2069.66 3507.37 2070.18 3508.62 2070.57C3541.97 2080.64 3579.49 2048.57 3592.43 1999.04C3605.37 1949.51 3588.81 1901.12 3555.46 1891.06Z" fill="#1A4499"/>
<path d="M3602.32 2112.22C3596.81 2110.57 3591.07 2109.8 3585.32 2109.93C3626.38 2124.05 3646.55 2184.47 3630.32 2246.51C3616.04 2301.23 3578.21 2339.08 3540.73 2339.78C3541.4 2340.01 3542.03 2340.34 3542.73 2340.54C3585.15 2353.34 3632.87 2312.6 3649.33 2249.54C3665.79 2186.48 3644.74 2125 3602.32 2112.22Z" fill="#1A4499"/>
<path d="M3234.15 1893.64C3174.4 2122.64 3250.84 2345.86 3404.87 2392.33C3416.26 2395.73 3427.93 2398.1 3439.74 2399.41C3434.42 2398.27 3429.13 2396.96 3423.86 2395.41C3269.86 2348.94 3193.39 2125.67 3253.13 1896.72C3308.41 1684.91 3460.87 1542.57 3605.35 1559.22C3455.47 1527 3291.85 1672.52 3234.15 1893.64Z" fill="#FCEBC2"/>
<path d="M3627 1617.06C3621.49 1615.41 3615.75 1614.64 3610 1614.78C3651.06 1628.9 3671.23 1689.32 3655 1751.36C3640.72 1806.08 3602.89 1843.93 3565.42 1844.63C3566.08 1844.86 3566.71 1845.19 3567.42 1845.39C3609.84 1858.19 3657.56 1817.45 3674.02 1754.39C3690.48 1691.33 3669.38 1629.86 3627 1617.06Z" fill="#1A4499"/>
<path d="M3740.12 1849.1C3734.61 1847.45 3728.87 1846.68 3723.12 1846.82C3764.18 1860.93 3784.35 1921.35 3768.12 1983.39C3753.84 2038.11 3716.01 2075.97 3678.53 2076.67C3679.2 2076.9 3679.83 2077.22 3680.53 2077.43C3722.95 2090.22 3770.68 2049.48 3787.13 1986.43C3803.58 1923.38 3782.54 1861.9 3740.12 1849.1Z" fill="#1A4499"/>
<path d="M3413.82 1750.66C3408.31 1749.02 3402.57 1748.25 3396.82 1748.38C3437.88 1762.49 3458.05 1822.91 3441.82 1884.95C3427.54 1939.67 3389.71 1977.53 3352.23 1978.23C3352.9 1978.46 3353.53 1978.78 3354.23 1978.99C3396.64 1991.78 3444.37 1950.99 3460.83 1887.99C3477.29 1824.99 3456.24 1763.45 3413.82 1750.66Z" fill="#1A4499"/>
<path d="M3403.2 2041C3397.69 2039.36 3391.95 2038.59 3386.2 2038.72C3427.26 2052.83 3447.43 2113.25 3431.2 2175.29C3416.92 2230.01 3379.09 2267.87 3341.61 2268.57C3342.28 2268.8 3342.91 2269.12 3343.61 2269.33C3386.03 2282.12 3433.75 2241.39 3450.21 2178.33C3466.67 2115.27 3445.62 2053.78 3403.2 2041Z" fill="#1A4499"/>
<path d="M3640.22 1566.27C3628.83 1562.87 3617.16 1560.5 3605.35 1559.18C3460.87 1542.53 3308.41 1684.87 3253.13 1896.68C3193.39 2125.68 3269.82 2348.9 3423.86 2395.37C3429.13 2396.96 3434.42 2398.27 3439.74 2399.37C3589.62 2431.53 3753.24 2286.03 3810.94 2064.92C3870.69 1836 3794.25 1612.74 3640.22 1566.27ZM3520.36 1708.06C3534.64 1653.34 3572.47 1615.48 3609.95 1614.78C3615.7 1614.64 3621.44 1615.41 3626.95 1617.06C3669.37 1629.86 3690.42 1691.35 3673.95 1754.4C3657.48 1817.45 3609.77 1858.19 3567.35 1845.4C3566.67 1845.2 3566.04 1844.87 3565.35 1844.64C3524.34 1830.52 3504.17 1770.1 3520.36 1708.06V1708.06ZM3450.22 2178.31C3433.76 2241.37 3386.04 2282.1 3343.62 2269.31C3342.94 2269.1 3342.31 2268.78 3341.62 2268.55C3300.56 2254.43 3280.39 2194.01 3296.62 2131.97C3310.9 2077.25 3348.73 2039.4 3386.21 2038.7C3391.96 2038.57 3397.7 2039.34 3403.21 2040.98C3445.62 2053.78 3466.67 2115.26 3450.22 2178.31ZM3460.84 1888C3444.38 1951 3396.65 1991.79 3354.24 1979C3353.56 1978.79 3352.93 1978.47 3352.24 1978.24C3311.18 1964.12 3291.01 1903.7 3307.24 1841.66C3321.52 1786.94 3359.35 1749.09 3396.83 1748.39C3402.58 1748.26 3408.32 1749.03 3413.83 1750.67C3456.24 1763.45 3477.29 1824.94 3460.84 1888ZM3471.65 1962.61C3482.65 1920.61 3511.29 1891.24 3540.1 1889.42C3545.28 1889.05 3550.48 1889.61 3555.46 1891.07C3588.81 1901.13 3605.36 1949.47 3592.46 1999.07C3579.56 2048.67 3542 2080.67 3508.65 2070.6C3507.4 2070.23 3506.22 2069.69 3505.02 2069.21C3474.12 2056.79 3459.2 2010.32 3471.65 1962.6V1962.61ZM3649.34 2249.61C3632.88 2312.61 3585.16 2353.4 3542.74 2340.61C3542.06 2340.41 3541.43 2340.08 3540.74 2339.85C3499.68 2325.74 3479.51 2265.32 3495.74 2203.28C3510.02 2148.56 3547.85 2110.7 3585.33 2110C3591.08 2109.87 3596.82 2110.64 3602.33 2112.29C3644.74 2125 3665.79 2186.5 3649.34 2249.55V2249.61ZM3787.14 1986.49C3770.69 2049.49 3722.96 2090.28 3680.54 2077.49C3679.86 2077.28 3679.23 2076.96 3678.54 2076.73C3637.48 2062.61 3617.31 2002.19 3633.54 1940.15C3647.82 1885.43 3685.65 1847.58 3723.13 1846.88C3728.88 1846.74 3734.62 1847.51 3740.13 1849.16C3782.54 1861.9 3803.59 1923.38 3787.14 1986.43V1986.49Z" fill="#F5B314"/>
<path d="M2384.3 2018.15C2349.21 2019.03 2305.3 2033.28 2305.3 2033.28L2322.63 2043.15C2322.63 2043.15 2355.75 2035.04 2381.41 2031.31C2407.07 2027.58 2424.41 2029.31 2424.41 2029.31L2420.02 2022.73C2420.02 2022.73 2417.64 2017.49 2384.3 2018.15Z" fill="#21427C"/>
<defs>
<linearGradient id="paint0_linear_46_3409" x1="2951.74" y1="1758.54" x2="3032.27" y2="1519.14" gradientUnits="userSpaceOnUse">
<stop offset="0.03" stop-color="#232323"/>
<stop offset="0.54" stop-color="#383838"/>
<stop offset="0.97" stop-color="#252525"/>
</linearGradient>
<linearGradient id="paint1_linear_46_3409" x1="3591.54" y1="1716.11" x2="3591.54" y2="1716.1" gradientUnits="userSpaceOnUse">
<stop offset="0.03" stop-color="#232323"/>
<stop offset="0.54" stop-color="#383838"/>
<stop offset="0.97" stop-color="#252525"/>
</linearGradient>
</defs>
</svg>
