<svg width="1500" height="904" viewBox="0 0 1500 904" fill="none" xmlns="http://www.w3.org/2000/svg">
<path fill-rule="evenodd" clip-rule="evenodd" d="M1058.26 168.685C1057.08 168.685 1056.12 167.741 1056.1 166.559C1056.08 165.364 1057.03 164.378 1058.22 164.357C1061.45 164.301 1064.7 164.264 1067.87 164.248H1067.88C1069.07 164.248 1070.04 165.209 1070.05 166.4C1070.05 167.595 1069.09 168.569 1067.89 168.575C1064.74 168.592 1061.51 168.628 1058.3 168.685C1058.29 168.685 1058.27 168.685 1058.26 168.685ZM1092.4 168.861C1092.38 168.861 1092.36 168.861 1092.34 168.861C1089.18 168.768 1085.96 168.697 1082.75 168.648C1081.56 168.63 1080.61 167.646 1080.62 166.451C1080.64 165.257 1081.65 164.295 1082.82 164.321C1086.05 164.37 1089.29 164.442 1092.46 164.534C1093.66 164.569 1094.6 165.566 1094.56 166.761C1094.53 167.934 1093.57 168.861 1092.4 168.861ZM1033.74 169.477C1032.59 169.477 1031.64 168.574 1031.58 167.414C1031.53 166.221 1032.45 165.208 1033.64 165.152C1036.87 165.002 1040.11 164.868 1043.28 164.756C1044.48 164.714 1045.48 165.647 1045.52 166.842C1045.56 168.036 1044.63 169.039 1043.43 169.081C1040.28 169.193 1037.05 169.326 1033.85 169.475C1033.81 169.477 1033.78 169.477 1033.74 169.477ZM1116.89 170.047C1116.84 170.047 1116.79 170.045 1116.74 170.041C1113.59 169.826 1110.38 169.632 1107.18 169.464C1105.98 169.401 1105.07 168.383 1105.13 167.19C1105.19 165.996 1106.22 165.075 1107.4 165.142C1110.63 165.311 1113.87 165.507 1117.03 165.724C1118.23 165.805 1119.13 166.838 1119.05 168.03C1118.97 169.172 1118.02 170.047 1116.89 170.047ZM1009.26 170.945C1008.13 170.945 1007.18 170.077 1007.1 168.938C1007.01 167.746 1007.91 166.71 1009.1 166.623C1012.31 166.39 1015.54 166.17 1018.72 165.97C1019.9 165.898 1020.94 166.801 1021.02 167.994C1021.09 169.187 1020.19 170.215 1018.99 170.289C1015.83 170.488 1012.61 170.707 1009.41 170.939C1009.36 170.943 1009.31 170.945 1009.26 170.945ZM1141.3 172.261C1141.22 172.261 1141.14 172.257 1141.06 172.247C1137.93 171.89 1134.73 171.555 1131.53 171.25C1130.34 171.137 1129.47 170.081 1129.58 168.891C1129.7 167.702 1130.76 166.829 1131.94 166.942C1135.16 167.249 1138.39 167.587 1141.55 167.947C1142.73 168.083 1143.59 169.155 1143.45 170.343C1143.32 171.447 1142.39 172.261 1141.3 172.261ZM1165.58 175.669C1165.46 175.669 1165.34 175.659 1165.22 175.639C1162.12 175.118 1158.94 174.619 1155.76 174.156C1154.58 173.983 1153.76 172.885 1153.94 171.702C1154.11 170.519 1155.21 169.703 1156.39 169.873C1159.6 170.341 1162.81 170.845 1165.93 171.371C1167.11 171.569 1167.91 172.685 1167.71 173.864C1167.53 174.921 1166.62 175.669 1165.58 175.669ZM1189.61 180.474C1189.45 180.474 1189.28 180.455 1189.12 180.416C1186.06 179.702 1182.92 179.011 1179.78 178.362C1178.61 178.12 1177.86 176.976 1178.1 175.805C1178.34 174.635 1179.49 173.882 1180.66 174.124C1183.84 174.78 1187.01 175.479 1190.1 176.202C1191.27 176.474 1191.99 177.638 1191.72 178.802C1191.48 179.8 1190.59 180.474 1189.61 180.474ZM1213.25 186.936C1213.03 186.936 1212.81 186.903 1212.59 186.835C1209.61 185.892 1206.54 184.973 1203.45 184.103C1202.3 183.779 1201.63 182.584 1201.95 181.434C1202.28 180.283 1203.48 179.614 1204.62 179.937C1207.76 180.82 1210.88 181.752 1213.9 182.708C1215.04 183.069 1215.67 184.285 1215.31 185.424C1215.02 186.347 1214.16 186.936 1213.25 186.936ZM1236.24 195.387C1235.96 195.387 1235.67 195.332 1235.4 195.215C1232.53 193.998 1229.55 192.805 1226.56 191.67C1225.44 191.248 1224.87 189.999 1225.3 188.881C1225.72 187.763 1226.97 187.2 1228.09 187.623C1231.14 188.777 1234.17 189.991 1237.09 191.23C1238.19 191.698 1238.7 192.968 1238.23 194.068C1237.88 194.892 1237.08 195.387 1236.24 195.387ZM1258.19 206.24C1257.83 206.24 1257.46 206.147 1257.12 205.951C1254.43 204.405 1251.62 202.885 1248.76 201.431C1247.7 200.889 1247.27 199.586 1247.82 198.521C1248.36 197.456 1249.66 197.032 1250.73 197.574C1253.65 199.061 1256.52 200.617 1259.27 202.199C1260.31 202.795 1260.67 204.118 1260.07 205.154C1259.67 205.85 1258.94 206.24 1258.19 206.24ZM1278.45 219.981C1277.97 219.981 1277.5 219.825 1277.1 219.503C1274.69 217.568 1272.14 215.657 1269.53 213.824C1268.55 213.137 1268.31 211.788 1269 210.809C1269.68 209.83 1271.03 209.594 1272.01 210.28C1274.7 212.167 1277.33 214.135 1279.81 216.13C1280.74 216.879 1280.89 218.241 1280.14 219.173C1279.71 219.704 1279.08 219.981 1278.45 219.981ZM1295.95 237.072C1295.32 237.072 1294.71 236.806 1294.28 236.289C1292.32 233.92 1290.19 231.569 1287.96 229.303C1287.12 228.451 1287.13 227.081 1287.99 226.243C1288.84 225.405 1290.21 225.415 1291.05 226.269C1293.36 228.621 1295.57 231.064 1297.61 233.528C1298.37 234.448 1298.25 235.812 1297.33 236.575C1296.92 236.909 1296.43 237.072 1295.95 237.072ZM1309.11 257.654C1308.29 257.654 1307.51 257.193 1307.15 256.407C1305.84 253.621 1304.36 250.841 1302.73 248.143C1302.11 247.119 1302.44 245.789 1303.46 245.171C1304.48 244.554 1305.81 244.882 1306.43 245.905C1308.14 248.733 1309.7 251.65 1311.07 254.573C1311.57 255.656 1311.11 256.944 1310.02 257.45C1309.73 257.589 1309.42 257.654 1309.11 257.654ZM1316.14 281.027C1315.08 281.027 1314.15 280.25 1314 279.171C1313.56 276.108 1312.93 273.028 1312.12 270.017C1311.81 268.863 1312.5 267.676 1313.65 267.367C1314.8 267.057 1315.99 267.744 1316.3 268.899C1317.15 272.074 1317.82 275.323 1318.28 278.555C1318.45 279.738 1317.63 280.835 1316.45 281.005C1316.35 281.02 1316.24 281.027 1316.14 281.027ZM1315.93 305.443C1315.82 305.443 1315.71 305.434 1315.59 305.416C1314.41 305.228 1313.61 304.119 1313.79 302.939C1314.29 299.852 1314.6 296.72 1314.73 293.63C1314.78 292.436 1315.78 291.516 1316.98 291.558C1318.18 291.608 1319.1 292.616 1319.05 293.81C1318.92 297.067 1318.59 300.367 1318.07 303.619C1317.9 304.684 1316.98 305.443 1315.93 305.443ZM1308.74 328.802C1308.44 328.802 1308.13 328.737 1307.83 328.601C1306.75 328.099 1306.28 326.813 1306.78 325.728C1308.1 322.873 1309.28 319.943 1310.28 317.018C1310.66 315.887 1311.89 315.284 1313.03 315.671C1314.16 316.057 1314.76 317.287 1314.37 318.419C1313.32 321.485 1312.09 324.556 1310.71 327.546C1310.34 328.336 1309.56 328.802 1308.74 328.802ZM1295.82 349.57C1295.34 349.57 1294.86 349.416 1294.47 349.097C1293.53 348.35 1293.38 346.989 1294.13 346.055C1296.1 343.591 1297.96 341.03 1299.67 338.442C1300.33 337.445 1301.67 337.171 1302.67 337.83C1303.67 338.489 1303.94 339.831 1303.28 340.829C1301.5 343.524 1299.56 346.192 1297.51 348.758C1297.08 349.292 1296.45 349.57 1295.82 349.57ZM1278.57 366.936C1277.94 366.936 1277.32 366.665 1276.89 366.141C1276.13 365.216 1276.27 363.852 1277.2 363.096C1279.64 361.099 1282.02 358.994 1284.26 356.836C1285.13 356.009 1286.5 356.036 1287.32 356.899C1288.15 357.761 1288.12 359.131 1287.26 359.959C1284.93 362.195 1282.47 364.378 1279.93 366.448C1279.53 366.776 1279.05 366.936 1278.57 366.936ZM1258.21 380.538C1257.44 380.538 1256.69 380.127 1256.3 379.403C1255.73 378.352 1256.12 377.038 1257.17 376.47C1259.95 374.967 1262.7 373.354 1265.33 371.676C1266.34 371.033 1267.67 371.328 1268.32 372.336C1268.96 373.343 1268.66 374.681 1267.66 375.324C1264.94 377.059 1262.1 378.725 1259.23 380.277C1258.91 380.454 1258.55 380.538 1258.21 380.538ZM1235.69 390.231C1234.79 390.231 1233.94 389.662 1233.64 388.76C1233.25 387.629 1233.86 386.4 1234.99 386.016C1238.19 384.934 1241.19 383.827 1243.92 382.726C1245.02 382.279 1246.28 382.814 1246.73 383.922C1247.18 385.031 1246.64 386.291 1245.54 386.739C1242.73 387.871 1239.65 389.006 1236.38 390.115C1236.15 390.193 1235.92 390.231 1235.69 390.231ZM1212.07 397.029C1211.1 397.029 1210.22 396.371 1209.97 395.387C1209.69 394.227 1210.39 393.053 1211.55 392.765C1214.76 391.965 1217.88 391.148 1220.82 390.337C1221.97 390.019 1223.16 390.694 1223.48 391.846C1223.8 392.999 1223.12 394.19 1221.97 394.508C1219 395.33 1215.84 396.156 1212.6 396.964C1212.42 397.008 1212.25 397.029 1212.07 397.029ZM1188.09 402.376C1187.08 402.376 1186.18 401.666 1185.97 400.639C1185.74 399.467 1186.49 398.326 1187.67 398.09C1190.88 397.443 1194.05 396.782 1197.06 396.127C1198.24 395.874 1199.38 396.615 1199.64 397.783C1199.89 398.951 1199.15 400.103 1197.98 400.357C1194.94 401.016 1191.76 401.681 1188.52 402.333C1188.38 402.362 1188.23 402.376 1188.09 402.376ZM1163.93 406.846C1162.9 406.846 1161.98 406.1 1161.8 405.046C1161.6 403.868 1162.39 402.749 1163.57 402.548C1166.8 401.997 1169.98 401.437 1173.04 400.884C1174.21 400.671 1175.34 401.45 1175.55 402.627C1175.76 403.803 1174.98 404.929 1173.81 405.142C1170.74 405.698 1167.54 406.261 1164.3 406.814C1164.18 406.836 1164.06 406.846 1163.93 406.846ZM1139.68 410.71C1138.63 410.71 1137.7 409.939 1137.54 408.865C1137.37 407.683 1138.18 406.582 1139.36 406.406C1142.58 405.926 1145.78 405.437 1148.86 404.953C1150.05 404.767 1151.15 405.575 1151.34 406.756C1151.52 407.937 1150.72 409.044 1149.54 409.229C1146.44 409.715 1143.23 410.205 1140 410.686C1139.89 410.702 1139.79 410.71 1139.68 410.71ZM1115.36 414.127C1114.29 414.127 1113.36 413.335 1113.22 412.247C1113.06 411.062 1113.89 409.974 1115.08 409.817C1118.29 409.392 1121.47 408.961 1124.61 408.526C1125.79 408.363 1126.88 409.188 1127.05 410.373C1127.21 411.556 1126.38 412.649 1125.2 412.813C1122.05 413.249 1118.87 413.681 1115.65 414.108C1115.55 414.12 1115.46 414.127 1115.36 414.127ZM1091 417.193C1089.92 417.193 1088.98 416.386 1088.85 415.286C1088.71 414.1 1089.56 413.022 1090.74 412.881C1093.95 412.497 1097.14 412.109 1100.29 411.716C1101.47 411.569 1102.56 412.41 1102.7 413.597C1102.85 414.783 1102.01 415.864 1100.82 416.011C1097.66 416.404 1094.47 416.793 1091.26 417.178C1091.17 417.188 1091.08 417.193 1091 417.193ZM1066.6 419.977C1065.51 419.977 1064.57 419.156 1064.45 418.047C1064.32 416.859 1065.18 415.791 1066.37 415.661C1069.58 415.312 1072.77 414.958 1075.93 414.601C1077.12 414.468 1078.19 415.321 1078.32 416.509C1078.46 417.696 1077.6 418.768 1076.41 418.902C1073.25 419.26 1070.05 419.614 1066.84 419.964C1066.76 419.973 1066.68 419.977 1066.6 419.977ZM1042.18 422.525C1041.08 422.525 1040.14 421.692 1040.03 420.576C1039.91 419.387 1040.78 418.326 1041.97 418.208C1045.18 417.887 1048.37 417.563 1051.54 417.235C1052.72 417.114 1053.79 417.976 1053.91 419.165C1054.04 420.354 1053.17 421.417 1051.98 421.54C1048.81 421.868 1045.61 422.193 1042.4 422.514C1042.33 422.521 1042.25 422.525 1042.18 422.525ZM1017.74 424.873C1016.64 424.873 1015.7 424.03 1015.59 422.908C1015.48 421.718 1016.36 420.664 1017.55 420.554C1020.76 420.257 1023.95 419.958 1027.13 419.656C1028.33 419.547 1029.37 420.415 1029.48 421.605C1029.6 422.795 1028.72 423.851 1027.54 423.964C1024.36 424.267 1021.16 424.566 1017.95 424.863C1017.88 424.87 1017.81 424.873 1017.74 424.873ZM993.292 427.047C992.181 427.047 991.234 426.196 991.138 425.068C991.036 423.877 991.918 422.829 993.109 422.727C996.317 422.452 999.512 422.174 1002.69 421.894C1003.89 421.784 1004.93 422.669 1005.04 423.86C1005.14 425.05 1004.26 426.1 1003.07 426.205C999.889 426.486 996.691 426.764 993.479 427.039C993.417 427.045 993.354 427.047 993.292 427.047ZM968.827 429.07C967.709 429.07 966.762 428.21 966.672 427.078C966.576 425.886 967.465 424.844 968.656 424.748C971.863 424.493 975.06 424.234 978.245 423.973C979.444 423.875 980.481 424.762 980.578 425.953C980.676 427.144 979.79 428.189 978.599 428.286C975.409 428.548 972.21 428.807 969 429.063C968.941 429.068 968.885 429.07 968.827 429.07ZM944.352 430.958C943.23 430.958 942.28 430.092 942.195 428.955C942.106 427.763 943.001 426.725 944.193 426.636C947.399 426.397 950.597 426.155 953.786 425.911C954.981 425.817 956.017 426.712 956.109 427.904C956.2 429.095 955.308 430.135 954.116 430.226C950.924 430.471 947.724 430.713 944.515 430.952C944.46 430.956 944.406 430.958 944.352 430.958ZM919.867 432.725C918.74 432.725 917.791 431.853 917.711 430.712C917.628 429.52 918.526 428.486 919.719 428.402C922.923 428.178 926.122 427.952 929.315 427.723C930.498 427.635 931.543 428.535 931.629 429.727C931.714 430.919 930.818 431.955 929.625 432.04C926.431 432.269 923.229 432.496 920.021 432.72C919.97 432.723 919.918 432.725 919.867 432.725ZM895.406 434.381C894.275 434.381 893.324 433.503 893.249 432.358C893.17 431.166 894.074 430.135 895.266 430.057C898.46 429.847 901.651 429.636 904.838 429.422C906.027 429.345 907.062 430.243 907.142 431.436C907.222 432.628 906.32 433.66 905.128 433.74C901.939 433.954 898.746 434.166 895.549 434.376C895.501 434.379 895.453 434.381 895.406 434.381ZM870.927 435.936C869.792 435.936 868.839 435.053 868.768 433.906C868.694 432.713 869.602 431.686 870.794 431.612C873.998 431.415 877.202 431.215 880.401 431.013C881.603 430.943 882.622 431.844 882.697 433.037C882.773 434.23 881.867 435.257 880.674 435.333C877.472 435.535 874.268 435.735 871.062 435.933C871.017 435.935 870.971 435.936 870.927 435.936ZM846.364 437.406C845.226 437.406 844.272 436.518 844.205 435.367C844.136 434.174 845.047 433.151 846.24 433.081C849.454 432.895 852.667 432.706 855.88 432.516C857.072 432.448 858.097 433.354 858.169 434.547C858.24 435.74 857.331 436.765 856.138 436.836C852.922 437.027 849.707 437.216 846.491 437.402C846.448 437.405 846.406 437.406 846.364 437.406ZM821.854 438.787C820.713 438.787 819.758 437.894 819.695 436.741C819.63 435.547 820.546 434.527 821.739 434.462C824.939 434.287 828.141 434.11 831.344 433.931C832.54 433.863 833.56 434.777 833.627 435.97C833.694 437.164 832.78 438.185 831.586 438.252C828.381 438.431 825.175 438.609 821.974 438.783C821.934 438.785 821.893 438.787 821.854 438.787ZM797.341 440.088C796.197 440.088 795.242 439.191 795.182 438.036C795.12 436.842 796.038 435.825 797.232 435.763C800.431 435.598 803.635 435.431 806.841 435.262C808.046 435.201 809.054 436.115 809.117 437.309C809.18 438.502 808.263 439.521 807.07 439.584C803.861 439.753 800.656 439.92 797.456 440.085C797.417 440.087 797.379 440.088 797.341 440.088ZM772.825 441.316C771.678 441.316 770.721 440.415 770.664 439.257C770.606 438.063 771.528 437.048 772.721 436.99C775.92 436.835 779.124 436.677 782.333 436.518C783.53 436.466 784.542 437.378 784.601 438.572C784.661 439.765 783.74 440.781 782.547 440.84C779.336 441 776.131 441.157 772.932 441.313C772.896 441.315 772.861 441.316 772.825 441.316ZM748.305 442.473C747.156 442.473 746.199 441.568 746.146 440.408C746.09 439.214 747.014 438.202 748.208 438.147C751.404 438.001 754.608 437.852 757.82 437.702C759.001 437.643 760.027 438.568 760.083 439.762C760.139 440.955 759.217 441.969 758.023 442.025C754.809 442.176 751.603 442.324 748.406 442.471C748.373 442.472 748.339 442.473 748.305 442.473ZM723.78 443.564C722.628 443.564 721.67 442.656 721.62 441.493C721.568 440.299 722.494 439.289 723.689 439.238C726.883 439.1 730.086 438.96 733.302 438.818C734.507 438.767 735.507 439.691 735.56 440.884C735.612 442.078 734.687 443.089 733.492 443.142C730.277 443.284 727.071 443.424 723.875 443.562C723.844 443.563 723.812 443.564 723.78 443.564ZM699.254 444.592C698.099 444.592 697.141 443.68 697.093 442.516C697.044 441.322 697.973 440.314 699.167 440.266C702.359 440.136 705.563 440.004 708.781 439.87C709.985 439.823 710.984 440.748 711.034 441.942C711.084 443.136 710.155 444.145 708.961 444.195C705.742 444.328 702.536 444.46 699.343 444.59C699.313 444.591 699.283 444.592 699.254 444.592ZM674.721 445.56C673.564 445.56 672.605 444.645 672.56 443.478C672.515 442.284 673.447 441.279 674.641 441.233C677.83 441.112 681.036 440.987 684.257 440.861C685.455 440.807 686.457 441.744 686.504 442.939C686.551 444.133 685.621 445.139 684.427 445.186C681.204 445.312 677.997 445.436 674.807 445.558C674.778 445.559 674.749 445.56 674.721 445.56ZM650.188 446.469C649.028 446.469 648.068 445.551 648.026 444.383C647.983 443.188 648.917 442.185 650.112 442.142C653.298 442.028 656.504 441.912 659.729 441.793C660.932 441.746 661.926 442.682 661.971 443.876C662.015 445.07 661.082 446.074 659.888 446.118C656.661 446.237 653.455 446.353 650.267 446.468C650.241 446.469 650.214 446.469 650.188 446.469ZM625.648 447.322C624.487 447.322 623.526 446.4 623.487 445.23C623.447 444.036 624.384 443.035 625.578 442.995C628.761 442.888 631.967 442.779 635.197 442.667C636.391 442.635 637.393 443.561 637.434 444.756C637.476 445.95 636.541 446.951 635.346 446.993C632.115 447.105 628.907 447.214 625.724 447.321C625.699 447.322 625.673 447.322 625.648 447.322ZM601.107 448.118C599.944 448.118 598.982 447.194 598.945 446.022C598.909 444.828 599.846 443.829 601.041 443.792C604.219 443.692 607.425 443.59 610.661 443.486C611.858 443.454 612.854 444.385 612.893 445.579C612.932 446.773 611.996 447.773 610.801 447.811C607.564 447.916 604.355 448.018 601.176 448.117C601.153 448.118 601.13 448.118 601.107 448.118ZM576.56 448.86C575.393 448.86 574.432 447.932 574.398 446.759C574.363 445.564 575.304 444.568 576.499 444.533C579.671 444.441 582.877 444.346 586.12 444.249C587.333 444.208 588.313 445.152 588.349 446.347C588.384 447.542 587.445 448.539 586.25 448.575C583.006 448.672 579.797 448.767 576.624 448.859C576.603 448.86 576.581 448.86 576.56 448.86ZM552.01 449.546C550.841 449.546 549.879 448.614 549.848 447.439C549.816 446.245 550.758 445.251 551.953 445.219C555.115 445.134 558.323 445.047 561.576 444.956C562.792 444.922 563.767 445.865 563.799 447.06C563.833 448.255 562.89 449.25 561.695 449.283C558.44 449.373 555.23 449.461 552.068 449.545C552.048 449.545 552.029 449.546 552.01 449.546ZM527.451 450.175C526.28 450.175 525.317 449.24 525.288 448.063C525.259 446.868 526.203 445.876 527.398 445.847C530.547 445.77 533.758 445.691 537.025 445.608C538.244 445.578 539.212 446.522 539.242 447.716C539.272 448.911 538.329 449.904 537.135 449.935C533.865 450.017 530.655 450.097 527.504 450.174C527.486 450.174 527.469 450.175 527.451 450.175ZM502.883 450.742C501.709 450.742 500.745 449.804 500.72 448.626C500.694 447.431 501.641 446.441 502.836 446.415C505.963 446.347 509.174 446.275 512.466 446.2C512.482 446.2 512.5 446.2 512.516 446.2C513.688 446.2 514.652 447.136 514.679 448.314C514.706 449.509 513.759 450.5 512.565 450.527C509.272 450.602 506.059 450.674 502.93 450.742C502.914 450.742 502.898 450.742 502.883 450.742ZM478.299 451.242C477.122 451.242 476.157 450.3 476.135 449.119C476.112 447.924 477.064 446.937 478.259 446.915C481.344 446.857 484.557 446.795 487.895 446.727C487.91 446.727 487.924 446.727 487.939 446.727C489.114 446.727 490.078 447.668 490.101 448.848C490.126 450.043 489.176 451.031 487.98 451.055C484.641 451.122 481.427 451.184 478.34 451.241C478.326 451.242 478.312 451.242 478.299 451.242ZM453.701 451.654C452.52 451.654 451.554 450.706 451.536 449.521C451.52 448.326 452.475 447.344 453.671 447.326C456.632 447.284 459.846 447.235 463.302 447.178C463.314 447.178 463.326 447.177 463.339 447.177C464.517 447.177 465.482 448.123 465.501 449.306C465.521 450.501 464.567 451.486 463.372 451.505C459.913 451.562 456.696 451.611 453.733 451.654C453.722 451.654 453.711 451.654 453.701 451.654ZM429.17 452.634C428.056 452.634 427.11 451.78 427.016 450.65C426.916 449.459 427.801 448.413 428.992 448.313C432.2 448.045 435.461 447.831 438.683 447.679C439.894 447.625 440.891 448.545 440.947 449.739C441.004 450.933 440.081 451.946 438.887 452.002C435.717 452.152 432.509 452.362 429.353 452.626C429.292 452.631 429.23 452.634 429.17 452.634ZM404.846 455.818C403.818 455.818 402.907 455.083 402.719 454.035C402.509 452.859 403.291 451.734 404.467 451.523C407.622 450.958 410.846 450.442 414.047 449.99C415.226 449.827 416.325 450.647 416.492 451.831C416.659 453.014 415.835 454.108 414.651 454.276C411.504 454.72 408.333 455.227 405.23 455.783C405.102 455.806 404.973 455.818 404.846 455.818ZM380.951 461.317C380.007 461.317 379.14 460.696 378.87 459.744C378.544 458.594 379.212 457.397 380.362 457.071C383.443 456.197 386.602 455.369 389.75 454.61C390.914 454.331 392.08 455.045 392.362 456.207C392.641 457.369 391.926 458.537 390.764 458.818C387.672 459.563 384.569 460.377 381.542 461.235C381.345 461.291 381.146 461.317 380.951 461.317ZM357.757 469.26C356.901 469.26 356.092 468.75 355.75 467.91C355.301 466.802 355.833 465.54 356.941 465.09C359.899 463.889 362.956 462.728 366.023 461.639C367.15 461.239 368.387 461.828 368.786 462.954C369.186 464.081 368.597 465.318 367.471 465.718C364.464 466.785 361.469 467.923 358.569 469.1C358.303 469.209 358.027 469.26 357.757 469.26ZM335.653 479.854C334.896 479.854 334.161 479.457 333.765 478.75C333.179 477.708 333.549 476.389 334.591 475.804C337.37 474.242 340.266 472.715 343.197 471.263C344.268 470.733 345.566 471.171 346.096 472.242C346.627 473.313 346.188 474.611 345.117 475.142C342.253 476.56 339.425 478.052 336.711 479.577C336.376 479.765 336.012 479.854 335.653 479.854ZM315.227 493.388C314.585 493.388 313.948 493.103 313.522 492.557C312.785 491.615 312.952 490.255 313.893 489.519C316.41 487.55 319.058 485.613 321.763 483.76C322.749 483.085 324.096 483.337 324.772 484.323C325.447 485.309 325.195 486.657 324.209 487.331C321.578 489.133 319.005 491.016 316.559 492.928C316.164 493.237 315.694 493.388 315.227 493.388ZM297.39 510.156C296.884 510.156 296.376 509.98 295.965 509.621C295.066 508.834 294.975 507.467 295.762 506.567C297.871 504.155 300.134 501.767 302.49 499.468C303.345 498.633 304.713 498.65 305.549 499.505C306.383 500.36 306.368 501.73 305.513 502.565C303.239 504.785 301.054 507.09 299.019 509.417C298.591 509.906 297.992 510.156 297.39 510.156ZM283.446 530.257C283.104 530.257 282.758 530.176 282.434 530.005C281.379 529.445 280.977 528.135 281.536 527.079C283.048 524.225 284.735 521.383 286.549 518.632C287.207 517.634 288.548 517.359 289.547 518.018C290.544 518.676 290.819 520.017 290.161 521.015C288.423 523.651 286.807 526.373 285.359 529.106C284.971 529.839 284.221 530.257 283.446 530.257ZM274.911 553.139C274.752 553.139 274.592 553.121 274.43 553.085C273.265 552.819 272.535 551.659 272.801 550.494C273.524 547.317 274.426 544.137 275.484 541.042C275.87 539.911 277.1 539.308 278.232 539.694C279.363 540.08 279.966 541.31 279.579 542.441C278.57 545.393 277.71 548.426 277.02 551.455C276.792 552.458 275.899 553.139 274.911 553.139ZM272.665 577.468C271.506 577.468 270.546 576.55 270.504 575.382C270.459 574.167 270.438 572.942 270.438 571.741C270.438 569.677 270.503 567.597 270.632 565.556C270.706 564.364 271.725 563.465 272.927 563.533C274.12 563.608 275.026 564.636 274.951 565.829C274.828 567.779 274.765 569.768 274.765 571.741C274.765 572.89 274.787 574.062 274.829 575.226C274.872 576.42 273.938 577.423 272.743 577.466C272.717 577.467 272.691 577.468 272.665 577.468ZM276.35 601.661C275.392 601.661 274.516 601.02 274.26 600.05C273.416 596.857 272.703 593.641 272.14 590.492C271.93 589.315 272.713 588.191 273.889 587.981C275.065 587.771 276.19 588.554 276.4 589.73C276.943 592.764 277.63 595.865 278.444 598.945C278.749 600.1 278.06 601.284 276.905 601.589C276.719 601.638 276.533 601.661 276.35 601.661ZM284.728 624.678C283.91 624.678 283.127 624.211 282.762 623.419C281.381 620.424 280.101 617.403 278.954 614.442C278.523 613.328 279.076 612.074 280.19 611.643C281.306 611.212 282.559 611.765 282.99 612.88C284.104 615.758 285.349 618.694 286.691 621.608C287.191 622.693 286.718 623.979 285.632 624.479C285.339 624.614 285.031 624.678 284.728 624.678ZM297.004 645.835C296.34 645.835 295.685 645.53 295.26 644.955C293.335 642.346 291.498 639.609 289.802 636.82C289.18 635.799 289.504 634.468 290.525 633.847C291.546 633.227 292.877 633.55 293.497 634.57C295.128 637.25 296.893 639.879 298.743 642.386C299.453 643.347 299.248 644.702 298.286 645.412C297.9 645.697 297.45 645.835 297.004 645.835ZM313.67 663.737C313.171 663.737 312.67 663.565 312.262 663.215C309.777 661.084 307.368 658.83 305.105 656.517C304.268 655.662 304.284 654.292 305.139 653.456C305.993 652.621 307.363 652.635 308.199 653.49C310.375 655.714 312.69 657.881 315.079 659.931C315.987 660.709 316.09 662.075 315.312 662.982C314.884 663.481 314.279 663.737 313.67 663.737ZM333.786 677.669C333.43 677.669 333.069 677.581 332.736 677.396C329.864 675.797 327.052 674.093 324.378 672.33C323.379 671.673 323.104 670.33 323.762 669.333C324.42 668.334 325.762 668.059 326.76 668.717C329.344 670.42 332.063 672.068 334.84 673.614C335.885 674.195 336.259 675.513 335.678 676.557C335.283 677.268 334.546 677.669 333.786 677.669ZM356.114 687.72C355.871 687.72 355.625 687.679 355.383 687.592C352.293 686.484 349.242 685.287 346.314 684.036C345.215 683.566 344.704 682.294 345.174 681.195C345.644 680.096 346.917 679.587 348.015 680.056C350.864 681.274 353.834 682.44 356.845 683.518C357.969 683.922 358.554 685.161 358.15 686.286C357.834 687.169 357.001 687.72 356.114 687.72ZM516.431 693.197C515.405 693.197 514.494 692.466 514.305 691.421C514.09 690.245 514.87 689.118 516.046 688.905C519.269 688.318 522.432 687.704 525.445 687.08C526.615 686.838 527.761 687.589 528.003 688.76C528.245 689.931 527.493 691.076 526.323 691.318C523.276 691.949 520.077 692.57 516.82 693.163C516.689 693.186 516.559 693.197 516.431 693.197ZM379.682 694.432C379.529 694.432 379.373 694.416 379.216 694.381C376.016 693.68 372.838 692.906 369.773 692.083C368.62 691.773 367.937 690.585 368.247 689.431C368.557 688.277 369.742 687.591 370.898 687.903C373.897 688.709 377.008 689.466 380.143 690.153C381.311 690.41 382.049 691.563 381.794 692.731C381.572 693.742 380.676 694.432 379.682 694.432ZM492.178 696.93C491.104 696.93 490.173 696.131 490.034 695.038C489.884 693.852 490.723 692.769 491.909 692.619C495.063 692.22 498.255 691.781 501.398 691.316C502.579 691.143 503.681 691.958 503.855 693.14C504.03 694.323 503.213 695.423 502.031 695.598C498.859 696.067 495.636 696.509 492.453 696.912C492.36 696.924 492.269 696.93 492.178 696.93ZM403.882 698.416C403.799 698.416 403.716 698.411 403.632 698.402C400.39 698.029 397.154 697.597 394.015 697.118C392.833 696.938 392.022 695.833 392.202 694.652C392.383 693.471 393.49 692.659 394.668 692.839C397.755 693.31 400.937 693.735 404.126 694.102C405.314 694.238 406.166 695.311 406.029 696.499C405.903 697.602 404.966 698.416 403.882 698.416ZM467.764 699.352C466.638 699.352 465.689 698.481 465.608 697.342C465.523 696.149 466.42 695.114 467.612 695.029C470.756 694.806 473.966 694.542 477.154 694.243C478.348 694.132 479.399 695.007 479.51 696.197C479.621 697.387 478.747 698.441 477.557 698.553C474.337 698.854 471.095 699.121 467.92 699.346C467.867 699.35 467.815 699.352 467.764 699.352ZM428.345 700.188C428.32 700.188 428.296 700.188 428.272 700.187C425.017 700.08 421.76 699.924 418.596 699.725C417.403 699.649 416.498 698.621 416.573 697.429C416.648 696.236 417.668 695.336 418.868 695.405C421.99 695.602 425.203 695.755 428.415 695.862C429.609 695.901 430.545 696.901 430.506 698.096C430.468 699.266 429.507 700.188 428.345 700.188ZM443.254 700.358C442.069 700.358 441.102 699.402 441.091 698.214C441.079 697.019 442.039 696.041 443.234 696.03C446.381 696 449.599 695.928 452.799 695.817C453.979 695.787 454.995 696.71 455.036 697.905C455.078 699.099 454.143 700.101 452.949 700.143C449.714 700.255 446.459 700.327 443.275 700.358H443.254Z" fill="#0F32A3"/>
<path fill-rule="evenodd" clip-rule="evenodd" d="M42.8908 902.859L40.7639 359.223C40.7276 349.965 45.3961 341.512 53.2506 336.61L241.269 219.304C249.549 214.137 259.594 213.87 268.137 218.588C276.681 223.306 281.805 231.95 281.843 241.71L282.935 521.012C282.959 526.942 285.29 532.509 289.5 536.686C293.688 540.842 299.238 543.128 305.135 543.128C305.165 543.128 305.195 543.128 305.225 543.127L335.236 543.01C341.166 542.987 346.733 540.656 350.91 536.446C355.087 532.236 357.375 526.651 357.351 520.721L356.549 315.375C356.491 300.746 368.346 288.798 382.975 288.741L620.3 287.812C620.336 287.812 620.371 287.812 620.406 287.812C627.454 287.812 634.085 290.543 639.09 295.51C644.121 300.501 646.906 307.153 646.934 314.239L648.333 671.79C648.381 684.003 658.332 693.906 670.534 693.906H670.622L1017.33 692.55C1023.26 692.526 1028.82 690.195 1033 685.985C1037.18 681.775 1039.47 676.191 1039.44 670.26L1038.01 304.36C1037.98 297.273 1040.72 290.601 1045.71 285.57C1050.7 280.539 1057.35 277.753 1064.44 277.726L1118.33 277.515C1118.37 277.515 1118.4 277.515 1118.44 277.515C1133.02 277.515 1144.91 289.347 1144.97 303.941L1145.56 455.948C1145.58 461.878 1147.92 467.445 1152.13 471.622C1156.31 475.778 1161.86 478.064 1167.76 478.064C1167.79 478.064 1167.82 478.064 1167.85 478.064C1180.09 478.015 1190.01 468.016 1189.97 455.774L1189.71 390.17C1189.67 380.832 1194.4 372.341 1202.36 367.456C1210.32 362.57 1220.03 362.197 1228.34 366.458L1311.3 408.983C1320.16 413.525 1325.69 422.532 1325.72 432.488L1326.14 538.039C1326.19 550.251 1336.14 560.155 1348.34 560.155C1348.37 560.155 1348.4 560.155 1348.43 560.154L1441.13 559.791H1441.24C1448.29 559.791 1454.92 562.523 1459.92 567.489C1464.96 572.48 1467.74 579.132 1467.77 586.218L1468.99 897.279L1464.66 897.297L1463.44 586.235C1463.42 580.305 1461.09 574.738 1456.88 570.561C1452.69 566.405 1447.14 564.119 1441.24 564.119C1441.21 564.119 1441.18 564.119 1441.15 564.119L1348.44 564.482C1348.41 564.482 1348.37 564.482 1348.34 564.482C1341.29 564.483 1334.66 561.751 1329.65 556.785C1324.62 551.794 1321.84 545.142 1321.81 538.056L1321.4 432.505C1321.36 424.173 1316.74 416.635 1309.32 412.834L1226.37 370.309C1219.41 366.744 1211.29 367.056 1204.63 371.144C1197.97 375.232 1194.01 382.339 1194.04 390.153L1194.29 455.757C1194.35 470.386 1182.5 482.334 1167.87 482.392C1167.83 482.392 1167.8 482.392 1167.76 482.392C1160.71 482.392 1154.08 479.661 1149.08 474.694C1144.05 469.703 1141.26 463.051 1141.23 455.964L1140.64 303.959C1140.59 291.746 1130.64 281.843 1118.44 281.843C1118.41 281.843 1118.38 281.843 1118.35 281.843L1064.45 282.054C1052.21 282.101 1042.29 292.101 1042.34 304.343L1043.77 670.243C1043.83 684.872 1031.97 696.82 1017.34 696.878L670.639 698.234C670.605 698.234 670.569 698.234 670.534 698.234C655.953 698.234 644.061 686.401 644.005 671.807L642.606 314.256C642.558 302.044 632.607 292.14 620.405 292.14C620.375 292.14 620.347 292.14 620.317 292.14L382.992 293.069C370.75 293.116 360.829 303.116 360.876 315.358L361.679 520.704C361.708 527.79 358.974 534.464 353.983 539.494C348.991 544.524 342.339 547.31 335.253 547.338L305.242 547.455C298.152 547.502 291.482 544.75 286.451 539.758C281.421 534.767 278.635 528.115 278.608 521.029L277.515 241.726C277.483 233.558 273.196 226.325 266.046 222.377C258.894 218.428 250.489 218.653 243.559 222.976L55.5419 340.282C48.9682 344.384 45.0615 351.458 45.0918 359.207L47.2187 902.842L42.8908 902.859Z" fill="#CFE3FF"/>
<path fill-rule="evenodd" clip-rule="evenodd" d="M1154.26 898.991C1154.26 898.991 1074.97 633.679 1289.37 466.434C1289.37 466.434 1350.19 731.966 1154.26 898.991Z" fill="#DCEAFF"/>
<path fill-rule="evenodd" clip-rule="evenodd" d="M1162.94 895.985C1162.94 895.985 1174.45 881.957 1181.01 842.905C1187.81 802.4 1195.79 756.814 1238.95 678.909C1282.12 601.005 1335.72 542.357 1376.12 554.777C1416.52 567.198 1344.79 599.892 1363.75 625.185C1382.71 650.477 1390.62 677.414 1348.74 713.418C1306.86 749.423 1360.84 766.738 1327.25 801.369C1293.66 836 1280.47 819.973 1239.24 845.714C1198.02 871.455 1162.94 895.985 1162.94 895.985Z" fill="#A9C8FF"/>
<path fill-rule="evenodd" clip-rule="evenodd" d="M610.947 59.6278C610.947 59.6278 561.389 62.6019 556.332 108.337C551.276 154.072 573.867 734.532 559.993 774.7C546.119 814.868 496.025 834.802 496.025 834.802C496.025 834.802 934.899 866.229 994.594 837.68C1041.16 815.409 1008.28 275.869 1018.34 194.344C1028.4 112.819 1037.4 86.7308 1075.54 71.7128L610.947 59.6278Z" fill="white"/>
<g style="mix-blend-mode:multiply">
<path fill-rule="evenodd" clip-rule="evenodd" d="M1163.03 94.6393C1173.69 122.189 1166.91 173.143 1166.91 173.143L1009.26 168.781L674.813 159.533C674.813 159.533 676.877 84.511 650.35 63.5254C623.825 42.5394 597.122 44.4869 597.122 44.4869L596.992 44.4195C608.499 43.2465 619.959 43.5735 629.855 43.5735C630.664 43.5735 632.062 43.5735 634.02 43.5782C634.77 43.5782 635.606 43.5782 636.515 43.583C693.984 43.7511 1065.16 45.5546 1123.57 55.6285C1124.32 55.9128 1126.66 56.1053 1127.1 56.2686C1138.15 60.4428 1152.36 67.0848 1163.03 94.6393Z" fill="#CAD8FF" fill-opacity="0.8"/>
</g>
<path fill-rule="evenodd" clip-rule="evenodd" d="M406.152 840.652C406.152 840.652 535.316 827.616 538.262 760.631C541.209 693.646 527.703 230.692 530.65 184.282C533.596 137.871 526.476 80.4051 559.871 56.8315C580.498 42.0982 608.737 43.5715 629.855 43.5715C650.973 43.5715 1079.96 45.0447 1127.11 56.3405C1127.11 56.3405 1054.92 55.1128 1034.29 84.0883C1013.66 113.064 1013.66 123.132 1007.28 189.433C1000.89 255.733 1006.79 601.97 1007.77 712.962C1008.75 823.954 994.246 851.268 926.84 863.423" fill="#418106" fill-opacity="0.4"/>
<path fill-rule="evenodd" clip-rule="evenodd" d="M282.964 296.332C282.964 296.332 294.833 294.286 304.655 284.955C314.478 275.623 307.684 258.434 291.723 259.908C291.723 259.908 279.772 247.63 255.79 249.922C231.806 252.214 231.643 261.217 231.643 261.217L224.685 253.196L222.639 255.078L230.579 262.281L219.528 258.025L217.4 261.79L229.105 264.164C229.105 264.164 221.493 264.328 216.009 273.741C210.525 283.154 208.356 303.494 217.932 317C227.509 330.506 238.191 339.223 238.191 339.223L282.964 296.332Z" fill="#418106"/>
<path fill-rule="evenodd" clip-rule="evenodd" d="M232.298 354.775C232.298 354.775 203.322 363.122 192.19 366.642C181.058 370.163 135.712 390.463 122.288 404.705C108.864 418.947 116.394 425.332 116.394 425.332L161.741 420.257C161.741 420.257 175.819 407.815 193.172 404.214C193.172 404.214 197.428 450.252 205.777 477.736C214.126 505.22 222.966 531.495 222.966 531.495L229.756 536.651L301.544 523.145L309.403 514.305C309.403 514.305 302.773 486.557 304.491 455.371C304.491 455.371 319.839 465.317 335.923 482.629C335.923 482.629 354.831 473.543 352.866 452.67C352.866 452.67 339.238 441.375 327.942 424.8C316.647 408.225 306.456 385.142 301.667 374.092C296.879 363.042 277.357 359.941 269.254 358.131C261.151 356.321 258.877 356.166 258.877 356.166L232.298 354.775Z" fill="#CFDCFF"/>
<mask id="mask0_46_3802" style="mask-type:alpha" maskUnits="userSpaceOnUse" x="114" y="354" width="240" height="183">
<path fill-rule="evenodd" clip-rule="evenodd" d="M192.19 366.642C181.058 370.163 135.712 390.462 122.288 404.705C108.864 418.948 116.394 425.332 116.394 425.332L161.741 420.257C161.741 420.257 175.819 407.815 193.172 404.213C193.172 404.213 197.428 450.252 205.778 477.736C214.126 505.22 222.966 531.494 222.966 531.494L229.756 536.651L301.544 523.145L309.402 514.306C309.402 514.306 302.772 486.557 304.492 455.372C304.492 455.372 319.839 465.317 335.923 482.628C335.923 482.628 354.83 473.543 352.866 452.671C352.866 452.671 339.238 441.375 327.942 424.799C316.647 408.224 306.456 385.142 301.667 374.092C296.879 363.042 277.357 359.941 269.254 358.131C261.151 356.32 258.876 356.166 258.876 356.166L232.298 354.775C232.298 354.775 203.322 363.122 192.19 366.642Z" fill="white"/>
</mask>
<g mask="url(#mask0_46_3802)">
<path fill-rule="evenodd" clip-rule="evenodd" d="M149.617 412.125C149.617 412.125 191.412 394.105 193.254 398.279C195.095 402.454 192.763 413.749 192.763 413.749L176.433 420.743L163.91 421.239L149.617 412.125Z" fill="#B0C7F7"/>
</g>
<mask id="mask1_46_3802" style="mask-type:alpha" maskUnits="userSpaceOnUse" x="114" y="354" width="240" height="183">
<path fill-rule="evenodd" clip-rule="evenodd" d="M192.19 366.642C181.058 370.163 135.712 390.462 122.288 404.705C108.864 418.948 116.394 425.332 116.394 425.332L161.741 420.257C161.741 420.257 175.819 407.815 193.172 404.213C193.172 404.213 197.428 450.252 205.778 477.736C214.126 505.22 222.966 531.494 222.966 531.494L229.756 536.651L301.544 523.145L309.402 514.306C309.402 514.306 302.772 486.557 304.492 455.372C304.492 455.372 319.839 465.317 335.923 482.628C335.923 482.628 354.83 473.543 352.866 452.671C352.866 452.671 339.238 441.375 327.942 424.799C316.647 408.224 306.456 385.142 301.667 374.092C296.879 363.042 277.357 359.941 269.254 358.131C261.151 356.32 258.876 356.166 258.876 356.166L232.298 354.775C232.298 354.775 203.322 363.122 192.19 366.642Z" fill="white"/>
</mask>
<g mask="url(#mask1_46_3802)">
<path fill-rule="evenodd" clip-rule="evenodd" d="M293.195 395.087C293.195 395.087 306.7 444.017 319.838 453.562C332.975 463.107 343.78 461.142 343.78 461.142L338.255 480.418L329.048 480.787L303.14 456.477L296.632 411.908L293.195 395.087Z" fill="#B0C7F7"/>
</g>
<mask id="mask2_46_3802" style="mask-type:alpha" maskUnits="userSpaceOnUse" x="114" y="354" width="240" height="183">
<path fill-rule="evenodd" clip-rule="evenodd" d="M192.19 366.642C181.058 370.163 135.712 390.462 122.288 404.705C108.864 418.948 116.394 425.332 116.394 425.332L161.741 420.257C161.741 420.257 175.819 407.815 193.172 404.213C193.172 404.213 197.428 450.252 205.778 477.736C214.126 505.22 222.966 531.494 222.966 531.494L229.756 536.651L301.544 523.145L309.402 514.306C309.402 514.306 302.772 486.557 304.492 455.372C304.492 455.372 319.839 465.317 335.923 482.628C335.923 482.628 354.83 473.543 352.866 452.671C352.866 452.671 339.238 441.375 327.942 424.799C316.647 408.224 306.456 385.142 301.667 374.092C296.879 363.042 277.357 359.941 269.254 358.131C261.151 356.32 258.876 356.166 258.876 356.166L232.298 354.775C232.298 354.775 203.322 363.122 192.19 366.642Z" fill="white"/>
</mask>
<g mask="url(#mask2_46_3802)">
<path fill-rule="evenodd" clip-rule="evenodd" d="M293.358 398.32C293.358 398.32 295.171 422.467 288.904 444.813C282.636 467.158 275.023 519.763 251.695 529.558L307.437 521.917L317.718 470.156L295.405 409.943L293.358 398.32Z" fill="#B0C7F7"/>
</g>
<mask id="mask3_46_3802" style="mask-type:alpha" maskUnits="userSpaceOnUse" x="114" y="354" width="240" height="183">
<path fill-rule="evenodd" clip-rule="evenodd" d="M192.19 366.642C181.058 370.163 135.712 390.462 122.288 404.705C108.864 418.948 116.394 425.332 116.394 425.332L161.741 420.257C161.741 420.257 175.819 407.815 193.172 404.213C193.172 404.213 197.428 450.252 205.778 477.736C214.126 505.22 222.966 531.494 222.966 531.494L229.756 536.651L301.544 523.145L309.402 514.306C309.402 514.306 302.772 486.557 304.492 455.372C304.492 455.372 319.839 465.317 335.923 482.628C335.923 482.628 354.83 473.543 352.866 452.671C352.866 452.671 339.238 441.375 327.942 424.799C316.647 408.224 306.456 385.142 301.667 374.092C296.879 363.042 277.357 359.941 269.254 358.131C261.151 356.32 258.876 356.166 258.876 356.166L232.298 354.775C232.298 354.775 203.322 363.122 192.19 366.642Z" fill="white"/>
</mask>
<g mask="url(#mask3_46_3802)">
<path fill-rule="evenodd" clip-rule="evenodd" d="M243.533 378.512C243.533 378.512 236.268 428.33 266.861 446.966C297.453 465.603 315.652 468.215 315.652 468.215L304.984 442.193C304.984 442.193 265.574 432.207 257.858 410.107C250.142 388.007 249.524 382.958 249.524 382.958L243.533 378.512Z" fill="#B0C7F7"/>
</g>
<mask id="mask4_46_3802" style="mask-type:alpha" maskUnits="userSpaceOnUse" x="114" y="354" width="240" height="183">
<path fill-rule="evenodd" clip-rule="evenodd" d="M192.19 366.642C181.058 370.163 135.712 390.462 122.288 404.705C108.864 418.948 116.394 425.332 116.394 425.332L161.741 420.257C161.741 420.257 175.819 407.815 193.172 404.213C193.172 404.213 197.428 450.252 205.778 477.736C214.126 505.22 222.966 531.494 222.966 531.494L229.756 536.651L301.544 523.145L309.402 514.306C309.402 514.306 302.772 486.557 304.492 455.372C304.492 455.372 319.839 465.317 335.923 482.628C335.923 482.628 354.83 473.543 352.866 452.671C352.866 452.671 339.238 441.375 327.942 424.799C316.647 408.224 306.456 385.142 301.667 374.092C296.879 363.042 277.357 359.941 269.254 358.131C261.151 356.32 258.876 356.166 258.876 356.166L232.298 354.775C232.298 354.775 203.322 363.122 192.19 366.642Z" fill="white"/>
</mask>
<g mask="url(#mask4_46_3802)">
<path fill-rule="evenodd" clip-rule="evenodd" d="M309.225 461.019L304.493 455.372C304.493 455.372 295.407 393 292.706 391.526C290.004 390.053 294.547 406.26 295.898 412.644C297.249 419.029 301.761 449.433 302.006 457.152C302.252 464.871 300.318 485.575 308.299 517.129L313.333 513.2L307.93 466.828L309.225 461.019Z" fill="#1643A8"/>
</g>
<mask id="mask5_46_3802" style="mask-type:alpha" maskUnits="userSpaceOnUse" x="114" y="354" width="240" height="183">
<path fill-rule="evenodd" clip-rule="evenodd" d="M192.19 366.642C181.058 370.163 135.712 390.462 122.288 404.705C108.864 418.948 116.394 425.332 116.394 425.332L161.741 420.257C161.741 420.257 175.819 407.815 193.172 404.213C193.172 404.213 197.428 450.252 205.778 477.736C214.126 505.22 222.966 531.494 222.966 531.494L229.756 536.651L301.544 523.145L309.402 514.306C309.402 514.306 302.772 486.557 304.492 455.372C304.492 455.372 319.839 465.317 335.923 482.628C335.923 482.628 354.83 473.543 352.866 452.671C352.866 452.671 339.238 441.375 327.942 424.799C316.647 408.224 306.456 385.142 301.667 374.092C296.879 363.042 277.357 359.941 269.254 358.131C261.151 356.32 258.876 356.166 258.876 356.166L232.298 354.775C232.298 354.775 203.322 363.122 192.19 366.642Z" fill="white"/>
</mask>
<g mask="url(#mask5_46_3802)">
<path fill-rule="evenodd" clip-rule="evenodd" d="M274.356 531.096L248.1 376.052L250.945 375.57L277.201 530.614L274.356 531.096Z" fill="#3F79E0"/>
</g>
<path fill-rule="evenodd" clip-rule="evenodd" d="M285.829 290.111C285.829 290.111 289.594 321.379 285.829 335.294C282.064 349.209 269.622 350.109 261.273 347.899C252.924 345.689 258.08 370.409 258.08 370.409L251.042 383.669L238.926 366.48L235.898 356.903C235.898 356.903 238.763 347.572 237.29 339.305C235.816 331.037 235.898 328.336 235.898 328.336C235.898 328.336 228.45 324.735 230.659 313.93C232.869 303.126 240.727 307.792 240.727 307.792C240.727 307.792 247.603 302.798 247.03 288.638C247.03 288.638 252.76 292.321 266.347 292.567C279.935 292.812 285.829 290.111 285.829 290.111Z" fill="#FDB2D0"/>
<mask id="mask6_46_3802" style="mask-type:alpha" maskUnits="userSpaceOnUse" x="230" y="288" width="58" height="96">
<path fill-rule="evenodd" clip-rule="evenodd" d="M240.728 307.792C240.728 307.792 232.87 303.126 230.66 313.93C228.45 324.735 235.899 328.336 235.899 328.336C235.899 328.336 235.817 331.037 237.291 339.305C238.764 347.572 235.899 356.903 235.899 356.903L238.928 366.48L251.041 383.669L258.081 370.409C258.081 370.409 252.924 345.689 261.273 347.899C269.622 350.109 282.064 349.209 285.829 335.294C289.594 321.379 285.829 290.111 285.829 290.111C285.829 290.111 279.935 292.812 266.348 292.567C252.761 292.321 247.031 288.638 247.031 288.638C247.604 302.798 240.728 307.792 240.728 307.792Z" fill="white"/>
</mask>
<g mask="url(#mask6_46_3802)">
<path fill-rule="evenodd" clip-rule="evenodd" d="M229.229 306.564C229.229 306.564 231.93 318.227 240.279 312.702C248.628 307.178 245.313 294.409 251.206 296.004C257.1 297.601 274.635 300.457 289.564 294.363L288.531 284.341L233.65 284.218L229.229 306.564Z" fill="#F476AF"/>
</g>
<mask id="mask7_46_3802" style="mask-type:alpha" maskUnits="userSpaceOnUse" x="230" y="288" width="58" height="96">
<path fill-rule="evenodd" clip-rule="evenodd" d="M240.728 307.792C240.728 307.792 232.87 303.126 230.66 313.93C228.45 324.735 235.899 328.336 235.899 328.336C235.899 328.336 235.817 331.037 237.291 339.305C238.764 347.572 235.899 356.903 235.899 356.903L238.928 366.48L251.041 383.669L258.081 370.409C258.081 370.409 252.924 345.689 261.273 347.899C269.622 350.109 282.064 349.209 285.829 335.294C289.594 321.379 285.829 290.111 285.829 290.111C285.829 290.111 279.935 292.812 266.348 292.567C252.761 292.321 247.031 288.638 247.031 288.638C247.604 302.798 240.728 307.792 240.728 307.792Z" fill="white"/>
</mask>
<g mask="url(#mask7_46_3802)">
<path fill-rule="evenodd" clip-rule="evenodd" d="M261.642 349.045C261.642 349.045 247.856 341.408 245.189 338.24C242.522 335.073 250.1 355.43 256.608 357.394C263.115 359.359 256.608 357.394 256.608 357.394L261.642 349.045Z" fill="#F476AF"/>
</g>
<path fill-rule="evenodd" clip-rule="evenodd" d="M307.601 523.146L310.752 526.338C310.752 526.338 374.72 562.025 396.329 576.104C417.938 590.183 436.723 606.39 416.833 658.693C396.943 710.997 359.741 772.141 359.741 772.141L323.276 751.514C323.276 751.514 339.114 715.786 348.323 692.58C357.531 669.375 377.79 642.118 342.797 621.491C307.805 600.864 294.914 591.656 294.914 591.656L266.859 523.146H307.601Z" fill="#418106"/>
<mask id="mask8_46_3802" style="mask-type:alpha" maskUnits="userSpaceOnUse" x="266" y="523" width="160" height="250">
<path fill-rule="evenodd" clip-rule="evenodd" d="M266.859 523.146L294.915 591.656C294.915 591.656 307.806 600.864 342.798 621.491C377.79 642.118 357.532 669.375 348.324 692.58C339.115 715.786 323.277 751.514 323.277 751.514L359.742 772.141C359.742 772.141 396.944 710.997 416.834 658.693C436.724 606.389 417.939 590.183 396.33 576.104C374.72 562.025 310.753 526.338 310.753 526.338L307.602 523.146" fill="white"/>
</mask>
<g mask="url(#mask8_46_3802)">
<path fill-rule="evenodd" clip-rule="evenodd" d="M330.053 769.437L328.696 768.951C337.685 743.828 345.073 723.52 351.008 707.203C376.319 637.621 376.319 637.621 369.095 626.586C368.314 625.393 367.43 624.042 366.49 622.476C354.951 603.245 282.087 569.445 281.352 569.106L281.957 567.796C284.974 569.188 355.961 602.124 367.727 621.734C368.653 623.276 369.529 624.614 370.302 625.795C377.922 637.435 377.922 637.435 352.364 707.696C346.429 724.012 339.042 744.317 330.053 769.437Z" fill="#D2E5FC"/>
</g>
<path fill-rule="evenodd" clip-rule="evenodd" d="M331.879 798.868C331.898 798.801 331.913 798.726 331.933 798.661C334.941 788.839 354.831 765.511 354.831 765.511L328.065 750.532C328.065 750.532 323.522 759.838 307.514 767.394C309.146 776.564 314.51 791.228 331.879 798.868Z" fill="#F476AF"/>
<path fill-rule="evenodd" clip-rule="evenodd" d="M307.513 767.395C307.284 767.503 307.059 767.613 306.824 767.721C290.249 775.333 274.533 782.7 275.025 783.437C275.516 784.173 309.648 863.602 316.524 863.422C323.399 863.242 333.467 859.326 334.695 847.165C335.915 835.085 329.022 808.844 331.878 798.868C314.51 791.228 309.146 776.564 307.513 767.395Z" fill="#FCAA23"/>
<path fill-rule="evenodd" clip-rule="evenodd" d="M324.994 741.446L318.242 754.092L359.864 777.175L368.335 766.37L324.994 741.446Z" fill="#418106"/>
<path fill-rule="evenodd" clip-rule="evenodd" d="M228.247 541.194L226.774 545.246C226.774 545.246 223.459 560.961 225.423 586.008C227.388 611.055 254.399 700.683 273.552 749.672C292.706 798.661 316.647 845.808 316.647 845.808L353.01 831.075C353.01 831.075 350.903 822.971 337.274 771.772C323.646 720.574 312.596 677.478 306.702 641.013C300.809 604.548 300.072 596.444 300.072 596.444L277.235 523.145L228.247 541.194Z" fill="#418106"/>
<mask id="mask9_46_3802" style="mask-type:alpha" maskUnits="userSpaceOnUse" x="224" y="523" width="130" height="323">
<path fill-rule="evenodd" clip-rule="evenodd" d="M228.247 541.194L226.773 545.246C226.773 545.246 223.459 560.962 225.423 586.008C227.388 611.055 254.399 700.684 273.552 749.673C292.706 798.661 316.648 845.808 316.648 845.808L353.01 831.075C353.01 831.075 350.903 822.971 337.274 771.773C323.646 720.574 312.595 677.478 306.702 641.013C300.809 604.548 300.072 596.444 300.072 596.444L277.235 523.146" fill="white"/>
</mask>
<g mask="url(#mask9_46_3802)">
<path fill-rule="evenodd" clip-rule="evenodd" d="M251.698 529.557C251.698 529.557 261.52 556.541 246.05 574.221C230.579 591.902 217.35 593.621 217.35 593.621" fill="#418106"/>
</g>
<mask id="mask10_46_3802" style="mask-type:alpha" maskUnits="userSpaceOnUse" x="224" y="523" width="130" height="323">
<path fill-rule="evenodd" clip-rule="evenodd" d="M228.247 541.194L226.773 545.246C226.773 545.246 223.459 560.962 225.423 586.008C227.388 611.055 254.399 700.684 273.552 749.673C292.706 798.661 316.648 845.808 316.648 845.808L353.01 831.075C353.01 831.075 350.903 822.971 337.274 771.773C323.646 720.574 312.595 677.478 306.702 641.013C300.809 604.548 300.072 596.444 300.072 596.444L277.235 523.146" fill="white"/>
</mask>
<g mask="url(#mask10_46_3802)">
<path fill-rule="evenodd" clip-rule="evenodd" d="M217.536 595.051L217.164 592.19C217.287 592.173 230.103 590.254 244.963 573.271C259.701 556.428 250.436 530.313 250.341 530.051L253.052 529.064C253.465 530.199 262.984 557.058 247.134 575.171C231.485 593.056 218.097 594.978 217.536 595.051Z" fill="#D2E5FC"/>
</g>
<mask id="mask11_46_3802" style="mask-type:alpha" maskUnits="userSpaceOnUse" x="224" y="523" width="130" height="323">
<path fill-rule="evenodd" clip-rule="evenodd" d="M228.247 541.194L226.773 545.246C226.773 545.246 223.459 560.962 225.423 586.008C227.388 611.055 254.399 700.684 273.552 749.673C292.706 798.661 316.648 845.808 316.648 845.808L353.01 831.075C353.01 831.075 350.903 822.971 337.274 771.773C323.646 720.574 312.595 677.478 306.702 641.013C300.809 604.548 300.072 596.444 300.072 596.444L277.235 523.146" fill="white"/>
</mask>
<g mask="url(#mask11_46_3802)">
<path fill-rule="evenodd" clip-rule="evenodd" d="M334.842 849.614C334.842 849.614 305.966 788.102 279.936 712.961C253.907 637.821 237.256 582.916 237.256 582.916" fill="#418106"/>
</g>
<mask id="mask12_46_3802" style="mask-type:alpha" maskUnits="userSpaceOnUse" x="224" y="523" width="130" height="323">
<path fill-rule="evenodd" clip-rule="evenodd" d="M228.247 541.194L226.773 545.246C226.773 545.246 223.459 560.962 225.423 586.008C227.388 611.055 254.399 700.684 273.552 749.673C292.706 798.661 316.648 845.808 316.648 845.808L353.01 831.075C353.01 831.075 350.903 822.971 337.274 771.773C323.646 720.574 312.595 677.478 306.702 641.013C300.809 604.548 300.072 596.444 300.072 596.444L277.235 523.146L228.247 541.194Z" fill="white"/>
</mask>
<g mask="url(#mask12_46_3802)">
<path fill-rule="evenodd" clip-rule="evenodd" d="M333.535 850.227C333.246 849.612 304.329 787.786 278.573 713.434C252.832 639.126 236.041 583.884 235.875 583.334L238.636 582.497C238.802 583.046 255.578 638.239 281.299 712.489C307.006 786.7 335.859 848.387 336.147 849.001L333.535 850.227Z" fill="#D2E5FC"/>
</g>
<mask id="mask13_46_3802" style="mask-type:alpha" maskUnits="userSpaceOnUse" x="224" y="523" width="130" height="323">
<path fill-rule="evenodd" clip-rule="evenodd" d="M228.247 541.194L226.773 545.246C226.773 545.246 223.459 560.962 225.423 586.008C227.388 611.055 254.399 700.684 273.552 749.673C292.706 798.661 316.648 845.808 316.648 845.808L353.01 831.075C353.01 831.075 350.903 822.971 337.274 771.773C323.646 720.574 312.595 677.478 306.702 641.013C300.809 604.548 300.072 596.444 300.072 596.444L277.235 523.146L228.247 541.194Z" fill="white"/>
</mask>
<g mask="url(#mask13_46_3802)">
<path fill-rule="evenodd" clip-rule="evenodd" d="M288.904 555.314C288.904 555.314 295.406 601.969 299.089 643.469C302.772 684.968 342.498 810.266 334.327 835.525L368.336 826.737L288.904 555.314Z" fill="#418106"/>
</g>
<path fill-rule="evenodd" clip-rule="evenodd" d="M399.516 877.646C399.516 877.04 399.379 872.531 399.249 868.422C397.358 867.958 395.427 867.486 393.484 867.01L393.95 877.646C393.95 877.646 399.516 878.792 399.516 877.646Z" fill="#092789"/>
<path fill-rule="evenodd" clip-rule="evenodd" d="M385.362 876.175C385.362 875.465 385.173 869.416 385.03 864.915C383.054 864.417 381.113 863.918 379.236 863.422L379.796 876.175C379.796 876.175 385.362 877.322 385.362 876.175Z" fill="#092789"/>
<path fill-rule="evenodd" clip-rule="evenodd" d="M359.662 856.207C359.661 856.206 359.66 856.205 359.659 856.203C356.058 850.801 347.545 826.737 347.545 826.737C347.545 826.737 328.555 826.573 318.242 840.161C318.242 840.161 328.882 852.602 329.374 859.477C329.493 861.139 329.553 863.922 329.578 867.184C336.249 868.164 349.935 868.344 359.662 856.207Z" fill="#FDB2D0"/>
<path fill-rule="evenodd" clip-rule="evenodd" d="M422.522 875.357C420.431 873.724 410.571 871.204 399.248 868.422C399.378 872.531 399.515 877.039 399.515 877.646C399.515 878.792 393.949 877.646 393.949 877.646L393.483 867.01C390.659 866.318 387.811 865.617 385.029 864.915C385.172 869.416 385.361 875.465 385.361 876.175C385.361 877.321 379.795 876.175 379.795 876.175L379.235 863.422C369.178 860.767 360.997 858.198 359.662 856.207C349.934 868.344 336.249 868.164 329.578 867.185C329.656 877.417 329.373 892.382 329.373 892.382L425.141 893.201C425.141 893.201 427.76 879.449 422.522 875.357Z" fill="#FCAA23"/>
<path fill-rule="evenodd" clip-rule="evenodd" d="M310.262 842.002C310.262 842.002 322.479 826.839 354.155 821.436L355.506 833.837L318.243 849.614L310.262 842.002Z" fill="#418106"/>
<path fill-rule="evenodd" clip-rule="evenodd" d="M226.773 545.246L222.967 531.495C222.967 531.495 263.116 510.622 309.404 514.305L310.754 526.338C310.754 526.338 259.555 529.653 226.773 545.246Z" fill="#418106"/>
<path fill-rule="evenodd" clip-rule="evenodd" d="M352.352 453.507C352.352 453.507 355.432 456.587 356.971 455.707C358.511 454.827 407.343 415.234 414.822 408.634C422.301 402.035 416.656 400.056 433.519 391.477C450.383 382.898 465.634 376.299 472.82 387.591C480.005 398.882 429.266 417.36 429.266 417.36C429.266 417.36 395.979 454.607 381.901 467.072C367.823 479.537 355.798 488.042 347.88 485.256C339.961 482.47 338.787 477.337 338.787 477.337L352.352 453.507Z" fill="#FDB2D0"/>
<mask id="mask14_46_3802" style="mask-type:alpha" maskUnits="userSpaceOnUse" x="338" y="381" width="136" height="105">
<path fill-rule="evenodd" clip-rule="evenodd" d="M433.518 391.477C416.654 400.056 422.3 402.035 414.821 408.634C407.343 415.233 358.511 454.827 356.971 455.707C355.431 456.587 352.351 453.507 352.351 453.507L338.787 477.337C338.787 477.337 339.96 482.469 347.878 485.256C355.797 488.042 367.822 479.536 381.9 467.072C395.978 454.607 429.266 417.36 429.266 417.36C429.266 417.36 480.005 398.883 472.819 387.591C470.091 383.304 466.2 381.596 461.5 381.596C453.82 381.596 443.979 386.156 433.518 391.477Z" fill="white"/>
</mask>
<g mask="url(#mask14_46_3802)">
<path fill-rule="evenodd" clip-rule="evenodd" d="M358.626 449.328C358.626 449.328 352.131 464.286 364.669 462.746C377.207 461.206 429.266 417.36 429.266 417.36L477.769 388.324L368.629 491.268H337.393L336.734 478.363L355.871 448.178L358.626 449.328Z" fill="#F476AF"/>
</g>
<path fill-rule="evenodd" clip-rule="evenodd" d="M246.048 372.987C246.048 372.987 251.204 376.24 255.686 372.312L258.203 380.354L255.808 389.316C255.808 389.316 260.781 408.634 281.408 416.983C302.035 425.332 328.985 419.786 343.473 416.983C357.961 414.179 388.471 414.363 408.607 438.919C428.742 463.475 412.536 481.974 412.536 481.974L392.564 495.07L382.086 467.568C382.086 467.568 386.67 444.812 365.88 443.175C345.089 441.539 314.713 448.905 287.501 441.702C260.29 434.499 250.689 411.1 248.381 390.974C248.381 390.974 244.575 387.229 245.188 383.669C245.802 380.108 243.531 379.187 243.531 379.187L246.048 372.987Z" fill="#FCAA23"/>
<mask id="mask15_46_3802" style="mask-type:alpha" maskUnits="userSpaceOnUse" x="243" y="372" width="176" height="124">
<path fill-rule="evenodd" clip-rule="evenodd" d="M246.048 372.987L243.531 379.187C243.531 379.187 245.802 380.108 245.188 383.669C244.574 387.229 248.381 390.974 248.381 390.974C250.689 411.1 260.29 434.499 287.501 441.702C304.319 446.154 322.346 445.04 338.572 443.927C348.599 443.239 357.939 442.55 365.88 443.175C386.67 444.812 382.087 467.568 382.087 467.568L392.564 495.07L412.536 481.974C412.536 481.974 428.742 463.475 408.607 438.919C388.471 414.363 357.96 414.179 343.473 416.983C328.985 419.786 302.035 425.332 281.408 416.983C260.781 408.634 255.809 389.316 255.809 389.316L258.203 380.354L255.686 372.312C251.204 376.24 246.048 372.987 246.048 372.987Z" fill="white"/>
</mask>
<g mask="url(#mask15_46_3802)">
<path fill-rule="evenodd" clip-rule="evenodd" d="M241.628 379.74C241.628 379.74 245.26 375.443 249.521 387.107C253.783 398.771 252.614 423.923 281.969 433.26C311.324 442.597 362.565 424.063 376.93 443.707C391.295 463.352 381.473 474.893 381.473 474.893L335.229 460.651L259.126 453.561C259.126 453.561 243.469 408.593 242.242 406.015C241.014 403.436 241.628 379.74 241.628 379.74Z" fill="#F2960F"/>
</g>
<path fill-rule="evenodd" clip-rule="evenodd" d="M236.534 348.124C236.534 348.124 243.041 357.947 245.496 362.98C247.952 368.014 246.417 383.914 243.286 384.037C240.155 384.16 229.167 360.709 229.781 355.552C230.395 350.396 234.201 346.958 236.534 348.124Z" fill="#6E92EA"/>
<path fill-rule="evenodd" clip-rule="evenodd" d="M256.668 351.132L253.537 366.603C253.537 366.603 254.704 384.773 257.221 382.809C259.737 380.845 262.562 365.743 262.132 361.384C261.702 357.026 259.062 347.51 256.668 351.132Z" fill="#6E92EA"/>
<path fill-rule="evenodd" clip-rule="evenodd" d="M183.482 557.012C164.778 557.012 149.616 541.849 149.616 523.145C149.616 504.441 164.778 489.279 183.482 489.279C202.186 489.279 217.348 504.441 217.348 523.145C217.348 541.849 202.186 557.012 183.482 557.012ZM183.482 457.107C147.01 457.107 117.443 486.673 117.443 523.145C117.443 559.618 147.01 589.184 183.482 589.184C219.955 589.184 249.521 559.618 249.521 523.145C249.521 486.673 219.955 457.107 183.482 457.107Z" fill="#FCAA23"/>
<path fill-rule="evenodd" clip-rule="evenodd" d="M184.203 559C178.188 559 173.313 565.44 173.313 573.384V691.599C170.064 692.986 167.713 697.013 167.713 701.766C167.713 706.52 170.064 710.547 173.313 711.934V728.947C170.064 730.334 167.713 734.361 167.713 739.114C167.713 743.868 170.064 747.895 173.313 749.282V775.1H131V807.977H173.313V833.08H131V865.957H173.313V877.91C173.313 885.854 178.188 892.294 184.203 892.294C190.217 892.294 195.092 885.854 195.092 877.91V749.142C198.179 747.637 200.381 743.715 200.381 739.114C200.381 734.514 198.179 730.592 195.092 729.087V711.794C198.179 710.289 200.381 706.367 200.381 701.766C200.381 697.166 198.179 693.244 195.092 691.74V573.384C195.092 565.44 190.217 559 184.203 559Z" fill="#FCAA23"/>
<path fill-rule="evenodd" clip-rule="evenodd" d="M160.128 416.573L164.146 420.547C164.146 420.547 199.205 447.052 214.703 454.205C221.526 457.318 230.644 453.719 246.186 464.493C261.729 475.267 260.95 484.981 255.82 489.573C250.69 494.165 240.623 481.272 232.675 477.739C224.727 474.207 218.373 475.797 209.628 468.025C209.628 468.025 167.944 453.575 148.206 444.259C128.66 435.032 115.576 424.256 115.576 424.256L160.128 416.573Z" fill="#FDB2D0"/>
<mask id="mask16_46_3802" style="mask-type:alpha" maskUnits="userSpaceOnUse" x="115" y="416" width="145" height="75">
<path fill-rule="evenodd" clip-rule="evenodd" d="M115.576 424.256C115.576 424.256 128.66 435.032 148.206 444.258C167.944 453.575 209.628 468.025 209.628 468.025C218.373 475.797 224.727 474.207 232.675 477.739C240.623 481.272 250.69 494.165 255.82 489.573C260.95 484.981 261.729 475.267 246.186 464.493C230.644 453.719 221.525 457.318 214.704 454.205C199.205 447.052 164.146 420.547 164.146 420.547L160.128 416.574L115.576 424.256Z" fill="white"/>
</mask>
<g mask="url(#mask16_46_3802)">
<path fill-rule="evenodd" clip-rule="evenodd" d="M141.318 425.168C141.318 425.168 130.637 428.933 133.584 431.389C136.53 433.844 208.927 467.781 208.927 467.781C208.927 467.781 224.604 471.169 232.134 474.771C239.664 478.372 254.398 491.96 254.398 491.96L222.966 491.141C222.966 491.141 148.153 459.546 147.662 459.055C147.171 458.564 117.676 437.61 117.444 436.3C117.213 434.99 115.331 427.515 116.19 426.832C117.049 426.15 125.562 422.876 125.562 422.876L141.318 425.168Z" fill="#F476AF"/>
</g>
<path fill-rule="evenodd" clip-rule="evenodd" d="M111.892 417.064C111.168 420.505 113.693 425.577 118.522 428.606C123.352 431.634 165.67 424.759 166.898 422.303C168.125 419.847 166.406 413.463 159.121 412.481C151.837 411.498 112.874 412.399 111.892 417.064Z" fill="#6E92EA"/>
<path fill-rule="evenodd" clip-rule="evenodd" d="M960.376 201.71H591.057C577.496 201.71 566.502 190.716 566.502 177.155V151.126C566.502 137.564 577.496 126.57 591.057 126.57H960.376C973.938 126.57 984.931 137.564 984.931 151.126V177.155C984.931 190.716 973.938 201.71 960.376 201.71Z" fill="#F8FAFF" fill-opacity="0.5"/>
<path fill-rule="evenodd" clip-rule="evenodd" d="M951.29 194.344H581.971C568.41 194.344 557.416 183.35 557.416 169.788V143.759C557.416 130.197 568.41 119.203 581.971 119.203H951.29C964.852 119.203 975.846 130.197 975.846 143.759V169.788C975.846 183.35 964.852 194.344 951.29 194.344Z" fill="#3630EA" fill-opacity="0.5"/>
<path fill-rule="evenodd" clip-rule="evenodd" d="M587.804 127.532C576.453 127.532 567.219 136.766 567.219 148.117V165.43C567.219 176.781 576.453 186.015 587.804 186.015H945.46C956.811 186.015 966.045 176.781 966.045 165.43V148.117C966.045 136.766 956.811 127.532 945.46 127.532H587.804ZM945.46 187.939H587.804C575.393 187.939 565.295 177.841 565.295 165.43V148.117C565.295 135.706 575.393 125.608 587.804 125.608H945.46C957.871 125.608 967.969 135.706 967.969 148.117V165.43C967.969 177.841 957.871 187.939 945.46 187.939Z" fill="white"/>
<path fill-rule="evenodd" clip-rule="evenodd" d="M944.52 151.808C944.52 161.572 936.605 169.488 926.84 169.488C917.076 169.488 909.16 161.572 909.16 151.808C909.16 142.043 917.076 134.127 926.84 134.127C936.605 134.127 944.52 142.043 944.52 151.808Z" fill="white"/>
<path fill-rule="evenodd" clip-rule="evenodd" d="M952.054 181.968L947.435 185.219L927.574 157.008L932.192 153.757L952.054 181.968Z" fill="white"/>
<path fill-rule="evenodd" clip-rule="evenodd" d="M938.671 151.808C938.671 158.341 933.374 163.637 926.841 163.637C920.308 163.637 915.012 158.341 915.012 151.808C915.012 145.275 920.308 139.979 926.841 139.979C933.374 139.979 938.671 145.275 938.671 151.808Z" fill="#3630EA"/>
<path fill-rule="evenodd" clip-rule="evenodd" d="M748.337 275.746H577.429C569.427 275.746 562.941 269.259 562.941 261.258V239.158C562.941 231.156 569.427 224.67 577.429 224.67H748.337C756.338 224.67 762.824 231.156 762.824 239.158V261.258C762.824 269.259 756.338 275.746 748.337 275.746Z" fill="#F8FAFF"/>
<path fill-rule="evenodd" clip-rule="evenodd" d="M742.812 270.958H571.904C563.902 270.958 557.416 264.471 557.416 256.47V234.37C557.416 226.368 563.902 219.882 571.904 219.882H742.812C750.813 219.882 757.3 226.368 757.3 234.37V256.47C757.3 264.471 750.813 270.958 742.812 270.958Z" fill="#405FE2" fill-opacity="0.5"/>
<path fill-rule="evenodd" clip-rule="evenodd" d="M748.337 490.246H577.429C569.427 490.246 562.941 483.759 562.941 475.758V453.658C562.941 445.656 569.427 439.17 577.429 439.17H748.337C756.338 439.17 762.824 445.656 762.824 453.658V475.758C762.824 483.759 756.338 490.246 748.337 490.246Z" fill="#F8FAFF" fill-opacity="0.5"/>
<path fill-rule="evenodd" clip-rule="evenodd" d="M742.812 484.767H571.904C563.902 484.767 557.416 478.28 557.416 470.279V448.179C557.416 440.177 563.902 433.691 571.904 433.691H742.812C750.813 433.691 757.3 440.177 757.3 448.179V470.279C757.3 478.28 750.813 484.767 742.812 484.767Z" fill="#405FE2" fill-opacity="0.5"/>
<path fill-rule="evenodd" clip-rule="evenodd" d="M680.341 574.221H574.581C568.152 574.221 562.941 569.009 562.941 562.581V534.786C562.941 528.357 568.152 523.146 574.581 523.146H680.341C686.77 523.146 691.981 528.357 691.981 534.786V562.581C691.981 569.009 686.77 574.221 680.341 574.221Z" fill="#F8FAFF" fill-opacity="0.5"/>
<path fill-rule="evenodd" clip-rule="evenodd" d="M825.036 574.221H719.277C712.849 574.221 707.637 569.009 707.637 562.581V534.786C707.637 528.357 712.849 523.146 719.277 523.146H825.036C831.466 523.146 836.677 528.357 836.677 534.786V562.581C836.677 569.009 831.466 574.221 825.036 574.221Z" fill="#F8FAFF" fill-opacity="0.5"/>
<path fill-rule="evenodd" clip-rule="evenodd" d="M969.73 574.221H863.971C857.542 574.221 852.33 569.009 852.33 562.581V534.786C852.33 528.357 857.542 523.146 863.971 523.146H969.73C976.159 523.146 981.371 528.357 981.371 534.786V562.581C981.371 569.009 976.159 574.221 969.73 574.221Z" fill="#F8FAFF" fill-opacity="0.5"/>
<path fill-rule="evenodd" clip-rule="evenodd" d="M674.815 570.661H569.056C562.628 570.661 557.416 565.449 557.416 559.02V531.226C557.416 524.796 562.628 519.585 569.056 519.585H674.815C681.245 519.585 686.456 524.796 686.456 531.226V559.02C686.456 565.449 681.245 570.661 674.815 570.661Z" fill="#405FE2" fill-opacity="0.5"/>
<path fill-rule="evenodd" clip-rule="evenodd" d="M969.707 628.244H563.555C560.164 628.244 557.416 625.495 557.416 622.105C557.416 618.715 560.164 615.966 563.555 615.966H969.707C973.097 615.966 975.846 618.715 975.846 622.105C975.846 625.495 973.097 628.244 969.707 628.244Z" fill="#405FE2" fill-opacity="0.5"/>
<path fill-rule="evenodd" clip-rule="evenodd" d="M972.285 699.425H566.133C562.742 699.425 559.994 696.677 559.994 693.286C559.994 689.896 562.742 687.147 566.133 687.147H972.285C975.676 687.147 978.424 689.896 978.424 693.286C978.424 696.677 975.676 699.425 972.285 699.425Z" fill="#405FE2" fill-opacity="0.5"/>
<path fill-rule="evenodd" clip-rule="evenodd" d="M969.707 771.568H563.555C560.164 771.568 557.416 768.819 557.416 765.429C557.416 762.038 560.164 759.29 563.555 759.29H969.707C973.097 759.29 975.846 762.038 975.846 765.429C975.846 768.819 973.097 771.568 969.707 771.568Z" fill="#405FE2" fill-opacity="0.5"/>
<path fill-rule="evenodd" clip-rule="evenodd" d="M931.609 839.649L525.536 831.645C522.146 831.578 519.452 828.776 519.519 825.386C519.586 821.996 522.388 819.303 525.777 819.37L931.851 827.373C935.241 827.44 937.935 830.243 937.868 833.632C937.801 837.022 934.999 839.716 931.609 839.649Z" fill="#405FE2" fill-opacity="0.5"/>
<path fill-rule="evenodd" clip-rule="evenodd" d="M819.51 570.661H713.75C707.321 570.661 702.109 565.449 702.109 559.02V531.226C702.109 524.796 707.321 519.585 713.75 519.585H819.51C825.939 519.585 831.15 524.796 831.15 531.226V559.02C831.15 565.449 825.939 570.661 819.51 570.661Z" fill="#405FE2" fill-opacity="0.5"/>
<path fill-rule="evenodd" clip-rule="evenodd" d="M964.205 570.661H858.446C852.017 570.661 846.805 565.449 846.805 559.02V531.226C846.805 524.796 852.017 519.585 858.446 519.585H964.205C970.634 519.585 975.846 524.796 975.846 531.226V559.02C975.846 565.449 970.634 570.661 964.205 570.661Z" fill="#405FE2" fill-opacity="0.5"/>
<path fill-rule="evenodd" clip-rule="evenodd" d="M746.866 410.289H532.355V309.446H746.866C759.099 309.446 769.016 319.364 769.016 331.597V388.138C769.016 400.371 759.099 410.289 746.866 410.289Z" fill="#F8FAFF"/>
<path fill-rule="evenodd" clip-rule="evenodd" d="M733.398 403.098H505.683C492.484 403.098 481.783 392.398 481.783 379.198V326.156C481.783 312.957 492.484 302.256 505.683 302.256H733.398C746.598 302.256 757.299 312.957 757.299 326.156V379.198C757.299 392.398 746.598 403.098 733.398 403.098Z" fill="#FFB624"/>
<path fill-rule="evenodd" clip-rule="evenodd" d="M727.953 395.908H511.133C499.264 395.908 489.643 386.287 489.643 374.418V330.936C489.643 319.068 499.264 309.446 511.133 309.446H727.953C739.821 309.446 749.443 319.068 749.443 330.936V374.418C749.443 386.287 739.821 395.908 727.953 395.908Z" stroke="white" stroke-width="4"/>
<path fill-rule="evenodd" clip-rule="evenodd" d="M952.221 492.31H826.912C809.167 492.31 794.781 477.924 794.781 460.179V259.556C794.781 241.81 809.167 227.425 826.912 227.425H952.221C969.966 227.425 984.352 241.81 984.352 259.556V460.179C984.352 477.924 969.966 492.31 952.221 492.31Z" fill="#F8FAFF" fill-opacity="0.5"/>
<path fill-rule="evenodd" clip-rule="evenodd" d="M943.715 484.767H818.406C800.661 484.767 786.275 470.381 786.275 452.636V252.013C786.275 234.267 800.661 219.882 818.406 219.882H943.715C961.46 219.882 975.846 234.267 975.846 252.013V452.636C975.846 470.381 961.46 484.767 943.715 484.767Z" fill="#FFB624"/>
<path fill-rule="evenodd" clip-rule="evenodd" d="M935.245 473.962H826.876C810.963 473.962 798.062 461.061 798.062 445.148V259.5C798.062 243.587 810.963 230.686 826.876 230.686H935.245C951.158 230.686 964.06 243.587 964.06 259.5V445.148C964.06 461.061 951.158 473.962 935.245 473.962Z" stroke="white" stroke-width="4"/>
<path fill-rule="evenodd" clip-rule="evenodd" d="M1268.05 652.049C1268.05 740.143 1196.64 811.556 1108.55 811.556C1020.45 811.556 949.039 740.143 949.039 652.049C949.039 563.955 1020.45 492.542 1108.55 492.542C1196.64 492.542 1268.05 563.955 1268.05 652.049Z" fill="#418106"/>
<path fill-rule="evenodd" clip-rule="evenodd" d="M1234.25 652.049C1234.25 721.474 1177.97 777.754 1108.55 777.754C1039.12 777.754 982.844 721.474 982.844 652.049C982.844 582.625 1039.12 526.344 1108.55 526.344C1177.97 526.344 1234.25 582.625 1234.25 652.049Z" fill="#EBF1FF"/>
<path fill-rule="evenodd" clip-rule="evenodd" d="M1192.53 652.049C1192.53 698.429 1154.93 736.028 1108.55 736.028C1062.17 736.028 1024.57 698.429 1024.57 652.049C1024.57 605.669 1062.17 568.07 1108.55 568.07C1154.93 568.07 1192.53 605.669 1192.53 652.049Z" fill="#418106"/>
<path fill-rule="evenodd" clip-rule="evenodd" d="M1163.03 652.049C1163.03 682.137 1138.64 706.529 1108.55 706.529C1078.46 706.529 1054.07 682.137 1054.07 652.049C1054.07 621.961 1078.46 597.569 1108.55 597.569C1138.64 597.569 1163.03 621.961 1163.03 652.049Z" fill="#EBF1FF"/>
<path fill-rule="evenodd" clip-rule="evenodd" d="M1134.43 652.049C1134.43 666.342 1122.84 677.93 1108.55 677.93C1094.25 677.93 1082.67 666.342 1082.67 652.049C1082.67 637.756 1094.25 626.169 1108.55 626.169C1122.84 626.169 1134.43 637.756 1134.43 652.049Z" fill="#418106"/>
<path fill-rule="evenodd" clip-rule="evenodd" d="M1158.12 486.183L1146.01 471.053C1145.64 470.582 1145.52 469.955 1145.7 469.379L1163.16 413.546C1163.63 412.013 1165.72 411.813 1166.48 413.227L1175.74 430.426C1176.23 431.325 1177.36 431.647 1178.24 431.14L1197.05 420.365C1198.5 419.537 1200.2 420.934 1199.67 422.515L1180.09 481.035C1179.89 481.626 1179.41 482.075 1178.8 482.222L1159.96 486.812C1159.28 486.979 1158.56 486.733 1158.12 486.183Z" fill="#FFBF73"/>
<path fill-rule="evenodd" clip-rule="evenodd" d="M1113.82 648.245L1107.38 646.273L1173.76 429.629L1180.2 431.602L1113.82 648.245Z" fill="#FF9E1F"/>
<path fill-rule="evenodd" clip-rule="evenodd" d="M1103.73 641.385C1101 641.032 1098.75 643.495 1099.36 646.176C1100.97 653.327 1103.85 664.857 1106.37 664.682C1108.8 664.514 1116.71 655.406 1121.68 649.41C1123.53 647.175 1122.19 643.78 1119.31 643.406L1103.73 641.385Z" fill="#FFBF73"/>
<path fill-rule="evenodd" clip-rule="evenodd" d="M1018.34 850.145C1023.73 884.594 1059.95 889.066 1059.95 889.066L1352.21 635.137C1352.21 635.137 1348.61 632.434 1345.03 628.382C1343.69 626.87 1340.85 626.899 1337.93 626.93C1333.03 626.98 1327.92 627.03 1329.33 619.791C1331.58 608.237 1327.48 605.688 1316.38 602.999C1305.29 600.311 1310.51 589.968 1310.51 589.968" fill="#FDA118"/>
<mask id="mask17_46_3802" style="mask-type:alpha" maskUnits="userSpaceOnUse" x="1018" y="589" width="335" height="301">
<path fill-rule="evenodd" clip-rule="evenodd" d="M1018.34 850.145C1023.73 884.594 1059.95 889.066 1059.95 889.066L1352.21 635.137C1352.21 635.137 1348.61 632.434 1345.03 628.382C1343.69 626.87 1340.85 626.899 1337.93 626.93C1333.03 626.98 1327.92 627.03 1329.33 619.791C1331.58 608.237 1327.48 605.688 1316.38 602.999C1305.29 600.311 1310.51 589.968 1310.51 589.968" fill="white"/>
</mask>
<g mask="url(#mask17_46_3802)">
<path fill-rule="evenodd" clip-rule="evenodd" d="M1034.73 892.295C1034.39 892.218 1034.07 892.037 1033.82 891.754C1033.19 891.04 1033.26 889.954 1033.98 889.327L1341.41 618.963C1342.12 618.336 1343.21 618.406 1343.84 619.119C1344.46 619.832 1344.39 620.918 1343.68 621.545L1036.25 891.909C1035.82 892.288 1035.25 892.412 1034.73 892.295Z" fill="white"/>
<path fill-rule="evenodd" clip-rule="evenodd" d="M1013.98 875.769C1013.64 875.692 1013.32 875.51 1013.07 875.227C1012.44 874.513 1012.51 873.426 1013.23 872.8L1322.76 601.066C1323.47 600.439 1324.56 600.509 1325.19 601.224C1325.81 601.937 1325.74 603.024 1325.03 603.65L1015.5 875.385C1015.07 875.762 1014.5 875.886 1013.98 875.769Z" fill="white"/>
</g>
<path fill-rule="evenodd" clip-rule="evenodd" d="M1363.08 570.613C1364.71 574.723 1368.64 581.658 1377.14 584.454L1388.67 561.191L1363.08 570.613Z" fill="#0627B5"/>
<path fill-rule="evenodd" clip-rule="evenodd" d="M1363.08 570.613L1310.51 589.968C1310.51 589.968 1305.29 600.311 1316.38 602.999C1327.48 605.688 1331.58 608.237 1329.33 619.79C1327.08 631.344 1341.44 624.331 1345.03 628.382C1348.61 632.434 1352.36 634.465 1352.36 634.465L1377.14 584.454C1368.64 581.658 1364.71 574.723 1363.08 570.613Z" fill="#FFE1AB"/>
<path fill-rule="evenodd" clip-rule="evenodd" d="M0 897.621H1499.87V893.201H0V897.621Z" fill="#07076B"/>
<path fill-rule="evenodd" clip-rule="evenodd" d="M348.478 447.611C345.479 449.53 336.659 465.562 333.59 471.578C330.52 477.595 326.558 481.523 331.118 484.961C335.677 488.399 340.343 486.68 343.78 480.05C347.218 473.42 357.163 455.126 357.409 451.811C357.655 448.496 351.547 445.647 348.478 447.611Z" fill="#6E92EA"/>
<path fill-rule="evenodd" clip-rule="evenodd" d="M508.283 335.628H513.936V352.267H514.075C514.816 350.871 515.604 349.583 516.345 348.349L524.501 335.628H531.544L520.794 351.033L532.239 371.805H525.566L516.716 355.219L513.936 359.084V371.805H508.283V335.628Z" fill="white"/>
<path fill-rule="evenodd" clip-rule="evenodd" d="M552.719 355.756H540.949V366.384H554.109V371.805H535.25V335.628H553.414V341.049H540.949V350.388H552.719V355.756Z" fill="white"/>
<path fill-rule="evenodd" clip-rule="evenodd" d="M566.203 371.805V356.722L556.332 335.628H562.82L566.574 344.914C567.639 347.597 568.427 349.637 569.261 352.106H569.354C570.141 349.798 571.022 347.544 572.088 344.914L575.841 335.628H582.282L571.902 356.561V371.805H566.203Z" fill="white"/>
<path fill-rule="evenodd" clip-rule="evenodd" d="M591.875 371.805L584.229 335.628H590.299L593.264 352.053C594.052 356.454 594.793 361.07 595.303 364.666H595.396C595.906 360.855 596.787 356.561 597.667 351.999L601.049 335.628H607.026L610.131 352.267C610.919 356.561 611.568 360.587 612.031 364.505H612.123C612.68 360.533 613.421 356.401 614.255 351.999L617.498 335.628H623.29L614.904 371.805H608.787L605.544 354.79C604.757 350.657 604.2 347.222 603.829 343.303H603.737C603.181 347.168 602.578 350.657 601.651 354.79L598.037 371.805H591.875Z" fill="white"/>
<path fill-rule="evenodd" clip-rule="evenodd" d="M631.26 353.877C631.26 361.231 634.457 367.082 639.925 367.082C645.439 367.082 648.543 361.177 648.543 353.609C648.543 346.792 645.625 340.351 639.925 340.351C634.272 340.351 631.26 346.417 631.26 353.877ZM654.567 353.341C654.567 365.471 648.219 372.395 639.6 372.395C630.796 372.395 625.236 364.612 625.236 353.985C625.236 342.874 631.26 335.037 640.064 335.037C649.192 335.037 654.567 343.035 654.567 353.341Z" fill="white"/>
<path fill-rule="evenodd" clip-rule="evenodd" d="M665.131 352.106H668.514C672.36 352.106 674.769 349.744 674.769 346.148C674.769 342.176 672.361 340.351 668.654 340.351C666.847 340.351 665.688 340.512 665.131 340.673V352.106ZM659.479 336.111C661.611 335.681 664.807 335.359 668.097 335.359C672.592 335.359 675.65 336.218 677.735 338.258C679.45 339.922 680.423 342.445 680.423 345.504C680.423 350.174 677.689 353.341 674.769 354.575V354.736C676.994 355.702 678.338 358.225 679.126 361.714C680.098 366.223 680.933 370.41 681.581 371.805H675.698C675.234 370.731 674.492 367.779 673.612 363.27C672.732 358.547 671.249 357.044 668.005 356.937H665.131V371.805H659.479V336.111Z" fill="white"/>
<path fill-rule="evenodd" clip-rule="evenodd" d="M691.543 366.759C692.331 366.92 693.536 366.92 694.694 366.92C702.108 366.974 706.51 362.251 706.51 353.072C706.557 345.075 702.572 340.512 695.436 340.512C693.629 340.512 692.331 340.673 691.543 340.888V366.759ZM685.844 336.111C688.346 335.628 691.543 335.36 694.926 335.36C700.765 335.36 704.796 336.755 707.669 339.546C710.681 342.391 712.534 346.685 712.534 352.857C712.534 359.299 710.634 364.13 707.669 367.243C704.564 370.517 699.606 372.18 693.536 372.18C690.2 372.18 687.697 371.966 685.844 371.697V336.111Z" fill="white"/>
<path fill-rule="evenodd" clip-rule="evenodd" d="M717.353 364.612C719.207 365.847 721.987 366.92 724.906 366.92C728.566 366.92 730.605 364.935 730.605 361.982C730.605 359.245 729.03 357.635 725.045 355.971C719.902 353.824 716.612 350.657 716.612 345.45C716.612 339.546 720.875 335.037 727.64 335.037C731.023 335.037 733.525 335.896 735.147 336.862L733.757 342.176C732.644 341.479 730.466 340.459 727.547 340.459C723.933 340.459 722.357 342.713 722.357 344.806C722.357 347.597 724.165 348.885 728.335 350.764C733.757 353.126 736.398 356.293 736.398 361.499C736.398 367.296 732.598 372.341 724.535 372.341C721.245 372.341 717.816 371.268 716.102 370.087L717.353 364.612Z" fill="white"/>
<path fill-rule="evenodd" clip-rule="evenodd" d="M918.777 304.182C918.777 324.451 902.346 340.882 882.077 340.882C861.808 340.882 845.377 324.451 845.377 304.182C845.377 283.913 861.808 267.483 882.077 267.483C902.346 267.483 918.777 283.913 918.777 304.182Z" fill="white"/>
<path fill-rule="evenodd" clip-rule="evenodd" d="M851.931 335.205C851.931 335.205 861.774 343.986 870.524 346.837C879.274 349.687 889.715 349.117 897.272 345.012C904.828 340.907 912.087 335.205 912.087 335.205C912.087 335.205 919.607 334.642 926.878 340.547C934.149 346.452 938.834 358.469 940.624 373.75C942.414 389.03 944.328 423.585 938.76 430.903C933.191 438.221 927.3 440.057 910.795 440.057H842.783C838.01 440.057 825.283 435.952 823.394 421.697C821.505 407.442 823.095 369.986 826.277 359.837C829.459 349.687 835.823 335.205 851.931 335.205Z" fill="white"/>
<path fill-rule="evenodd" clip-rule="evenodd" d="M376.59 126.194C376.261 126.194 375.927 126.119 375.613 125.96C369.589 122.904 367.108 120.99 367.005 120.91C366.063 120.176 365.894 118.816 366.628 117.873C367.362 116.932 368.718 116.762 369.661 117.493C369.706 117.527 372.014 119.281 377.571 122.1C378.637 122.64 379.062 123.943 378.522 125.009C378.14 125.761 377.379 126.194 376.59 126.194ZM399.16 135.622C398.92 135.622 398.676 135.582 398.437 135.497C395.284 134.379 392.235 133.234 389.373 132.094C388.263 131.652 387.721 130.394 388.163 129.284C388.606 128.173 389.864 127.631 390.974 128.074C393.785 129.193 396.782 130.318 399.884 131.418C401.01 131.818 401.599 133.055 401.2 134.181C400.885 135.068 400.051 135.622 399.16 135.622ZM422.522 142.96C422.328 142.96 422.132 142.934 421.937 142.879C418.771 141.994 415.652 141.083 412.67 140.173C411.526 139.824 410.882 138.615 411.231 137.472C411.58 136.328 412.79 135.686 413.932 136.033C416.884 136.933 419.969 137.834 423.103 138.712C424.254 139.033 424.926 140.228 424.605 141.379C424.337 142.334 423.467 142.96 422.522 142.96ZM446.266 148.975C446.105 148.975 445.942 148.957 445.779 148.919C442.599 148.188 439.443 147.436 436.398 146.682C435.238 146.396 434.53 145.222 434.817 144.062C435.105 142.902 436.28 142.194 437.438 142.481C440.459 143.229 443.591 143.976 446.748 144.701C447.914 144.969 448.64 146.13 448.373 147.295C448.143 148.297 447.251 148.975 446.266 148.975ZM470.243 154.015C470.107 154.015 469.97 154.002 469.832 153.976C466.657 153.366 463.476 152.732 460.379 152.095C459.209 151.854 458.455 150.709 458.696 149.539C458.937 148.368 460.084 147.614 461.252 147.855C464.331 148.489 467.493 149.119 470.649 149.726C471.823 149.951 472.592 151.086 472.366 152.26C472.167 153.295 471.26 154.015 470.243 154.015ZM494.374 158.286C494.258 158.286 494.142 158.277 494.024 158.258C490.837 157.74 487.64 157.203 484.522 156.661C483.344 156.457 482.556 155.336 482.76 154.159C482.965 152.982 484.082 152.191 485.262 152.397C488.366 152.936 491.548 153.471 494.718 153.986C495.898 154.178 496.699 155.29 496.507 156.469C496.334 157.531 495.416 158.286 494.374 158.286ZM518.609 161.924C518.511 161.924 518.411 161.917 518.31 161.903C515.103 161.46 511.895 161.002 508.776 160.543C507.593 160.368 506.776 159.268 506.95 158.086C507.124 156.904 508.221 156.085 509.406 156.261C512.513 156.718 515.708 157.174 518.903 157.616C520.087 157.779 520.914 158.872 520.75 160.055C520.601 161.139 519.673 161.924 518.609 161.924ZM542.924 165.023C542.839 165.023 542.755 165.018 542.669 165.008C539.479 164.634 536.262 164.244 533.109 163.849C531.923 163.701 531.082 162.619 531.231 161.433C531.379 160.247 532.46 159.407 533.647 159.555C536.788 159.948 539.994 160.336 543.173 160.709C544.36 160.849 545.21 161.924 545.07 163.111C544.942 164.212 544.006 165.023 542.924 165.023ZM567.293 167.658C567.222 167.658 567.15 167.654 567.077 167.647C563.835 167.325 560.643 166.997 557.5 166.663C556.311 166.538 555.45 165.472 555.577 164.284C555.703 163.095 556.771 162.235 557.956 162.36C561.09 162.692 564.273 163.019 567.505 163.34C568.694 163.459 569.562 164.518 569.444 165.708C569.334 166.824 568.392 167.658 567.293 167.658ZM591.707 169.885C591.646 169.885 591.586 169.882 591.525 169.877C588.284 169.606 585.088 169.33 581.934 169.048C580.744 168.942 579.864 167.89 579.97 166.7C580.076 165.51 581.129 164.63 582.318 164.737C585.463 165.019 588.652 165.294 591.884 165.564C593.076 165.663 593.96 166.71 593.861 167.9C593.766 169.03 592.82 169.885 591.707 169.885ZM998.661 171.091C997.517 171.091 996.562 170.195 996.502 169.039C996.44 167.846 997.357 166.828 998.55 166.766C1001.74 166.6 1004.94 166.43 1008.15 166.257C1009.36 166.196 1010.36 167.108 1010.43 168.301C1010.49 169.495 1009.58 170.514 1008.38 170.579C1005.17 170.752 1001.96 170.922 998.776 171.088C998.737 171.09 998.699 171.091 998.661 171.091ZM616.15 171.748C616.1 171.748 616.05 171.746 615.999 171.743C612.758 171.518 609.558 171.288 606.397 171.052C605.205 170.963 604.311 169.924 604.4 168.733C604.489 167.541 605.526 166.644 606.719 166.736C609.872 166.971 613.065 167.201 616.297 167.425C617.49 167.508 618.39 168.541 618.307 169.733C618.228 170.875 617.277 171.748 616.15 171.748ZM974.166 172.308C973.018 172.308 972.061 171.405 972.007 170.246C971.95 169.052 972.873 168.039 974.066 167.982C977.251 167.832 980.452 167.678 983.668 167.52C984.872 167.468 985.877 168.381 985.936 169.575C985.994 170.769 985.074 171.784 983.881 171.843C980.661 172 977.458 172.155 974.27 172.306C974.236 172.307 974.201 172.308 974.166 172.308ZM640.619 173.284C640.577 173.284 640.536 173.283 640.494 173.281C637.255 173.098 634.052 172.909 630.885 172.715C629.692 172.641 628.785 171.615 628.858 170.422C628.931 169.229 629.97 168.326 631.151 168.395C634.31 168.589 637.507 168.777 640.738 168.96C641.932 169.027 642.845 170.05 642.777 171.243C642.712 172.394 641.758 173.284 640.619 173.284ZM949.667 173.403C948.513 173.403 947.555 172.493 947.506 171.33C947.456 170.136 948.383 169.127 949.577 169.077C952.761 168.943 955.963 168.805 959.181 168.663C960.37 168.614 961.385 169.535 961.439 170.729C961.491 171.923 960.566 172.933 959.372 172.986C956.15 173.129 952.946 173.267 949.759 173.401C949.728 173.402 949.697 173.403 949.667 173.403ZM925.161 174.369C924.002 174.369 923.043 173.452 923 172.284C922.956 171.09 923.889 170.086 925.083 170.042C928.268 169.926 931.469 169.804 934.689 169.679C935.893 169.634 936.889 170.564 936.935 171.758C936.982 172.952 936.051 173.958 934.857 174.004C931.634 174.13 928.429 174.251 925.242 174.368C925.215 174.369 925.188 174.369 925.161 174.369ZM665.104 174.525C665.071 174.525 665.038 174.524 665.005 174.522C661.766 174.377 658.562 174.226 655.392 174.069C654.197 174.01 653.277 172.995 653.336 171.801C653.395 170.607 654.414 169.691 655.604 169.746C658.769 169.903 661.967 170.054 665.199 170.199C666.393 170.253 667.317 171.264 667.264 172.458C667.211 173.619 666.254 174.525 665.104 174.525ZM900.651 175.2C899.487 175.2 898.525 174.275 898.489 173.104C898.452 171.909 899.39 170.911 900.585 170.874C903.769 170.774 906.971 170.672 910.193 170.564C911.386 170.521 912.387 171.461 912.427 172.655C912.467 173.849 911.531 174.85 910.336 174.89C907.112 174.997 903.907 175.1 900.719 175.199C900.696 175.2 900.673 175.2 900.651 175.2ZM689.601 175.495C689.576 175.495 689.551 175.494 689.526 175.494C686.288 175.382 683.083 175.265 679.908 175.144C678.714 175.098 677.783 174.092 677.829 172.898C677.875 171.704 678.881 170.768 680.074 170.819C683.243 170.94 686.444 171.057 689.676 171.168C690.87 171.209 691.804 172.211 691.763 173.405C691.723 174.574 690.762 175.495 689.601 175.495ZM876.137 175.89C874.968 175.89 874.003 174.957 873.973 173.781C873.943 172.586 874.888 171.593 876.083 171.563C879.267 171.483 882.469 171.399 885.692 171.31C886.881 171.279 887.881 172.219 887.914 173.414C887.947 174.608 887.006 175.603 885.811 175.636C882.585 175.725 879.378 175.81 876.192 175.889C876.173 175.89 876.155 175.89 876.137 175.89ZM714.109 176.216C714.091 176.216 714.074 176.216 714.056 176.215C710.82 176.136 707.612 176.051 704.434 175.961C703.239 175.927 702.299 174.931 702.332 173.736C702.367 172.541 703.383 171.589 704.557 171.635C707.73 171.724 710.932 171.809 714.163 171.889C715.357 171.918 716.301 172.91 716.272 174.105C716.243 175.282 715.28 176.216 714.109 176.216ZM851.617 176.43C850.441 176.43 849.476 175.488 849.454 174.307C849.432 173.112 850.382 172.125 851.577 172.103C854.76 172.042 857.965 171.978 861.189 171.909C861.204 171.909 861.218 171.909 861.234 171.909C862.408 171.909 863.372 172.848 863.397 174.027C863.423 175.222 862.476 176.21 861.28 176.236C858.053 176.305 854.845 176.369 851.659 176.43C851.645 176.43 851.631 176.43 851.617 176.43ZM738.622 176.708C738.611 176.708 738.6 176.708 738.588 176.708C735.354 176.657 732.146 176.601 728.966 176.541C727.771 176.518 726.821 175.531 726.844 174.336C726.867 173.141 727.857 172.177 729.049 172.214C732.224 172.275 735.426 172.33 738.655 172.38C739.851 172.399 740.804 173.383 740.785 174.578C740.767 175.761 739.802 176.708 738.622 176.708ZM827.096 176.811C825.913 176.811 824.947 175.86 824.932 174.673C824.918 173.478 825.875 172.498 827.07 172.483C830.253 172.445 833.458 172.401 836.681 172.353C836.692 172.353 836.702 172.353 836.713 172.353C837.893 172.353 838.859 173.301 838.876 174.484C838.894 175.68 837.939 176.663 836.745 176.681C833.516 176.729 830.31 176.772 827.124 176.811C827.115 176.811 827.105 176.811 827.096 176.811ZM763.142 176.987H763.126C759.893 176.963 756.686 176.935 753.504 176.902C752.309 176.889 751.349 175.911 751.361 174.715C751.374 173.528 752.341 172.574 753.525 172.574H753.548C756.726 172.607 759.929 172.636 763.158 172.659C764.352 172.667 765.315 173.644 765.306 174.839C765.298 176.028 764.33 176.987 763.142 176.987ZM802.573 177.024C801.383 177.024 800.415 176.062 800.409 174.871C800.403 173.676 801.367 172.702 802.562 172.696C805.743 172.68 808.947 172.659 812.172 172.633H812.19C813.378 172.633 814.345 173.591 814.354 174.78C814.363 175.975 813.402 176.951 812.207 176.961C808.977 176.987 805.77 177.008 802.585 177.024H802.573ZM785.715 177.067C783.143 177.067 780.585 177.064 778.043 177.058C776.848 177.056 775.881 176.084 775.884 174.889C775.887 173.696 776.855 172.731 778.048 172.731H778.053C780.592 172.737 783.147 172.74 785.715 172.74L787.664 172.739H787.665C788.86 172.739 789.828 173.707 789.829 174.901C789.83 176.096 788.862 177.066 787.666 177.066L785.715 177.067Z" fill="#0F32A3"/>
<path fill-rule="evenodd" clip-rule="evenodd" d="M270.145 5.80579C267.47 10.317 264.264 14.07 260.458 17.3167C258.361 19.1054 256.103 20.6688 253.717 22.0527C252.904 22.5242 252.487 22.6272 252.369 21.4286C251.908 16.7354 252.13 12.0889 252.989 7.45431C253.209 6.26733 253.747 5.81537 254.949 5.63211C259.955 4.86954 264.932 4.81724 270.145 5.80579ZM276.532 7.33294C285.737 10.3972 293.608 15.6458 300.73 22.0942C310.817 31.2279 318.878 41.9883 325.824 53.6313C326.151 54.1795 326.197 54.5771 325.894 55.1868C324.36 58.2687 322.55 61.1684 320.525 63.9497C319.765 64.9925 319.288 65.2464 318.293 64.1333C316.169 61.7554 313.873 59.5323 311.682 57.2134C309.832 55.2563 307.652 54.5987 305.109 55.519C302.598 56.4269 300.533 59.2524 300.48 61.8168C300.497 63.35 301.077 64.7817 302.247 65.9871C304.571 68.3802 306.843 70.8248 309.211 73.1724C310.049 74.0033 309.905 74.3614 308.991 74.9675C306.084 76.8923 303.081 78.6338 299.936 80.1362C299.326 80.4277 298.831 80.5008 298.203 80.0911C285.243 71.6333 273.427 61.9055 264.141 49.3824C259.53 43.1645 255.92 36.4266 253.802 28.9326C253.499 27.8598 253.702 27.3216 254.71 26.7786C262.857 22.3944 269.321 16.2188 274.007 8.23765C274.69 7.07382 275.342 6.93688 276.532 7.33294ZM352.662 58.2231C352.391 58.7945 351.95 58.5897 351.613 58.608C346.357 58.8995 341.099 59.1754 335.969 60.4977C335.364 60.6534 334.984 60.574 334.68 59.9735C332.227 55.1489 329.482 50.4908 326.599 45.9121C326.53 45.8011 326.539 45.6406 326.471 45.3053C336.496 47.1814 345.042 51.7428 352.662 58.2231ZM331.157 63.3783C331.404 63.8439 331.377 64.2926 331.237 64.7769C330.449 67.5006 329.1 69.9409 327.505 72.2641C327.114 72.8339 326.772 72.996 326.3 72.3931C326.27 72.3552 326.232 72.3248 326.199 72.2897C325.111 71.1263 323.432 70.1082 323.1 68.7587C322.767 67.4044 324.672 66.316 325.458 65.0145C326.579 63.1591 327.782 61.3537 329.067 59.3423C329.828 60.8151 330.481 62.1023 331.157 63.3783ZM331.93 84.9245C332.292 85.3006 332.752 85.634 332.719 86.2672C332.589 87.2278 331.874 87.7508 331.119 88.1617C330.35 88.5797 329.867 87.9544 329.399 87.4697C323.932 81.8003 318.468 76.1281 313.004 70.4563C310.691 68.0556 308.374 65.6581 306.066 63.2522C304.872 62.0077 304.9 61.5817 305.954 60.4901C306.971 59.4361 307.726 59.7711 308.611 60.6929C316.37 68.783 324.156 76.848 331.93 84.9245ZM308.524 86.1007C307.087 85.5058 305.663 84.6199 304.244 83.7387C303.864 83.5032 304.236 83.242 304.477 83.1131C307.41 81.546 310.244 79.8216 312.935 77.8657C313.292 77.6058 313.544 77.7112 313.807 77.9843C314.907 79.1305 316.007 80.2768 317.114 81.4166C317.437 81.7492 317.545 82.0427 317.081 82.3477C314.489 84.0509 311.76 85.4391 308.524 86.1007ZM304.786 90.3679C303.242 95.5842 302.685 100.961 302.252 106.355C302.234 106.584 302.153 106.808 302.015 107.409C295.562 99.2633 291.384 90.5197 289.828 80.1905C292.012 81.6267 293.898 82.9266 295.844 84.1316C298.551 85.8088 301.298 87.4214 304.038 89.0468C304.556 89.355 305.016 89.5906 304.786 90.3679ZM249.155 3.56278C248.159 7.5689 247.523 11.6062 247.434 15.7357C247.484 17.3295 247.468 18.9285 247.596 20.5159C248.412 30.6311 252.099 39.7289 257.55 48.1719C264.233 58.5254 272.869 67.065 282.509 74.6229C284.139 75.9006 284.918 77.1482 285.117 79.3186C286.264 91.8388 291.76 102.488 299.776 111.961C300.935 113.331 302.531 113.721 304.095 113.14C305.76 112.522 306.657 111.326 306.764 109.541C306.885 107.515 306.963 105.485 307.159 103.465C307.54 99.5197 308.088 95.5978 309.23 91.7857C309.404 91.2028 309.508 90.5516 310.29 90.3727C313.826 89.5638 317.005 87.9604 319.963 85.9051C320.668 85.4156 321.114 85.513 321.68 86.1267C323.221 87.7963 324.806 89.4249 326.407 91.0375C329.033 93.6845 332.373 93.5907 335.24 90.8215C338.016 88.1397 338.18 84.7991 335.643 82.0986C334.12 80.4784 332.595 78.8574 331.004 77.3051C330.31 76.6276 330.274 76.1321 330.863 75.362C332.844 72.774 334.43 69.9497 335.353 66.8147C335.681 65.7 336.208 65.1722 337.353 64.9171C342.999 63.659 348.715 63.2374 354.48 63.2705C356.436 63.2817 357.836 62.389 358.504 60.7584C359.171 59.1295 358.787 57.4909 357.324 56.1754C347.718 47.5311 336.838 41.5583 323.75 40.2619C323.011 40.1892 322.531 39.8882 322.091 39.2929C320.342 36.9209 318.603 34.5362 316.747 32.248C308.428 21.9904 299.034 12.9628 287.191 6.79514C275.819 0.873 263.881 -1.13925 251.249 1.61282C250.099 1.86315 249.468 2.30513 249.155 3.56278Z" fill="#5A85FF"/>
<path fill-rule="evenodd" clip-rule="evenodd" d="M293.063 35.0508C292.937 41.8414 287.688 46.9466 280.96 46.8241C274.299 46.7023 269.083 41.3116 269.186 34.6556C269.29 27.9509 274.764 22.6388 281.429 22.7738C288.095 22.9091 293.188 28.2839 293.063 35.0508ZM264.656 34.4619C264.465 43.8448 271.576 51.2933 280.888 51.4638C290.116 51.6331 297.691 44.3267 297.848 35.1063C298.004 25.9063 290.645 18.2825 281.463 18.132C272.262 17.9811 264.845 25.1873 264.656 34.4619Z" fill="#5A85FF"/>
<path fill-rule="evenodd" clip-rule="evenodd" d="M340.35 110.62C340.366 109.771 340.572 108.938 341.422 108.464C342.735 107.733 344.144 108.766 344.901 109.321C348.715 112.12 354.111 114.647 356.943 113.581C358.028 113.172 358.729 112.189 359.086 110.575C359.826 107.222 357.575 104.237 355.766 101.838C354.224 99.7914 352.891 98.0235 353.649 96.1925C354.359 94.4733 356.561 93.9531 358.401 93.6924C358.944 93.6149 359.218 93.5055 359.34 93.442C359.176 92.2323 355.867 88.9536 354.25 87.3514C351.585 84.7103 347.129 82.2829 344.565 82.952C343.928 83.1181 343.026 83.5421 342.496 85.2889C341.045 95.2391 335.087 98.1916 328.861 99.8972C327.93 100.152 327.455 100.664 327.317 101.555C326.912 104.187 329.638 109.179 333.895 111.928C334.173 112.108 334.442 112.284 334.702 112.454C337.636 114.372 338.638 114.935 340.171 114.016C340.564 113.78 340.462 112.493 340.401 111.724C340.373 111.373 340.343 110.994 340.35 110.62ZM362.427 109.375C362.416 109.987 362.344 110.616 362.201 111.263C361.455 114.641 359.541 116.012 358.067 116.567C353.133 118.425 346.101 114.046 343.639 112.339C343.702 113.819 343.539 115.718 341.813 116.753C338.492 118.743 335.926 117.066 332.957 115.124C332.701 114.957 332.437 114.785 332.164 114.609C327.105 111.342 323.515 105.267 324.163 101.069C324.494 98.9194 325.864 97.4102 328.018 96.8201C333.084 95.4323 338.132 93.3554 339.353 84.7243L339.369 84.6145L339.4 84.5079C340.299 81.3754 342.268 80.2543 343.761 79.8646C348.098 78.7335 353.747 82.3619 356.487 85.0765C360.136 88.6921 363.282 91.8051 362.386 94.5065C361.961 95.7893 360.77 96.5786 358.849 96.8509C357.46 97.0481 356.881 97.2948 356.662 97.4218C356.839 97.9592 357.682 99.0779 358.314 99.9168C360.119 102.31 362.5 105.469 362.427 109.375Z" fill="#5A85FF"/>
<path fill-rule="evenodd" clip-rule="evenodd" d="M341.928 105.661C337.445 104.303 335.722 101.297 342.109 95.9588C348.497 90.6207 351.364 102.99 351.745 106.243C352.127 109.495 346.236 106.967 341.928 105.661Z" fill="#5A85FF"/>
<path fill-rule="evenodd" clip-rule="evenodd" d="M260.863 296.839C255.407 296.839 250.969 302.639 250.969 309.769C250.969 316.898 255.407 322.699 260.863 322.699C266.319 322.699 270.758 316.898 270.758 309.769C270.758 302.639 266.319 296.839 260.863 296.839ZM260.863 324.394C254.472 324.394 249.273 317.833 249.273 309.769C249.273 301.705 254.472 295.144 260.863 295.144C267.255 295.144 272.454 301.705 272.454 309.769C272.454 317.833 267.255 324.394 260.863 324.394Z" fill="#120974"/>
<path fill-rule="evenodd" clip-rule="evenodd" d="M284.832 294.081C280.795 294.081 277.51 299.215 277.51 305.524C277.51 311.834 280.795 316.967 284.832 316.967C288.87 316.967 292.155 311.834 292.155 305.524C292.155 299.215 288.87 294.081 284.832 294.081ZM284.832 318.663C279.86 318.663 275.814 312.769 275.814 305.524C275.814 298.28 279.86 292.385 284.832 292.385C289.805 292.385 293.851 298.28 293.851 305.524C293.851 312.769 289.805 318.663 284.832 318.663Z" fill="#120974"/>
<path fill-rule="evenodd" clip-rule="evenodd" d="M249.835 311.167L240.439 307.788L241.013 306.193L250.409 309.571L249.835 311.167Z" fill="#120974"/>
<path fill-rule="evenodd" clip-rule="evenodd" d="M271.696 309.27L271.52 307.583L276.726 307.038L276.902 308.724L271.696 309.27Z" fill="#120974"/>
</svg>
